G04 #@! TF.FileFunction,Copper,L1,Top,Signal*
%FSLAX46Y46*%
G04 Gerber Fmt 4.6, Leading zero omitted, Abs format (unit mm)*
G04 Created by KiCad (PCBNEW 4.0.7-e2-6376~58~ubuntu16.04.1) date Tue Sep 19 17:51:42 2017*
%MOMM*%
%LPD*%
G01*
G04 APERTURE LIST*
%ADD10C,0.100000*%
%ADD11C,0.500000*%
%ADD12R,1.500000X0.300000*%
%ADD13C,6.400000*%
%ADD14O,1.700000X1.700000*%
%ADD15R,1.700000X1.700000*%
%ADD16R,1.700000X0.900000*%
%ADD17R,0.900000X1.700000*%
%ADD18R,1.000000X1.600000*%
%ADD19R,1.600000X1.000000*%
%ADD20C,5.000000*%
%ADD21C,0.600000*%
%ADD22C,0.300000*%
%ADD23C,0.200000*%
G04 APERTURE END LIST*
D10*
D11*
X2250000Y20000000D02*
G75*
G03X2250000Y20000000I-250000J0D01*
G01*
X2250000Y10000000D02*
G75*
G03X2250000Y10000000I-250000J0D01*
G01*
X25250000Y15000000D02*
G75*
G03X25250000Y15000000I-250000J0D01*
G01*
D12*
X15310655Y14974719D03*
X12690655Y14974719D03*
X15310655Y14324719D03*
X12690655Y14324719D03*
X15310655Y13674719D03*
X12690655Y13674719D03*
X15310655Y13024719D03*
X12690655Y13024719D03*
D13*
X4000000Y5000000D03*
X23000000Y5000000D03*
X4000000Y25000000D03*
D14*
X17540000Y25000000D03*
X15000000Y25000000D03*
X12460000Y25000000D03*
D15*
X9920000Y25000000D03*
D16*
X6000000Y16550000D03*
X6000000Y19450000D03*
X6000000Y10550000D03*
X6000000Y13450000D03*
X10000000Y4550000D03*
X10000000Y7450000D03*
D17*
X15450000Y20750000D03*
X12550000Y20750000D03*
D16*
X22000000Y16550000D03*
X22000000Y19450000D03*
X22000000Y10550000D03*
X22000000Y13450000D03*
D13*
X23000000Y25000000D03*
D18*
X12500000Y18000000D03*
X15500000Y18000000D03*
D19*
X18000000Y4500000D03*
X18000000Y7500000D03*
D20*
X13998518Y6550061D03*
D21*
X10000000Y6000000D03*
X18000000Y6000000D03*
X20250000Y10250000D03*
X12500000Y12000000D03*
X11250000Y18750000D03*
X10830616Y19919941D03*
X8000000Y13500000D03*
X17000000Y14499992D03*
X10000000Y11750000D03*
X17250000Y13250000D03*
X10800580Y15325796D03*
X21000000Y15250000D03*
D22*
X10000000Y4550000D02*
X10000000Y6000000D01*
X18000000Y4500000D02*
X18000000Y6000000D01*
X22000000Y10550000D02*
X20550000Y10550000D01*
X20550000Y10550000D02*
X20250000Y10250000D01*
X12690655Y13024719D02*
X12690655Y12190655D01*
X12690655Y12190655D02*
X12500000Y12000000D01*
X12500000Y19000000D02*
X11500000Y19000000D01*
X11500000Y19000000D02*
X11250000Y18750000D01*
X18000000Y4500000D02*
X16900000Y4500000D01*
X16900000Y4500000D02*
X16149999Y3749999D01*
X16149999Y3749999D02*
X11950001Y3749999D01*
X11950001Y3749999D02*
X11150000Y4550000D01*
X11150000Y4550000D02*
X10000000Y4550000D01*
X22000000Y10550000D02*
X22000000Y9569998D01*
X18000000Y5569998D02*
X18000000Y5300000D01*
X22000000Y9569998D02*
X18000000Y5569998D01*
X18000000Y5300000D02*
X18000000Y4500000D01*
X13890656Y15000000D02*
X13890656Y13174720D01*
X13890656Y13174720D02*
X13740655Y13024719D01*
D11*
X13890656Y16309344D02*
X13890656Y15000000D01*
D22*
X13740655Y13024719D02*
X12690655Y13024719D01*
X13740655Y13024719D02*
X13880654Y13164718D01*
X13880654Y13164718D02*
X13890656Y13164718D01*
X13740655Y13024719D02*
X13750657Y13024719D01*
D11*
X12500000Y19000000D02*
X12500000Y17700000D01*
X12500000Y17700000D02*
X13890656Y16309344D01*
X15450000Y21750000D02*
X15450000Y20750000D01*
X10000000Y16000000D02*
X10000000Y19089325D01*
X10000000Y19089325D02*
X10530617Y19619942D01*
X10530617Y19619942D02*
X10830616Y19919941D01*
D22*
X12690655Y14324719D02*
X10882403Y14324719D01*
X10882403Y14324719D02*
X10000000Y15207122D01*
X10000000Y15207122D02*
X10000000Y16000000D01*
D11*
X15000000Y25000000D02*
X15000000Y22200000D01*
X15000000Y22200000D02*
X15450000Y21750000D01*
X22000000Y19450000D02*
X19250000Y19450000D01*
X15500000Y18000000D02*
X16500000Y18000000D01*
X16500000Y18000000D02*
X17950000Y19450000D01*
X17950000Y19450000D02*
X19250000Y19450000D01*
X15500000Y15939345D02*
X15500000Y18000000D01*
X14299989Y20500011D02*
X14299989Y19500011D01*
X14299989Y19500011D02*
X15500000Y18300000D01*
X15500000Y18300000D02*
X15500000Y18000000D01*
X13309999Y24150001D02*
X12460000Y25000000D01*
X14299989Y23160011D02*
X13309999Y24150001D01*
X14299989Y20500011D02*
X14299989Y23160011D01*
D22*
X15310655Y14974719D02*
X15310655Y15750000D01*
D11*
X15500000Y15939345D02*
X15310655Y15750000D01*
X9920000Y25000000D02*
X9920000Y23650000D01*
X9920000Y23650000D02*
X6000000Y19730000D01*
X6000000Y19730000D02*
X6000000Y19450000D01*
X7950000Y13450000D02*
X8000000Y13500000D01*
X6000000Y13450000D02*
X7950000Y13450000D01*
X16824727Y14324719D02*
X17000000Y14499992D01*
X15310655Y14324719D02*
X16824727Y14324719D01*
X6000000Y16550000D02*
X6000000Y13450000D01*
X10000000Y7450000D02*
X10000000Y11750000D01*
D22*
X17250000Y13250000D02*
X16785374Y13250000D01*
X16785374Y13250000D02*
X16360655Y13674719D01*
X16360655Y13674719D02*
X15310655Y13674719D01*
D11*
X6000000Y10550000D02*
X6000000Y9600000D01*
X6000000Y9600000D02*
X8150000Y7450000D01*
X8150000Y7450000D02*
X8650000Y7450000D01*
X8650000Y7450000D02*
X10000000Y7450000D01*
X10100000Y20250000D02*
X9000000Y19150000D01*
X10600000Y20750000D02*
X12550000Y20750000D01*
X10100000Y20250000D02*
X10600000Y20750000D01*
D22*
X9000000Y14500000D02*
X9825281Y13674719D01*
X9825281Y13674719D02*
X12690655Y13674719D01*
D11*
X9000000Y19150000D02*
X9000000Y14500000D01*
D22*
X11100579Y15025797D02*
X10800580Y15325796D01*
X12690655Y14974719D02*
X11151657Y14974719D01*
X11151657Y14974719D02*
X11100579Y15025797D01*
D11*
X22000000Y15250000D02*
X22000000Y13450000D01*
X22000000Y16550000D02*
X22000000Y15250000D01*
X22000000Y15250000D02*
X21000000Y15250000D01*
D22*
X17000000Y12000000D02*
X18000000Y11000000D01*
X18000000Y11000000D02*
X18000000Y7500000D01*
X16935374Y12000000D02*
X17000000Y12000000D01*
X15310655Y13024719D02*
X15910655Y13024719D01*
X15910655Y13024719D02*
X16935374Y12000000D01*
D23*
G36*
X26625000Y375000D02*
X375000Y375000D01*
X375000Y4306861D01*
X499394Y4306861D01*
X1031114Y3019999D01*
X2014821Y2034575D01*
X3300753Y1500609D01*
X4693139Y1499394D01*
X5980001Y2031114D01*
X6965425Y3014821D01*
X7499391Y4300753D01*
X7500606Y5693139D01*
X7375653Y5995550D01*
X11198033Y5995550D01*
X11623410Y4966061D01*
X12410375Y4177721D01*
X13439120Y3750548D01*
X14553029Y3749576D01*
X15582518Y4174953D01*
X15714656Y4306861D01*
X19499394Y4306861D01*
X20031114Y3019999D01*
X21014821Y2034575D01*
X22300753Y1500609D01*
X23693139Y1499394D01*
X24980001Y2031114D01*
X25965425Y3014821D01*
X26499391Y4300753D01*
X26500606Y5693139D01*
X25968886Y6980001D01*
X24985179Y7965425D01*
X23699247Y8499391D01*
X22306861Y8500606D01*
X21019999Y7968886D01*
X20034575Y6985179D01*
X19500609Y5699247D01*
X19499394Y4306861D01*
X15714656Y4306861D01*
X16370858Y4961918D01*
X16798031Y5990663D01*
X16799003Y7104572D01*
X16373626Y8134061D01*
X15586661Y8922401D01*
X14557916Y9349574D01*
X13444007Y9350546D01*
X12414518Y8925169D01*
X11626178Y8138204D01*
X11199005Y7109459D01*
X11198033Y5995550D01*
X7375653Y5995550D01*
X6968886Y6980001D01*
X5985179Y7965425D01*
X4699247Y8499391D01*
X3306861Y8500606D01*
X2019999Y7968886D01*
X1034575Y6985179D01*
X500609Y5699247D01*
X499394Y4306861D01*
X375000Y4306861D01*
X375000Y11250000D01*
X650000Y11250000D01*
X650000Y8750000D01*
X656839Y8713654D01*
X678319Y8680273D01*
X711094Y8657879D01*
X750000Y8650000D01*
X3250000Y8650000D01*
X3286346Y8656839D01*
X3319727Y8678319D01*
X3342121Y8711094D01*
X3350000Y8750000D01*
X3350000Y11000000D01*
X4844123Y11000000D01*
X4844123Y10100000D01*
X4865042Y9988827D01*
X4930745Y9886721D01*
X5030997Y9818222D01*
X5150000Y9794123D01*
X5450000Y9794123D01*
X5450000Y9600000D01*
X5491866Y9389524D01*
X5611091Y9211091D01*
X7761091Y7061091D01*
X7939524Y6941866D01*
X8150000Y6900000D01*
X8862940Y6900000D01*
X8865042Y6888827D01*
X8930745Y6786721D01*
X9030997Y6718222D01*
X9150000Y6694123D01*
X10850000Y6694123D01*
X10961173Y6715042D01*
X11063279Y6780745D01*
X11131778Y6880997D01*
X11155877Y7000000D01*
X11155877Y7900000D01*
X11134958Y8011173D01*
X11069255Y8113279D01*
X10969003Y8181778D01*
X10850000Y8205877D01*
X10550000Y8205877D01*
X10550000Y11509966D01*
X10599896Y11630129D01*
X10600104Y11868824D01*
X10508952Y12089429D01*
X10340317Y12258359D01*
X10119871Y12349896D01*
X9881176Y12350104D01*
X9660571Y12258952D01*
X9491641Y12090317D01*
X9400104Y11869871D01*
X9399896Y11631176D01*
X9450000Y11509915D01*
X9450000Y8205877D01*
X9150000Y8205877D01*
X9038827Y8184958D01*
X8936721Y8119255D01*
X8868222Y8019003D01*
X8864374Y8000000D01*
X8377818Y8000000D01*
X6583695Y9794123D01*
X6850000Y9794123D01*
X6961173Y9815042D01*
X7063279Y9880745D01*
X7131778Y9980997D01*
X7155877Y10100000D01*
X7155877Y11000000D01*
X7134958Y11111173D01*
X7069255Y11213279D01*
X6969003Y11281778D01*
X6850000Y11305877D01*
X5150000Y11305877D01*
X5038827Y11284958D01*
X4936721Y11219255D01*
X4868222Y11119003D01*
X4844123Y11000000D01*
X3350000Y11000000D01*
X3350000Y11250000D01*
X3343161Y11286346D01*
X3321681Y11319727D01*
X3288906Y11342121D01*
X3250000Y11350000D01*
X750000Y11350000D01*
X713654Y11343161D01*
X680273Y11321681D01*
X657879Y11288906D01*
X650000Y11250000D01*
X375000Y11250000D01*
X375000Y17000000D01*
X4844123Y17000000D01*
X4844123Y16100000D01*
X4865042Y15988827D01*
X4930745Y15886721D01*
X5030997Y15818222D01*
X5150000Y15794123D01*
X5450000Y15794123D01*
X5450000Y14205877D01*
X5150000Y14205877D01*
X5038827Y14184958D01*
X4936721Y14119255D01*
X4868222Y14019003D01*
X4844123Y13900000D01*
X4844123Y13000000D01*
X4865042Y12888827D01*
X4930745Y12786721D01*
X5030997Y12718222D01*
X5150000Y12694123D01*
X6850000Y12694123D01*
X6961173Y12715042D01*
X7063279Y12780745D01*
X7131778Y12880997D01*
X7135626Y12900000D01*
X7950000Y12900000D01*
X7950216Y12900043D01*
X8118824Y12899896D01*
X8339429Y12991048D01*
X8508359Y13159683D01*
X8599896Y13380129D01*
X8600104Y13618824D01*
X8508952Y13839429D01*
X8340317Y14008359D01*
X8119871Y14099896D01*
X7881176Y14100104D01*
X7660571Y14008952D01*
X7651603Y14000000D01*
X7137060Y14000000D01*
X7134958Y14011173D01*
X7069255Y14113279D01*
X6969003Y14181778D01*
X6850000Y14205877D01*
X6550000Y14205877D01*
X6550000Y15794123D01*
X6850000Y15794123D01*
X6961173Y15815042D01*
X7063279Y15880745D01*
X7131778Y15980997D01*
X7155877Y16100000D01*
X7155877Y17000000D01*
X7134958Y17111173D01*
X7069255Y17213279D01*
X6969003Y17281778D01*
X6850000Y17305877D01*
X5150000Y17305877D01*
X5038827Y17284958D01*
X4936721Y17219255D01*
X4868222Y17119003D01*
X4844123Y17000000D01*
X375000Y17000000D01*
X375000Y21250000D01*
X650000Y21250000D01*
X650000Y18750000D01*
X656839Y18713654D01*
X678319Y18680273D01*
X711094Y18657879D01*
X750000Y18650000D01*
X3250000Y18650000D01*
X3286346Y18656839D01*
X3319727Y18678319D01*
X3342121Y18711094D01*
X3350000Y18750000D01*
X3350000Y19900000D01*
X4844123Y19900000D01*
X4844123Y19000000D01*
X4865042Y18888827D01*
X4930745Y18786721D01*
X5030997Y18718222D01*
X5150000Y18694123D01*
X6850000Y18694123D01*
X6961173Y18715042D01*
X7063279Y18780745D01*
X7131778Y18880997D01*
X7155877Y19000000D01*
X7155877Y19150000D01*
X8450000Y19150000D01*
X8450000Y14500000D01*
X8491866Y14289524D01*
X8611091Y14111091D01*
X8789524Y13991866D01*
X8892152Y13971452D01*
X9507083Y13356521D01*
X9653074Y13258972D01*
X9825281Y13224719D01*
X11911634Y13224719D01*
X11940655Y13218842D01*
X13440655Y13218842D01*
X13551828Y13239761D01*
X13653934Y13305464D01*
X13722433Y13405716D01*
X13746532Y13524719D01*
X13746532Y13824719D01*
X13725613Y13935892D01*
X13684362Y13999998D01*
X13722433Y14055716D01*
X13746532Y14174719D01*
X13746532Y14474719D01*
X13725613Y14585892D01*
X13684362Y14649998D01*
X13722433Y14705716D01*
X13746532Y14824719D01*
X13746532Y15124719D01*
X13725613Y15235892D01*
X13659910Y15337998D01*
X13559658Y15406497D01*
X13440655Y15430596D01*
X11940655Y15430596D01*
X11909422Y15424719D01*
X11400667Y15424719D01*
X11400684Y15444620D01*
X11309532Y15665225D01*
X11140897Y15834155D01*
X10920451Y15925692D01*
X10681756Y15925900D01*
X10522142Y15859949D01*
X10550000Y16000000D01*
X10550000Y18861507D01*
X11049796Y19361303D01*
X11170045Y19410989D01*
X11338975Y19579624D01*
X11430512Y19800070D01*
X11430720Y20038765D01*
X11364099Y20200000D01*
X11794123Y20200000D01*
X11794123Y19900000D01*
X11815042Y19788827D01*
X11880745Y19686721D01*
X11980997Y19618222D01*
X12100000Y19594123D01*
X13000000Y19594123D01*
X13111173Y19615042D01*
X13213279Y19680745D01*
X13281778Y19780997D01*
X13305877Y19900000D01*
X13305877Y21600000D01*
X13284958Y21711173D01*
X13219255Y21813279D01*
X13119003Y21881778D01*
X13000000Y21905877D01*
X12100000Y21905877D01*
X11988827Y21884958D01*
X11886721Y21819255D01*
X11818222Y21719003D01*
X11794123Y21600000D01*
X11794123Y21300000D01*
X10600005Y21300000D01*
X10600000Y21300001D01*
X10389524Y21258134D01*
X10211091Y21138909D01*
X8611091Y19538909D01*
X8491866Y19360476D01*
X8450000Y19150000D01*
X7155877Y19150000D01*
X7155877Y19900000D01*
X7134958Y20011173D01*
X7105214Y20057396D01*
X10308909Y23261091D01*
X10428134Y23439524D01*
X10470000Y23650000D01*
X10470000Y23844123D01*
X10770000Y23844123D01*
X10881173Y23865042D01*
X10983279Y23930745D01*
X11051778Y24030997D01*
X11075877Y24150000D01*
X11075877Y25022530D01*
X11310000Y25022530D01*
X11310000Y24977470D01*
X11397539Y24537384D01*
X11646827Y24164297D01*
X12019914Y23915009D01*
X12460000Y23827470D01*
X12789225Y23892957D01*
X13749989Y22932193D01*
X13749989Y19500011D01*
X13791855Y19289535D01*
X13911080Y19111102D01*
X14694123Y18328059D01*
X14694123Y17200000D01*
X14715042Y17088827D01*
X14780745Y16986721D01*
X14880997Y16918222D01*
X14950000Y16904248D01*
X14950000Y16167163D01*
X14921746Y16138909D01*
X14802521Y15960476D01*
X14760655Y15750000D01*
X14802521Y15539524D01*
X14860655Y15452520D01*
X14860655Y15430596D01*
X14560655Y15430596D01*
X14449482Y15409677D01*
X14347376Y15343974D01*
X14278877Y15243722D01*
X14254778Y15124719D01*
X14254778Y14824719D01*
X14275697Y14713546D01*
X14316948Y14649440D01*
X14278877Y14593722D01*
X14254778Y14474719D01*
X14254778Y14174719D01*
X14275697Y14063546D01*
X14316948Y13999440D01*
X14278877Y13943722D01*
X14254778Y13824719D01*
X14254778Y13524719D01*
X14275697Y13413546D01*
X14316948Y13349440D01*
X14278877Y13293722D01*
X14254778Y13174719D01*
X14254778Y12874719D01*
X14275697Y12763546D01*
X14341400Y12661440D01*
X14441652Y12592941D01*
X14560655Y12568842D01*
X15730136Y12568842D01*
X16617176Y11681802D01*
X16763167Y11584253D01*
X16783369Y11580235D01*
X17550000Y10813604D01*
X17550000Y8305877D01*
X17200000Y8305877D01*
X17088827Y8284958D01*
X16986721Y8219255D01*
X16918222Y8119003D01*
X16894123Y8000000D01*
X16894123Y7000000D01*
X16915042Y6888827D01*
X16980745Y6786721D01*
X17080997Y6718222D01*
X17200000Y6694123D01*
X18800000Y6694123D01*
X18911173Y6715042D01*
X19013279Y6780745D01*
X19081778Y6880997D01*
X19105877Y7000000D01*
X19105877Y8000000D01*
X19084958Y8111173D01*
X19019255Y8213279D01*
X18919003Y8281778D01*
X18800000Y8305877D01*
X18450000Y8305877D01*
X18450000Y11000000D01*
X18427887Y11111173D01*
X18415747Y11172207D01*
X18318198Y11318198D01*
X17318198Y12318198D01*
X17270759Y12349896D01*
X17172208Y12415746D01*
X17152006Y12419764D01*
X16768392Y12803378D01*
X16785374Y12800000D01*
X16851426Y12800000D01*
X16909683Y12741641D01*
X17130129Y12650104D01*
X17368824Y12649896D01*
X17589429Y12741048D01*
X17758359Y12909683D01*
X17849896Y13130129D01*
X17850104Y13368824D01*
X17758952Y13589429D01*
X17590317Y13758359D01*
X17369871Y13849896D01*
X17131176Y13850104D01*
X16912161Y13759609D01*
X16885052Y13786718D01*
X17035203Y13816585D01*
X17213636Y13935810D01*
X17219180Y13941354D01*
X17339429Y13991040D01*
X17508359Y14159675D01*
X17599896Y14380121D01*
X17600104Y14618816D01*
X17508952Y14839421D01*
X17340317Y15008351D01*
X17119871Y15099888D01*
X16881176Y15100096D01*
X16660571Y15008944D01*
X16526111Y14874719D01*
X16366532Y14874719D01*
X16366532Y15124719D01*
X16365318Y15131176D01*
X20399896Y15131176D01*
X20491048Y14910571D01*
X20659683Y14741641D01*
X20880129Y14650104D01*
X21118824Y14649896D01*
X21240085Y14700000D01*
X21450000Y14700000D01*
X21450000Y14205877D01*
X21150000Y14205877D01*
X21038827Y14184958D01*
X20936721Y14119255D01*
X20868222Y14019003D01*
X20844123Y13900000D01*
X20844123Y13000000D01*
X20865042Y12888827D01*
X20930745Y12786721D01*
X21030997Y12718222D01*
X21150000Y12694123D01*
X22850000Y12694123D01*
X22961173Y12715042D01*
X23063279Y12780745D01*
X23131778Y12880997D01*
X23155877Y13000000D01*
X23155877Y13900000D01*
X23134958Y14011173D01*
X23069255Y14113279D01*
X22969003Y14181778D01*
X22850000Y14205877D01*
X22550000Y14205877D01*
X22550000Y15794123D01*
X22850000Y15794123D01*
X22961173Y15815042D01*
X23063279Y15880745D01*
X23131778Y15980997D01*
X23155877Y16100000D01*
X23155877Y16250000D01*
X23650000Y16250000D01*
X23650000Y13750000D01*
X23656839Y13713654D01*
X23678319Y13680273D01*
X23711094Y13657879D01*
X23750000Y13650000D01*
X26250000Y13650000D01*
X26286346Y13656839D01*
X26319727Y13678319D01*
X26342121Y13711094D01*
X26350000Y13750000D01*
X26350000Y16250000D01*
X26343161Y16286346D01*
X26321681Y16319727D01*
X26288906Y16342121D01*
X26250000Y16350000D01*
X23750000Y16350000D01*
X23713654Y16343161D01*
X23680273Y16321681D01*
X23657879Y16288906D01*
X23650000Y16250000D01*
X23155877Y16250000D01*
X23155877Y17000000D01*
X23134958Y17111173D01*
X23069255Y17213279D01*
X22969003Y17281778D01*
X22850000Y17305877D01*
X21150000Y17305877D01*
X21038827Y17284958D01*
X20936721Y17219255D01*
X20868222Y17119003D01*
X20844123Y17000000D01*
X20844123Y16100000D01*
X20865042Y15988827D01*
X20930745Y15886721D01*
X20984468Y15850014D01*
X20881176Y15850104D01*
X20660571Y15758952D01*
X20491641Y15590317D01*
X20400104Y15369871D01*
X20399896Y15131176D01*
X16365318Y15131176D01*
X16345613Y15235892D01*
X16279910Y15337998D01*
X16179658Y15406497D01*
X16060655Y15430596D01*
X15769069Y15430596D01*
X15888909Y15550436D01*
X16008134Y15728869D01*
X16050000Y15939345D01*
X16050000Y16903531D01*
X16111173Y16915042D01*
X16213279Y16980745D01*
X16281778Y17080997D01*
X16305877Y17200000D01*
X16305877Y17450000D01*
X16500000Y17450000D01*
X16710476Y17491866D01*
X16888909Y17611091D01*
X18177817Y18900000D01*
X20862940Y18900000D01*
X20865042Y18888827D01*
X20930745Y18786721D01*
X21030997Y18718222D01*
X21150000Y18694123D01*
X22850000Y18694123D01*
X22961173Y18715042D01*
X23063279Y18780745D01*
X23131778Y18880997D01*
X23155877Y19000000D01*
X23155877Y19900000D01*
X23134958Y20011173D01*
X23069255Y20113279D01*
X22969003Y20181778D01*
X22850000Y20205877D01*
X21150000Y20205877D01*
X21038827Y20184958D01*
X20936721Y20119255D01*
X20868222Y20019003D01*
X20864374Y20000000D01*
X17950005Y20000000D01*
X17950000Y20000001D01*
X17739524Y19958134D01*
X17561091Y19838909D01*
X17561089Y19838906D01*
X16305877Y18583695D01*
X16305877Y18800000D01*
X16284958Y18911173D01*
X16219255Y19013279D01*
X16119003Y19081778D01*
X16000000Y19105877D01*
X15471941Y19105877D01*
X14979555Y19598263D01*
X15000000Y19594123D01*
X15900000Y19594123D01*
X16011173Y19615042D01*
X16113279Y19680745D01*
X16181778Y19780997D01*
X16205877Y19900000D01*
X16205877Y21600000D01*
X16184958Y21711173D01*
X16119255Y21813279D01*
X16019003Y21881778D01*
X15971890Y21891319D01*
X15958134Y21960476D01*
X15838909Y22138909D01*
X15550000Y22427818D01*
X15550000Y23988451D01*
X15813173Y24164297D01*
X15908430Y24306861D01*
X19499394Y24306861D01*
X20031114Y23019999D01*
X21014821Y22034575D01*
X22300753Y21500609D01*
X23693139Y21499394D01*
X24980001Y22031114D01*
X25965425Y23014821D01*
X26499391Y24300753D01*
X26500606Y25693139D01*
X25968886Y26980001D01*
X24985179Y27965425D01*
X23699247Y28499391D01*
X22306861Y28500606D01*
X21019999Y27968886D01*
X20034575Y26985179D01*
X19500609Y25699247D01*
X19499394Y24306861D01*
X15908430Y24306861D01*
X16062461Y24537384D01*
X16150000Y24977470D01*
X16150000Y25022530D01*
X16062461Y25462616D01*
X15813173Y25835703D01*
X15440086Y26084991D01*
X15000000Y26172530D01*
X14559914Y26084991D01*
X14186827Y25835703D01*
X13937539Y25462616D01*
X13850000Y25022530D01*
X13850000Y24977470D01*
X13937539Y24537384D01*
X14186827Y24164297D01*
X14450000Y23988451D01*
X14450000Y23787818D01*
X13551989Y24685829D01*
X13610000Y24977470D01*
X13610000Y25022530D01*
X13522461Y25462616D01*
X13273173Y25835703D01*
X12900086Y26084991D01*
X12460000Y26172530D01*
X12019914Y26084991D01*
X11646827Y25835703D01*
X11397539Y25462616D01*
X11310000Y25022530D01*
X11075877Y25022530D01*
X11075877Y25850000D01*
X11054958Y25961173D01*
X10989255Y26063279D01*
X10889003Y26131778D01*
X10770000Y26155877D01*
X9070000Y26155877D01*
X8958827Y26134958D01*
X8856721Y26069255D01*
X8788222Y25969003D01*
X8764123Y25850000D01*
X8764123Y24150000D01*
X8785042Y24038827D01*
X8850745Y23936721D01*
X8950997Y23868222D01*
X9070000Y23844123D01*
X9336305Y23844123D01*
X5698059Y20205877D01*
X5150000Y20205877D01*
X5038827Y20184958D01*
X4936721Y20119255D01*
X4868222Y20019003D01*
X4844123Y19900000D01*
X3350000Y19900000D01*
X3350000Y21250000D01*
X3343161Y21286346D01*
X3321681Y21319727D01*
X3288906Y21342121D01*
X3250000Y21350000D01*
X750000Y21350000D01*
X713654Y21343161D01*
X680273Y21321681D01*
X657879Y21288906D01*
X650000Y21250000D01*
X375000Y21250000D01*
X375000Y24306861D01*
X499394Y24306861D01*
X1031114Y23019999D01*
X2014821Y22034575D01*
X3300753Y21500609D01*
X4693139Y21499394D01*
X5980001Y22031114D01*
X6965425Y23014821D01*
X7499391Y24300753D01*
X7500606Y25693139D01*
X6968886Y26980001D01*
X5985179Y27965425D01*
X4699247Y28499391D01*
X3306861Y28500606D01*
X2019999Y27968886D01*
X1034575Y26985179D01*
X500609Y25699247D01*
X499394Y24306861D01*
X375000Y24306861D01*
X375000Y29625000D01*
X26625000Y29625000D01*
X26625000Y375000D01*
X26625000Y375000D01*
G37*
X26625000Y375000D02*
X375000Y375000D01*
X375000Y4306861D01*
X499394Y4306861D01*
X1031114Y3019999D01*
X2014821Y2034575D01*
X3300753Y1500609D01*
X4693139Y1499394D01*
X5980001Y2031114D01*
X6965425Y3014821D01*
X7499391Y4300753D01*
X7500606Y5693139D01*
X7375653Y5995550D01*
X11198033Y5995550D01*
X11623410Y4966061D01*
X12410375Y4177721D01*
X13439120Y3750548D01*
X14553029Y3749576D01*
X15582518Y4174953D01*
X15714656Y4306861D01*
X19499394Y4306861D01*
X20031114Y3019999D01*
X21014821Y2034575D01*
X22300753Y1500609D01*
X23693139Y1499394D01*
X24980001Y2031114D01*
X25965425Y3014821D01*
X26499391Y4300753D01*
X26500606Y5693139D01*
X25968886Y6980001D01*
X24985179Y7965425D01*
X23699247Y8499391D01*
X22306861Y8500606D01*
X21019999Y7968886D01*
X20034575Y6985179D01*
X19500609Y5699247D01*
X19499394Y4306861D01*
X15714656Y4306861D01*
X16370858Y4961918D01*
X16798031Y5990663D01*
X16799003Y7104572D01*
X16373626Y8134061D01*
X15586661Y8922401D01*
X14557916Y9349574D01*
X13444007Y9350546D01*
X12414518Y8925169D01*
X11626178Y8138204D01*
X11199005Y7109459D01*
X11198033Y5995550D01*
X7375653Y5995550D01*
X6968886Y6980001D01*
X5985179Y7965425D01*
X4699247Y8499391D01*
X3306861Y8500606D01*
X2019999Y7968886D01*
X1034575Y6985179D01*
X500609Y5699247D01*
X499394Y4306861D01*
X375000Y4306861D01*
X375000Y11250000D01*
X650000Y11250000D01*
X650000Y8750000D01*
X656839Y8713654D01*
X678319Y8680273D01*
X711094Y8657879D01*
X750000Y8650000D01*
X3250000Y8650000D01*
X3286346Y8656839D01*
X3319727Y8678319D01*
X3342121Y8711094D01*
X3350000Y8750000D01*
X3350000Y11000000D01*
X4844123Y11000000D01*
X4844123Y10100000D01*
X4865042Y9988827D01*
X4930745Y9886721D01*
X5030997Y9818222D01*
X5150000Y9794123D01*
X5450000Y9794123D01*
X5450000Y9600000D01*
X5491866Y9389524D01*
X5611091Y9211091D01*
X7761091Y7061091D01*
X7939524Y6941866D01*
X8150000Y6900000D01*
X8862940Y6900000D01*
X8865042Y6888827D01*
X8930745Y6786721D01*
X9030997Y6718222D01*
X9150000Y6694123D01*
X10850000Y6694123D01*
X10961173Y6715042D01*
X11063279Y6780745D01*
X11131778Y6880997D01*
X11155877Y7000000D01*
X11155877Y7900000D01*
X11134958Y8011173D01*
X11069255Y8113279D01*
X10969003Y8181778D01*
X10850000Y8205877D01*
X10550000Y8205877D01*
X10550000Y11509966D01*
X10599896Y11630129D01*
X10600104Y11868824D01*
X10508952Y12089429D01*
X10340317Y12258359D01*
X10119871Y12349896D01*
X9881176Y12350104D01*
X9660571Y12258952D01*
X9491641Y12090317D01*
X9400104Y11869871D01*
X9399896Y11631176D01*
X9450000Y11509915D01*
X9450000Y8205877D01*
X9150000Y8205877D01*
X9038827Y8184958D01*
X8936721Y8119255D01*
X8868222Y8019003D01*
X8864374Y8000000D01*
X8377818Y8000000D01*
X6583695Y9794123D01*
X6850000Y9794123D01*
X6961173Y9815042D01*
X7063279Y9880745D01*
X7131778Y9980997D01*
X7155877Y10100000D01*
X7155877Y11000000D01*
X7134958Y11111173D01*
X7069255Y11213279D01*
X6969003Y11281778D01*
X6850000Y11305877D01*
X5150000Y11305877D01*
X5038827Y11284958D01*
X4936721Y11219255D01*
X4868222Y11119003D01*
X4844123Y11000000D01*
X3350000Y11000000D01*
X3350000Y11250000D01*
X3343161Y11286346D01*
X3321681Y11319727D01*
X3288906Y11342121D01*
X3250000Y11350000D01*
X750000Y11350000D01*
X713654Y11343161D01*
X680273Y11321681D01*
X657879Y11288906D01*
X650000Y11250000D01*
X375000Y11250000D01*
X375000Y17000000D01*
X4844123Y17000000D01*
X4844123Y16100000D01*
X4865042Y15988827D01*
X4930745Y15886721D01*
X5030997Y15818222D01*
X5150000Y15794123D01*
X5450000Y15794123D01*
X5450000Y14205877D01*
X5150000Y14205877D01*
X5038827Y14184958D01*
X4936721Y14119255D01*
X4868222Y14019003D01*
X4844123Y13900000D01*
X4844123Y13000000D01*
X4865042Y12888827D01*
X4930745Y12786721D01*
X5030997Y12718222D01*
X5150000Y12694123D01*
X6850000Y12694123D01*
X6961173Y12715042D01*
X7063279Y12780745D01*
X7131778Y12880997D01*
X7135626Y12900000D01*
X7950000Y12900000D01*
X7950216Y12900043D01*
X8118824Y12899896D01*
X8339429Y12991048D01*
X8508359Y13159683D01*
X8599896Y13380129D01*
X8600104Y13618824D01*
X8508952Y13839429D01*
X8340317Y14008359D01*
X8119871Y14099896D01*
X7881176Y14100104D01*
X7660571Y14008952D01*
X7651603Y14000000D01*
X7137060Y14000000D01*
X7134958Y14011173D01*
X7069255Y14113279D01*
X6969003Y14181778D01*
X6850000Y14205877D01*
X6550000Y14205877D01*
X6550000Y15794123D01*
X6850000Y15794123D01*
X6961173Y15815042D01*
X7063279Y15880745D01*
X7131778Y15980997D01*
X7155877Y16100000D01*
X7155877Y17000000D01*
X7134958Y17111173D01*
X7069255Y17213279D01*
X6969003Y17281778D01*
X6850000Y17305877D01*
X5150000Y17305877D01*
X5038827Y17284958D01*
X4936721Y17219255D01*
X4868222Y17119003D01*
X4844123Y17000000D01*
X375000Y17000000D01*
X375000Y21250000D01*
X650000Y21250000D01*
X650000Y18750000D01*
X656839Y18713654D01*
X678319Y18680273D01*
X711094Y18657879D01*
X750000Y18650000D01*
X3250000Y18650000D01*
X3286346Y18656839D01*
X3319727Y18678319D01*
X3342121Y18711094D01*
X3350000Y18750000D01*
X3350000Y19900000D01*
X4844123Y19900000D01*
X4844123Y19000000D01*
X4865042Y18888827D01*
X4930745Y18786721D01*
X5030997Y18718222D01*
X5150000Y18694123D01*
X6850000Y18694123D01*
X6961173Y18715042D01*
X7063279Y18780745D01*
X7131778Y18880997D01*
X7155877Y19000000D01*
X7155877Y19150000D01*
X8450000Y19150000D01*
X8450000Y14500000D01*
X8491866Y14289524D01*
X8611091Y14111091D01*
X8789524Y13991866D01*
X8892152Y13971452D01*
X9507083Y13356521D01*
X9653074Y13258972D01*
X9825281Y13224719D01*
X11911634Y13224719D01*
X11940655Y13218842D01*
X13440655Y13218842D01*
X13551828Y13239761D01*
X13653934Y13305464D01*
X13722433Y13405716D01*
X13746532Y13524719D01*
X13746532Y13824719D01*
X13725613Y13935892D01*
X13684362Y13999998D01*
X13722433Y14055716D01*
X13746532Y14174719D01*
X13746532Y14474719D01*
X13725613Y14585892D01*
X13684362Y14649998D01*
X13722433Y14705716D01*
X13746532Y14824719D01*
X13746532Y15124719D01*
X13725613Y15235892D01*
X13659910Y15337998D01*
X13559658Y15406497D01*
X13440655Y15430596D01*
X11940655Y15430596D01*
X11909422Y15424719D01*
X11400667Y15424719D01*
X11400684Y15444620D01*
X11309532Y15665225D01*
X11140897Y15834155D01*
X10920451Y15925692D01*
X10681756Y15925900D01*
X10522142Y15859949D01*
X10550000Y16000000D01*
X10550000Y18861507D01*
X11049796Y19361303D01*
X11170045Y19410989D01*
X11338975Y19579624D01*
X11430512Y19800070D01*
X11430720Y20038765D01*
X11364099Y20200000D01*
X11794123Y20200000D01*
X11794123Y19900000D01*
X11815042Y19788827D01*
X11880745Y19686721D01*
X11980997Y19618222D01*
X12100000Y19594123D01*
X13000000Y19594123D01*
X13111173Y19615042D01*
X13213279Y19680745D01*
X13281778Y19780997D01*
X13305877Y19900000D01*
X13305877Y21600000D01*
X13284958Y21711173D01*
X13219255Y21813279D01*
X13119003Y21881778D01*
X13000000Y21905877D01*
X12100000Y21905877D01*
X11988827Y21884958D01*
X11886721Y21819255D01*
X11818222Y21719003D01*
X11794123Y21600000D01*
X11794123Y21300000D01*
X10600005Y21300000D01*
X10600000Y21300001D01*
X10389524Y21258134D01*
X10211091Y21138909D01*
X8611091Y19538909D01*
X8491866Y19360476D01*
X8450000Y19150000D01*
X7155877Y19150000D01*
X7155877Y19900000D01*
X7134958Y20011173D01*
X7105214Y20057396D01*
X10308909Y23261091D01*
X10428134Y23439524D01*
X10470000Y23650000D01*
X10470000Y23844123D01*
X10770000Y23844123D01*
X10881173Y23865042D01*
X10983279Y23930745D01*
X11051778Y24030997D01*
X11075877Y24150000D01*
X11075877Y25022530D01*
X11310000Y25022530D01*
X11310000Y24977470D01*
X11397539Y24537384D01*
X11646827Y24164297D01*
X12019914Y23915009D01*
X12460000Y23827470D01*
X12789225Y23892957D01*
X13749989Y22932193D01*
X13749989Y19500011D01*
X13791855Y19289535D01*
X13911080Y19111102D01*
X14694123Y18328059D01*
X14694123Y17200000D01*
X14715042Y17088827D01*
X14780745Y16986721D01*
X14880997Y16918222D01*
X14950000Y16904248D01*
X14950000Y16167163D01*
X14921746Y16138909D01*
X14802521Y15960476D01*
X14760655Y15750000D01*
X14802521Y15539524D01*
X14860655Y15452520D01*
X14860655Y15430596D01*
X14560655Y15430596D01*
X14449482Y15409677D01*
X14347376Y15343974D01*
X14278877Y15243722D01*
X14254778Y15124719D01*
X14254778Y14824719D01*
X14275697Y14713546D01*
X14316948Y14649440D01*
X14278877Y14593722D01*
X14254778Y14474719D01*
X14254778Y14174719D01*
X14275697Y14063546D01*
X14316948Y13999440D01*
X14278877Y13943722D01*
X14254778Y13824719D01*
X14254778Y13524719D01*
X14275697Y13413546D01*
X14316948Y13349440D01*
X14278877Y13293722D01*
X14254778Y13174719D01*
X14254778Y12874719D01*
X14275697Y12763546D01*
X14341400Y12661440D01*
X14441652Y12592941D01*
X14560655Y12568842D01*
X15730136Y12568842D01*
X16617176Y11681802D01*
X16763167Y11584253D01*
X16783369Y11580235D01*
X17550000Y10813604D01*
X17550000Y8305877D01*
X17200000Y8305877D01*
X17088827Y8284958D01*
X16986721Y8219255D01*
X16918222Y8119003D01*
X16894123Y8000000D01*
X16894123Y7000000D01*
X16915042Y6888827D01*
X16980745Y6786721D01*
X17080997Y6718222D01*
X17200000Y6694123D01*
X18800000Y6694123D01*
X18911173Y6715042D01*
X19013279Y6780745D01*
X19081778Y6880997D01*
X19105877Y7000000D01*
X19105877Y8000000D01*
X19084958Y8111173D01*
X19019255Y8213279D01*
X18919003Y8281778D01*
X18800000Y8305877D01*
X18450000Y8305877D01*
X18450000Y11000000D01*
X18427887Y11111173D01*
X18415747Y11172207D01*
X18318198Y11318198D01*
X17318198Y12318198D01*
X17270759Y12349896D01*
X17172208Y12415746D01*
X17152006Y12419764D01*
X16768392Y12803378D01*
X16785374Y12800000D01*
X16851426Y12800000D01*
X16909683Y12741641D01*
X17130129Y12650104D01*
X17368824Y12649896D01*
X17589429Y12741048D01*
X17758359Y12909683D01*
X17849896Y13130129D01*
X17850104Y13368824D01*
X17758952Y13589429D01*
X17590317Y13758359D01*
X17369871Y13849896D01*
X17131176Y13850104D01*
X16912161Y13759609D01*
X16885052Y13786718D01*
X17035203Y13816585D01*
X17213636Y13935810D01*
X17219180Y13941354D01*
X17339429Y13991040D01*
X17508359Y14159675D01*
X17599896Y14380121D01*
X17600104Y14618816D01*
X17508952Y14839421D01*
X17340317Y15008351D01*
X17119871Y15099888D01*
X16881176Y15100096D01*
X16660571Y15008944D01*
X16526111Y14874719D01*
X16366532Y14874719D01*
X16366532Y15124719D01*
X16365318Y15131176D01*
X20399896Y15131176D01*
X20491048Y14910571D01*
X20659683Y14741641D01*
X20880129Y14650104D01*
X21118824Y14649896D01*
X21240085Y14700000D01*
X21450000Y14700000D01*
X21450000Y14205877D01*
X21150000Y14205877D01*
X21038827Y14184958D01*
X20936721Y14119255D01*
X20868222Y14019003D01*
X20844123Y13900000D01*
X20844123Y13000000D01*
X20865042Y12888827D01*
X20930745Y12786721D01*
X21030997Y12718222D01*
X21150000Y12694123D01*
X22850000Y12694123D01*
X22961173Y12715042D01*
X23063279Y12780745D01*
X23131778Y12880997D01*
X23155877Y13000000D01*
X23155877Y13900000D01*
X23134958Y14011173D01*
X23069255Y14113279D01*
X22969003Y14181778D01*
X22850000Y14205877D01*
X22550000Y14205877D01*
X22550000Y15794123D01*
X22850000Y15794123D01*
X22961173Y15815042D01*
X23063279Y15880745D01*
X23131778Y15980997D01*
X23155877Y16100000D01*
X23155877Y16250000D01*
X23650000Y16250000D01*
X23650000Y13750000D01*
X23656839Y13713654D01*
X23678319Y13680273D01*
X23711094Y13657879D01*
X23750000Y13650000D01*
X26250000Y13650000D01*
X26286346Y13656839D01*
X26319727Y13678319D01*
X26342121Y13711094D01*
X26350000Y13750000D01*
X26350000Y16250000D01*
X26343161Y16286346D01*
X26321681Y16319727D01*
X26288906Y16342121D01*
X26250000Y16350000D01*
X23750000Y16350000D01*
X23713654Y16343161D01*
X23680273Y16321681D01*
X23657879Y16288906D01*
X23650000Y16250000D01*
X23155877Y16250000D01*
X23155877Y17000000D01*
X23134958Y17111173D01*
X23069255Y17213279D01*
X22969003Y17281778D01*
X22850000Y17305877D01*
X21150000Y17305877D01*
X21038827Y17284958D01*
X20936721Y17219255D01*
X20868222Y17119003D01*
X20844123Y17000000D01*
X20844123Y16100000D01*
X20865042Y15988827D01*
X20930745Y15886721D01*
X20984468Y15850014D01*
X20881176Y15850104D01*
X20660571Y15758952D01*
X20491641Y15590317D01*
X20400104Y15369871D01*
X20399896Y15131176D01*
X16365318Y15131176D01*
X16345613Y15235892D01*
X16279910Y15337998D01*
X16179658Y15406497D01*
X16060655Y15430596D01*
X15769069Y15430596D01*
X15888909Y15550436D01*
X16008134Y15728869D01*
X16050000Y15939345D01*
X16050000Y16903531D01*
X16111173Y16915042D01*
X16213279Y16980745D01*
X16281778Y17080997D01*
X16305877Y17200000D01*
X16305877Y17450000D01*
X16500000Y17450000D01*
X16710476Y17491866D01*
X16888909Y17611091D01*
X18177817Y18900000D01*
X20862940Y18900000D01*
X20865042Y18888827D01*
X20930745Y18786721D01*
X21030997Y18718222D01*
X21150000Y18694123D01*
X22850000Y18694123D01*
X22961173Y18715042D01*
X23063279Y18780745D01*
X23131778Y18880997D01*
X23155877Y19000000D01*
X23155877Y19900000D01*
X23134958Y20011173D01*
X23069255Y20113279D01*
X22969003Y20181778D01*
X22850000Y20205877D01*
X21150000Y20205877D01*
X21038827Y20184958D01*
X20936721Y20119255D01*
X20868222Y20019003D01*
X20864374Y20000000D01*
X17950005Y20000000D01*
X17950000Y20000001D01*
X17739524Y19958134D01*
X17561091Y19838909D01*
X17561089Y19838906D01*
X16305877Y18583695D01*
X16305877Y18800000D01*
X16284958Y18911173D01*
X16219255Y19013279D01*
X16119003Y19081778D01*
X16000000Y19105877D01*
X15471941Y19105877D01*
X14979555Y19598263D01*
X15000000Y19594123D01*
X15900000Y19594123D01*
X16011173Y19615042D01*
X16113279Y19680745D01*
X16181778Y19780997D01*
X16205877Y19900000D01*
X16205877Y21600000D01*
X16184958Y21711173D01*
X16119255Y21813279D01*
X16019003Y21881778D01*
X15971890Y21891319D01*
X15958134Y21960476D01*
X15838909Y22138909D01*
X15550000Y22427818D01*
X15550000Y23988451D01*
X15813173Y24164297D01*
X15908430Y24306861D01*
X19499394Y24306861D01*
X20031114Y23019999D01*
X21014821Y22034575D01*
X22300753Y21500609D01*
X23693139Y21499394D01*
X24980001Y22031114D01*
X25965425Y23014821D01*
X26499391Y24300753D01*
X26500606Y25693139D01*
X25968886Y26980001D01*
X24985179Y27965425D01*
X23699247Y28499391D01*
X22306861Y28500606D01*
X21019999Y27968886D01*
X20034575Y26985179D01*
X19500609Y25699247D01*
X19499394Y24306861D01*
X15908430Y24306861D01*
X16062461Y24537384D01*
X16150000Y24977470D01*
X16150000Y25022530D01*
X16062461Y25462616D01*
X15813173Y25835703D01*
X15440086Y26084991D01*
X15000000Y26172530D01*
X14559914Y26084991D01*
X14186827Y25835703D01*
X13937539Y25462616D01*
X13850000Y25022530D01*
X13850000Y24977470D01*
X13937539Y24537384D01*
X14186827Y24164297D01*
X14450000Y23988451D01*
X14450000Y23787818D01*
X13551989Y24685829D01*
X13610000Y24977470D01*
X13610000Y25022530D01*
X13522461Y25462616D01*
X13273173Y25835703D01*
X12900086Y26084991D01*
X12460000Y26172530D01*
X12019914Y26084991D01*
X11646827Y25835703D01*
X11397539Y25462616D01*
X11310000Y25022530D01*
X11075877Y25022530D01*
X11075877Y25850000D01*
X11054958Y25961173D01*
X10989255Y26063279D01*
X10889003Y26131778D01*
X10770000Y26155877D01*
X9070000Y26155877D01*
X8958827Y26134958D01*
X8856721Y26069255D01*
X8788222Y25969003D01*
X8764123Y25850000D01*
X8764123Y24150000D01*
X8785042Y24038827D01*
X8850745Y23936721D01*
X8950997Y23868222D01*
X9070000Y23844123D01*
X9336305Y23844123D01*
X5698059Y20205877D01*
X5150000Y20205877D01*
X5038827Y20184958D01*
X4936721Y20119255D01*
X4868222Y20019003D01*
X4844123Y19900000D01*
X3350000Y19900000D01*
X3350000Y21250000D01*
X3343161Y21286346D01*
X3321681Y21319727D01*
X3288906Y21342121D01*
X3250000Y21350000D01*
X750000Y21350000D01*
X713654Y21343161D01*
X680273Y21321681D01*
X657879Y21288906D01*
X650000Y21250000D01*
X375000Y21250000D01*
X375000Y24306861D01*
X499394Y24306861D01*
X1031114Y23019999D01*
X2014821Y22034575D01*
X3300753Y21500609D01*
X4693139Y21499394D01*
X5980001Y22031114D01*
X6965425Y23014821D01*
X7499391Y24300753D01*
X7500606Y25693139D01*
X6968886Y26980001D01*
X5985179Y27965425D01*
X4699247Y28499391D01*
X3306861Y28500606D01*
X2019999Y27968886D01*
X1034575Y26985179D01*
X500609Y25699247D01*
X499394Y24306861D01*
X375000Y24306861D01*
X375000Y29625000D01*
X26625000Y29625000D01*
X26625000Y375000D01*
M02*
