G04 #@! TF.FileFunction,Copper,L2,Bot,Signal*
%FSLAX46Y46*%
G04 Gerber Fmt 4.6, Leading zero omitted, Abs format (unit mm)*
G04 Created by KiCad (PCBNEW 4.0.7-e2-6376~58~ubuntu16.04.1) date Tue Sep 19 17:51:42 2017*
%MOMM*%
%LPD*%
G01*
G04 APERTURE LIST*
%ADD10C,0.100000*%
%ADD11C,6.400000*%
%ADD12O,1.700000X1.700000*%
%ADD13R,1.700000X1.700000*%
%ADD14C,5.000000*%
%ADD15C,0.600000*%
%ADD16C,0.500000*%
%ADD17C,0.200000*%
G04 APERTURE END LIST*
D10*
D11*
X4000000Y5000000D03*
X23000000Y5000000D03*
X4000000Y25000000D03*
D12*
X17540000Y25000000D03*
X15000000Y25000000D03*
X12460000Y25000000D03*
D13*
X9920000Y25000000D03*
D11*
X23000000Y25000000D03*
D14*
X4248518Y13300061D03*
D15*
X10000000Y6000000D03*
X18000000Y6000000D03*
X20250000Y10250000D03*
X12500000Y12000000D03*
X11250000Y18750000D03*
X10830616Y19919941D03*
X8000000Y13500000D03*
X17000000Y14499992D03*
X10000000Y11750000D03*
X17250000Y13250000D03*
X10800580Y15325796D03*
X21000000Y15250000D03*
D16*
X10830616Y20830616D02*
X10830616Y20344205D01*
X15000000Y25000000D02*
X10830616Y20830616D01*
X10830616Y20344205D02*
X10830616Y19919941D01*
X8299999Y13799999D02*
X8000000Y13500000D01*
X8999992Y14499992D02*
X8299999Y13799999D01*
X17000000Y14499992D02*
X8999992Y14499992D01*
X17250000Y13250000D02*
X11500000Y13250000D01*
X10299999Y12049999D02*
X10000000Y11750000D01*
X11500000Y13250000D02*
X10299999Y12049999D01*
X10876376Y15250000D02*
X10800580Y15325796D01*
X21000000Y15250000D02*
X10876376Y15250000D01*
D17*
G36*
X26625000Y375000D02*
X375000Y375000D01*
X375000Y4306861D01*
X499394Y4306861D01*
X1031114Y3019999D01*
X2014821Y2034575D01*
X3300753Y1500609D01*
X4693139Y1499394D01*
X5980001Y2031114D01*
X6965425Y3014821D01*
X7499391Y4300753D01*
X7499396Y4306861D01*
X19499394Y4306861D01*
X20031114Y3019999D01*
X21014821Y2034575D01*
X22300753Y1500609D01*
X23693139Y1499394D01*
X24980001Y2031114D01*
X25965425Y3014821D01*
X26499391Y4300753D01*
X26500606Y5693139D01*
X25968886Y6980001D01*
X24985179Y7965425D01*
X23699247Y8499391D01*
X22306861Y8500606D01*
X21019999Y7968886D01*
X20034575Y6985179D01*
X19500609Y5699247D01*
X19499394Y4306861D01*
X7499396Y4306861D01*
X7500606Y5693139D01*
X6968886Y6980001D01*
X5985179Y7965425D01*
X4699247Y8499391D01*
X3306861Y8500606D01*
X2019999Y7968886D01*
X1034575Y6985179D01*
X500609Y5699247D01*
X499394Y4306861D01*
X375000Y4306861D01*
X375000Y12745550D01*
X1448033Y12745550D01*
X1873410Y11716061D01*
X2660375Y10927721D01*
X3689120Y10500548D01*
X4803029Y10499576D01*
X5832518Y10924953D01*
X6539974Y11631176D01*
X9399896Y11631176D01*
X9491048Y11410571D01*
X9659683Y11241641D01*
X9880129Y11150104D01*
X10118824Y11149896D01*
X10339429Y11241048D01*
X10508359Y11409683D01*
X10558675Y11530858D01*
X10688905Y11661088D01*
X10688908Y11661090D01*
X11727818Y12700000D01*
X17009966Y12700000D01*
X17130129Y12650104D01*
X17368824Y12649896D01*
X17589429Y12741048D01*
X17758359Y12909683D01*
X17849896Y13130129D01*
X17850104Y13368824D01*
X17758952Y13589429D01*
X17590317Y13758359D01*
X17369871Y13849896D01*
X17131176Y13850104D01*
X17009915Y13800000D01*
X11500005Y13800000D01*
X11500000Y13800001D01*
X11289524Y13758134D01*
X11111091Y13638909D01*
X9911090Y12438908D01*
X9911088Y12438905D01*
X9780821Y12308638D01*
X9660571Y12258952D01*
X9491641Y12090317D01*
X9400104Y11869871D01*
X9399896Y11631176D01*
X6539974Y11631176D01*
X6620858Y11711918D01*
X7048031Y12740663D01*
X7048589Y13381176D01*
X7399896Y13381176D01*
X7491048Y13160571D01*
X7659683Y12991641D01*
X7880129Y12900104D01*
X8118824Y12899896D01*
X8339429Y12991048D01*
X8508359Y13159683D01*
X8558675Y13280858D01*
X8688905Y13411088D01*
X8688908Y13411090D01*
X9227809Y13949992D01*
X16759966Y13949992D01*
X16880129Y13900096D01*
X17118824Y13899888D01*
X17339429Y13991040D01*
X17508359Y14159675D01*
X17599896Y14380121D01*
X17600104Y14618816D01*
X17566560Y14700000D01*
X20759966Y14700000D01*
X20880129Y14650104D01*
X21118824Y14649896D01*
X21339429Y14741048D01*
X21508359Y14909683D01*
X21599896Y15130129D01*
X21600104Y15368824D01*
X21508952Y15589429D01*
X21340317Y15758359D01*
X21119871Y15849896D01*
X20881176Y15850104D01*
X20759915Y15800000D01*
X11174992Y15800000D01*
X11140897Y15834155D01*
X10920451Y15925692D01*
X10681756Y15925900D01*
X10461151Y15834748D01*
X10292221Y15666113D01*
X10200684Y15445667D01*
X10200476Y15206972D01*
X10265339Y15049992D01*
X8999997Y15049992D01*
X8999992Y15049993D01*
X8793628Y15008944D01*
X8789516Y15008126D01*
X8611083Y14888901D01*
X8611081Y14888898D01*
X7911090Y14188908D01*
X7911088Y14188905D01*
X7780821Y14058638D01*
X7660571Y14008952D01*
X7491641Y13840317D01*
X7400104Y13619871D01*
X7399896Y13381176D01*
X7048589Y13381176D01*
X7049003Y13854572D01*
X6623626Y14884061D01*
X5836661Y15672401D01*
X4807916Y16099574D01*
X3694007Y16100546D01*
X2664518Y15675169D01*
X1876178Y14888204D01*
X1449005Y13859459D01*
X1448033Y12745550D01*
X375000Y12745550D01*
X375000Y19801117D01*
X10230512Y19801117D01*
X10321664Y19580512D01*
X10490299Y19411582D01*
X10710745Y19320045D01*
X10949440Y19319837D01*
X11170045Y19410989D01*
X11338975Y19579624D01*
X11430512Y19800070D01*
X11430720Y20038765D01*
X11380616Y20160026D01*
X11380616Y20602798D01*
X14670775Y23892957D01*
X15000000Y23827470D01*
X15440086Y23915009D01*
X15813173Y24164297D01*
X15908430Y24306861D01*
X19499394Y24306861D01*
X20031114Y23019999D01*
X21014821Y22034575D01*
X22300753Y21500609D01*
X23693139Y21499394D01*
X24980001Y22031114D01*
X25965425Y23014821D01*
X26499391Y24300753D01*
X26500606Y25693139D01*
X25968886Y26980001D01*
X24985179Y27965425D01*
X23699247Y28499391D01*
X22306861Y28500606D01*
X21019999Y27968886D01*
X20034575Y26985179D01*
X19500609Y25699247D01*
X19499394Y24306861D01*
X15908430Y24306861D01*
X16062461Y24537384D01*
X16150000Y24977470D01*
X16150000Y25022530D01*
X16062461Y25462616D01*
X15813173Y25835703D01*
X15440086Y26084991D01*
X15000000Y26172530D01*
X14559914Y26084991D01*
X14186827Y25835703D01*
X13937539Y25462616D01*
X13850000Y25022530D01*
X13850000Y24977470D01*
X13908011Y24685829D01*
X10441707Y21219525D01*
X10322482Y21041092D01*
X10280616Y20830616D01*
X10280616Y20159975D01*
X10230720Y20039812D01*
X10230512Y19801117D01*
X375000Y19801117D01*
X375000Y24306861D01*
X499394Y24306861D01*
X1031114Y23019999D01*
X2014821Y22034575D01*
X3300753Y21500609D01*
X4693139Y21499394D01*
X5980001Y22031114D01*
X6965425Y23014821D01*
X7499391Y24300753D01*
X7500606Y25693139D01*
X7435793Y25850000D01*
X8764123Y25850000D01*
X8764123Y24150000D01*
X8785042Y24038827D01*
X8850745Y23936721D01*
X8950997Y23868222D01*
X9070000Y23844123D01*
X10770000Y23844123D01*
X10881173Y23865042D01*
X10983279Y23930745D01*
X11051778Y24030997D01*
X11075877Y24150000D01*
X11075877Y25022530D01*
X11310000Y25022530D01*
X11310000Y24977470D01*
X11397539Y24537384D01*
X11646827Y24164297D01*
X12019914Y23915009D01*
X12460000Y23827470D01*
X12900086Y23915009D01*
X13273173Y24164297D01*
X13522461Y24537384D01*
X13610000Y24977470D01*
X13610000Y25022530D01*
X13522461Y25462616D01*
X13273173Y25835703D01*
X12900086Y26084991D01*
X12460000Y26172530D01*
X12019914Y26084991D01*
X11646827Y25835703D01*
X11397539Y25462616D01*
X11310000Y25022530D01*
X11075877Y25022530D01*
X11075877Y25850000D01*
X11054958Y25961173D01*
X10989255Y26063279D01*
X10889003Y26131778D01*
X10770000Y26155877D01*
X9070000Y26155877D01*
X8958827Y26134958D01*
X8856721Y26069255D01*
X8788222Y25969003D01*
X8764123Y25850000D01*
X7435793Y25850000D01*
X6968886Y26980001D01*
X5985179Y27965425D01*
X4699247Y28499391D01*
X3306861Y28500606D01*
X2019999Y27968886D01*
X1034575Y26985179D01*
X500609Y25699247D01*
X499394Y24306861D01*
X375000Y24306861D01*
X375000Y29625000D01*
X26625000Y29625000D01*
X26625000Y375000D01*
X26625000Y375000D01*
G37*
X26625000Y375000D02*
X375000Y375000D01*
X375000Y4306861D01*
X499394Y4306861D01*
X1031114Y3019999D01*
X2014821Y2034575D01*
X3300753Y1500609D01*
X4693139Y1499394D01*
X5980001Y2031114D01*
X6965425Y3014821D01*
X7499391Y4300753D01*
X7499396Y4306861D01*
X19499394Y4306861D01*
X20031114Y3019999D01*
X21014821Y2034575D01*
X22300753Y1500609D01*
X23693139Y1499394D01*
X24980001Y2031114D01*
X25965425Y3014821D01*
X26499391Y4300753D01*
X26500606Y5693139D01*
X25968886Y6980001D01*
X24985179Y7965425D01*
X23699247Y8499391D01*
X22306861Y8500606D01*
X21019999Y7968886D01*
X20034575Y6985179D01*
X19500609Y5699247D01*
X19499394Y4306861D01*
X7499396Y4306861D01*
X7500606Y5693139D01*
X6968886Y6980001D01*
X5985179Y7965425D01*
X4699247Y8499391D01*
X3306861Y8500606D01*
X2019999Y7968886D01*
X1034575Y6985179D01*
X500609Y5699247D01*
X499394Y4306861D01*
X375000Y4306861D01*
X375000Y12745550D01*
X1448033Y12745550D01*
X1873410Y11716061D01*
X2660375Y10927721D01*
X3689120Y10500548D01*
X4803029Y10499576D01*
X5832518Y10924953D01*
X6539974Y11631176D01*
X9399896Y11631176D01*
X9491048Y11410571D01*
X9659683Y11241641D01*
X9880129Y11150104D01*
X10118824Y11149896D01*
X10339429Y11241048D01*
X10508359Y11409683D01*
X10558675Y11530858D01*
X10688905Y11661088D01*
X10688908Y11661090D01*
X11727818Y12700000D01*
X17009966Y12700000D01*
X17130129Y12650104D01*
X17368824Y12649896D01*
X17589429Y12741048D01*
X17758359Y12909683D01*
X17849896Y13130129D01*
X17850104Y13368824D01*
X17758952Y13589429D01*
X17590317Y13758359D01*
X17369871Y13849896D01*
X17131176Y13850104D01*
X17009915Y13800000D01*
X11500005Y13800000D01*
X11500000Y13800001D01*
X11289524Y13758134D01*
X11111091Y13638909D01*
X9911090Y12438908D01*
X9911088Y12438905D01*
X9780821Y12308638D01*
X9660571Y12258952D01*
X9491641Y12090317D01*
X9400104Y11869871D01*
X9399896Y11631176D01*
X6539974Y11631176D01*
X6620858Y11711918D01*
X7048031Y12740663D01*
X7048589Y13381176D01*
X7399896Y13381176D01*
X7491048Y13160571D01*
X7659683Y12991641D01*
X7880129Y12900104D01*
X8118824Y12899896D01*
X8339429Y12991048D01*
X8508359Y13159683D01*
X8558675Y13280858D01*
X8688905Y13411088D01*
X8688908Y13411090D01*
X9227809Y13949992D01*
X16759966Y13949992D01*
X16880129Y13900096D01*
X17118824Y13899888D01*
X17339429Y13991040D01*
X17508359Y14159675D01*
X17599896Y14380121D01*
X17600104Y14618816D01*
X17566560Y14700000D01*
X20759966Y14700000D01*
X20880129Y14650104D01*
X21118824Y14649896D01*
X21339429Y14741048D01*
X21508359Y14909683D01*
X21599896Y15130129D01*
X21600104Y15368824D01*
X21508952Y15589429D01*
X21340317Y15758359D01*
X21119871Y15849896D01*
X20881176Y15850104D01*
X20759915Y15800000D01*
X11174992Y15800000D01*
X11140897Y15834155D01*
X10920451Y15925692D01*
X10681756Y15925900D01*
X10461151Y15834748D01*
X10292221Y15666113D01*
X10200684Y15445667D01*
X10200476Y15206972D01*
X10265339Y15049992D01*
X8999997Y15049992D01*
X8999992Y15049993D01*
X8793628Y15008944D01*
X8789516Y15008126D01*
X8611083Y14888901D01*
X8611081Y14888898D01*
X7911090Y14188908D01*
X7911088Y14188905D01*
X7780821Y14058638D01*
X7660571Y14008952D01*
X7491641Y13840317D01*
X7400104Y13619871D01*
X7399896Y13381176D01*
X7048589Y13381176D01*
X7049003Y13854572D01*
X6623626Y14884061D01*
X5836661Y15672401D01*
X4807916Y16099574D01*
X3694007Y16100546D01*
X2664518Y15675169D01*
X1876178Y14888204D01*
X1449005Y13859459D01*
X1448033Y12745550D01*
X375000Y12745550D01*
X375000Y19801117D01*
X10230512Y19801117D01*
X10321664Y19580512D01*
X10490299Y19411582D01*
X10710745Y19320045D01*
X10949440Y19319837D01*
X11170045Y19410989D01*
X11338975Y19579624D01*
X11430512Y19800070D01*
X11430720Y20038765D01*
X11380616Y20160026D01*
X11380616Y20602798D01*
X14670775Y23892957D01*
X15000000Y23827470D01*
X15440086Y23915009D01*
X15813173Y24164297D01*
X15908430Y24306861D01*
X19499394Y24306861D01*
X20031114Y23019999D01*
X21014821Y22034575D01*
X22300753Y21500609D01*
X23693139Y21499394D01*
X24980001Y22031114D01*
X25965425Y23014821D01*
X26499391Y24300753D01*
X26500606Y25693139D01*
X25968886Y26980001D01*
X24985179Y27965425D01*
X23699247Y28499391D01*
X22306861Y28500606D01*
X21019999Y27968886D01*
X20034575Y26985179D01*
X19500609Y25699247D01*
X19499394Y24306861D01*
X15908430Y24306861D01*
X16062461Y24537384D01*
X16150000Y24977470D01*
X16150000Y25022530D01*
X16062461Y25462616D01*
X15813173Y25835703D01*
X15440086Y26084991D01*
X15000000Y26172530D01*
X14559914Y26084991D01*
X14186827Y25835703D01*
X13937539Y25462616D01*
X13850000Y25022530D01*
X13850000Y24977470D01*
X13908011Y24685829D01*
X10441707Y21219525D01*
X10322482Y21041092D01*
X10280616Y20830616D01*
X10280616Y20159975D01*
X10230720Y20039812D01*
X10230512Y19801117D01*
X375000Y19801117D01*
X375000Y24306861D01*
X499394Y24306861D01*
X1031114Y23019999D01*
X2014821Y22034575D01*
X3300753Y21500609D01*
X4693139Y21499394D01*
X5980001Y22031114D01*
X6965425Y23014821D01*
X7499391Y24300753D01*
X7500606Y25693139D01*
X7435793Y25850000D01*
X8764123Y25850000D01*
X8764123Y24150000D01*
X8785042Y24038827D01*
X8850745Y23936721D01*
X8950997Y23868222D01*
X9070000Y23844123D01*
X10770000Y23844123D01*
X10881173Y23865042D01*
X10983279Y23930745D01*
X11051778Y24030997D01*
X11075877Y24150000D01*
X11075877Y25022530D01*
X11310000Y25022530D01*
X11310000Y24977470D01*
X11397539Y24537384D01*
X11646827Y24164297D01*
X12019914Y23915009D01*
X12460000Y23827470D01*
X12900086Y23915009D01*
X13273173Y24164297D01*
X13522461Y24537384D01*
X13610000Y24977470D01*
X13610000Y25022530D01*
X13522461Y25462616D01*
X13273173Y25835703D01*
X12900086Y26084991D01*
X12460000Y26172530D01*
X12019914Y26084991D01*
X11646827Y25835703D01*
X11397539Y25462616D01*
X11310000Y25022530D01*
X11075877Y25022530D01*
X11075877Y25850000D01*
X11054958Y25961173D01*
X10989255Y26063279D01*
X10889003Y26131778D01*
X10770000Y26155877D01*
X9070000Y26155877D01*
X8958827Y26134958D01*
X8856721Y26069255D01*
X8788222Y25969003D01*
X8764123Y25850000D01*
X7435793Y25850000D01*
X6968886Y26980001D01*
X5985179Y27965425D01*
X4699247Y28499391D01*
X3306861Y28500606D01*
X2019999Y27968886D01*
X1034575Y26985179D01*
X500609Y25699247D01*
X499394Y24306861D01*
X375000Y24306861D01*
X375000Y29625000D01*
X26625000Y29625000D01*
X26625000Y375000D01*
M02*
