G04 (created by PCBNEW-RS274X (2011-12-28 BZR 3254)-stable) date 25/02/2013 21:36:47*
G01*
G70*
G90*
%MOIN*%
G04 Gerber Fmt 3.4, Leading zero omitted, Abs format*
%FSLAX34Y34*%
G04 APERTURE LIST*
%ADD10C,0.006000*%
%ADD11C,0.012000*%
%ADD12R,0.098400X0.078700*%
%ADD13R,0.098400X0.019700*%
%ADD14C,0.047200*%
%ADD15R,0.078700X0.017700*%
%ADD16R,0.017700X0.078700*%
%ADD17R,0.080000X0.060000*%
%ADD18R,0.060000X0.080000*%
%ADD19R,0.060000X0.060000*%
%ADD20C,0.060000*%
%ADD21R,0.070900X0.062900*%
%ADD22R,0.016000X0.050000*%
%ADD23R,0.059100X0.070900*%
%ADD24R,0.078700X0.216500*%
%ADD25C,0.160000*%
%ADD26R,0.045000X0.020000*%
%ADD27C,0.023600*%
%ADD28C,0.019700*%
%ADD29C,0.039400*%
%ADD30C,0.078700*%
%ADD31C,0.013800*%
%ADD32C,0.009800*%
G04 APERTURE END LIST*
G54D10*
G54D11*
X10699Y02511D02*
X10699Y02854D01*
X11499Y02683D02*
X10699Y02683D01*
X11499Y02997D02*
X10965Y03311D01*
X10965Y02997D02*
X11499Y03311D01*
X11499Y03540D02*
X10699Y03540D01*
X10699Y03683D01*
X10737Y03768D01*
X10813Y03826D01*
X10889Y03854D01*
X11042Y03883D01*
X11156Y03883D01*
X11308Y03854D01*
X11385Y03826D01*
X11461Y03768D01*
X11499Y03683D01*
X11499Y03540D01*
X10349Y02843D02*
X09968Y02643D01*
X10349Y02500D02*
X09549Y02500D01*
X09549Y02728D01*
X09587Y02786D01*
X09625Y02814D01*
X09701Y02843D01*
X09815Y02843D01*
X09892Y02814D01*
X09930Y02786D01*
X09968Y02728D01*
X09968Y02500D01*
X10349Y03043D02*
X09815Y03357D01*
X09815Y03043D02*
X10349Y03357D01*
X10349Y03586D02*
X09549Y03586D01*
X09549Y03729D01*
X09587Y03814D01*
X09663Y03872D01*
X09739Y03900D01*
X09892Y03929D01*
X10006Y03929D01*
X10158Y03900D01*
X10235Y03872D01*
X10311Y03814D01*
X10349Y03729D01*
X10349Y03586D01*
X14074Y08097D02*
X14074Y07754D01*
X14074Y07926D02*
X13274Y07926D01*
X13388Y07869D01*
X13464Y07811D01*
X13502Y07754D01*
X39647Y05101D02*
X39304Y05101D01*
X39476Y05101D02*
X39476Y05901D01*
X39419Y05787D01*
X39361Y05711D01*
X39304Y05673D01*
X29540Y02026D02*
X29911Y02026D01*
X29711Y01721D01*
X29797Y01721D01*
X29854Y01683D01*
X29883Y01645D01*
X29911Y01569D01*
X29911Y01379D01*
X29883Y01302D01*
X29854Y01264D01*
X29797Y01226D01*
X29625Y01226D01*
X29568Y01264D01*
X29540Y01302D01*
X30482Y01226D02*
X30139Y01226D01*
X30311Y01226D02*
X30311Y02026D01*
X30254Y01912D01*
X30196Y01836D01*
X30139Y01798D01*
X30939Y01645D02*
X31025Y01607D01*
X31053Y01569D01*
X31082Y01493D01*
X31082Y01379D01*
X31053Y01302D01*
X31025Y01264D01*
X30967Y01226D01*
X30739Y01226D01*
X30739Y02026D01*
X30939Y02026D01*
X30996Y01988D01*
X31025Y01950D01*
X31053Y01874D01*
X31053Y01798D01*
X31025Y01721D01*
X30996Y01683D01*
X30939Y01645D01*
X30739Y01645D01*
X31339Y01226D02*
X31339Y01760D01*
X31339Y02026D02*
X31310Y01988D01*
X31339Y01950D01*
X31367Y01988D01*
X31339Y02026D01*
X31339Y01950D01*
X31539Y01760D02*
X31768Y01760D01*
X31625Y02026D02*
X31625Y01340D01*
X31653Y01264D01*
X31711Y01226D01*
X31768Y01226D01*
X32396Y01455D02*
X32682Y01455D01*
X32339Y01226D02*
X32539Y02026D01*
X32739Y01226D01*
X32939Y01226D02*
X32939Y02026D01*
X33082Y02026D01*
X33167Y01988D01*
X33225Y01912D01*
X33253Y01836D01*
X33282Y01683D01*
X33282Y01569D01*
X33253Y01417D01*
X33225Y01340D01*
X33167Y01264D01*
X33082Y01226D01*
X32939Y01226D01*
X33882Y01302D02*
X33853Y01264D01*
X33767Y01226D01*
X33710Y01226D01*
X33625Y01264D01*
X33567Y01340D01*
X33539Y01417D01*
X33510Y01569D01*
X33510Y01683D01*
X33539Y01836D01*
X33567Y01912D01*
X33625Y01988D01*
X33710Y02026D01*
X33767Y02026D01*
X33853Y01988D01*
X33882Y01950D01*
X31140Y02526D02*
X31140Y03326D01*
X31397Y02564D02*
X31483Y02526D01*
X31626Y02526D01*
X31683Y02564D01*
X31712Y02602D01*
X31740Y02679D01*
X31740Y02755D01*
X31712Y02831D01*
X31683Y02869D01*
X31626Y02907D01*
X31512Y02945D01*
X31454Y02983D01*
X31426Y03021D01*
X31397Y03098D01*
X31397Y03174D01*
X31426Y03250D01*
X31454Y03288D01*
X31512Y03326D01*
X31654Y03326D01*
X31740Y03288D01*
X31997Y02526D02*
X31997Y03326D01*
X32225Y03326D01*
X32283Y03288D01*
X32311Y03250D01*
X32340Y03174D01*
X32340Y03060D01*
X32311Y02983D01*
X32283Y02945D01*
X32225Y02907D01*
X31997Y02907D01*
X22857Y01839D02*
X22943Y01801D01*
X23086Y01801D01*
X23143Y01839D01*
X23172Y01877D01*
X23200Y01954D01*
X23200Y02030D01*
X23172Y02106D01*
X23143Y02144D01*
X23086Y02182D01*
X22972Y02220D01*
X22914Y02258D01*
X22886Y02296D01*
X22857Y02373D01*
X22857Y02449D01*
X22886Y02525D01*
X22914Y02563D01*
X22972Y02601D01*
X23114Y02601D01*
X23200Y02563D01*
X23457Y01801D02*
X23457Y02601D01*
X23685Y02601D01*
X23743Y02563D01*
X23771Y02525D01*
X23800Y02449D01*
X23800Y02335D01*
X23771Y02258D01*
X23743Y02220D01*
X23685Y02182D01*
X23457Y02182D01*
X24057Y01801D02*
X24057Y02601D01*
X24971Y02601D02*
X24971Y02030D01*
X24943Y01915D01*
X24886Y01839D01*
X24800Y01801D01*
X24743Y01801D01*
X25257Y02601D02*
X25257Y01954D01*
X25285Y01877D01*
X25314Y01839D01*
X25371Y01801D01*
X25485Y01801D01*
X25543Y01839D01*
X25571Y01877D01*
X25600Y01954D01*
X25600Y02601D01*
X25886Y01801D02*
X25886Y02601D01*
X26086Y02030D01*
X26286Y02601D01*
X26286Y01801D01*
X26572Y01801D02*
X26572Y02601D01*
X26800Y02601D01*
X26858Y02563D01*
X26886Y02525D01*
X26915Y02449D01*
X26915Y02335D01*
X26886Y02258D01*
X26858Y02220D01*
X26800Y02182D01*
X26572Y02182D01*
X27172Y02220D02*
X27372Y02220D01*
X27458Y01801D02*
X27172Y01801D01*
X27172Y02601D01*
X27458Y02601D01*
X28058Y01801D02*
X27858Y02182D01*
X27715Y01801D02*
X27715Y02601D01*
X27943Y02601D01*
X28001Y02563D01*
X28029Y02525D01*
X28058Y02449D01*
X28058Y02335D01*
X28029Y02258D01*
X28001Y02220D01*
X27943Y02182D01*
X27715Y02182D01*
X28315Y01877D02*
X28343Y01839D01*
X28315Y01801D01*
X28286Y01839D01*
X28315Y01877D01*
X28315Y01801D01*
X28315Y02296D02*
X28343Y02258D01*
X28315Y02220D01*
X28286Y02258D01*
X28315Y02296D01*
X28315Y02220D01*
X35793Y02680D02*
X36079Y02680D01*
X35736Y02451D02*
X35936Y03251D01*
X36136Y02451D01*
X36250Y03251D02*
X36450Y02451D01*
X36650Y03251D01*
X37193Y02451D02*
X36993Y02832D01*
X36850Y02451D02*
X36850Y03251D01*
X37078Y03251D01*
X37136Y03213D01*
X37164Y03175D01*
X37193Y03099D01*
X37193Y02985D01*
X37164Y02908D01*
X37136Y02870D01*
X37078Y02832D01*
X36850Y02832D01*
X37907Y02451D02*
X37907Y03251D01*
X38164Y02489D02*
X38250Y02451D01*
X38393Y02451D01*
X38450Y02489D01*
X38479Y02527D01*
X38507Y02604D01*
X38507Y02680D01*
X38479Y02756D01*
X38450Y02794D01*
X38393Y02832D01*
X38279Y02870D01*
X38221Y02908D01*
X38193Y02946D01*
X38164Y03023D01*
X38164Y03099D01*
X38193Y03175D01*
X38221Y03213D01*
X38279Y03251D01*
X38421Y03251D01*
X38507Y03213D01*
X38764Y02451D02*
X38764Y03251D01*
X38992Y03251D01*
X39050Y03213D01*
X39078Y03175D01*
X39107Y03099D01*
X39107Y02985D01*
X39078Y02908D01*
X39050Y02870D01*
X38992Y02832D01*
X38764Y02832D01*
X39415Y03501D02*
X39415Y04301D01*
X39558Y04301D01*
X39643Y04263D01*
X39701Y04187D01*
X39729Y04111D01*
X39758Y03958D01*
X39758Y03844D01*
X39729Y03692D01*
X39701Y03615D01*
X39643Y03539D01*
X39558Y03501D01*
X39415Y03501D01*
X40329Y04263D02*
X40272Y04301D01*
X40186Y04301D01*
X40101Y04263D01*
X40043Y04187D01*
X40015Y04111D01*
X39986Y03958D01*
X39986Y03844D01*
X40015Y03692D01*
X40043Y03615D01*
X40101Y03539D01*
X40186Y03501D01*
X40243Y03501D01*
X40329Y03539D01*
X40358Y03577D01*
X40358Y03844D01*
X40243Y03844D01*
X40615Y03501D02*
X40615Y04301D01*
X40958Y03501D01*
X40958Y04301D01*
X41244Y03501D02*
X41244Y04301D01*
X41387Y04301D01*
X41472Y04263D01*
X41530Y04187D01*
X41558Y04111D01*
X41587Y03958D01*
X41587Y03844D01*
X41558Y03692D01*
X41530Y03615D01*
X41472Y03539D01*
X41387Y03501D01*
X41244Y03501D01*
X41987Y03235D02*
X41987Y04377D01*
X42415Y03501D02*
X42415Y04301D01*
X42558Y04301D01*
X42643Y04263D01*
X42701Y04187D01*
X42729Y04111D01*
X42758Y03958D01*
X42758Y03844D01*
X42729Y03692D01*
X42701Y03615D01*
X42643Y03539D01*
X42558Y03501D01*
X42415Y03501D01*
X42929Y04301D02*
X43129Y03501D01*
X43329Y04301D01*
X43529Y03806D02*
X43986Y03806D01*
X43757Y03501D02*
X43757Y04111D01*
X12975Y03426D02*
X12775Y03807D01*
X12632Y03426D02*
X12632Y04226D01*
X12860Y04226D01*
X12918Y04188D01*
X12946Y04150D01*
X12975Y04074D01*
X12975Y03960D01*
X12946Y03883D01*
X12918Y03845D01*
X12860Y03807D01*
X12632Y03807D01*
X13232Y03845D02*
X13432Y03845D01*
X13518Y03426D02*
X13232Y03426D01*
X13232Y04226D01*
X13518Y04226D01*
X13746Y03464D02*
X13832Y03426D01*
X13975Y03426D01*
X14032Y03464D01*
X14061Y03502D01*
X14089Y03579D01*
X14089Y03655D01*
X14061Y03731D01*
X14032Y03769D01*
X13975Y03807D01*
X13861Y03845D01*
X13803Y03883D01*
X13775Y03921D01*
X13746Y03998D01*
X13746Y04074D01*
X13775Y04150D01*
X13803Y04188D01*
X13861Y04226D01*
X14003Y04226D01*
X14089Y04188D01*
X14460Y04226D02*
X14574Y04226D01*
X14632Y04188D01*
X14689Y04112D01*
X14717Y03960D01*
X14717Y03693D01*
X14689Y03540D01*
X14632Y03464D01*
X14574Y03426D01*
X14460Y03426D01*
X14403Y03464D01*
X14346Y03540D01*
X14317Y03693D01*
X14317Y03960D01*
X14346Y04112D01*
X14403Y04188D01*
X14460Y04226D01*
X15261Y03426D02*
X14975Y03426D01*
X14975Y04226D01*
X15461Y04226D02*
X15461Y03579D01*
X15489Y03502D01*
X15518Y03464D01*
X15575Y03426D01*
X15689Y03426D01*
X15747Y03464D01*
X15775Y03502D01*
X15804Y03579D01*
X15804Y04226D01*
X16004Y04226D02*
X16347Y04226D01*
X16176Y03426D02*
X16176Y04226D01*
X16547Y03426D02*
X16547Y04226D01*
X16947Y04226D02*
X17061Y04226D01*
X17119Y04188D01*
X17176Y04112D01*
X17204Y03960D01*
X17204Y03693D01*
X17176Y03540D01*
X17119Y03464D01*
X17061Y03426D01*
X16947Y03426D01*
X16890Y03464D01*
X16833Y03540D01*
X16804Y03693D01*
X16804Y03960D01*
X16833Y04112D01*
X16890Y04188D01*
X16947Y04226D01*
X17462Y03426D02*
X17462Y04226D01*
X17805Y03426D01*
X17805Y04226D01*
X18062Y03464D02*
X18148Y03426D01*
X18291Y03426D01*
X18348Y03464D01*
X18377Y03502D01*
X18405Y03579D01*
X18405Y03655D01*
X18377Y03731D01*
X18348Y03769D01*
X18291Y03807D01*
X18177Y03845D01*
X18119Y03883D01*
X18091Y03921D01*
X18062Y03998D01*
X18062Y04074D01*
X18091Y04150D01*
X18119Y04188D01*
X18177Y04226D01*
X18319Y04226D01*
X18405Y04188D01*
X18662Y03502D02*
X18690Y03464D01*
X18662Y03426D01*
X18633Y03464D01*
X18662Y03502D01*
X18662Y03426D01*
X18662Y03921D02*
X18690Y03883D01*
X18662Y03845D01*
X18633Y03883D01*
X18662Y03921D01*
X18662Y03845D01*
X12875Y02986D02*
X13018Y02186D01*
X13132Y02758D01*
X13246Y02186D01*
X13389Y02986D01*
X13618Y02605D02*
X13818Y02605D01*
X13904Y02186D02*
X13618Y02186D01*
X13618Y02986D01*
X13904Y02986D01*
X14161Y02186D02*
X14161Y02986D01*
X14761Y02948D02*
X14704Y02986D01*
X14618Y02986D01*
X14533Y02948D01*
X14475Y02872D01*
X14447Y02796D01*
X14418Y02643D01*
X14418Y02529D01*
X14447Y02377D01*
X14475Y02300D01*
X14533Y02224D01*
X14618Y02186D01*
X14675Y02186D01*
X14761Y02224D01*
X14790Y02262D01*
X14790Y02529D01*
X14675Y02529D01*
X15047Y02186D02*
X15047Y02986D01*
X15047Y02605D02*
X15390Y02605D01*
X15390Y02186D02*
X15390Y02986D01*
X15590Y02986D02*
X15933Y02986D01*
X15762Y02186D02*
X15762Y02986D01*
X16133Y02262D02*
X16161Y02224D01*
X16133Y02186D01*
X16104Y02224D01*
X16133Y02262D01*
X16133Y02186D01*
X16133Y02681D02*
X16161Y02643D01*
X16133Y02605D01*
X16104Y02643D01*
X16133Y02681D01*
X16133Y02605D01*
X17190Y02186D02*
X16847Y02186D01*
X17019Y02186D02*
X17019Y02986D01*
X16962Y02872D01*
X16904Y02796D01*
X16847Y02758D01*
X17561Y02986D02*
X17618Y02986D01*
X17675Y02948D01*
X17704Y02910D01*
X17733Y02834D01*
X17761Y02681D01*
X17761Y02491D01*
X17733Y02339D01*
X17704Y02262D01*
X17675Y02224D01*
X17618Y02186D01*
X17561Y02186D01*
X17504Y02224D01*
X17475Y02262D01*
X17447Y02339D01*
X17418Y02491D01*
X17418Y02681D01*
X17447Y02834D01*
X17475Y02910D01*
X17504Y02948D01*
X17561Y02986D01*
X18275Y02720D02*
X18275Y02186D01*
X18018Y02720D02*
X18018Y02300D01*
X18046Y02224D01*
X18104Y02186D01*
X18189Y02186D01*
X18246Y02224D01*
X18275Y02262D01*
X18818Y02720D02*
X18818Y02072D01*
X18789Y01996D01*
X18761Y01958D01*
X18704Y01920D01*
X18618Y01920D01*
X18561Y01958D01*
X18818Y02224D02*
X18761Y02186D01*
X18647Y02186D01*
X18589Y02224D01*
X18561Y02262D01*
X18532Y02339D01*
X18532Y02567D01*
X18561Y02643D01*
X18589Y02681D01*
X18647Y02720D01*
X18761Y02720D01*
X18818Y02681D01*
X11489Y01746D02*
X11832Y01746D01*
X11661Y00946D02*
X11661Y01746D01*
X12032Y01365D02*
X12232Y01365D01*
X12318Y00946D02*
X12032Y00946D01*
X12032Y01746D01*
X12318Y01746D01*
X12575Y00946D02*
X12575Y01746D01*
X12775Y01175D01*
X12975Y01746D01*
X12975Y00946D01*
X13261Y00946D02*
X13261Y01746D01*
X13489Y01746D01*
X13547Y01708D01*
X13575Y01670D01*
X13604Y01594D01*
X13604Y01480D01*
X13575Y01403D01*
X13547Y01365D01*
X13489Y01327D01*
X13261Y01327D01*
X13861Y01365D02*
X14061Y01365D01*
X14147Y00946D02*
X13861Y00946D01*
X13861Y01746D01*
X14147Y01746D01*
X14747Y00946D02*
X14547Y01327D01*
X14404Y00946D02*
X14404Y01746D01*
X14632Y01746D01*
X14690Y01708D01*
X14718Y01670D01*
X14747Y01594D01*
X14747Y01480D01*
X14718Y01403D01*
X14690Y01365D01*
X14632Y01327D01*
X14404Y01327D01*
X14975Y01175D02*
X15261Y01175D01*
X14918Y00946D02*
X15118Y01746D01*
X15318Y00946D01*
X15432Y01746D02*
X15775Y01746D01*
X15604Y00946D02*
X15604Y01746D01*
X15975Y01746D02*
X15975Y01099D01*
X16003Y01022D01*
X16032Y00984D01*
X16089Y00946D01*
X16203Y00946D01*
X16261Y00984D01*
X16289Y01022D01*
X16318Y01099D01*
X16318Y01746D01*
X16947Y00946D02*
X16747Y01327D01*
X16604Y00946D02*
X16604Y01746D01*
X16832Y01746D01*
X16890Y01708D01*
X16918Y01670D01*
X16947Y01594D01*
X16947Y01480D01*
X16918Y01403D01*
X16890Y01365D01*
X16832Y01327D01*
X16604Y01327D01*
X17204Y01365D02*
X17404Y01365D01*
X17490Y00946D02*
X17204Y00946D01*
X17204Y01746D01*
X17490Y01746D01*
X17747Y01022D02*
X17775Y00984D01*
X17747Y00946D01*
X17718Y00984D01*
X17747Y01022D01*
X17747Y00946D01*
X17747Y01441D02*
X17775Y01403D01*
X17747Y01365D01*
X17718Y01403D01*
X17747Y01441D01*
X17747Y01365D01*
X18804Y00946D02*
X18461Y00946D01*
X18633Y00946D02*
X18633Y01746D01*
X18576Y01632D01*
X18518Y01556D01*
X18461Y01518D01*
X19061Y00946D02*
X19061Y01480D01*
X19061Y01403D02*
X19089Y01441D01*
X19147Y01480D01*
X19232Y01480D01*
X19289Y01441D01*
X19318Y01365D01*
X19318Y00946D01*
X19318Y01365D02*
X19347Y01441D01*
X19404Y01480D01*
X19489Y01480D01*
X19547Y01441D01*
X19575Y01365D01*
X19575Y00946D01*
X19861Y00946D02*
X19861Y01746D01*
X20204Y00946D02*
X19947Y01403D01*
X20204Y01746D02*
X19861Y01289D01*
X04814Y03501D02*
X05157Y03501D01*
X04986Y02701D02*
X04986Y03501D01*
X05471Y03501D02*
X05585Y03501D01*
X05643Y03463D01*
X05700Y03387D01*
X05728Y03235D01*
X05728Y02968D01*
X05700Y02815D01*
X05643Y02739D01*
X05585Y02701D01*
X05471Y02701D01*
X05414Y02739D01*
X05357Y02815D01*
X05328Y02968D01*
X05328Y03235D01*
X05357Y03387D01*
X05414Y03463D01*
X05471Y03501D01*
X05986Y02701D02*
X05986Y03501D01*
X06214Y03501D01*
X06272Y03463D01*
X06300Y03425D01*
X06329Y03349D01*
X06329Y03235D01*
X06300Y03158D01*
X06272Y03120D01*
X06214Y03082D01*
X05986Y03082D01*
G54D12*
X06300Y12232D03*
X06300Y08768D03*
X04135Y12232D03*
X04135Y08768D03*
G54D13*
X06300Y11130D03*
X06300Y10815D03*
X06300Y10500D03*
X06300Y10185D03*
X06300Y09870D03*
G54D14*
X05276Y11366D03*
X05276Y09634D03*
G54D15*
X28854Y09457D03*
X28854Y09772D03*
X28854Y10087D03*
X28854Y10402D03*
X28854Y10717D03*
X28854Y11032D03*
X28854Y11347D03*
X28854Y11662D03*
X32620Y11660D03*
X32620Y09450D03*
X32620Y09770D03*
X32620Y10090D03*
X32620Y10400D03*
X32620Y10720D03*
X32620Y11030D03*
X32620Y11350D03*
G54D16*
X29638Y12450D03*
X29952Y12450D03*
X30268Y12450D03*
X30582Y12450D03*
X30898Y12450D03*
X31212Y12450D03*
X31528Y12450D03*
X31842Y12450D03*
X29640Y08670D03*
X29950Y08670D03*
X30270Y08670D03*
X30580Y08670D03*
X30890Y08670D03*
X31210Y08670D03*
X31530Y08670D03*
X31850Y08670D03*
G54D17*
X08000Y08250D03*
X08000Y06950D03*
X20750Y11150D03*
X20750Y12450D03*
X20750Y09300D03*
X20750Y08000D03*
X06300Y05450D03*
X06300Y06750D03*
G54D18*
X08950Y05800D03*
X07650Y05800D03*
G54D17*
X11100Y04650D03*
X11100Y05950D03*
X16200Y11450D03*
X16200Y12750D03*
X16200Y09650D03*
X16200Y08350D03*
X29150Y06300D03*
X29150Y07600D03*
X15100Y10350D03*
X15100Y09050D03*
X28750Y12600D03*
X28750Y13900D03*
G54D18*
X06250Y07700D03*
X04950Y07700D03*
G54D17*
X10000Y04650D03*
X10000Y05950D03*
X33750Y09675D03*
X33750Y08375D03*
G54D18*
X24300Y08550D03*
X25600Y08550D03*
X24300Y10350D03*
X25600Y10350D03*
G54D17*
X41000Y07350D03*
X41000Y08650D03*
X42500Y07350D03*
X42500Y08650D03*
G54D19*
X13600Y09000D03*
G54D20*
X12600Y09000D03*
X13600Y10000D03*
X12600Y10000D03*
X13600Y11000D03*
X12600Y11000D03*
X13600Y12000D03*
X12600Y12000D03*
G54D19*
X38500Y05400D03*
G54D20*
X38500Y04400D03*
X37500Y05400D03*
X37500Y04400D03*
X36500Y05400D03*
X36500Y04400D03*
G54D19*
X30650Y06250D03*
G54D20*
X30650Y05250D03*
X30650Y04250D03*
G54D21*
X24250Y12709D03*
X24250Y11591D03*
X10900Y06841D03*
X10900Y07959D03*
X10000Y06841D03*
X10000Y07959D03*
G54D19*
X44500Y11000D03*
G54D20*
X45500Y11000D03*
G54D22*
X11150Y11900D03*
X10900Y11900D03*
X10640Y11900D03*
X10380Y11900D03*
X10130Y11900D03*
X09870Y11900D03*
X09610Y11900D03*
X09360Y11900D03*
X09100Y11900D03*
X08850Y11900D03*
X08590Y11900D03*
X08330Y11900D03*
X08080Y11900D03*
X07820Y11900D03*
X07820Y09100D03*
X08080Y09100D03*
X08320Y09100D03*
X08590Y09100D03*
X08850Y09100D03*
X09100Y09100D03*
X09360Y09100D03*
X09610Y09100D03*
X09870Y09100D03*
X10130Y09100D03*
X10380Y09100D03*
X10640Y09100D03*
X10900Y09100D03*
X11150Y09100D03*
G54D23*
X37300Y12900D03*
X36119Y12900D03*
G54D24*
X27150Y07380D03*
X27150Y11120D03*
G54D19*
X32650Y06250D03*
G54D20*
X32650Y05250D03*
X32650Y04250D03*
G54D19*
X31650Y06250D03*
G54D20*
X31650Y05250D03*
X31650Y04250D03*
G54D19*
X42500Y05500D03*
G54D20*
X41500Y05500D03*
G54D25*
X02000Y02000D03*
X47000Y02000D03*
G54D26*
X17250Y11050D03*
X19350Y11050D03*
X17250Y11550D03*
X17250Y12050D03*
X17250Y12550D03*
X19350Y11550D03*
X19350Y12050D03*
X19350Y12550D03*
X19350Y09450D03*
X17250Y09450D03*
X19350Y08950D03*
X19350Y08450D03*
X19350Y07950D03*
X17250Y08950D03*
X17250Y08450D03*
X17250Y07950D03*
G54D27*
X00000Y00000D03*
X49000Y00000D03*
X28150Y10050D03*
X21750Y09250D03*
X42500Y06500D03*
X28150Y10450D03*
X20750Y12450D03*
X20750Y08000D03*
X28700Y02800D03*
X34700Y10000D03*
X43500Y09000D03*
X21600Y11700D03*
X33300Y06200D03*
X38500Y08200D03*
X14300Y09000D03*
X15300Y08400D03*
X10700Y10000D03*
X15500Y12400D03*
X15100Y09700D03*
X21500Y08650D03*
X23300Y08650D03*
X23550Y12000D03*
X29100Y11950D03*
X11800Y11000D03*
X31150Y05650D03*
X11800Y12000D03*
X14600Y12100D03*
X33775Y12025D03*
X33800Y08375D03*
X11800Y09000D03*
X32100Y08200D03*
X32050Y05700D03*
X32600Y06900D03*
X37500Y08200D03*
X32600Y07475D03*
X35500Y08200D03*
X07200Y11100D03*
X07100Y07900D03*
G54D28*
X32620Y10400D02*
X32100Y10400D01*
X29350Y10700D02*
X29450Y10600D01*
X28854Y10717D02*
X28871Y10700D01*
X28854Y10087D02*
X29450Y10087D01*
X28871Y10700D02*
X29350Y10700D01*
G54D29*
X21700Y09300D02*
X20750Y09300D01*
G54D28*
X32620Y09770D02*
X33655Y09770D01*
X19650Y09450D02*
X20600Y09450D01*
X20600Y09450D02*
X20750Y09300D01*
G54D29*
X21750Y09250D02*
X21700Y09300D01*
G54D28*
X19550Y09450D02*
X19650Y09450D01*
X31950Y10250D02*
X31950Y10087D01*
X29450Y10087D02*
X31950Y10087D01*
X32100Y10400D02*
X31950Y10250D01*
X19650Y11050D02*
X20650Y11050D01*
X20650Y11050D02*
X20750Y11150D01*
X20650Y11050D02*
X20750Y11150D01*
X20750Y09300D02*
X20750Y11150D01*
X31950Y09950D02*
X31950Y10087D01*
X28187Y10087D02*
X28854Y10087D01*
X29450Y10600D02*
X29450Y10087D01*
X19350Y09450D02*
X19650Y09450D01*
X32620Y09770D02*
X32130Y09770D01*
X31950Y10087D02*
X31950Y10050D01*
X19350Y11050D02*
X20650Y11050D01*
X28150Y10050D02*
X28187Y10087D01*
X33655Y09770D02*
X33750Y09675D01*
X32130Y09770D02*
X31950Y09950D01*
G54D29*
X42500Y06500D02*
X42500Y07350D01*
X42500Y07350D02*
X41000Y07350D01*
G54D28*
X22600Y06850D02*
X23800Y05650D01*
X28400Y05650D02*
X29150Y06400D01*
X23800Y05650D02*
X28400Y05650D01*
X29150Y06400D02*
X29150Y06300D01*
X28250Y06500D02*
X28725Y06975D01*
X30890Y07890D02*
X30890Y08670D01*
X22900Y07000D02*
X23900Y06000D01*
X29975Y06975D02*
X30890Y07890D01*
X23900Y06000D02*
X27750Y06000D01*
X28725Y06975D02*
X29975Y06975D01*
X27750Y06000D02*
X28250Y06500D01*
X34125Y11350D02*
X34500Y11725D01*
X34500Y11725D02*
X34500Y12575D01*
X32620Y11350D02*
X34125Y11350D01*
X33935Y11660D02*
X34150Y11875D01*
X32620Y11660D02*
X33390Y11660D01*
X34150Y11875D02*
X34150Y12325D01*
X33390Y11660D02*
X33935Y11660D01*
X27650Y12450D02*
X26400Y12450D01*
X19550Y07950D02*
X20700Y07950D01*
X19350Y07950D02*
X19550Y07950D01*
X28150Y10450D02*
X28198Y10402D01*
G54D29*
X24300Y11541D02*
X24250Y11591D01*
G54D28*
X28198Y10402D02*
X28854Y10402D01*
X29468Y11032D02*
X28854Y11032D01*
X27850Y11250D02*
X27850Y12250D01*
X29780Y10720D02*
X29468Y11032D01*
G54D29*
X20750Y12450D02*
X20750Y12475D01*
G54D28*
X26100Y12150D02*
X25850Y12400D01*
G54D29*
X33980Y10720D02*
X34700Y10000D01*
G54D28*
X28854Y11032D02*
X28232Y11032D01*
X32620Y10720D02*
X33980Y10720D01*
X20650Y12550D02*
X20750Y12450D01*
X28150Y10950D02*
X27850Y11250D01*
G54D29*
X20425Y12450D02*
X20325Y12550D01*
G54D30*
X19950Y04250D02*
X27250Y04250D01*
G54D29*
X26100Y12150D02*
X26400Y12450D01*
G54D28*
X20700Y07950D02*
X20750Y08000D01*
G54D29*
X20325Y12550D02*
X19650Y12550D01*
G54D28*
X27850Y12250D02*
X27650Y12450D01*
G54D29*
X24300Y10350D02*
X26100Y12150D01*
G54D30*
X18550Y05650D02*
X19950Y04250D01*
G54D29*
X24300Y08550D02*
X24300Y10350D01*
X24300Y10350D02*
X24300Y11541D01*
G54D28*
X28150Y10450D02*
X28150Y10950D01*
G54D29*
X20750Y12450D02*
X20425Y12450D01*
G54D28*
X32620Y10720D02*
X29780Y10720D01*
X19350Y12550D02*
X20650Y12550D01*
G54D30*
X27250Y04250D02*
X28700Y02800D01*
G54D28*
X28232Y11032D02*
X28150Y10950D01*
G54D29*
X43150Y08650D02*
X42500Y08650D01*
X43500Y09000D02*
X43150Y08650D01*
X36800Y11900D02*
X40400Y11900D01*
X41000Y11300D02*
X41000Y08650D01*
X36119Y12581D02*
X36800Y11900D01*
X40400Y11900D02*
X41000Y11300D01*
G54D28*
X19350Y11550D02*
X19925Y11550D01*
X20075Y11700D02*
X21600Y11700D01*
X19650Y11550D02*
X19925Y11550D01*
X19925Y11550D02*
X20075Y11700D01*
G54D31*
X21600Y11700D02*
X21600Y11700D01*
G54D29*
X38500Y08200D02*
X38500Y08221D01*
X38500Y08221D02*
X36479Y06200D01*
X33300Y06200D02*
X36479Y06200D01*
G54D28*
X17000Y09450D02*
X17250Y09450D01*
G54D31*
X16200Y09650D02*
X15800Y09650D01*
G54D28*
X17000Y09450D02*
X16400Y09450D01*
X17150Y11050D02*
X16600Y11050D01*
X17250Y11050D02*
X16600Y11050D01*
X15800Y09650D02*
X15100Y10350D01*
X16600Y11050D02*
X16200Y11450D01*
G54D31*
X15100Y10350D02*
X15100Y10300D01*
G54D28*
X15100Y10300D02*
X14300Y09500D01*
X17050Y09450D02*
X17000Y09450D01*
G54D31*
X16400Y09450D02*
X16200Y09650D01*
G54D28*
X14300Y09500D02*
X14300Y09000D01*
X16200Y11450D02*
X15100Y10350D01*
G54D29*
X26380Y10350D02*
X27150Y11120D01*
G54D28*
X27750Y09675D02*
X27150Y10275D01*
X28854Y09772D02*
X28347Y09772D01*
X28347Y09772D02*
X28250Y09675D01*
X28250Y09675D02*
X27750Y09675D01*
X27150Y10275D02*
X27150Y11120D01*
G54D29*
X25600Y10350D02*
X26380Y10350D01*
X25980Y08550D02*
X27150Y07380D01*
X25600Y08550D02*
X25980Y08550D01*
G54D31*
X28854Y09457D02*
X28854Y09084D01*
G54D29*
X27150Y07380D02*
X28854Y09084D01*
G54D31*
X25980Y08550D02*
X27150Y07380D01*
X09610Y09100D02*
X09610Y08654D01*
X09610Y08654D02*
X10000Y08264D01*
X10000Y08264D02*
X10000Y07959D01*
G54D28*
X10000Y05950D02*
X10000Y06841D01*
G54D31*
X08590Y09490D02*
X08590Y09100D01*
G54D28*
X15350Y08350D02*
X15300Y08400D01*
G54D31*
X08590Y09514D02*
X08638Y09562D01*
X08638Y09562D02*
X09362Y09562D01*
X09360Y09560D02*
X09360Y09100D01*
G54D28*
X09610Y11490D02*
X09600Y11500D01*
G54D31*
X09362Y09562D02*
X09360Y09560D01*
G54D28*
X07700Y10500D02*
X08638Y09562D01*
X09362Y09562D02*
X09800Y10000D01*
G54D31*
X09610Y11900D02*
X09610Y11500D01*
X06300Y09870D02*
X05630Y09870D01*
X05630Y09870D02*
X04135Y11365D01*
G54D28*
X07700Y10600D02*
X07700Y11250D01*
X06718Y12232D02*
X06300Y12232D01*
X07700Y10600D02*
X07700Y10500D01*
G54D31*
X10640Y09100D02*
X10380Y09100D01*
G54D32*
X08590Y09100D02*
X08590Y08610D01*
G54D28*
X16800Y07950D02*
X16600Y07950D01*
G54D31*
X10700Y10000D02*
X10640Y09940D01*
X15350Y08350D02*
X15300Y08400D01*
G54D29*
X04135Y11365D02*
X04135Y12232D01*
G54D28*
X16600Y07950D02*
X16200Y08350D01*
X06300Y09870D02*
X06300Y08768D01*
X09800Y10000D02*
X10700Y10000D01*
X06300Y08768D02*
X04135Y08768D01*
X07700Y11250D02*
X06718Y12232D01*
G54D31*
X04950Y07700D02*
X04950Y07953D01*
G54D28*
X09600Y11500D02*
X09610Y11500D01*
X17150Y12550D02*
X16400Y12550D01*
G54D31*
X10640Y09525D02*
X10640Y09100D01*
G54D28*
X04950Y07953D02*
X04135Y08768D01*
X07650Y06600D02*
X08000Y06950D01*
X17250Y12550D02*
X16400Y12550D01*
X08638Y09562D02*
X08650Y09550D01*
G54D29*
X06300Y12232D02*
X04135Y12232D01*
G54D28*
X09610Y10190D02*
X09610Y11490D01*
X09800Y10000D02*
X09610Y10190D01*
G54D31*
X08600Y08600D02*
X08600Y07550D01*
G54D28*
X17250Y07950D02*
X16800Y07950D01*
G54D31*
X08650Y09550D02*
X08590Y09490D01*
X08600Y07550D02*
X08000Y06950D01*
X08590Y09100D02*
X08590Y09514D01*
G54D28*
X10640Y09940D02*
X10700Y10000D01*
G54D31*
X08660Y09560D02*
X08650Y09550D01*
G54D28*
X17050Y07950D02*
X16800Y07950D01*
G54D31*
X08590Y08610D02*
X08600Y08600D01*
G54D28*
X08638Y09562D02*
X09362Y09562D01*
X10640Y09525D02*
X10640Y09940D01*
G54D31*
X07650Y06600D02*
X08000Y06950D01*
G54D28*
X16200Y08350D02*
X15350Y08350D01*
X07650Y05800D02*
X07650Y06600D01*
G54D31*
X09360Y09560D02*
X09360Y09100D01*
G54D28*
X15200Y08950D02*
X15100Y09050D01*
X17250Y08950D02*
X16825Y08950D01*
X17050Y08950D02*
X16825Y08950D01*
X15100Y09050D02*
X15100Y09700D01*
X16825Y08950D02*
X15200Y08950D01*
X28148Y11550D02*
X28148Y12173D01*
X28148Y11550D02*
X28150Y11550D01*
X28351Y11347D02*
X28148Y11550D01*
X28854Y11347D02*
X28351Y11347D01*
X28148Y12173D02*
X28150Y12175D01*
G54D31*
X28150Y12350D02*
X28150Y12175D01*
G54D28*
X23550Y12000D02*
X23550Y08900D01*
X19350Y08450D02*
X19550Y08450D01*
X20100Y08650D02*
X19900Y08450D01*
X21500Y08650D02*
X20100Y08650D01*
X23550Y08900D02*
X23300Y08650D01*
X19900Y08450D02*
X19550Y08450D01*
X28854Y11662D02*
X28854Y11704D01*
X28854Y11704D02*
X29100Y11950D01*
G54D31*
X29640Y08090D02*
X29150Y07600D01*
X29640Y08670D02*
X29640Y08090D01*
X11800Y11000D02*
X11150Y11650D01*
X11150Y11650D02*
X11150Y11900D01*
G54D28*
X31530Y07930D02*
X31150Y07550D01*
X31530Y08670D02*
X31530Y07930D01*
X31150Y07550D02*
X31150Y05650D01*
G54D31*
X10130Y12330D02*
X10130Y11900D01*
G54D28*
X10300Y12500D02*
X10130Y12330D01*
X11800Y12000D02*
X11300Y12500D01*
X11300Y12500D02*
X10300Y12500D01*
X17250Y12050D02*
X16950Y12050D01*
G54D31*
X14650Y12050D02*
X14600Y12100D01*
G54D28*
X17150Y12050D02*
X16950Y12050D01*
X16950Y12050D02*
X14650Y12050D01*
G54D29*
X24250Y12709D02*
X24659Y12709D01*
G54D31*
X08080Y09720D02*
X06985Y10815D01*
X06985Y10815D02*
X06300Y10815D01*
G54D32*
X08080Y09100D02*
X08080Y09720D01*
G54D28*
X30582Y12450D02*
X30582Y11918D01*
G54D29*
X33800Y08375D02*
X33750Y08375D01*
G54D28*
X30582Y12450D02*
X30570Y12462D01*
X31950Y11750D02*
X32225Y12025D01*
X30582Y11918D02*
X30750Y11750D01*
X30750Y11750D02*
X31950Y11750D01*
X32225Y12025D02*
X33775Y12025D01*
G54D31*
X28750Y12600D02*
X28350Y12600D01*
X29300Y12450D02*
X29638Y12450D01*
X28750Y12600D02*
X29150Y12600D01*
X29150Y12600D02*
X29300Y12450D01*
G54D28*
X10000Y04650D02*
X11100Y04650D01*
G54D29*
X08150Y05000D02*
X08950Y05800D01*
G54D28*
X11800Y09500D02*
X11800Y09000D01*
G54D31*
X09100Y08700D02*
X09100Y09100D01*
G54D29*
X06900Y05000D02*
X08150Y05000D01*
X06450Y05450D02*
X06900Y05000D01*
G54D31*
X11800Y07800D02*
X11400Y07400D01*
G54D28*
X10380Y11475D02*
X10380Y10920D01*
X08950Y05700D02*
X08950Y05800D01*
X10000Y04650D02*
X08950Y05700D01*
G54D29*
X09100Y07400D02*
X09100Y08550D01*
X08950Y05800D02*
X08950Y07200D01*
G54D28*
X10380Y10920D02*
X11800Y09500D01*
X11400Y07400D02*
X11800Y07800D01*
G54D31*
X11800Y09000D02*
X11800Y08900D01*
G54D29*
X08950Y07200D02*
X09100Y07350D01*
G54D28*
X09100Y08700D02*
X09100Y08550D01*
G54D29*
X09100Y07350D02*
X09100Y07400D01*
G54D28*
X09600Y07400D02*
X11400Y07400D01*
G54D29*
X06300Y05450D02*
X06450Y05450D01*
G54D31*
X10380Y11900D02*
X10380Y11475D01*
G54D28*
X09100Y07400D02*
X09600Y07400D01*
X11800Y07800D02*
X11800Y09000D01*
X11100Y05950D02*
X11100Y06641D01*
G54D31*
X11100Y06641D02*
X10900Y06841D01*
G54D28*
X11100Y06641D02*
X10900Y06841D01*
G54D31*
X09870Y09100D02*
X09870Y08755D01*
X09870Y08755D02*
X10125Y08500D01*
G54D28*
X10800Y08500D02*
X10900Y08400D01*
X10900Y08400D02*
X10900Y07959D01*
G54D31*
X10125Y08500D02*
X10200Y08500D01*
G54D28*
X10200Y08500D02*
X10800Y08500D01*
G54D32*
X08320Y08570D02*
X08000Y08250D01*
X08320Y09100D02*
X08320Y08570D01*
G54D28*
X32100Y08200D02*
X31850Y08450D01*
X31850Y08450D02*
X31850Y08670D01*
X32150Y07647D02*
X32620Y08117D01*
X32620Y08117D02*
X32620Y09450D01*
X32150Y06950D02*
X32150Y06950D01*
X32150Y05800D02*
X32150Y06950D01*
X32050Y05700D02*
X32150Y05800D01*
X32150Y06950D02*
X32150Y07647D01*
G54D29*
X36200Y06900D02*
X32600Y06900D01*
X37500Y08200D02*
X36200Y06900D01*
X35500Y08206D02*
X34769Y07475D01*
X34769Y07475D02*
X32600Y07475D01*
X35500Y08200D02*
X35500Y08206D01*
G54D31*
X07820Y09580D02*
X06900Y10500D01*
X07820Y09100D02*
X07820Y09580D01*
X06900Y10500D02*
X06300Y10500D01*
X06250Y06800D02*
X06300Y06750D01*
G54D28*
X07100Y07900D02*
X06900Y07700D01*
G54D31*
X07170Y11130D02*
X07200Y11100D01*
X06300Y11130D02*
X07170Y11130D01*
G54D28*
X06250Y07700D02*
X06250Y06800D01*
X06900Y07700D02*
X07100Y07900D01*
X06250Y07700D02*
X06900Y07700D01*
M02*
