M48
;DRILL file {Pcbnew (2011-12-28 BZR 3254)-stable} date 25/02/2013 21:37:06
;FORMAT={3:3/ absolute / metric / suppress leading zeros}
FMAT,2
METRIC,TZ
T1C0.300
T2C0.813
T3C1.001
T4C1.016
T5C3.048
%
G90
G05
M71
T1
X0Y0
X18034Y20066
X18288Y28194
X27178Y25400
X29972Y30480
X29972Y27940
X29972Y22860
X36322Y22860
X37084Y30734
X38354Y24638
X38862Y21336
X39370Y31496
X52705Y31623
X52705Y20320
X54610Y21971
X54864Y29718
X55245Y23495
X59182Y21971
X59817Y30480
X71501Y26543
X71501Y25527
X72898Y7112
X73914Y30353
X79121Y14351
X81407Y14478
X81534Y20828
X82804Y18987
X82804Y17526
X84582Y15748
X85789Y30544
X85852Y21273
X88138Y25400
X90170Y20828
X95250Y20828
X97790Y20828
X107950Y16510
X110490Y22860
X124460Y0
T2
X113030Y27940
X115570Y27940
T3
X13401Y28870
X13401Y24470
T4
X32004Y30480
X32004Y27940
X32004Y25400
X32004Y22860
X34544Y30480
X34544Y27940
X34544Y25400
X34544Y22860
X77851Y15875
X77851Y13335
X77851Y10795
X80391Y15875
X80391Y13335
X80391Y10795
X82931Y15875
X82931Y13335
X82931Y10795
X92710Y13716
X92710Y11176
X95250Y13716
X95250Y11176
X97790Y13716
X97790Y11176
X105410Y13970
X107950Y13970
T5
X5080Y5080
X119380Y5080
T0
M30
