G04 (created by PCBNEW-RS274X (2011-12-28 BZR 3254)-stable) date 02/11/2012 08:36:12*
G01*
G70*
G90*
%MOIN*%
G04 Gerber Fmt 3.4, Leading zero omitted, Abs format*
%FSLAX34Y34*%
G04 APERTURE LIST*
%ADD10C,0.030000*%
%ADD11R,0.030000X0.020000*%
G04 APERTURE END LIST*
G54D10*
G54D11*
X15500Y-25000D02*
X15000Y-22000D01*
X16000Y-25000D02*
X17500Y-22500D01*
X16500Y-26000D02*
X20000Y-25000D01*
X16500Y-26500D02*
X19500Y-27000D01*
X17000Y-27000D02*
X18500Y-30500D01*
X16500Y-27500D02*
X17000Y-31000D01*
X16000Y-27500D02*
X15000Y-30500D01*
X15500Y-27000D02*
X13500Y-28500D01*
X15500Y-26500D02*
X13000Y-27000D01*
X15500Y-26000D02*
X13000Y-25000D01*
X15500Y-25500D02*
X14000Y-23500D01*
X16500Y-25500D02*
X19000Y-24500D01*
X25500Y-22000D02*
X23500Y-20000D01*
X20500Y-22000D02*
X22500Y-20000D01*
X25500Y-17000D02*
X23500Y-19000D01*
X20500Y-17000D02*
X22500Y-19000D01*
X15500Y-19000D02*
X13500Y-17000D01*
X15500Y-20000D02*
X13500Y-22000D01*
X16500Y-20000D02*
X18500Y-22000D01*
X16500Y-19000D02*
X18500Y-17000D01*
X23500Y-16000D02*
X23500Y-14000D01*
X23500Y-11000D02*
X23500Y-13000D01*
X26500Y-13500D02*
X24000Y-13500D01*
X20500Y-13500D02*
X23000Y-13500D01*
X16500Y-13500D02*
X19000Y-13500D01*
X15500Y-13500D02*
X13000Y-13500D01*
X16000Y-14000D02*
X16000Y-16000D01*
X16000Y-13000D02*
X16000Y-11000D01*
M02*
