G04 (created by PCBNEW-RS274X (2010-05-05 BZR 2356)-stable) date 28/05/2010 16:52:59*
G01*
G70*
G90*
%MOIN*%
G04 Gerber Fmt 3.4, Leading zero omitted, Abs format*
%FSLAX34Y34*%
G04 APERTURE LIST*
%ADD10C,0.006000*%
%ADD11C,0.012000*%
%ADD12C,0.015000*%
%ADD13R,0.062000X0.090000*%
%ADD14O,0.062000X0.090000*%
%ADD15R,0.110000X0.062000*%
%ADD16O,0.110000X0.062000*%
%ADD17R,0.090000X0.062000*%
%ADD18O,0.090000X0.062000*%
%ADD19R,0.150000X0.150000*%
%ADD20C,0.150000*%
%ADD21C,0.075000*%
%ADD22R,0.075000X0.075000*%
%ADD23C,0.070000*%
%ADD24R,0.070000X0.070000*%
%ADD25C,0.100000*%
%ADD26R,0.100000X0.100000*%
%ADD27R,0.060000X0.060000*%
%ADD28C,0.060000*%
%ADD29R,0.350000X0.350000*%
%ADD30O,0.080000X0.100000*%
%ADD31R,0.070000X0.100000*%
%ADD32C,0.160000*%
%ADD33R,0.110000X0.010000*%
%ADD34R,0.010000X0.110000*%
%ADD35C,0.010000*%
%ADD36R,0.090000X0.010000*%
%ADD37C,0.095000*%
%ADD38R,0.080000X0.080000*%
%ADD39C,0.080000*%
%ADD40R,0.075000X0.060000*%
%ADD41O,0.075000X0.060000*%
%ADD42R,0.065000X0.065000*%
%ADD43C,0.065000*%
%ADD44C,0.025000*%
%ADD45C,0.040000*%
G04 APERTURE END LIST*
G54D10*
G54D11*
X62843Y-38274D02*
X63043Y-39074D01*
X63243Y-38274D01*
X63786Y-38998D02*
X63757Y-39036D01*
X63671Y-39074D01*
X63614Y-39074D01*
X63529Y-39036D01*
X63471Y-38960D01*
X63443Y-38883D01*
X63414Y-38731D01*
X63414Y-38617D01*
X63443Y-38464D01*
X63471Y-38388D01*
X63529Y-38312D01*
X63614Y-38274D01*
X63671Y-38274D01*
X63757Y-38312D01*
X63786Y-38350D01*
X64386Y-38998D02*
X64357Y-39036D01*
X64271Y-39074D01*
X64214Y-39074D01*
X64129Y-39036D01*
X64071Y-38960D01*
X64043Y-38883D01*
X64014Y-38731D01*
X64014Y-38617D01*
X64043Y-38464D01*
X64071Y-38388D01*
X64129Y-38312D01*
X64214Y-38274D01*
X64271Y-38274D01*
X64357Y-38312D01*
X64386Y-38350D01*
X65214Y-38274D02*
X65328Y-38274D01*
X65386Y-38312D01*
X65443Y-38388D01*
X65471Y-38540D01*
X65471Y-38807D01*
X65443Y-38960D01*
X65386Y-39036D01*
X65328Y-39074D01*
X65214Y-39074D01*
X65157Y-39036D01*
X65100Y-38960D01*
X65071Y-38807D01*
X65071Y-38540D01*
X65100Y-38388D01*
X65157Y-38312D01*
X65214Y-38274D01*
X65729Y-39074D02*
X65729Y-38274D01*
X66072Y-39074D01*
X66072Y-38274D01*
X78057Y-42824D02*
X77714Y-42824D01*
X77886Y-42824D02*
X77886Y-42024D01*
X77829Y-42138D01*
X77771Y-42214D01*
X77714Y-42252D01*
X78314Y-42405D02*
X78771Y-42405D01*
X78771Y-42633D02*
X78314Y-42633D01*
X79057Y-42290D02*
X79514Y-42519D01*
X79057Y-42748D01*
X79800Y-42290D02*
X80257Y-42519D01*
X79800Y-42748D01*
X66557Y-47824D02*
X66214Y-47824D01*
X66386Y-47824D02*
X66386Y-47024D01*
X66329Y-47138D01*
X66271Y-47214D01*
X66214Y-47252D01*
X66814Y-47405D02*
X67271Y-47405D01*
X67271Y-47633D02*
X66814Y-47633D01*
X67557Y-47290D02*
X68014Y-47519D01*
X67557Y-47748D01*
X68300Y-47290D02*
X68757Y-47519D01*
X68300Y-47748D01*
X66557Y-43324D02*
X66214Y-43324D01*
X66386Y-43324D02*
X66386Y-42524D01*
X66329Y-42638D01*
X66271Y-42714D01*
X66214Y-42752D01*
X66814Y-42905D02*
X67271Y-42905D01*
X67271Y-43133D02*
X66814Y-43133D01*
X67557Y-42790D02*
X68014Y-43019D01*
X67557Y-43248D01*
X68300Y-42790D02*
X68757Y-43019D01*
X68300Y-43248D01*
X78307Y-19574D02*
X77964Y-19574D01*
X78136Y-19574D02*
X78136Y-18774D01*
X78079Y-18888D01*
X78021Y-18964D01*
X77964Y-19002D01*
X78564Y-19155D02*
X79021Y-19155D01*
X79021Y-19383D02*
X78564Y-19383D01*
X79307Y-19040D02*
X79764Y-19269D01*
X79307Y-19498D01*
X80050Y-19040D02*
X80507Y-19269D01*
X80050Y-19498D01*
X65057Y-19574D02*
X64714Y-19574D01*
X64886Y-19574D02*
X64886Y-18774D01*
X64829Y-18888D01*
X64771Y-18964D01*
X64714Y-19002D01*
X65314Y-19155D02*
X65771Y-19155D01*
X65771Y-19383D02*
X65314Y-19383D01*
X66057Y-19040D02*
X66514Y-19269D01*
X66057Y-19498D01*
X66800Y-19040D02*
X67257Y-19269D01*
X66800Y-19498D01*
X34650Y-53524D02*
X34650Y-54095D01*
X34622Y-54210D01*
X34565Y-54286D01*
X34479Y-54324D01*
X34422Y-54324D01*
X34936Y-54324D02*
X34936Y-53524D01*
X35164Y-53524D01*
X35222Y-53562D01*
X35250Y-53600D01*
X35279Y-53676D01*
X35279Y-53790D01*
X35250Y-53867D01*
X35222Y-53905D01*
X35164Y-53943D01*
X34936Y-53943D01*
X35536Y-54019D02*
X35993Y-54019D01*
X36622Y-54248D02*
X36593Y-54286D01*
X36507Y-54324D01*
X36450Y-54324D01*
X36365Y-54286D01*
X36307Y-54210D01*
X36279Y-54133D01*
X36250Y-53981D01*
X36250Y-53867D01*
X36279Y-53714D01*
X36307Y-53638D01*
X36365Y-53562D01*
X36450Y-53524D01*
X36507Y-53524D01*
X36593Y-53562D01*
X36622Y-53600D01*
X36879Y-54324D02*
X36879Y-53524D01*
X36879Y-53905D02*
X37222Y-53905D01*
X37222Y-54324D02*
X37222Y-53524D01*
X37479Y-54095D02*
X37765Y-54095D01*
X37422Y-54324D02*
X37622Y-53524D01*
X37822Y-54324D01*
X38365Y-54324D02*
X38165Y-53943D01*
X38022Y-54324D02*
X38022Y-53524D01*
X38250Y-53524D01*
X38308Y-53562D01*
X38336Y-53600D01*
X38365Y-53676D01*
X38365Y-53790D01*
X38336Y-53867D01*
X38308Y-53905D01*
X38250Y-53943D01*
X38022Y-53943D01*
X38965Y-54324D02*
X38765Y-53943D01*
X38622Y-54324D02*
X38622Y-53524D01*
X38850Y-53524D01*
X38908Y-53562D01*
X38936Y-53600D01*
X38965Y-53676D01*
X38965Y-53790D01*
X38936Y-53867D01*
X38908Y-53905D01*
X38850Y-53943D01*
X38622Y-53943D01*
X39193Y-54095D02*
X39479Y-54095D01*
X39136Y-54324D02*
X39336Y-53524D01*
X39536Y-54324D01*
X39707Y-54286D02*
X39793Y-54324D01*
X39936Y-54324D01*
X39993Y-54286D01*
X40022Y-54248D01*
X40050Y-54171D01*
X40050Y-54095D01*
X40022Y-54019D01*
X39993Y-53981D01*
X39936Y-53943D01*
X39822Y-53905D01*
X39764Y-53867D01*
X39736Y-53829D01*
X39707Y-53752D01*
X39707Y-53676D01*
X39736Y-53600D01*
X39764Y-53562D01*
X39822Y-53524D01*
X39964Y-53524D01*
X40050Y-53562D01*
X46287Y-37824D02*
X45944Y-37824D01*
X46116Y-37824D02*
X46116Y-37024D01*
X46059Y-37138D01*
X46001Y-37214D01*
X45944Y-37252D01*
X46487Y-37024D02*
X46858Y-37024D01*
X46658Y-37329D01*
X46744Y-37329D01*
X46801Y-37367D01*
X46830Y-37405D01*
X46858Y-37481D01*
X46858Y-37671D01*
X46830Y-37748D01*
X46801Y-37786D01*
X46744Y-37824D01*
X46572Y-37824D01*
X46515Y-37786D01*
X46487Y-37748D01*
X47029Y-37024D02*
X47229Y-37824D01*
X47429Y-37024D01*
X48057Y-37595D02*
X48343Y-37595D01*
X48000Y-37824D02*
X48200Y-37024D01*
X48400Y-37824D01*
X48600Y-37824D02*
X48600Y-37024D01*
X48743Y-37024D01*
X48828Y-37062D01*
X48886Y-37138D01*
X48914Y-37214D01*
X48943Y-37367D01*
X48943Y-37481D01*
X48914Y-37633D01*
X48886Y-37710D01*
X48828Y-37786D01*
X48743Y-37824D01*
X48600Y-37824D01*
X49371Y-37024D02*
X49371Y-37595D01*
X49343Y-37710D01*
X49286Y-37786D01*
X49200Y-37824D01*
X49143Y-37824D01*
X49657Y-37024D02*
X49657Y-37671D01*
X49685Y-37748D01*
X49714Y-37786D01*
X49771Y-37824D01*
X49885Y-37824D01*
X49943Y-37786D01*
X49971Y-37748D01*
X50000Y-37671D01*
X50000Y-37024D01*
X50257Y-37786D02*
X50343Y-37824D01*
X50486Y-37824D01*
X50543Y-37786D01*
X50572Y-37748D01*
X50600Y-37671D01*
X50600Y-37595D01*
X50572Y-37519D01*
X50543Y-37481D01*
X50486Y-37443D01*
X50372Y-37405D01*
X50314Y-37367D01*
X50286Y-37329D01*
X50257Y-37252D01*
X50257Y-37176D01*
X50286Y-37100D01*
X50314Y-37062D01*
X50372Y-37024D01*
X50514Y-37024D01*
X50600Y-37062D01*
X50771Y-37024D02*
X51114Y-37024D01*
X50943Y-37824D02*
X50943Y-37024D01*
X69079Y-18074D02*
X69079Y-17274D01*
X69307Y-17274D01*
X69365Y-17312D01*
X69393Y-17350D01*
X69422Y-17426D01*
X69422Y-17540D01*
X69393Y-17617D01*
X69365Y-17655D01*
X69307Y-17693D01*
X69079Y-17693D01*
X69679Y-18074D02*
X69679Y-17274D01*
X70308Y-17998D02*
X70279Y-18036D01*
X70193Y-18074D01*
X70136Y-18074D01*
X70051Y-18036D01*
X69993Y-17960D01*
X69965Y-17883D01*
X69936Y-17731D01*
X69936Y-17617D01*
X69965Y-17464D01*
X69993Y-17388D01*
X70051Y-17312D01*
X70136Y-17274D01*
X70193Y-17274D01*
X70279Y-17312D01*
X70308Y-17350D01*
X71279Y-17540D02*
X71279Y-18074D01*
X71136Y-17236D02*
X70993Y-17807D01*
X71365Y-17807D01*
X71707Y-17274D02*
X71764Y-17274D01*
X71821Y-17312D01*
X71850Y-17350D01*
X71879Y-17426D01*
X71907Y-17579D01*
X71907Y-17769D01*
X71879Y-17921D01*
X71850Y-17998D01*
X71821Y-18036D01*
X71764Y-18074D01*
X71707Y-18074D01*
X71650Y-18036D01*
X71621Y-17998D01*
X71593Y-17921D01*
X71564Y-17769D01*
X71564Y-17579D01*
X71593Y-17426D01*
X71621Y-17350D01*
X71650Y-17312D01*
X71707Y-17274D01*
X72621Y-18074D02*
X72621Y-17274D01*
X72849Y-17274D01*
X72907Y-17312D01*
X72935Y-17350D01*
X72964Y-17426D01*
X72964Y-17540D01*
X72935Y-17617D01*
X72907Y-17655D01*
X72849Y-17693D01*
X72621Y-17693D01*
X73221Y-18074D02*
X73221Y-17274D01*
X73507Y-18074D02*
X73507Y-17274D01*
X73850Y-18074D01*
X73850Y-17274D01*
X74107Y-18036D02*
X74193Y-18074D01*
X74336Y-18074D01*
X74393Y-18036D01*
X74422Y-17998D01*
X74450Y-17921D01*
X74450Y-17845D01*
X74422Y-17769D01*
X74393Y-17731D01*
X74336Y-17693D01*
X74222Y-17655D01*
X74164Y-17617D01*
X74136Y-17579D01*
X74107Y-17502D01*
X74107Y-17426D01*
X74136Y-17350D01*
X74164Y-17312D01*
X74222Y-17274D01*
X74364Y-17274D01*
X74450Y-17312D01*
X81079Y-18074D02*
X81079Y-17274D01*
X81307Y-17274D01*
X81365Y-17312D01*
X81393Y-17350D01*
X81422Y-17426D01*
X81422Y-17540D01*
X81393Y-17617D01*
X81365Y-17655D01*
X81307Y-17693D01*
X81079Y-17693D01*
X81679Y-18074D02*
X81679Y-17274D01*
X82308Y-17998D02*
X82279Y-18036D01*
X82193Y-18074D01*
X82136Y-18074D01*
X82051Y-18036D01*
X81993Y-17960D01*
X81965Y-17883D01*
X81936Y-17731D01*
X81936Y-17617D01*
X81965Y-17464D01*
X81993Y-17388D01*
X82051Y-17312D01*
X82136Y-17274D01*
X82193Y-17274D01*
X82279Y-17312D01*
X82308Y-17350D01*
X82993Y-17350D02*
X83022Y-17312D01*
X83079Y-17274D01*
X83222Y-17274D01*
X83279Y-17312D01*
X83308Y-17350D01*
X83336Y-17426D01*
X83336Y-17502D01*
X83308Y-17617D01*
X82965Y-18074D01*
X83336Y-18074D01*
X83679Y-17617D02*
X83621Y-17579D01*
X83593Y-17540D01*
X83564Y-17464D01*
X83564Y-17426D01*
X83593Y-17350D01*
X83621Y-17312D01*
X83679Y-17274D01*
X83793Y-17274D01*
X83850Y-17312D01*
X83879Y-17350D01*
X83907Y-17426D01*
X83907Y-17464D01*
X83879Y-17540D01*
X83850Y-17579D01*
X83793Y-17617D01*
X83679Y-17617D01*
X83621Y-17655D01*
X83593Y-17693D01*
X83564Y-17769D01*
X83564Y-17921D01*
X83593Y-17998D01*
X83621Y-18036D01*
X83679Y-18074D01*
X83793Y-18074D01*
X83850Y-18036D01*
X83879Y-17998D01*
X83907Y-17921D01*
X83907Y-17769D01*
X83879Y-17693D01*
X83850Y-17655D01*
X83793Y-17617D01*
X84621Y-18074D02*
X84621Y-17274D01*
X84849Y-17274D01*
X84907Y-17312D01*
X84935Y-17350D01*
X84964Y-17426D01*
X84964Y-17540D01*
X84935Y-17617D01*
X84907Y-17655D01*
X84849Y-17693D01*
X84621Y-17693D01*
X85221Y-18074D02*
X85221Y-17274D01*
X85507Y-18074D02*
X85507Y-17274D01*
X85850Y-18074D01*
X85850Y-17274D01*
X86107Y-18036D02*
X86193Y-18074D01*
X86336Y-18074D01*
X86393Y-18036D01*
X86422Y-17998D01*
X86450Y-17921D01*
X86450Y-17845D01*
X86422Y-17769D01*
X86393Y-17731D01*
X86336Y-17693D01*
X86222Y-17655D01*
X86164Y-17617D01*
X86136Y-17579D01*
X86107Y-17502D01*
X86107Y-17426D01*
X86136Y-17350D01*
X86164Y-17312D01*
X86222Y-17274D01*
X86364Y-17274D01*
X86450Y-17312D01*
X80579Y-52574D02*
X80579Y-51774D01*
X80807Y-51774D01*
X80865Y-51812D01*
X80893Y-51850D01*
X80922Y-51926D01*
X80922Y-52040D01*
X80893Y-52117D01*
X80865Y-52155D01*
X80807Y-52193D01*
X80579Y-52193D01*
X81179Y-52574D02*
X81179Y-51774D01*
X81808Y-52498D02*
X81779Y-52536D01*
X81693Y-52574D01*
X81636Y-52574D01*
X81551Y-52536D01*
X81493Y-52460D01*
X81465Y-52383D01*
X81436Y-52231D01*
X81436Y-52117D01*
X81465Y-51964D01*
X81493Y-51888D01*
X81551Y-51812D01*
X81636Y-51774D01*
X81693Y-51774D01*
X81779Y-51812D01*
X81808Y-51850D01*
X82836Y-52574D02*
X82493Y-52574D01*
X82665Y-52574D02*
X82665Y-51774D01*
X82608Y-51888D01*
X82550Y-51964D01*
X82493Y-52002D01*
X83179Y-52117D02*
X83121Y-52079D01*
X83093Y-52040D01*
X83064Y-51964D01*
X83064Y-51926D01*
X83093Y-51850D01*
X83121Y-51812D01*
X83179Y-51774D01*
X83293Y-51774D01*
X83350Y-51812D01*
X83379Y-51850D01*
X83407Y-51926D01*
X83407Y-51964D01*
X83379Y-52040D01*
X83350Y-52079D01*
X83293Y-52117D01*
X83179Y-52117D01*
X83121Y-52155D01*
X83093Y-52193D01*
X83064Y-52269D01*
X83064Y-52421D01*
X83093Y-52498D01*
X83121Y-52536D01*
X83179Y-52574D01*
X83293Y-52574D01*
X83350Y-52536D01*
X83379Y-52498D01*
X83407Y-52421D01*
X83407Y-52269D01*
X83379Y-52193D01*
X83350Y-52155D01*
X83293Y-52117D01*
X84121Y-52574D02*
X84121Y-51774D01*
X84349Y-51774D01*
X84407Y-51812D01*
X84435Y-51850D01*
X84464Y-51926D01*
X84464Y-52040D01*
X84435Y-52117D01*
X84407Y-52155D01*
X84349Y-52193D01*
X84121Y-52193D01*
X84721Y-52574D02*
X84721Y-51774D01*
X85007Y-52574D02*
X85007Y-51774D01*
X85350Y-52574D01*
X85350Y-51774D01*
X85607Y-52536D02*
X85693Y-52574D01*
X85836Y-52574D01*
X85893Y-52536D01*
X85922Y-52498D01*
X85950Y-52421D01*
X85950Y-52345D01*
X85922Y-52269D01*
X85893Y-52231D01*
X85836Y-52193D01*
X85722Y-52155D01*
X85664Y-52117D01*
X85636Y-52079D01*
X85607Y-52002D01*
X85607Y-51926D01*
X85636Y-51850D01*
X85664Y-51812D01*
X85722Y-51774D01*
X85864Y-51774D01*
X85950Y-51812D01*
X63429Y-45324D02*
X63429Y-44524D01*
X63686Y-44600D02*
X63715Y-44562D01*
X63772Y-44524D01*
X63915Y-44524D01*
X63972Y-44562D01*
X64001Y-44600D01*
X64029Y-44676D01*
X64029Y-44752D01*
X64001Y-44867D01*
X63658Y-45324D01*
X64029Y-45324D01*
X64629Y-45248D02*
X64600Y-45286D01*
X64514Y-45324D01*
X64457Y-45324D01*
X64372Y-45286D01*
X64314Y-45210D01*
X64286Y-45133D01*
X64257Y-44981D01*
X64257Y-44867D01*
X64286Y-44714D01*
X64314Y-44638D01*
X64372Y-44562D01*
X64457Y-44524D01*
X64514Y-44524D01*
X64600Y-44562D01*
X64629Y-44600D01*
X65343Y-45324D02*
X65343Y-44524D01*
X65571Y-44524D01*
X65629Y-44562D01*
X65657Y-44600D01*
X65686Y-44676D01*
X65686Y-44790D01*
X65657Y-44867D01*
X65629Y-44905D01*
X65571Y-44943D01*
X65343Y-44943D01*
X66286Y-45324D02*
X66086Y-44943D01*
X65943Y-45324D02*
X65943Y-44524D01*
X66171Y-44524D01*
X66229Y-44562D01*
X66257Y-44600D01*
X66286Y-44676D01*
X66286Y-44790D01*
X66257Y-44867D01*
X66229Y-44905D01*
X66171Y-44943D01*
X65943Y-44943D01*
X66657Y-44524D02*
X66771Y-44524D01*
X66829Y-44562D01*
X66886Y-44638D01*
X66914Y-44790D01*
X66914Y-45057D01*
X66886Y-45210D01*
X66829Y-45286D01*
X66771Y-45324D01*
X66657Y-45324D01*
X66600Y-45286D01*
X66543Y-45210D01*
X66514Y-45057D01*
X66514Y-44790D01*
X66543Y-44638D01*
X66600Y-44562D01*
X66657Y-44524D01*
X67172Y-45324D02*
X67172Y-44524D01*
X67372Y-45095D01*
X67572Y-44524D01*
X67572Y-45324D01*
X69865Y-52324D02*
X69865Y-51524D01*
X70093Y-51524D01*
X70151Y-51562D01*
X70179Y-51600D01*
X70208Y-51676D01*
X70208Y-51790D01*
X70179Y-51867D01*
X70151Y-51905D01*
X70093Y-51943D01*
X69865Y-51943D01*
X70465Y-52324D02*
X70465Y-51524D01*
X71094Y-52248D02*
X71065Y-52286D01*
X70979Y-52324D01*
X70922Y-52324D01*
X70837Y-52286D01*
X70779Y-52210D01*
X70751Y-52133D01*
X70722Y-51981D01*
X70722Y-51867D01*
X70751Y-51714D01*
X70779Y-51638D01*
X70837Y-51562D01*
X70922Y-51524D01*
X70979Y-51524D01*
X71065Y-51562D01*
X71094Y-51600D01*
X71894Y-51867D02*
X71836Y-51829D01*
X71808Y-51790D01*
X71779Y-51714D01*
X71779Y-51676D01*
X71808Y-51600D01*
X71836Y-51562D01*
X71894Y-51524D01*
X72008Y-51524D01*
X72065Y-51562D01*
X72094Y-51600D01*
X72122Y-51676D01*
X72122Y-51714D01*
X72094Y-51790D01*
X72065Y-51829D01*
X72008Y-51867D01*
X71894Y-51867D01*
X71836Y-51905D01*
X71808Y-51943D01*
X71779Y-52019D01*
X71779Y-52171D01*
X71808Y-52248D01*
X71836Y-52286D01*
X71894Y-52324D01*
X72008Y-52324D01*
X72065Y-52286D01*
X72094Y-52248D01*
X72122Y-52171D01*
X72122Y-52019D01*
X72094Y-51943D01*
X72065Y-51905D01*
X72008Y-51867D01*
X72836Y-52324D02*
X72836Y-51524D01*
X73064Y-51524D01*
X73122Y-51562D01*
X73150Y-51600D01*
X73179Y-51676D01*
X73179Y-51790D01*
X73150Y-51867D01*
X73122Y-51905D01*
X73064Y-51943D01*
X72836Y-51943D01*
X73436Y-52324D02*
X73436Y-51524D01*
X73722Y-52324D02*
X73722Y-51524D01*
X74065Y-52324D01*
X74065Y-51524D01*
X74322Y-52286D02*
X74408Y-52324D01*
X74551Y-52324D01*
X74608Y-52286D01*
X74637Y-52248D01*
X74665Y-52171D01*
X74665Y-52095D01*
X74637Y-52019D01*
X74608Y-51981D01*
X74551Y-51943D01*
X74437Y-51905D01*
X74379Y-51867D01*
X74351Y-51829D01*
X74322Y-51752D01*
X74322Y-51676D01*
X74351Y-51600D01*
X74379Y-51562D01*
X74437Y-51524D01*
X74579Y-51524D01*
X74665Y-51562D01*
X62843Y-35324D02*
X62843Y-34524D01*
X63071Y-34524D01*
X63129Y-34562D01*
X63157Y-34600D01*
X63186Y-34676D01*
X63186Y-34790D01*
X63157Y-34867D01*
X63129Y-34905D01*
X63071Y-34943D01*
X62843Y-34943D01*
X63386Y-34524D02*
X63529Y-35324D01*
X63643Y-34752D01*
X63757Y-35324D01*
X63900Y-34524D01*
X64472Y-35324D02*
X64272Y-34943D01*
X64129Y-35324D02*
X64129Y-34524D01*
X64357Y-34524D01*
X64415Y-34562D01*
X64443Y-34600D01*
X64472Y-34676D01*
X64472Y-34790D01*
X64443Y-34867D01*
X64415Y-34905D01*
X64357Y-34943D01*
X64129Y-34943D01*
X65300Y-34524D02*
X65414Y-34524D01*
X65472Y-34562D01*
X65529Y-34638D01*
X65557Y-34790D01*
X65557Y-35057D01*
X65529Y-35210D01*
X65472Y-35286D01*
X65414Y-35324D01*
X65300Y-35324D01*
X65243Y-35286D01*
X65186Y-35210D01*
X65157Y-35057D01*
X65157Y-34790D01*
X65186Y-34638D01*
X65243Y-34562D01*
X65300Y-34524D01*
X65815Y-35324D02*
X65815Y-34524D01*
X66158Y-35324D01*
X66158Y-34524D01*
X62593Y-31274D02*
X62793Y-32074D01*
X62993Y-31274D01*
X63193Y-32074D02*
X63193Y-31274D01*
X63421Y-31274D01*
X63479Y-31312D01*
X63507Y-31350D01*
X63536Y-31426D01*
X63536Y-31540D01*
X63507Y-31617D01*
X63479Y-31655D01*
X63421Y-31693D01*
X63193Y-31693D01*
X63793Y-32074D02*
X63793Y-31274D01*
X64021Y-31274D01*
X64079Y-31312D01*
X64107Y-31350D01*
X64136Y-31426D01*
X64136Y-31540D01*
X64107Y-31617D01*
X64079Y-31655D01*
X64021Y-31693D01*
X63793Y-31693D01*
X64964Y-31274D02*
X65078Y-31274D01*
X65136Y-31312D01*
X65193Y-31388D01*
X65221Y-31540D01*
X65221Y-31807D01*
X65193Y-31960D01*
X65136Y-32036D01*
X65078Y-32074D01*
X64964Y-32074D01*
X64907Y-32036D01*
X64850Y-31960D01*
X64821Y-31807D01*
X64821Y-31540D01*
X64850Y-31388D01*
X64907Y-31312D01*
X64964Y-31274D01*
X65479Y-32074D02*
X65479Y-31274D01*
X65822Y-32074D01*
X65822Y-31274D01*
X29844Y-22519D02*
X30301Y-22519D01*
X30072Y-22824D02*
X30072Y-22214D01*
X30673Y-22367D02*
X30615Y-22329D01*
X30587Y-22290D01*
X30558Y-22214D01*
X30558Y-22176D01*
X30587Y-22100D01*
X30615Y-22062D01*
X30673Y-22024D01*
X30787Y-22024D01*
X30844Y-22062D01*
X30873Y-22100D01*
X30901Y-22176D01*
X30901Y-22214D01*
X30873Y-22290D01*
X30844Y-22329D01*
X30787Y-22367D01*
X30673Y-22367D01*
X30615Y-22405D01*
X30587Y-22443D01*
X30558Y-22519D01*
X30558Y-22671D01*
X30587Y-22748D01*
X30615Y-22786D01*
X30673Y-22824D01*
X30787Y-22824D01*
X30844Y-22786D01*
X30873Y-22748D01*
X30901Y-22671D01*
X30901Y-22519D01*
X30873Y-22443D01*
X30844Y-22405D01*
X30787Y-22367D01*
X31586Y-21986D02*
X31072Y-23014D01*
X32101Y-22824D02*
X31758Y-22824D01*
X31930Y-22824D02*
X31930Y-22024D01*
X31873Y-22138D01*
X31815Y-22214D01*
X31758Y-22252D01*
X32329Y-22100D02*
X32358Y-22062D01*
X32415Y-22024D01*
X32558Y-22024D01*
X32615Y-22062D01*
X32644Y-22100D01*
X32672Y-22176D01*
X32672Y-22252D01*
X32644Y-22367D01*
X32301Y-22824D01*
X32672Y-22824D01*
X32843Y-22024D02*
X33043Y-22824D01*
X33243Y-22024D01*
X44336Y-52324D02*
X44336Y-51524D01*
X44564Y-51524D01*
X44622Y-51562D01*
X44650Y-51600D01*
X44679Y-51676D01*
X44679Y-51790D01*
X44650Y-51867D01*
X44622Y-51905D01*
X44564Y-51943D01*
X44336Y-51943D01*
X44936Y-52324D02*
X44936Y-51524D01*
X45565Y-52248D02*
X45536Y-52286D01*
X45450Y-52324D01*
X45393Y-52324D01*
X45308Y-52286D01*
X45250Y-52210D01*
X45222Y-52133D01*
X45193Y-51981D01*
X45193Y-51867D01*
X45222Y-51714D01*
X45250Y-51638D01*
X45308Y-51562D01*
X45393Y-51524D01*
X45450Y-51524D01*
X45536Y-51562D01*
X45565Y-51600D01*
X46279Y-52324D02*
X46279Y-51524D01*
X46507Y-51524D01*
X46565Y-51562D01*
X46593Y-51600D01*
X46622Y-51676D01*
X46622Y-51790D01*
X46593Y-51867D01*
X46565Y-51905D01*
X46507Y-51943D01*
X46279Y-51943D01*
X47222Y-52324D02*
X47022Y-51943D01*
X46879Y-52324D02*
X46879Y-51524D01*
X47107Y-51524D01*
X47165Y-51562D01*
X47193Y-51600D01*
X47222Y-51676D01*
X47222Y-51790D01*
X47193Y-51867D01*
X47165Y-51905D01*
X47107Y-51943D01*
X46879Y-51943D01*
X47593Y-51524D02*
X47707Y-51524D01*
X47765Y-51562D01*
X47822Y-51638D01*
X47850Y-51790D01*
X47850Y-52057D01*
X47822Y-52210D01*
X47765Y-52286D01*
X47707Y-52324D01*
X47593Y-52324D01*
X47536Y-52286D01*
X47479Y-52210D01*
X47450Y-52057D01*
X47450Y-51790D01*
X47479Y-51638D01*
X47536Y-51562D01*
X47593Y-51524D01*
X48422Y-51562D02*
X48365Y-51524D01*
X48279Y-51524D01*
X48194Y-51562D01*
X48136Y-51638D01*
X48108Y-51714D01*
X48079Y-51867D01*
X48079Y-51981D01*
X48108Y-52133D01*
X48136Y-52210D01*
X48194Y-52286D01*
X48279Y-52324D01*
X48336Y-52324D01*
X48422Y-52286D01*
X48451Y-52248D01*
X48451Y-51981D01*
X48336Y-51981D01*
X49051Y-52324D02*
X48851Y-51943D01*
X48708Y-52324D02*
X48708Y-51524D01*
X48936Y-51524D01*
X48994Y-51562D01*
X49022Y-51600D01*
X49051Y-51676D01*
X49051Y-51790D01*
X49022Y-51867D01*
X48994Y-51905D01*
X48936Y-51943D01*
X48708Y-51943D01*
X49279Y-52095D02*
X49565Y-52095D01*
X49222Y-52324D02*
X49422Y-51524D01*
X49622Y-52324D01*
X49822Y-52324D02*
X49822Y-51524D01*
X50022Y-52095D01*
X50222Y-51524D01*
X50222Y-52324D01*
X50508Y-52324D02*
X50508Y-51524D01*
X50708Y-52095D01*
X50908Y-51524D01*
X50908Y-52324D01*
X51194Y-51905D02*
X51394Y-51905D01*
X51480Y-52324D02*
X51194Y-52324D01*
X51194Y-51524D01*
X51480Y-51524D01*
X52080Y-52324D02*
X51880Y-51943D01*
X51737Y-52324D02*
X51737Y-51524D01*
X51965Y-51524D01*
X52023Y-51562D01*
X52051Y-51600D01*
X52080Y-51676D01*
X52080Y-51790D01*
X52051Y-51867D01*
X52023Y-51905D01*
X51965Y-51943D01*
X51737Y-51943D01*
X52708Y-51524D02*
X52908Y-52324D01*
X53108Y-51524D01*
X53422Y-51524D02*
X53479Y-51524D01*
X53536Y-51562D01*
X53565Y-51600D01*
X53594Y-51676D01*
X53622Y-51829D01*
X53622Y-52019D01*
X53594Y-52171D01*
X53565Y-52248D01*
X53536Y-52286D01*
X53479Y-52324D01*
X53422Y-52324D01*
X53365Y-52286D01*
X53336Y-52248D01*
X53308Y-52171D01*
X53279Y-52019D01*
X53279Y-51829D01*
X53308Y-51676D01*
X53336Y-51600D01*
X53365Y-51562D01*
X53422Y-51524D01*
X53822Y-51524D02*
X54193Y-51524D01*
X53993Y-51829D01*
X54079Y-51829D01*
X54136Y-51867D01*
X54165Y-51905D01*
X54193Y-51981D01*
X54193Y-52171D01*
X54165Y-52248D01*
X54136Y-52286D01*
X54079Y-52324D01*
X53907Y-52324D01*
X53850Y-52286D01*
X53822Y-52248D01*
G54D12*
X29000Y-55000D02*
X29000Y-16000D01*
X92000Y-55000D02*
X29000Y-55000D01*
X92000Y-16000D02*
X92000Y-55000D01*
X68500Y-16000D02*
X92000Y-16000D01*
X29000Y-16000D02*
X68500Y-16000D01*
G54D13*
X45500Y-47000D03*
G54D14*
X46500Y-47000D03*
X47500Y-47000D03*
X48500Y-47000D03*
X49500Y-47000D03*
X50500Y-47000D03*
X51500Y-47000D03*
X51500Y-44000D03*
X50500Y-44000D03*
X49500Y-44000D03*
X48500Y-44000D03*
X47500Y-44000D03*
X46500Y-44000D03*
X45500Y-44000D03*
G54D15*
X81750Y-42500D03*
G54D16*
X81750Y-43500D03*
X81750Y-44500D03*
X81750Y-45500D03*
X81750Y-46500D03*
X81750Y-47500D03*
X81750Y-48500D03*
X81750Y-49500D03*
X81750Y-50500D03*
X84750Y-50500D03*
X84750Y-49500D03*
X84750Y-48500D03*
X84750Y-47500D03*
X84750Y-46500D03*
X84750Y-45500D03*
X84750Y-44500D03*
X84750Y-43500D03*
X84750Y-42500D03*
G54D15*
X70500Y-43000D03*
G54D16*
X70500Y-44000D03*
X70500Y-45000D03*
X70500Y-46000D03*
X73500Y-46000D03*
X73500Y-45000D03*
X73500Y-44000D03*
X73500Y-43000D03*
G54D17*
X43500Y-22500D03*
G54D18*
X43500Y-23500D03*
X43500Y-24500D03*
X43500Y-25500D03*
X46500Y-25500D03*
X46500Y-24500D03*
X46500Y-23500D03*
X46500Y-22500D03*
G54D15*
X70500Y-47500D03*
G54D16*
X70500Y-48500D03*
X70500Y-49500D03*
X70500Y-50500D03*
X73500Y-50500D03*
X73500Y-49500D03*
X73500Y-48500D03*
X73500Y-47500D03*
G54D19*
X31000Y-26500D03*
G54D20*
X31000Y-24500D03*
G54D21*
X45000Y-20500D03*
X47000Y-20500D03*
X46000Y-20500D03*
X51000Y-19500D03*
X53000Y-19500D03*
X52000Y-19500D03*
G54D22*
X42500Y-45500D03*
G54D21*
X39500Y-45500D03*
G54D22*
X42500Y-46500D03*
G54D21*
X39500Y-46500D03*
G54D22*
X42500Y-48000D03*
G54D21*
X39500Y-48000D03*
G54D22*
X42500Y-44000D03*
G54D21*
X39500Y-44000D03*
G54D22*
X42500Y-43000D03*
G54D21*
X39500Y-43000D03*
G54D22*
X42500Y-49000D03*
G54D21*
X39500Y-49000D03*
G54D23*
X49000Y-22500D03*
G54D24*
X54000Y-22500D03*
G54D25*
X34500Y-23000D03*
G54D26*
X34500Y-28000D03*
G54D20*
X31500Y-40450D03*
X31500Y-50450D03*
G54D27*
X32500Y-47650D03*
G54D23*
X32500Y-46550D03*
G54D28*
X32500Y-45500D03*
X32500Y-44400D03*
G54D23*
X32500Y-43300D03*
X31500Y-47100D03*
X31500Y-46000D03*
X31500Y-44950D03*
X31500Y-43850D03*
G54D22*
X60500Y-34500D03*
G54D21*
X61500Y-34500D03*
G54D22*
X60500Y-30500D03*
G54D21*
X61500Y-30500D03*
G54D29*
X39000Y-21500D03*
G54D30*
X38000Y-28000D03*
G54D31*
X39000Y-28000D03*
G54D30*
X40000Y-28000D03*
G54D21*
X54750Y-28000D03*
X54750Y-24000D03*
X45000Y-19000D03*
X49000Y-19000D03*
X55250Y-44000D03*
X55250Y-48000D03*
X54750Y-34500D03*
X58750Y-34500D03*
X46500Y-31000D03*
X50500Y-31000D03*
X34500Y-45500D03*
X38500Y-45500D03*
X34500Y-44000D03*
X38500Y-44000D03*
X34500Y-43000D03*
X38500Y-43000D03*
X34500Y-49000D03*
X38500Y-49000D03*
X34500Y-48000D03*
X38500Y-48000D03*
X54750Y-21500D03*
X58750Y-21500D03*
X54750Y-35500D03*
X58750Y-35500D03*
X46500Y-29750D03*
X50500Y-29750D03*
X61500Y-23000D03*
X61500Y-27000D03*
X53250Y-48000D03*
X53250Y-44000D03*
X54750Y-30500D03*
X58750Y-30500D03*
X34500Y-46500D03*
X38500Y-46500D03*
G54D32*
X90500Y-17500D03*
X90500Y-53500D03*
X30500Y-17500D03*
X30500Y-53500D03*
X62500Y-53500D03*
X62500Y-17500D03*
G54D21*
X77500Y-44250D03*
X77500Y-46250D03*
X77500Y-45250D03*
X78250Y-28000D03*
X78250Y-30000D03*
X78250Y-29000D03*
G54D33*
X91400Y-16000D03*
G54D34*
X92000Y-15400D03*
G54D35*
X92000Y-16000D03*
G54D36*
X91400Y-16000D03*
G54D34*
X92000Y-16600D03*
G54D33*
X92600Y-16000D03*
X28400Y-16000D03*
G54D34*
X29000Y-15400D03*
G54D35*
X29000Y-16000D03*
G54D36*
X28400Y-16000D03*
G54D34*
X29000Y-16600D03*
G54D33*
X29600Y-16000D03*
X28400Y-55000D03*
G54D34*
X29000Y-54400D03*
G54D35*
X29000Y-55000D03*
G54D36*
X28400Y-55000D03*
G54D34*
X29000Y-55600D03*
G54D33*
X29600Y-55000D03*
X91400Y-55000D03*
G54D34*
X92000Y-54400D03*
G54D35*
X92000Y-55000D03*
G54D36*
X91400Y-55000D03*
G54D34*
X92000Y-55600D03*
G54D33*
X92600Y-55000D03*
G54D24*
X52750Y-24500D03*
G54D23*
X52750Y-32500D03*
G54D37*
X33500Y-31000D03*
G54D26*
X43500Y-31000D03*
G54D37*
X43250Y-35500D03*
G54D26*
X33250Y-35500D03*
G54D16*
X81750Y-21000D03*
X81750Y-22000D03*
X81750Y-23000D03*
X81750Y-24000D03*
X81750Y-25000D03*
X81750Y-26000D03*
X81750Y-27000D03*
X81750Y-28000D03*
X81750Y-29000D03*
X81750Y-30000D03*
X81750Y-31000D03*
X81750Y-32000D03*
X81750Y-33000D03*
G54D15*
X81750Y-20000D03*
G54D16*
X84750Y-33000D03*
X84750Y-32000D03*
X84750Y-31000D03*
X84750Y-30000D03*
X84750Y-29000D03*
X84750Y-28000D03*
X84750Y-27000D03*
X84750Y-26000D03*
X84750Y-25000D03*
X84750Y-24000D03*
X84750Y-23000D03*
X84750Y-22000D03*
X84750Y-21000D03*
X84750Y-20000D03*
G54D21*
X60000Y-27000D03*
X60000Y-23000D03*
G54D22*
X49500Y-24500D03*
G54D21*
X49500Y-26500D03*
G54D25*
X50250Y-35750D03*
X46250Y-34750D03*
X50250Y-33750D03*
G54D15*
X69000Y-20000D03*
G54D16*
X69000Y-21000D03*
X69000Y-22000D03*
X69000Y-23000D03*
X69000Y-24000D03*
X69000Y-25000D03*
X69000Y-26000D03*
X69000Y-27000D03*
X69000Y-28000D03*
X69000Y-29000D03*
X69000Y-30000D03*
X69000Y-31000D03*
X69000Y-32000D03*
X69000Y-33000D03*
X69000Y-34000D03*
X69000Y-35000D03*
X69000Y-36000D03*
X69000Y-37000D03*
X69000Y-38000D03*
X69000Y-39000D03*
X75000Y-39000D03*
X75000Y-38000D03*
X75000Y-37000D03*
X75000Y-36000D03*
X75000Y-35000D03*
X75000Y-34000D03*
X75000Y-33000D03*
X75000Y-32000D03*
X75000Y-31000D03*
X75000Y-30000D03*
X75000Y-29000D03*
X75000Y-28000D03*
X75000Y-27000D03*
X75000Y-26000D03*
X75000Y-25000D03*
X75000Y-24000D03*
X75000Y-23000D03*
X75000Y-22000D03*
X75000Y-21000D03*
X75000Y-20000D03*
G54D22*
X54750Y-31750D03*
G54D21*
X57750Y-31750D03*
G54D38*
X58000Y-38000D03*
G54D39*
X58000Y-39000D03*
G54D21*
X58750Y-33000D03*
X54750Y-33000D03*
X57000Y-40250D03*
X53000Y-40250D03*
X62250Y-40250D03*
X58250Y-40250D03*
G54D40*
X56500Y-38000D03*
G54D41*
X55500Y-38000D03*
X55500Y-39000D03*
G54D22*
X60500Y-38250D03*
G54D21*
X61500Y-38250D03*
X79000Y-44250D03*
X79000Y-46250D03*
X79000Y-45250D03*
G54D42*
X58000Y-27000D03*
G54D43*
X57000Y-27000D03*
X57000Y-28000D03*
G54D42*
X58000Y-24000D03*
G54D43*
X57000Y-24000D03*
X57000Y-25000D03*
G54D21*
X56300Y-19600D03*
X58300Y-19600D03*
X57300Y-19600D03*
G54D43*
X75750Y-49500D03*
X77500Y-21500D03*
X74750Y-43500D03*
X75750Y-45000D03*
X75750Y-48500D03*
X78750Y-20500D03*
X67000Y-41250D03*
G54D44*
X76000Y-42250D02*
X76000Y-29750D01*
X77500Y-26500D02*
X77500Y-21500D01*
X74750Y-48500D02*
X75750Y-49500D01*
X76000Y-29750D02*
X77250Y-28500D01*
X76000Y-42250D02*
X74750Y-43500D01*
X77250Y-26750D02*
X77500Y-26500D01*
X74750Y-43500D02*
X74750Y-48500D01*
X77250Y-28500D02*
X77250Y-26750D01*
X76500Y-45000D02*
X75750Y-45000D01*
X78750Y-22500D02*
X79250Y-23000D01*
X79250Y-23000D02*
X79250Y-33500D01*
X79250Y-33500D02*
X76750Y-36000D01*
X52250Y-43000D02*
X53250Y-44000D01*
X75750Y-45000D02*
X75750Y-48500D01*
X78750Y-22500D02*
X78750Y-20500D01*
X76750Y-44750D02*
X76500Y-45000D01*
X76750Y-36000D02*
X76750Y-44750D01*
X47750Y-43000D02*
X52250Y-43000D01*
X47500Y-44000D02*
X47500Y-43250D01*
X47500Y-43250D02*
X47750Y-43000D01*
X47250Y-45750D02*
X47500Y-46000D01*
X45250Y-40250D02*
X50000Y-40250D01*
X50000Y-40250D02*
X54750Y-35500D01*
X44500Y-41000D02*
X44500Y-45000D01*
X45250Y-45750D02*
X47250Y-45750D01*
X47500Y-46000D02*
X47500Y-47000D01*
X45250Y-40250D02*
X44500Y-41000D01*
X44500Y-45000D02*
X45250Y-45750D01*
X49500Y-47500D02*
X49500Y-47000D01*
X44000Y-43250D02*
X44000Y-47000D01*
X42500Y-43000D02*
X43750Y-43000D01*
X48500Y-48500D02*
X49500Y-47500D01*
X44000Y-47000D02*
X45500Y-48500D01*
X43750Y-43000D02*
X44000Y-43250D01*
X45500Y-48500D02*
X48500Y-48500D01*
X54250Y-29500D02*
X54750Y-29000D01*
X60000Y-27000D02*
X60000Y-27500D01*
X57500Y-29000D02*
X58250Y-28250D01*
X54250Y-29500D02*
X54250Y-30000D01*
X59250Y-28250D02*
X60000Y-27500D01*
X54250Y-30000D02*
X54750Y-30500D01*
X54750Y-29000D02*
X57500Y-29000D01*
X58250Y-28250D02*
X59250Y-28250D01*
G54D45*
X43500Y-47000D02*
X43500Y-48750D01*
X43500Y-48750D02*
X43250Y-49000D01*
X42500Y-44000D02*
X43250Y-44000D01*
X43000Y-46500D02*
X42500Y-46500D01*
X43500Y-46000D02*
X43000Y-46500D01*
X43500Y-44250D02*
X43500Y-46000D01*
X43250Y-44000D02*
X43500Y-44250D01*
X43000Y-46500D02*
X43500Y-47000D01*
X43250Y-49000D02*
X42500Y-49000D01*
X67000Y-41250D02*
X73000Y-41250D01*
X73000Y-41250D02*
X73500Y-41750D01*
X73500Y-41750D02*
X73500Y-43000D01*
M02*
