G04 (created by PCBNEW-RS274X (2011-12-28 BZR 3254)-stable) date 04/11/2012 11:04:50*
G01*
G70*
G90*
%MOIN*%
G04 Gerber Fmt 3.4, Leading zero omitted, Abs format*
%FSLAX34Y34*%
G04 APERTURE LIST*
%ADD10C,0.006000*%
%ADD11R,0.060000X0.060000*%
%ADD12C,0.060000*%
%ADD13R,0.080000X0.060000*%
%ADD14R,0.039400X0.078700*%
%ADD15R,0.031500X0.059100*%
%ADD16R,0.078700X0.047200*%
%ADD17C,0.055000*%
%ADD18C,0.050000*%
%ADD19C,0.008000*%
%ADD20C,0.010000*%
G04 APERTURE END LIST*
G54D10*
G54D11*
X27000Y-13000D03*
G54D12*
X26000Y-13000D03*
X27000Y-18000D03*
X26000Y-14000D03*
X27000Y-19000D03*
X26000Y-15000D03*
X27000Y-20000D03*
X26000Y-16000D03*
X27000Y-21000D03*
X26000Y-17000D03*
X27000Y-22000D03*
X26000Y-18000D03*
X27000Y-23000D03*
X26000Y-19000D03*
X27000Y-24000D03*
X26000Y-20000D03*
X27000Y-25000D03*
X26000Y-21000D03*
X27000Y-26000D03*
X26000Y-22000D03*
X27000Y-27000D03*
X26000Y-23000D03*
X27000Y-28000D03*
X26000Y-24000D03*
X26000Y-25000D03*
X27000Y-29000D03*
X26000Y-26000D03*
X26000Y-28000D03*
X26000Y-29000D03*
X26000Y-30000D03*
X26000Y-31000D03*
X27000Y-30000D03*
X27000Y-31000D03*
X27000Y-14000D03*
X27000Y-15000D03*
X27000Y-16000D03*
X27000Y-17000D03*
X27000Y-32000D03*
X26000Y-32000D03*
X26000Y-27000D03*
G54D11*
X43500Y-31500D03*
G54D12*
X44500Y-31500D03*
X43500Y-26500D03*
X44500Y-30500D03*
X43500Y-25500D03*
X44500Y-29500D03*
X43500Y-24500D03*
X44500Y-28500D03*
X43500Y-23500D03*
X44500Y-27500D03*
X43500Y-22500D03*
X44500Y-26500D03*
X43500Y-21500D03*
X44500Y-25500D03*
X43500Y-20500D03*
X44500Y-24500D03*
X43500Y-19500D03*
X44500Y-23500D03*
X43500Y-18500D03*
X44500Y-22500D03*
X43500Y-17500D03*
X44500Y-21500D03*
X43500Y-16500D03*
X44500Y-20500D03*
X44500Y-19500D03*
X43500Y-15500D03*
X44500Y-18500D03*
X44500Y-16500D03*
X44500Y-15500D03*
X44500Y-14500D03*
X44500Y-13500D03*
X43500Y-14500D03*
X43500Y-13500D03*
X43500Y-30500D03*
X43500Y-29500D03*
X43500Y-28500D03*
X43500Y-27500D03*
X43500Y-12500D03*
X44500Y-12500D03*
X44500Y-17500D03*
G54D11*
X34590Y-34580D03*
G54D12*
X34590Y-33580D03*
X35590Y-34580D03*
X35590Y-33580D03*
X36590Y-34580D03*
X36590Y-33580D03*
G54D13*
X36000Y-16150D03*
X36000Y-14850D03*
X39000Y-16150D03*
X39000Y-14850D03*
G54D14*
X38500Y-18000D03*
X39500Y-18000D03*
G54D15*
X36909Y-16287D03*
X38091Y-16287D03*
X37500Y-16287D03*
G54D16*
X37500Y-14673D03*
G54D17*
X31500Y-14000D03*
X31500Y-16000D03*
X28500Y-14000D03*
X28500Y-16000D03*
G54D10*
G36*
X35882Y-21852D02*
X35811Y-21781D01*
X36094Y-21498D01*
X36165Y-21569D01*
X35882Y-21852D01*
X35882Y-21852D01*
G37*
G36*
X39219Y-25189D02*
X39148Y-25118D01*
X39431Y-24835D01*
X39502Y-24906D01*
X39219Y-25189D01*
X39219Y-25189D01*
G37*
G36*
X39078Y-25048D02*
X39007Y-24977D01*
X39290Y-24694D01*
X39361Y-24765D01*
X39078Y-25048D01*
X39078Y-25048D01*
G37*
G36*
X38944Y-24913D02*
X38873Y-24842D01*
X39156Y-24559D01*
X39227Y-24630D01*
X38944Y-24913D01*
X38944Y-24913D01*
G37*
G36*
X38802Y-24772D02*
X38731Y-24701D01*
X39014Y-24418D01*
X39085Y-24489D01*
X38802Y-24772D01*
X38802Y-24772D01*
G37*
G36*
X38661Y-24630D02*
X38590Y-24559D01*
X38873Y-24276D01*
X38944Y-24347D01*
X38661Y-24630D01*
X38661Y-24630D01*
G37*
G36*
X38526Y-24496D02*
X38455Y-24425D01*
X38738Y-24142D01*
X38809Y-24213D01*
X38526Y-24496D01*
X38526Y-24496D01*
G37*
G36*
X38385Y-24355D02*
X38314Y-24284D01*
X38597Y-24001D01*
X38668Y-24072D01*
X38385Y-24355D01*
X38385Y-24355D01*
G37*
G36*
X38244Y-24213D02*
X38173Y-24142D01*
X38456Y-23859D01*
X38527Y-23930D01*
X38244Y-24213D01*
X38244Y-24213D01*
G37*
G36*
X38109Y-24079D02*
X38038Y-24008D01*
X38321Y-23725D01*
X38392Y-23796D01*
X38109Y-24079D01*
X38109Y-24079D01*
G37*
G36*
X37968Y-23938D02*
X37897Y-23867D01*
X38180Y-23584D01*
X38251Y-23655D01*
X37968Y-23938D01*
X37968Y-23938D01*
G37*
G36*
X37826Y-23796D02*
X37755Y-23725D01*
X38038Y-23442D01*
X38109Y-23513D01*
X37826Y-23796D01*
X37826Y-23796D01*
G37*
G36*
X37685Y-23655D02*
X37614Y-23584D01*
X37897Y-23301D01*
X37968Y-23372D01*
X37685Y-23655D01*
X37685Y-23655D01*
G37*
G36*
X37551Y-23520D02*
X37480Y-23449D01*
X37763Y-23166D01*
X37834Y-23237D01*
X37551Y-23520D01*
X37551Y-23520D01*
G37*
G36*
X37409Y-23379D02*
X37338Y-23308D01*
X37621Y-23025D01*
X37692Y-23096D01*
X37409Y-23379D01*
X37409Y-23379D01*
G37*
G36*
X37268Y-23237D02*
X37197Y-23166D01*
X37480Y-22883D01*
X37551Y-22954D01*
X37268Y-23237D01*
X37268Y-23237D01*
G37*
G36*
X37133Y-23103D02*
X37062Y-23032D01*
X37345Y-22749D01*
X37416Y-22820D01*
X37133Y-23103D01*
X37133Y-23103D01*
G37*
G36*
X36992Y-22962D02*
X36921Y-22891D01*
X37204Y-22608D01*
X37275Y-22679D01*
X36992Y-22962D01*
X36992Y-22962D01*
G37*
G36*
X36851Y-22820D02*
X36780Y-22749D01*
X37063Y-22466D01*
X37134Y-22537D01*
X36851Y-22820D01*
X36851Y-22820D01*
G37*
G36*
X36716Y-22686D02*
X36645Y-22615D01*
X36928Y-22332D01*
X36999Y-22403D01*
X36716Y-22686D01*
X36716Y-22686D01*
G37*
G36*
X36575Y-22545D02*
X36504Y-22474D01*
X36787Y-22191D01*
X36858Y-22262D01*
X36575Y-22545D01*
X36575Y-22545D01*
G37*
G36*
X36433Y-22403D02*
X36362Y-22332D01*
X36645Y-22049D01*
X36716Y-22120D01*
X36433Y-22403D01*
X36433Y-22403D01*
G37*
G36*
X36299Y-22269D02*
X36228Y-22198D01*
X36511Y-21915D01*
X36582Y-21986D01*
X36299Y-22269D01*
X36299Y-22269D01*
G37*
G36*
X36158Y-22127D02*
X36087Y-22056D01*
X36370Y-21773D01*
X36441Y-21844D01*
X36158Y-22127D01*
X36158Y-22127D01*
G37*
G36*
X36016Y-21986D02*
X35945Y-21915D01*
X36228Y-21632D01*
X36299Y-21703D01*
X36016Y-21986D01*
X36016Y-21986D01*
G37*
G36*
X39431Y-26165D02*
X39148Y-25882D01*
X39219Y-25811D01*
X39502Y-26094D01*
X39431Y-26165D01*
X39431Y-26165D01*
G37*
G36*
X36094Y-29502D02*
X35811Y-29219D01*
X35882Y-29148D01*
X36165Y-29431D01*
X36094Y-29502D01*
X36094Y-29502D01*
G37*
G36*
X36235Y-29361D02*
X35952Y-29078D01*
X36023Y-29007D01*
X36306Y-29290D01*
X36235Y-29361D01*
X36235Y-29361D01*
G37*
G36*
X36370Y-29227D02*
X36087Y-28944D01*
X36158Y-28873D01*
X36441Y-29156D01*
X36370Y-29227D01*
X36370Y-29227D01*
G37*
G36*
X36511Y-29085D02*
X36228Y-28802D01*
X36299Y-28731D01*
X36582Y-29014D01*
X36511Y-29085D01*
X36511Y-29085D01*
G37*
G36*
X36653Y-28944D02*
X36370Y-28661D01*
X36441Y-28590D01*
X36724Y-28873D01*
X36653Y-28944D01*
X36653Y-28944D01*
G37*
G36*
X36787Y-28809D02*
X36504Y-28526D01*
X36575Y-28455D01*
X36858Y-28738D01*
X36787Y-28809D01*
X36787Y-28809D01*
G37*
G36*
X36928Y-28668D02*
X36645Y-28385D01*
X36716Y-28314D01*
X36999Y-28597D01*
X36928Y-28668D01*
X36928Y-28668D01*
G37*
G36*
X37070Y-28527D02*
X36787Y-28244D01*
X36858Y-28173D01*
X37141Y-28456D01*
X37070Y-28527D01*
X37070Y-28527D01*
G37*
G36*
X37204Y-28392D02*
X36921Y-28109D01*
X36992Y-28038D01*
X37275Y-28321D01*
X37204Y-28392D01*
X37204Y-28392D01*
G37*
G36*
X37345Y-28251D02*
X37062Y-27968D01*
X37133Y-27897D01*
X37416Y-28180D01*
X37345Y-28251D01*
X37345Y-28251D01*
G37*
G36*
X37487Y-28109D02*
X37204Y-27826D01*
X37275Y-27755D01*
X37558Y-28038D01*
X37487Y-28109D01*
X37487Y-28109D01*
G37*
G36*
X37628Y-27968D02*
X37345Y-27685D01*
X37416Y-27614D01*
X37699Y-27897D01*
X37628Y-27968D01*
X37628Y-27968D01*
G37*
G36*
X37763Y-27834D02*
X37480Y-27551D01*
X37551Y-27480D01*
X37834Y-27763D01*
X37763Y-27834D01*
X37763Y-27834D01*
G37*
G36*
X37904Y-27692D02*
X37621Y-27409D01*
X37692Y-27338D01*
X37975Y-27621D01*
X37904Y-27692D01*
X37904Y-27692D01*
G37*
G36*
X38046Y-27551D02*
X37763Y-27268D01*
X37834Y-27197D01*
X38117Y-27480D01*
X38046Y-27551D01*
X38046Y-27551D01*
G37*
G36*
X38180Y-27416D02*
X37897Y-27133D01*
X37968Y-27062D01*
X38251Y-27345D01*
X38180Y-27416D01*
X38180Y-27416D01*
G37*
G36*
X38321Y-27275D02*
X38038Y-26992D01*
X38109Y-26921D01*
X38392Y-27204D01*
X38321Y-27275D01*
X38321Y-27275D01*
G37*
G36*
X38463Y-27134D02*
X38180Y-26851D01*
X38251Y-26780D01*
X38534Y-27063D01*
X38463Y-27134D01*
X38463Y-27134D01*
G37*
G36*
X38597Y-26999D02*
X38314Y-26716D01*
X38385Y-26645D01*
X38668Y-26928D01*
X38597Y-26999D01*
X38597Y-26999D01*
G37*
G36*
X38738Y-26858D02*
X38455Y-26575D01*
X38526Y-26504D01*
X38809Y-26787D01*
X38738Y-26858D01*
X38738Y-26858D01*
G37*
G36*
X38880Y-26716D02*
X38597Y-26433D01*
X38668Y-26362D01*
X38951Y-26645D01*
X38880Y-26716D01*
X38880Y-26716D01*
G37*
G36*
X39014Y-26582D02*
X38731Y-26299D01*
X38802Y-26228D01*
X39085Y-26511D01*
X39014Y-26582D01*
X39014Y-26582D01*
G37*
G36*
X39156Y-26441D02*
X38873Y-26158D01*
X38944Y-26087D01*
X39227Y-26370D01*
X39156Y-26441D01*
X39156Y-26441D01*
G37*
G36*
X39297Y-26299D02*
X39014Y-26016D01*
X39085Y-25945D01*
X39368Y-26228D01*
X39297Y-26299D01*
X39297Y-26299D01*
G37*
G36*
X35118Y-21852D02*
X34835Y-21569D01*
X34906Y-21498D01*
X35189Y-21781D01*
X35118Y-21852D01*
X35118Y-21852D01*
G37*
G36*
X34977Y-21993D02*
X34694Y-21710D01*
X34765Y-21639D01*
X35048Y-21922D01*
X34977Y-21993D01*
X34977Y-21993D01*
G37*
G36*
X34842Y-22127D02*
X34559Y-21844D01*
X34630Y-21773D01*
X34913Y-22056D01*
X34842Y-22127D01*
X34842Y-22127D01*
G37*
G36*
X34701Y-22269D02*
X34418Y-21986D01*
X34489Y-21915D01*
X34772Y-22198D01*
X34701Y-22269D01*
X34701Y-22269D01*
G37*
G36*
X34559Y-22410D02*
X34276Y-22127D01*
X34347Y-22056D01*
X34630Y-22339D01*
X34559Y-22410D01*
X34559Y-22410D01*
G37*
G36*
X34425Y-22545D02*
X34142Y-22262D01*
X34213Y-22191D01*
X34496Y-22474D01*
X34425Y-22545D01*
X34425Y-22545D01*
G37*
G36*
X34284Y-22686D02*
X34001Y-22403D01*
X34072Y-22332D01*
X34355Y-22615D01*
X34284Y-22686D01*
X34284Y-22686D01*
G37*
G36*
X34142Y-22827D02*
X33859Y-22544D01*
X33930Y-22473D01*
X34213Y-22756D01*
X34142Y-22827D01*
X34142Y-22827D01*
G37*
G36*
X34008Y-22962D02*
X33725Y-22679D01*
X33796Y-22608D01*
X34079Y-22891D01*
X34008Y-22962D01*
X34008Y-22962D01*
G37*
G36*
X33867Y-23103D02*
X33584Y-22820D01*
X33655Y-22749D01*
X33938Y-23032D01*
X33867Y-23103D01*
X33867Y-23103D01*
G37*
G36*
X33725Y-23245D02*
X33442Y-22962D01*
X33513Y-22891D01*
X33796Y-23174D01*
X33725Y-23245D01*
X33725Y-23245D01*
G37*
G36*
X33584Y-23386D02*
X33301Y-23103D01*
X33372Y-23032D01*
X33655Y-23315D01*
X33584Y-23386D01*
X33584Y-23386D01*
G37*
G36*
X33449Y-23520D02*
X33166Y-23237D01*
X33237Y-23166D01*
X33520Y-23449D01*
X33449Y-23520D01*
X33449Y-23520D01*
G37*
G36*
X33308Y-23662D02*
X33025Y-23379D01*
X33096Y-23308D01*
X33379Y-23591D01*
X33308Y-23662D01*
X33308Y-23662D01*
G37*
G36*
X33166Y-23803D02*
X32883Y-23520D01*
X32954Y-23449D01*
X33237Y-23732D01*
X33166Y-23803D01*
X33166Y-23803D01*
G37*
G36*
X33032Y-23938D02*
X32749Y-23655D01*
X32820Y-23584D01*
X33103Y-23867D01*
X33032Y-23938D01*
X33032Y-23938D01*
G37*
G36*
X32891Y-24079D02*
X32608Y-23796D01*
X32679Y-23725D01*
X32962Y-24008D01*
X32891Y-24079D01*
X32891Y-24079D01*
G37*
G36*
X32749Y-24220D02*
X32466Y-23937D01*
X32537Y-23866D01*
X32820Y-24149D01*
X32749Y-24220D01*
X32749Y-24220D01*
G37*
G36*
X32615Y-24355D02*
X32332Y-24072D01*
X32403Y-24001D01*
X32686Y-24284D01*
X32615Y-24355D01*
X32615Y-24355D01*
G37*
G36*
X32474Y-24496D02*
X32191Y-24213D01*
X32262Y-24142D01*
X32545Y-24425D01*
X32474Y-24496D01*
X32474Y-24496D01*
G37*
G36*
X32332Y-24638D02*
X32049Y-24355D01*
X32120Y-24284D01*
X32403Y-24567D01*
X32332Y-24638D01*
X32332Y-24638D01*
G37*
G36*
X32198Y-24772D02*
X31915Y-24489D01*
X31986Y-24418D01*
X32269Y-24701D01*
X32198Y-24772D01*
X32198Y-24772D01*
G37*
G36*
X32056Y-24913D02*
X31773Y-24630D01*
X31844Y-24559D01*
X32127Y-24842D01*
X32056Y-24913D01*
X32056Y-24913D01*
G37*
G36*
X31915Y-25055D02*
X31632Y-24772D01*
X31703Y-24701D01*
X31986Y-24984D01*
X31915Y-25055D01*
X31915Y-25055D01*
G37*
G36*
X31781Y-25189D02*
X31498Y-24906D01*
X31569Y-24835D01*
X31852Y-25118D01*
X31781Y-25189D01*
X31781Y-25189D01*
G37*
G36*
X31569Y-26165D02*
X31498Y-26094D01*
X31781Y-25811D01*
X31852Y-25882D01*
X31569Y-26165D01*
X31569Y-26165D01*
G37*
G36*
X31710Y-26306D02*
X31639Y-26235D01*
X31922Y-25952D01*
X31993Y-26023D01*
X31710Y-26306D01*
X31710Y-26306D01*
G37*
G36*
X31844Y-26441D02*
X31773Y-26370D01*
X32056Y-26087D01*
X32127Y-26158D01*
X31844Y-26441D01*
X31844Y-26441D01*
G37*
G36*
X31986Y-26582D02*
X31915Y-26511D01*
X32198Y-26228D01*
X32269Y-26299D01*
X31986Y-26582D01*
X31986Y-26582D01*
G37*
G36*
X32127Y-26724D02*
X32056Y-26653D01*
X32339Y-26370D01*
X32410Y-26441D01*
X32127Y-26724D01*
X32127Y-26724D01*
G37*
G36*
X32262Y-26858D02*
X32191Y-26787D01*
X32474Y-26504D01*
X32545Y-26575D01*
X32262Y-26858D01*
X32262Y-26858D01*
G37*
G36*
X32403Y-26999D02*
X32332Y-26928D01*
X32615Y-26645D01*
X32686Y-26716D01*
X32403Y-26999D01*
X32403Y-26999D01*
G37*
G36*
X32544Y-27141D02*
X32473Y-27070D01*
X32756Y-26787D01*
X32827Y-26858D01*
X32544Y-27141D01*
X32544Y-27141D01*
G37*
G36*
X32679Y-27275D02*
X32608Y-27204D01*
X32891Y-26921D01*
X32962Y-26992D01*
X32679Y-27275D01*
X32679Y-27275D01*
G37*
G36*
X32820Y-27416D02*
X32749Y-27345D01*
X33032Y-27062D01*
X33103Y-27133D01*
X32820Y-27416D01*
X32820Y-27416D01*
G37*
G36*
X32962Y-27558D02*
X32891Y-27487D01*
X33174Y-27204D01*
X33245Y-27275D01*
X32962Y-27558D01*
X32962Y-27558D01*
G37*
G36*
X33103Y-27699D02*
X33032Y-27628D01*
X33315Y-27345D01*
X33386Y-27416D01*
X33103Y-27699D01*
X33103Y-27699D01*
G37*
G36*
X33237Y-27834D02*
X33166Y-27763D01*
X33449Y-27480D01*
X33520Y-27551D01*
X33237Y-27834D01*
X33237Y-27834D01*
G37*
G36*
X33379Y-27975D02*
X33308Y-27904D01*
X33591Y-27621D01*
X33662Y-27692D01*
X33379Y-27975D01*
X33379Y-27975D01*
G37*
G36*
X33520Y-28117D02*
X33449Y-28046D01*
X33732Y-27763D01*
X33803Y-27834D01*
X33520Y-28117D01*
X33520Y-28117D01*
G37*
G36*
X33655Y-28251D02*
X33584Y-28180D01*
X33867Y-27897D01*
X33938Y-27968D01*
X33655Y-28251D01*
X33655Y-28251D01*
G37*
G36*
X33796Y-28392D02*
X33725Y-28321D01*
X34008Y-28038D01*
X34079Y-28109D01*
X33796Y-28392D01*
X33796Y-28392D01*
G37*
G36*
X33937Y-28534D02*
X33866Y-28463D01*
X34149Y-28180D01*
X34220Y-28251D01*
X33937Y-28534D01*
X33937Y-28534D01*
G37*
G36*
X34072Y-28668D02*
X34001Y-28597D01*
X34284Y-28314D01*
X34355Y-28385D01*
X34072Y-28668D01*
X34072Y-28668D01*
G37*
G36*
X34213Y-28809D02*
X34142Y-28738D01*
X34425Y-28455D01*
X34496Y-28526D01*
X34213Y-28809D01*
X34213Y-28809D01*
G37*
G36*
X34355Y-28951D02*
X34284Y-28880D01*
X34567Y-28597D01*
X34638Y-28668D01*
X34355Y-28951D01*
X34355Y-28951D01*
G37*
G36*
X34489Y-29085D02*
X34418Y-29014D01*
X34701Y-28731D01*
X34772Y-28802D01*
X34489Y-29085D01*
X34489Y-29085D01*
G37*
G36*
X34630Y-29227D02*
X34559Y-29156D01*
X34842Y-28873D01*
X34913Y-28944D01*
X34630Y-29227D01*
X34630Y-29227D01*
G37*
G36*
X34772Y-29368D02*
X34701Y-29297D01*
X34984Y-29014D01*
X35055Y-29085D01*
X34772Y-29368D01*
X34772Y-29368D01*
G37*
G36*
X34906Y-29502D02*
X34835Y-29431D01*
X35118Y-29148D01*
X35189Y-29219D01*
X34906Y-29502D01*
X34906Y-29502D01*
G37*
G54D18*
X29880Y-24100D03*
G54D19*
X26500Y-29500D02*
X32335Y-29500D01*
X26000Y-30000D02*
X26500Y-29500D01*
X32335Y-29500D02*
X33761Y-28074D01*
X27000Y-30000D02*
X32117Y-30000D01*
X32117Y-30000D02*
X33902Y-28215D01*
X27000Y-31000D02*
X31669Y-31000D01*
X31669Y-31000D02*
X34178Y-28491D01*
X27000Y-32000D02*
X31235Y-32000D01*
X31235Y-32000D02*
X34461Y-28774D01*
X44500Y-30500D02*
X44000Y-30000D01*
X34085Y-29701D02*
X34736Y-29050D01*
X34085Y-30305D02*
X34085Y-29701D01*
X35068Y-31288D02*
X34085Y-30305D01*
X41977Y-31288D02*
X35068Y-31288D01*
X43265Y-30000D02*
X41977Y-31288D01*
X44000Y-30000D02*
X43265Y-30000D01*
X43500Y-29500D02*
X43500Y-29535D01*
X34367Y-29702D02*
X34878Y-29191D01*
X34367Y-30357D02*
X34367Y-29702D01*
X35136Y-31126D02*
X34367Y-30357D01*
X41909Y-31126D02*
X35136Y-31126D01*
X43500Y-29535D02*
X41909Y-31126D01*
X27000Y-26000D02*
X29450Y-26000D01*
X31581Y-24650D02*
X31809Y-24878D01*
X30800Y-24650D02*
X31581Y-24650D01*
X29450Y-26000D02*
X30800Y-24650D01*
X43500Y-23500D02*
X43500Y-23571D01*
X38309Y-28026D02*
X37798Y-27515D01*
X39045Y-28026D02*
X38309Y-28026D01*
X43500Y-23571D02*
X39045Y-28026D01*
X27000Y-27000D02*
X27102Y-27000D01*
X31938Y-27676D02*
X32650Y-26964D01*
X27778Y-27676D02*
X31938Y-27676D01*
X27102Y-27000D02*
X27778Y-27676D01*
X26000Y-28000D02*
X26500Y-27500D01*
X32045Y-27838D02*
X32785Y-27098D01*
X27710Y-27838D02*
X32045Y-27838D01*
X27372Y-27500D02*
X27710Y-27838D01*
X26500Y-27500D02*
X27372Y-27500D01*
X31949Y-28500D02*
X33068Y-27381D01*
X26500Y-28500D02*
X31949Y-28500D01*
X26000Y-29000D02*
X26500Y-28500D01*
X27000Y-29000D02*
X31731Y-29000D01*
X31731Y-29000D02*
X33209Y-27522D01*
X27000Y-24000D02*
X29290Y-24000D01*
X32051Y-23720D02*
X32509Y-24178D01*
X29570Y-23720D02*
X32051Y-23720D01*
X29290Y-24000D02*
X29570Y-23720D01*
X27000Y-19000D02*
X30951Y-19000D01*
X30951Y-19000D02*
X34319Y-22368D01*
X26000Y-18000D02*
X26500Y-18500D01*
X30720Y-18500D02*
X34453Y-22233D01*
X26500Y-18500D02*
X30720Y-18500D01*
X27000Y-18000D02*
X30503Y-18000D01*
X30503Y-18000D02*
X34595Y-22092D01*
X43500Y-18500D02*
X43500Y-18617D01*
X43500Y-18617D02*
X38215Y-23902D01*
X26000Y-23000D02*
X26500Y-23500D01*
X32100Y-23500D02*
X32643Y-24043D01*
X26500Y-23500D02*
X32100Y-23500D01*
X43500Y-15500D02*
X43500Y-15521D01*
X42102Y-18063D02*
X37239Y-22926D01*
X42102Y-16919D02*
X42102Y-18063D01*
X43500Y-15521D02*
X42102Y-16919D01*
X44500Y-15500D02*
X44000Y-15000D01*
X41940Y-17943D02*
X37098Y-22785D01*
X41940Y-16310D02*
X41940Y-17943D01*
X43250Y-15000D02*
X41940Y-16310D01*
X44000Y-15000D02*
X43250Y-15000D01*
X43500Y-13500D02*
X43500Y-13521D01*
X41454Y-17595D02*
X36681Y-22368D01*
X41454Y-15567D02*
X41454Y-17595D01*
X43500Y-13521D02*
X41454Y-15567D01*
X44000Y-13000D02*
X43250Y-13000D01*
X43250Y-13000D02*
X41292Y-14958D01*
X44500Y-13500D02*
X44000Y-13000D01*
X41292Y-14958D02*
X41292Y-17473D01*
X41292Y-17473D02*
X36539Y-22226D01*
X27000Y-23000D02*
X32717Y-23000D01*
X32717Y-23000D02*
X33202Y-23485D01*
X27000Y-22000D02*
X32269Y-22000D01*
X32269Y-22000D02*
X33478Y-23209D01*
X26000Y-20000D02*
X26500Y-20500D01*
X31617Y-20500D02*
X33902Y-22785D01*
X26500Y-20500D02*
X31617Y-20500D01*
X27000Y-20000D02*
X31386Y-20000D01*
X31386Y-20000D02*
X34036Y-22650D01*
X26000Y-25000D02*
X26500Y-24500D01*
X26500Y-24500D02*
X30263Y-24500D01*
X31929Y-24164D02*
X32226Y-24461D01*
X30263Y-24500D02*
X30599Y-24164D01*
X30599Y-24164D02*
X31929Y-24164D01*
X27000Y-25000D02*
X29992Y-25000D01*
X31823Y-24326D02*
X32092Y-24595D01*
X30666Y-24326D02*
X31823Y-24326D01*
X29992Y-25000D02*
X30666Y-24326D01*
X26000Y-31000D02*
X26500Y-30500D01*
X31900Y-30500D02*
X34043Y-28357D01*
X26500Y-30500D02*
X31900Y-30500D01*
X26000Y-32000D02*
X26500Y-31500D01*
X31451Y-31500D02*
X34319Y-28632D01*
X26500Y-31500D02*
X31451Y-31500D01*
X43500Y-30500D02*
X42550Y-31450D01*
X42550Y-31450D02*
X35000Y-31450D01*
X33800Y-29703D02*
X34595Y-28908D01*
X35000Y-31450D02*
X33800Y-30250D01*
X33800Y-30250D02*
X33800Y-29703D01*
X34529Y-30289D02*
X34529Y-29808D01*
X35190Y-30950D02*
X34529Y-30289D01*
X41341Y-30950D02*
X35190Y-30950D01*
X43291Y-29000D02*
X41341Y-30950D01*
X44000Y-29000D02*
X43291Y-29000D01*
X44500Y-29500D02*
X44000Y-29000D01*
X34529Y-29808D02*
X35012Y-29325D01*
X26000Y-26000D02*
X26500Y-25500D01*
X31702Y-24488D02*
X31950Y-24736D01*
X30733Y-24488D02*
X31702Y-24488D01*
X29721Y-25500D02*
X30733Y-24488D01*
X26500Y-25500D02*
X29721Y-25500D01*
X43500Y-28561D02*
X41461Y-30600D01*
X37263Y-30600D02*
X35988Y-29325D01*
X43500Y-28500D02*
X43500Y-28561D01*
X41461Y-30600D02*
X37263Y-30600D01*
X44500Y-28500D02*
X44000Y-28000D01*
X37383Y-30438D02*
X36129Y-29184D01*
X40857Y-30438D02*
X37383Y-30438D01*
X43295Y-28000D02*
X40857Y-30438D01*
X44000Y-28000D02*
X43295Y-28000D01*
X43500Y-27565D02*
X40789Y-30276D01*
X43500Y-27500D02*
X43500Y-27565D01*
X37490Y-30276D02*
X36264Y-29050D01*
X40789Y-30276D02*
X37490Y-30276D01*
X44500Y-27500D02*
X44000Y-27000D01*
X37611Y-30114D02*
X36405Y-28908D01*
X44000Y-27000D02*
X43281Y-27000D01*
X37732Y-29952D02*
X36547Y-28767D01*
X43500Y-26500D02*
X43500Y-26551D01*
X44500Y-26500D02*
X44000Y-26000D01*
X37839Y-29790D02*
X36681Y-28632D01*
X39460Y-29790D02*
X37839Y-29790D01*
X43250Y-26000D02*
X39460Y-29790D01*
X44000Y-26000D02*
X43250Y-26000D01*
X39393Y-29628D02*
X37959Y-29628D01*
X43500Y-25521D02*
X39393Y-29628D01*
X43500Y-25500D02*
X43500Y-25521D01*
X37959Y-29628D02*
X36822Y-28491D01*
X44000Y-25000D02*
X43250Y-25000D01*
X44500Y-25500D02*
X44000Y-25000D01*
X43250Y-25000D02*
X38784Y-29466D01*
X38080Y-29466D02*
X36964Y-28350D01*
X38784Y-29466D02*
X38080Y-29466D01*
X43500Y-24521D02*
X39671Y-28350D01*
X43500Y-24500D02*
X43500Y-24521D01*
X38081Y-28350D02*
X37522Y-27791D01*
X39671Y-28350D02*
X38081Y-28350D01*
X38188Y-28188D02*
X37657Y-27657D01*
X39112Y-28188D02*
X38188Y-28188D01*
X43300Y-24000D02*
X39112Y-28188D01*
X44000Y-24000D02*
X43300Y-24000D01*
X44500Y-24500D02*
X44000Y-24000D01*
X38266Y-27700D02*
X37940Y-27374D01*
X44500Y-23500D02*
X44000Y-23000D01*
X38600Y-27700D02*
X38266Y-27700D01*
X44000Y-23000D02*
X43300Y-23000D01*
X43300Y-23000D02*
X38600Y-27700D01*
X27227Y-26500D02*
X28227Y-27500D01*
X26500Y-26500D02*
X27227Y-26500D01*
X26000Y-27000D02*
X26500Y-26500D01*
X31831Y-27500D02*
X32509Y-26822D01*
X28227Y-27500D02*
X31831Y-27500D01*
X32165Y-28000D02*
X32926Y-27239D01*
X27000Y-28000D02*
X32165Y-28000D01*
X32368Y-24319D02*
X32368Y-24308D01*
X32368Y-24308D02*
X32000Y-23940D01*
X30040Y-23940D02*
X29880Y-24100D01*
X32000Y-23940D02*
X30040Y-23940D01*
X31169Y-19500D02*
X34178Y-22509D01*
X26500Y-19500D02*
X31169Y-19500D01*
X26000Y-19000D02*
X26500Y-19500D01*
X42720Y-20500D02*
X38767Y-24453D01*
X43500Y-20500D02*
X42720Y-20500D01*
X44000Y-20000D02*
X42951Y-20000D01*
X44500Y-20500D02*
X44000Y-20000D01*
X43500Y-19500D02*
X43169Y-19500D01*
X43169Y-19500D02*
X38491Y-24178D01*
X44000Y-19000D02*
X43386Y-19000D01*
X44500Y-19500D02*
X44000Y-19000D01*
X43386Y-19000D02*
X38350Y-24036D01*
X43000Y-18835D02*
X38074Y-23761D01*
X43000Y-18250D02*
X43000Y-18835D01*
X43250Y-18000D02*
X43000Y-18250D01*
X44000Y-18000D02*
X43250Y-18000D01*
X44500Y-18500D02*
X44000Y-18000D01*
X42750Y-18250D02*
X42750Y-18801D01*
X43500Y-17500D02*
X42750Y-18250D01*
X42750Y-18801D02*
X37932Y-23619D01*
X44500Y-17500D02*
X44000Y-17000D01*
X42588Y-18681D02*
X37791Y-23478D01*
X42588Y-17662D02*
X42588Y-18681D01*
X43250Y-17000D02*
X42588Y-17662D01*
X44000Y-17000D02*
X43250Y-17000D01*
X43500Y-16500D02*
X43500Y-16521D01*
X42426Y-18291D02*
X37515Y-23202D01*
X42426Y-17595D02*
X42426Y-18291D01*
X43500Y-16521D02*
X42426Y-17595D01*
X44500Y-16500D02*
X44000Y-16000D01*
X42264Y-18170D02*
X37374Y-23060D01*
X42264Y-16986D02*
X42264Y-18170D01*
X43250Y-16000D02*
X42264Y-16986D01*
X44000Y-16000D02*
X43250Y-16000D01*
X41778Y-17822D02*
X36957Y-22643D01*
X43500Y-14521D02*
X41778Y-16243D01*
X41778Y-16243D02*
X41778Y-17822D01*
X43500Y-14500D02*
X43500Y-14521D01*
X44500Y-14500D02*
X44000Y-14000D01*
X41616Y-17715D02*
X36822Y-22509D01*
X41616Y-15634D02*
X41616Y-17715D01*
X43250Y-14000D02*
X41616Y-15634D01*
X44000Y-14000D02*
X43250Y-14000D01*
X26000Y-22000D02*
X26500Y-22500D01*
X32500Y-22500D02*
X33343Y-23343D01*
X26500Y-22500D02*
X32500Y-22500D01*
X32051Y-21500D02*
X33619Y-23068D01*
X26500Y-21500D02*
X32051Y-21500D01*
X26000Y-21000D02*
X26500Y-21500D01*
X27000Y-21000D02*
X31835Y-21000D01*
X31835Y-21000D02*
X33761Y-22926D01*
X44500Y-22500D02*
X44500Y-21500D01*
X44500Y-21500D02*
X44000Y-21000D01*
X44000Y-21000D02*
X42503Y-21000D01*
X42503Y-21000D02*
X38908Y-24595D01*
X41555Y-22500D02*
X39184Y-24871D01*
X43500Y-22500D02*
X41555Y-22500D01*
X42286Y-21500D02*
X39050Y-24736D01*
X43500Y-21500D02*
X42286Y-21500D01*
G54D10*
G36*
X43174Y-12050D02*
X43035Y-12189D01*
X42951Y-12391D01*
X42951Y-12609D01*
X43033Y-12806D01*
X41087Y-14753D01*
X41024Y-14847D01*
X41002Y-14958D01*
X41002Y-17352D01*
X39946Y-18408D01*
X39946Y-18344D01*
X39946Y-17558D01*
X39908Y-17466D01*
X39838Y-17396D01*
X39747Y-17358D01*
X39650Y-17358D01*
X39650Y-14962D01*
X39650Y-14738D01*
X39649Y-14501D01*
X39611Y-14409D01*
X39541Y-14339D01*
X39450Y-14301D01*
X39351Y-14301D01*
X39112Y-14300D01*
X39050Y-14362D01*
X39050Y-14800D01*
X39588Y-14800D01*
X39650Y-14738D01*
X39650Y-14962D01*
X39588Y-14900D01*
X39050Y-14900D01*
X39050Y-15338D01*
X39112Y-15400D01*
X39351Y-15399D01*
X39450Y-15399D01*
X39541Y-15361D01*
X39611Y-15291D01*
X39649Y-15199D01*
X39650Y-14962D01*
X39650Y-17358D01*
X39649Y-17358D01*
X39649Y-16500D01*
X39649Y-16401D01*
X39649Y-15801D01*
X39611Y-15709D01*
X39541Y-15639D01*
X39450Y-15601D01*
X39351Y-15601D01*
X38950Y-15601D01*
X38950Y-15338D01*
X38950Y-14900D01*
X38950Y-14800D01*
X38950Y-14362D01*
X38888Y-14300D01*
X38649Y-14301D01*
X38550Y-14301D01*
X38459Y-14339D01*
X38389Y-14409D01*
X38351Y-14501D01*
X38350Y-14738D01*
X38412Y-14800D01*
X38950Y-14800D01*
X38950Y-14900D01*
X38412Y-14900D01*
X38350Y-14962D01*
X38351Y-15199D01*
X38389Y-15291D01*
X38459Y-15361D01*
X38550Y-15399D01*
X38649Y-15399D01*
X38888Y-15400D01*
X38950Y-15338D01*
X38950Y-15601D01*
X38551Y-15601D01*
X38459Y-15639D01*
X38389Y-15709D01*
X38363Y-15770D01*
X38298Y-15743D01*
X38199Y-15743D01*
X38143Y-15743D01*
X38143Y-14785D01*
X38143Y-14561D01*
X38142Y-14486D01*
X38142Y-14387D01*
X38104Y-14296D01*
X38034Y-14226D01*
X37942Y-14188D01*
X37612Y-14187D01*
X37550Y-14249D01*
X37550Y-14623D01*
X38081Y-14623D01*
X38143Y-14561D01*
X38143Y-14785D01*
X38081Y-14723D01*
X37550Y-14723D01*
X37550Y-15097D01*
X37612Y-15159D01*
X37942Y-15158D01*
X38034Y-15120D01*
X38104Y-15050D01*
X38142Y-14959D01*
X38142Y-14860D01*
X38143Y-14785D01*
X38143Y-15743D01*
X37885Y-15743D01*
X37795Y-15779D01*
X37706Y-15743D01*
X37612Y-15742D01*
X37550Y-15804D01*
X37550Y-16187D01*
X37550Y-16237D01*
X37550Y-16337D01*
X37550Y-16387D01*
X37550Y-16770D01*
X37612Y-16832D01*
X37706Y-16831D01*
X37795Y-16794D01*
X37884Y-16831D01*
X37983Y-16831D01*
X38297Y-16831D01*
X38389Y-16793D01*
X38459Y-16723D01*
X38481Y-16670D01*
X38550Y-16699D01*
X38649Y-16699D01*
X39449Y-16699D01*
X39541Y-16661D01*
X39611Y-16591D01*
X39649Y-16500D01*
X39649Y-17358D01*
X39648Y-17358D01*
X39254Y-17358D01*
X39162Y-17396D01*
X39092Y-17466D01*
X39054Y-17557D01*
X39054Y-17656D01*
X39054Y-18442D01*
X39092Y-18534D01*
X39162Y-18604D01*
X39253Y-18642D01*
X39352Y-18642D01*
X39712Y-18642D01*
X38946Y-19407D01*
X38946Y-18443D01*
X38946Y-18344D01*
X38946Y-17558D01*
X38908Y-17466D01*
X38838Y-17396D01*
X38747Y-17358D01*
X38648Y-17358D01*
X38254Y-17358D01*
X38162Y-17396D01*
X38092Y-17466D01*
X38054Y-17557D01*
X38054Y-17656D01*
X38054Y-18442D01*
X38092Y-18534D01*
X38162Y-18604D01*
X38253Y-18642D01*
X38352Y-18642D01*
X38746Y-18642D01*
X38838Y-18604D01*
X38908Y-18534D01*
X38946Y-18443D01*
X38946Y-19407D01*
X37450Y-20903D01*
X37450Y-16770D01*
X37450Y-16387D01*
X37450Y-16337D01*
X37450Y-16237D01*
X37450Y-16187D01*
X37450Y-15804D01*
X37450Y-15097D01*
X37450Y-14723D01*
X37450Y-14623D01*
X37450Y-14249D01*
X37388Y-14187D01*
X37058Y-14188D01*
X36966Y-14226D01*
X36896Y-14296D01*
X36858Y-14387D01*
X36858Y-14486D01*
X36857Y-14561D01*
X36919Y-14623D01*
X37450Y-14623D01*
X37450Y-14723D01*
X36919Y-14723D01*
X36857Y-14785D01*
X36858Y-14860D01*
X36858Y-14959D01*
X36896Y-15050D01*
X36966Y-15120D01*
X37058Y-15158D01*
X37388Y-15159D01*
X37450Y-15097D01*
X37450Y-15804D01*
X37388Y-15742D01*
X37294Y-15743D01*
X37204Y-15779D01*
X37116Y-15743D01*
X37017Y-15743D01*
X36703Y-15743D01*
X36650Y-15764D01*
X36650Y-14962D01*
X36650Y-14738D01*
X36649Y-14501D01*
X36611Y-14409D01*
X36541Y-14339D01*
X36450Y-14301D01*
X36351Y-14301D01*
X36112Y-14300D01*
X36050Y-14362D01*
X36050Y-14800D01*
X36588Y-14800D01*
X36650Y-14738D01*
X36650Y-14962D01*
X36588Y-14900D01*
X36050Y-14900D01*
X36050Y-15338D01*
X36112Y-15400D01*
X36351Y-15399D01*
X36450Y-15399D01*
X36541Y-15361D01*
X36611Y-15291D01*
X36649Y-15199D01*
X36650Y-14962D01*
X36650Y-15764D01*
X36636Y-15770D01*
X36611Y-15709D01*
X36541Y-15639D01*
X36450Y-15601D01*
X36351Y-15601D01*
X35950Y-15601D01*
X35950Y-15338D01*
X35950Y-14900D01*
X35950Y-14800D01*
X35950Y-14362D01*
X35888Y-14300D01*
X35649Y-14301D01*
X35550Y-14301D01*
X35459Y-14339D01*
X35389Y-14409D01*
X35351Y-14501D01*
X35350Y-14738D01*
X35412Y-14800D01*
X35950Y-14800D01*
X35950Y-14900D01*
X35412Y-14900D01*
X35350Y-14962D01*
X35351Y-15199D01*
X35389Y-15291D01*
X35459Y-15361D01*
X35550Y-15399D01*
X35649Y-15399D01*
X35888Y-15400D01*
X35950Y-15338D01*
X35950Y-15601D01*
X35551Y-15601D01*
X35459Y-15639D01*
X35389Y-15709D01*
X35351Y-15800D01*
X35351Y-15899D01*
X35351Y-16499D01*
X35389Y-16591D01*
X35459Y-16661D01*
X35550Y-16699D01*
X35649Y-16699D01*
X36449Y-16699D01*
X36519Y-16670D01*
X36541Y-16723D01*
X36611Y-16793D01*
X36702Y-16831D01*
X36801Y-16831D01*
X37115Y-16831D01*
X37204Y-16794D01*
X37294Y-16831D01*
X37388Y-16832D01*
X37450Y-16770D01*
X37450Y-20903D01*
X36651Y-21702D01*
X36582Y-21633D01*
X36511Y-21563D01*
X36510Y-21562D01*
X36440Y-21492D01*
X36376Y-21429D01*
X36376Y-21428D01*
X36306Y-21358D01*
X36235Y-21288D01*
X36144Y-21249D01*
X36045Y-21249D01*
X35953Y-21287D01*
X35883Y-21357D01*
X35601Y-21640D01*
X35562Y-21732D01*
X35562Y-21831D01*
X35600Y-21922D01*
X35670Y-21992D01*
X35733Y-22054D01*
X35734Y-22056D01*
X35804Y-22126D01*
X35875Y-22196D01*
X35876Y-22197D01*
X35946Y-22267D01*
X36015Y-22335D01*
X36017Y-22339D01*
X36087Y-22409D01*
X36150Y-22471D01*
X36151Y-22473D01*
X36221Y-22543D01*
X36292Y-22613D01*
X36293Y-22615D01*
X36363Y-22685D01*
X36433Y-22754D01*
X36434Y-22756D01*
X36504Y-22826D01*
X36569Y-22890D01*
X36575Y-22896D01*
X36639Y-22960D01*
X36708Y-23028D01*
X36710Y-23032D01*
X36780Y-23102D01*
X36850Y-23171D01*
X36851Y-23173D01*
X36921Y-23243D01*
X36986Y-23307D01*
X36992Y-23313D01*
X37056Y-23377D01*
X37125Y-23445D01*
X37127Y-23449D01*
X37197Y-23519D01*
X37268Y-23589D01*
X37269Y-23590D01*
X37339Y-23660D01*
X37401Y-23721D01*
X37403Y-23725D01*
X37473Y-23795D01*
X37543Y-23864D01*
X37544Y-23866D01*
X37614Y-23936D01*
X37685Y-24006D01*
X37686Y-24008D01*
X37756Y-24078D01*
X37826Y-24147D01*
X37827Y-24149D01*
X37897Y-24219D01*
X37962Y-24283D01*
X37968Y-24289D01*
X38032Y-24353D01*
X38101Y-24421D01*
X38103Y-24425D01*
X38173Y-24495D01*
X38243Y-24564D01*
X38244Y-24566D01*
X38314Y-24636D01*
X38379Y-24700D01*
X38385Y-24706D01*
X38449Y-24770D01*
X38518Y-24838D01*
X38520Y-24842D01*
X38530Y-24852D01*
X38548Y-24852D01*
X38611Y-24879D01*
X38624Y-24879D01*
X38624Y-24892D01*
X38651Y-24956D01*
X38651Y-24973D01*
X38661Y-24983D01*
X38662Y-24983D01*
X38732Y-25053D01*
X38794Y-25114D01*
X38796Y-25118D01*
X38866Y-25188D01*
X38936Y-25257D01*
X38937Y-25259D01*
X39007Y-25329D01*
X39078Y-25399D01*
X39169Y-25438D01*
X39268Y-25438D01*
X39360Y-25400D01*
X39430Y-25330D01*
X39712Y-25047D01*
X39751Y-24955D01*
X39751Y-24856D01*
X39713Y-24765D01*
X39706Y-24758D01*
X41675Y-22790D01*
X43026Y-22790D01*
X43035Y-22811D01*
X43057Y-22833D01*
X39751Y-26139D01*
X39751Y-26045D01*
X39713Y-25953D01*
X39643Y-25883D01*
X39616Y-25855D01*
X39529Y-25855D01*
X39437Y-25946D01*
X39366Y-25875D01*
X39458Y-25784D01*
X39458Y-25697D01*
X39430Y-25670D01*
X39360Y-25600D01*
X39268Y-25562D01*
X39169Y-25562D01*
X39078Y-25601D01*
X39068Y-25608D01*
X39068Y-25696D01*
X39035Y-25696D01*
X38951Y-25731D01*
X38945Y-25731D01*
X38940Y-25737D01*
X38874Y-25804D01*
X38804Y-25875D01*
X38803Y-25875D01*
X38803Y-25876D01*
X38733Y-25946D01*
X38664Y-26015D01*
X38661Y-26017D01*
X38591Y-26087D01*
X38526Y-26152D01*
X38517Y-26159D01*
X38517Y-26167D01*
X38482Y-26249D01*
X38482Y-26255D01*
X38476Y-26255D01*
X38411Y-26282D01*
X38394Y-26282D01*
X38387Y-26292D01*
X38386Y-26292D01*
X38385Y-26293D01*
X38315Y-26363D01*
X38245Y-26433D01*
X38244Y-26434D01*
X38174Y-26504D01*
X38104Y-26575D01*
X38040Y-26639D01*
X37971Y-26708D01*
X37968Y-26710D01*
X37898Y-26780D01*
X37828Y-26850D01*
X37827Y-26851D01*
X37757Y-26921D01*
X37687Y-26992D01*
X37623Y-27056D01*
X37554Y-27125D01*
X37551Y-27127D01*
X37481Y-27197D01*
X37411Y-27268D01*
X37410Y-27268D01*
X37410Y-27269D01*
X37340Y-27339D01*
X37278Y-27401D01*
X37275Y-27403D01*
X37205Y-27473D01*
X37135Y-27543D01*
X37134Y-27544D01*
X37064Y-27614D01*
X36994Y-27685D01*
X36993Y-27686D01*
X36992Y-27687D01*
X36982Y-27694D01*
X36982Y-27713D01*
X36955Y-27776D01*
X36955Y-27789D01*
X36942Y-27789D01*
X36874Y-27817D01*
X36859Y-27817D01*
X36852Y-27826D01*
X36851Y-27827D01*
X36781Y-27897D01*
X36711Y-27968D01*
X36647Y-28032D01*
X36578Y-28101D01*
X36575Y-28103D01*
X36505Y-28173D01*
X36435Y-28243D01*
X36434Y-28244D01*
X36364Y-28314D01*
X36294Y-28385D01*
X36230Y-28449D01*
X36161Y-28518D01*
X36158Y-28520D01*
X36088Y-28590D01*
X36018Y-28661D01*
X36017Y-28661D01*
X36017Y-28662D01*
X35947Y-28732D01*
X35885Y-28794D01*
X35882Y-28796D01*
X35812Y-28866D01*
X35742Y-28936D01*
X35741Y-28937D01*
X35671Y-29007D01*
X35601Y-29078D01*
X35562Y-29169D01*
X35562Y-29268D01*
X35600Y-29360D01*
X35670Y-29430D01*
X35953Y-29712D01*
X35973Y-29720D01*
X36913Y-30660D01*
X35310Y-30660D01*
X34819Y-30169D01*
X34819Y-29928D01*
X35024Y-29722D01*
X35047Y-29713D01*
X35117Y-29643D01*
X35399Y-29360D01*
X35438Y-29268D01*
X35438Y-29169D01*
X35400Y-29078D01*
X35330Y-29008D01*
X35266Y-28945D01*
X35266Y-28944D01*
X35196Y-28874D01*
X35125Y-28804D01*
X35124Y-28803D01*
X35054Y-28733D01*
X34984Y-28664D01*
X34983Y-28663D01*
X34983Y-28661D01*
X34913Y-28591D01*
X34849Y-28528D01*
X34849Y-28527D01*
X34779Y-28457D01*
X34708Y-28387D01*
X34707Y-28386D01*
X34707Y-28385D01*
X34637Y-28315D01*
X34566Y-28245D01*
X34566Y-28244D01*
X34496Y-28174D01*
X34431Y-28110D01*
X34425Y-28104D01*
X34361Y-28040D01*
X34291Y-27971D01*
X34290Y-27970D01*
X34290Y-27968D01*
X34220Y-27898D01*
X34149Y-27828D01*
X34149Y-27827D01*
X34079Y-27757D01*
X34014Y-27693D01*
X34008Y-27687D01*
X33944Y-27623D01*
X33874Y-27554D01*
X33873Y-27553D01*
X33873Y-27551D01*
X33863Y-27541D01*
X33845Y-27541D01*
X33782Y-27514D01*
X33769Y-27514D01*
X33769Y-27501D01*
X33742Y-27436D01*
X33742Y-27420D01*
X33732Y-27410D01*
X33730Y-27409D01*
X33661Y-27340D01*
X33598Y-27278D01*
X33597Y-27275D01*
X33527Y-27205D01*
X33456Y-27135D01*
X33456Y-27134D01*
X33386Y-27064D01*
X33315Y-26994D01*
X33314Y-26993D01*
X33314Y-26992D01*
X33244Y-26922D01*
X33173Y-26852D01*
X33173Y-26851D01*
X33103Y-26781D01*
X33038Y-26717D01*
X33032Y-26711D01*
X32968Y-26647D01*
X32898Y-26578D01*
X32897Y-26577D01*
X32897Y-26575D01*
X32827Y-26505D01*
X32756Y-26435D01*
X32756Y-26434D01*
X32746Y-26424D01*
X32730Y-26424D01*
X32665Y-26396D01*
X32659Y-26396D01*
X32659Y-26391D01*
X32625Y-26309D01*
X32625Y-26303D01*
X32615Y-26293D01*
X32613Y-26292D01*
X32551Y-26230D01*
X32481Y-26161D01*
X32480Y-26160D01*
X32480Y-26158D01*
X32410Y-26088D01*
X32339Y-26018D01*
X32338Y-26017D01*
X32268Y-25947D01*
X32205Y-25885D01*
X32204Y-25882D01*
X32134Y-25812D01*
X32063Y-25742D01*
X32063Y-25741D01*
X31993Y-25671D01*
X31922Y-25601D01*
X31831Y-25562D01*
X31732Y-25562D01*
X31640Y-25600D01*
X31570Y-25670D01*
X31288Y-25953D01*
X31249Y-26045D01*
X31249Y-26144D01*
X31287Y-26235D01*
X31357Y-26305D01*
X31427Y-26374D01*
X31428Y-26376D01*
X31498Y-26446D01*
X31560Y-26507D01*
X31562Y-26511D01*
X31632Y-26581D01*
X31703Y-26651D01*
X31704Y-26652D01*
X31774Y-26722D01*
X31843Y-26790D01*
X31845Y-26794D01*
X31915Y-26864D01*
X31979Y-26927D01*
X31979Y-26928D01*
X31985Y-26934D01*
X31711Y-27210D01*
X28347Y-27210D01*
X27456Y-26319D01*
X27465Y-26311D01*
X27473Y-26290D01*
X29450Y-26290D01*
X29561Y-26268D01*
X29655Y-26205D01*
X30920Y-24940D01*
X31249Y-24940D01*
X31249Y-24955D01*
X31287Y-25047D01*
X31357Y-25117D01*
X31384Y-25145D01*
X31471Y-25145D01*
X31562Y-25053D01*
X31633Y-25124D01*
X31542Y-25216D01*
X31542Y-25303D01*
X31570Y-25330D01*
X31640Y-25400D01*
X31732Y-25438D01*
X31831Y-25438D01*
X31922Y-25399D01*
X31932Y-25392D01*
X31932Y-25304D01*
X31965Y-25304D01*
X32048Y-25269D01*
X32055Y-25269D01*
X32056Y-25266D01*
X32059Y-25262D01*
X32062Y-25259D01*
X32126Y-25196D01*
X32196Y-25125D01*
X32196Y-25124D01*
X32197Y-25124D01*
X32267Y-25054D01*
X32335Y-24984D01*
X32337Y-24983D01*
X32339Y-24983D01*
X32409Y-24913D01*
X32471Y-24849D01*
X32473Y-24849D01*
X32479Y-24842D01*
X32543Y-24779D01*
X32613Y-24708D01*
X32613Y-24707D01*
X32615Y-24707D01*
X32685Y-24637D01*
X32754Y-24566D01*
X32755Y-24566D01*
X32756Y-24566D01*
X32826Y-24496D01*
X32890Y-24431D01*
X32896Y-24425D01*
X32960Y-24361D01*
X33028Y-24291D01*
X33030Y-24290D01*
X33032Y-24290D01*
X33102Y-24220D01*
X33172Y-24149D01*
X33172Y-24148D01*
X33173Y-24148D01*
X33183Y-24141D01*
X33183Y-24123D01*
X33211Y-24058D01*
X33211Y-24052D01*
X33216Y-24052D01*
X33297Y-24018D01*
X33306Y-24018D01*
X33313Y-24008D01*
X33377Y-23944D01*
X33445Y-23874D01*
X33447Y-23873D01*
X33449Y-23873D01*
X33519Y-23803D01*
X33589Y-23732D01*
X33589Y-23731D01*
X33590Y-23731D01*
X33660Y-23661D01*
X33721Y-23598D01*
X33725Y-23597D01*
X33795Y-23527D01*
X33864Y-23456D01*
X33865Y-23456D01*
X33866Y-23456D01*
X33936Y-23386D01*
X34006Y-23315D01*
X34006Y-23314D01*
X34008Y-23314D01*
X34078Y-23244D01*
X34147Y-23173D01*
X34148Y-23173D01*
X34149Y-23173D01*
X34219Y-23103D01*
X34283Y-23038D01*
X34289Y-23032D01*
X34353Y-22968D01*
X34421Y-22898D01*
X34423Y-22897D01*
X34425Y-22897D01*
X34495Y-22827D01*
X34564Y-22756D01*
X34565Y-22756D01*
X34566Y-22756D01*
X34636Y-22686D01*
X34700Y-22621D01*
X34706Y-22615D01*
X34770Y-22551D01*
X34838Y-22481D01*
X34840Y-22480D01*
X34842Y-22480D01*
X34912Y-22410D01*
X34982Y-22339D01*
X34982Y-22337D01*
X34983Y-22337D01*
X34993Y-22330D01*
X34993Y-22313D01*
X35021Y-22248D01*
X35021Y-22242D01*
X35027Y-22242D01*
X35110Y-22207D01*
X35116Y-22207D01*
X35118Y-22204D01*
X35118Y-22203D01*
X35188Y-22134D01*
X35258Y-22063D01*
X35258Y-22062D01*
X35259Y-22062D01*
X35269Y-22055D01*
X35269Y-22037D01*
X35297Y-21972D01*
X35297Y-21925D01*
X35304Y-21932D01*
X35392Y-21932D01*
X35399Y-21922D01*
X35438Y-21831D01*
X35438Y-21732D01*
X35400Y-21640D01*
X35330Y-21570D01*
X35303Y-21542D01*
X35216Y-21542D01*
X35117Y-21640D01*
X35046Y-21569D01*
X35145Y-21471D01*
X35145Y-21384D01*
X35117Y-21357D01*
X35047Y-21287D01*
X34955Y-21249D01*
X34856Y-21249D01*
X34765Y-21288D01*
X34755Y-21295D01*
X34755Y-21383D01*
X34762Y-21390D01*
X34715Y-21390D01*
X34647Y-21418D01*
X34632Y-21418D01*
X34625Y-21427D01*
X34624Y-21428D01*
X34554Y-21498D01*
X34490Y-21562D01*
X34489Y-21562D01*
X34489Y-21561D01*
X34483Y-21566D01*
X34481Y-21568D01*
X32025Y-19112D01*
X32025Y-16105D01*
X32025Y-15896D01*
X32019Y-15881D01*
X32019Y-14074D01*
X32008Y-13870D01*
X31952Y-13733D01*
X31861Y-13710D01*
X31790Y-13781D01*
X31790Y-13639D01*
X31767Y-13548D01*
X31574Y-13481D01*
X31370Y-13492D01*
X31233Y-13548D01*
X31210Y-13639D01*
X31500Y-13929D01*
X31790Y-13639D01*
X31790Y-13781D01*
X31571Y-14000D01*
X31861Y-14290D01*
X31952Y-14267D01*
X32019Y-14074D01*
X32019Y-15881D01*
X31945Y-15703D01*
X31798Y-15555D01*
X31790Y-15551D01*
X31790Y-14361D01*
X31500Y-14071D01*
X31429Y-14142D01*
X31429Y-14000D01*
X31139Y-13710D01*
X31048Y-13733D01*
X30981Y-13926D01*
X30992Y-14130D01*
X31048Y-14267D01*
X31139Y-14290D01*
X31429Y-14000D01*
X31429Y-14142D01*
X31210Y-14361D01*
X31233Y-14452D01*
X31426Y-14519D01*
X31630Y-14508D01*
X31767Y-14452D01*
X31790Y-14361D01*
X31790Y-15551D01*
X31605Y-15475D01*
X31396Y-15475D01*
X31203Y-15555D01*
X31055Y-15702D01*
X30975Y-15895D01*
X30975Y-16104D01*
X31055Y-16297D01*
X31202Y-16445D01*
X31395Y-16525D01*
X31604Y-16525D01*
X31797Y-16445D01*
X31945Y-16298D01*
X32025Y-16105D01*
X32025Y-19112D01*
X30708Y-17795D01*
X30614Y-17732D01*
X30503Y-17710D01*
X29025Y-17710D01*
X29025Y-16105D01*
X29025Y-15896D01*
X29019Y-15881D01*
X29019Y-14074D01*
X29008Y-13870D01*
X28952Y-13733D01*
X28861Y-13710D01*
X28790Y-13781D01*
X28790Y-13639D01*
X28767Y-13548D01*
X28574Y-13481D01*
X28370Y-13492D01*
X28233Y-13548D01*
X28210Y-13639D01*
X28500Y-13929D01*
X28790Y-13639D01*
X28790Y-13781D01*
X28571Y-14000D01*
X28861Y-14290D01*
X28952Y-14267D01*
X29019Y-14074D01*
X29019Y-15881D01*
X28945Y-15703D01*
X28798Y-15555D01*
X28790Y-15551D01*
X28790Y-14361D01*
X28500Y-14071D01*
X28429Y-14142D01*
X28429Y-14000D01*
X28139Y-13710D01*
X28048Y-13733D01*
X27981Y-13926D01*
X27992Y-14130D01*
X28048Y-14267D01*
X28139Y-14290D01*
X28429Y-14000D01*
X28429Y-14142D01*
X28210Y-14361D01*
X28233Y-14452D01*
X28426Y-14519D01*
X28630Y-14508D01*
X28767Y-14452D01*
X28790Y-14361D01*
X28790Y-15551D01*
X28605Y-15475D01*
X28396Y-15475D01*
X28203Y-15555D01*
X28055Y-15702D01*
X27975Y-15895D01*
X27975Y-16104D01*
X28055Y-16297D01*
X28202Y-16445D01*
X28395Y-16525D01*
X28604Y-16525D01*
X28797Y-16445D01*
X28945Y-16298D01*
X29025Y-16105D01*
X29025Y-17710D01*
X27473Y-17710D01*
X27465Y-17689D01*
X27311Y-17535D01*
X27226Y-17500D01*
X27311Y-17465D01*
X27465Y-17311D01*
X27549Y-17109D01*
X27549Y-16891D01*
X27465Y-16689D01*
X27311Y-16535D01*
X27226Y-16500D01*
X27311Y-16465D01*
X27465Y-16311D01*
X27549Y-16109D01*
X27549Y-15891D01*
X27465Y-15689D01*
X27311Y-15535D01*
X27226Y-15500D01*
X27311Y-15465D01*
X27465Y-15311D01*
X27549Y-15109D01*
X27549Y-14891D01*
X27543Y-14876D01*
X27543Y-14079D01*
X27532Y-13866D01*
X27472Y-13719D01*
X27378Y-13692D01*
X27071Y-14000D01*
X27378Y-14308D01*
X27472Y-14281D01*
X27543Y-14079D01*
X27543Y-14876D01*
X27465Y-14689D01*
X27311Y-14535D01*
X27219Y-14497D01*
X27281Y-14472D01*
X27308Y-14378D01*
X27000Y-14071D01*
X26692Y-14378D01*
X26719Y-14472D01*
X26784Y-14495D01*
X26689Y-14535D01*
X26535Y-14689D01*
X26500Y-14773D01*
X26465Y-14689D01*
X26311Y-14535D01*
X26226Y-14500D01*
X26311Y-14465D01*
X26465Y-14311D01*
X26502Y-14219D01*
X26528Y-14281D01*
X26622Y-14308D01*
X26929Y-14000D01*
X26622Y-13692D01*
X26528Y-13719D01*
X26504Y-13784D01*
X26465Y-13689D01*
X26311Y-13535D01*
X26226Y-13500D01*
X26311Y-13465D01*
X26450Y-13325D01*
X26451Y-13349D01*
X26489Y-13441D01*
X26559Y-13511D01*
X26650Y-13549D01*
X26712Y-13549D01*
X26692Y-13622D01*
X27000Y-13929D01*
X27308Y-13622D01*
X27287Y-13549D01*
X27350Y-13549D01*
X27441Y-13511D01*
X27511Y-13441D01*
X27549Y-13349D01*
X27550Y-13112D01*
X27550Y-12888D01*
X27549Y-12651D01*
X27511Y-12559D01*
X27441Y-12489D01*
X27350Y-12451D01*
X27251Y-12451D01*
X27112Y-12450D01*
X27050Y-12512D01*
X27050Y-12950D01*
X27488Y-12950D01*
X27550Y-12888D01*
X27550Y-13112D01*
X27488Y-13050D01*
X27100Y-13050D01*
X27050Y-13050D01*
X26950Y-13050D01*
X26950Y-12950D01*
X26950Y-12900D01*
X26950Y-12512D01*
X26888Y-12450D01*
X26749Y-12451D01*
X26650Y-12451D01*
X26559Y-12489D01*
X26489Y-12559D01*
X26451Y-12651D01*
X26450Y-12674D01*
X26311Y-12535D01*
X26109Y-12451D01*
X25891Y-12451D01*
X25689Y-12535D01*
X25535Y-12689D01*
X25451Y-12891D01*
X25451Y-13109D01*
X25535Y-13311D01*
X25689Y-13465D01*
X25773Y-13500D01*
X25689Y-13535D01*
X25535Y-13689D01*
X25451Y-13891D01*
X25451Y-14109D01*
X25535Y-14311D01*
X25689Y-14465D01*
X25773Y-14500D01*
X25689Y-14535D01*
X25535Y-14689D01*
X25451Y-14891D01*
X25451Y-15109D01*
X25535Y-15311D01*
X25689Y-15465D01*
X25773Y-15500D01*
X25689Y-15535D01*
X25535Y-15689D01*
X25451Y-15891D01*
X25451Y-16109D01*
X25535Y-16311D01*
X25689Y-16465D01*
X25773Y-16500D01*
X25689Y-16535D01*
X25535Y-16689D01*
X25451Y-16891D01*
X25451Y-17109D01*
X25535Y-17311D01*
X25689Y-17465D01*
X25773Y-17500D01*
X25689Y-17535D01*
X25535Y-17689D01*
X25451Y-17891D01*
X25451Y-18109D01*
X25535Y-18311D01*
X25689Y-18465D01*
X25773Y-18500D01*
X25689Y-18535D01*
X25535Y-18689D01*
X25451Y-18891D01*
X25451Y-19109D01*
X25535Y-19311D01*
X25689Y-19465D01*
X25773Y-19500D01*
X25689Y-19535D01*
X25535Y-19689D01*
X25451Y-19891D01*
X25451Y-20109D01*
X25535Y-20311D01*
X25689Y-20465D01*
X25773Y-20500D01*
X25689Y-20535D01*
X25535Y-20689D01*
X25451Y-20891D01*
X25451Y-21109D01*
X25535Y-21311D01*
X25689Y-21465D01*
X25773Y-21500D01*
X25689Y-21535D01*
X25535Y-21689D01*
X25451Y-21891D01*
X25451Y-22109D01*
X25535Y-22311D01*
X25689Y-22465D01*
X25773Y-22500D01*
X25689Y-22535D01*
X25535Y-22689D01*
X25451Y-22891D01*
X25451Y-23109D01*
X25535Y-23311D01*
X25689Y-23465D01*
X25773Y-23500D01*
X25689Y-23535D01*
X25535Y-23689D01*
X25451Y-23891D01*
X25451Y-24109D01*
X25535Y-24311D01*
X25689Y-24465D01*
X25773Y-24500D01*
X25689Y-24535D01*
X25535Y-24689D01*
X25451Y-24891D01*
X25451Y-25109D01*
X25535Y-25311D01*
X25689Y-25465D01*
X25773Y-25500D01*
X25689Y-25535D01*
X25535Y-25689D01*
X25451Y-25891D01*
X25451Y-26109D01*
X25535Y-26311D01*
X25689Y-26465D01*
X25773Y-26500D01*
X25689Y-26535D01*
X25535Y-26689D01*
X25451Y-26891D01*
X25451Y-27109D01*
X25535Y-27311D01*
X25689Y-27465D01*
X25773Y-27500D01*
X25689Y-27535D01*
X25535Y-27689D01*
X25451Y-27891D01*
X25451Y-28109D01*
X25535Y-28311D01*
X25689Y-28465D01*
X25773Y-28500D01*
X25689Y-28535D01*
X25535Y-28689D01*
X25451Y-28891D01*
X25451Y-29109D01*
X25535Y-29311D01*
X25689Y-29465D01*
X25773Y-29500D01*
X25689Y-29535D01*
X25535Y-29689D01*
X25451Y-29891D01*
X25451Y-30109D01*
X25535Y-30311D01*
X25689Y-30465D01*
X25773Y-30500D01*
X25689Y-30535D01*
X25535Y-30689D01*
X25451Y-30891D01*
X25451Y-31109D01*
X25535Y-31311D01*
X25689Y-31465D01*
X25773Y-31500D01*
X25689Y-31535D01*
X25535Y-31689D01*
X25451Y-31891D01*
X25451Y-32109D01*
X25535Y-32311D01*
X25674Y-32450D01*
X25050Y-32450D01*
X25050Y-12050D01*
X43174Y-12050D01*
X43174Y-12050D01*
G37*
G54D20*
X43174Y-12050D02*
X43035Y-12189D01*
X42951Y-12391D01*
X42951Y-12609D01*
X43033Y-12806D01*
X41087Y-14753D01*
X41024Y-14847D01*
X41002Y-14958D01*
X41002Y-17352D01*
X39946Y-18408D01*
X39946Y-18344D01*
X39946Y-17558D01*
X39908Y-17466D01*
X39838Y-17396D01*
X39747Y-17358D01*
X39650Y-17358D01*
X39650Y-14962D01*
X39650Y-14738D01*
X39649Y-14501D01*
X39611Y-14409D01*
X39541Y-14339D01*
X39450Y-14301D01*
X39351Y-14301D01*
X39112Y-14300D01*
X39050Y-14362D01*
X39050Y-14800D01*
X39588Y-14800D01*
X39650Y-14738D01*
X39650Y-14962D01*
X39588Y-14900D01*
X39050Y-14900D01*
X39050Y-15338D01*
X39112Y-15400D01*
X39351Y-15399D01*
X39450Y-15399D01*
X39541Y-15361D01*
X39611Y-15291D01*
X39649Y-15199D01*
X39650Y-14962D01*
X39650Y-17358D01*
X39649Y-17358D01*
X39649Y-16500D01*
X39649Y-16401D01*
X39649Y-15801D01*
X39611Y-15709D01*
X39541Y-15639D01*
X39450Y-15601D01*
X39351Y-15601D01*
X38950Y-15601D01*
X38950Y-15338D01*
X38950Y-14900D01*
X38950Y-14800D01*
X38950Y-14362D01*
X38888Y-14300D01*
X38649Y-14301D01*
X38550Y-14301D01*
X38459Y-14339D01*
X38389Y-14409D01*
X38351Y-14501D01*
X38350Y-14738D01*
X38412Y-14800D01*
X38950Y-14800D01*
X38950Y-14900D01*
X38412Y-14900D01*
X38350Y-14962D01*
X38351Y-15199D01*
X38389Y-15291D01*
X38459Y-15361D01*
X38550Y-15399D01*
X38649Y-15399D01*
X38888Y-15400D01*
X38950Y-15338D01*
X38950Y-15601D01*
X38551Y-15601D01*
X38459Y-15639D01*
X38389Y-15709D01*
X38363Y-15770D01*
X38298Y-15743D01*
X38199Y-15743D01*
X38143Y-15743D01*
X38143Y-14785D01*
X38143Y-14561D01*
X38142Y-14486D01*
X38142Y-14387D01*
X38104Y-14296D01*
X38034Y-14226D01*
X37942Y-14188D01*
X37612Y-14187D01*
X37550Y-14249D01*
X37550Y-14623D01*
X38081Y-14623D01*
X38143Y-14561D01*
X38143Y-14785D01*
X38081Y-14723D01*
X37550Y-14723D01*
X37550Y-15097D01*
X37612Y-15159D01*
X37942Y-15158D01*
X38034Y-15120D01*
X38104Y-15050D01*
X38142Y-14959D01*
X38142Y-14860D01*
X38143Y-14785D01*
X38143Y-15743D01*
X37885Y-15743D01*
X37795Y-15779D01*
X37706Y-15743D01*
X37612Y-15742D01*
X37550Y-15804D01*
X37550Y-16187D01*
X37550Y-16237D01*
X37550Y-16337D01*
X37550Y-16387D01*
X37550Y-16770D01*
X37612Y-16832D01*
X37706Y-16831D01*
X37795Y-16794D01*
X37884Y-16831D01*
X37983Y-16831D01*
X38297Y-16831D01*
X38389Y-16793D01*
X38459Y-16723D01*
X38481Y-16670D01*
X38550Y-16699D01*
X38649Y-16699D01*
X39449Y-16699D01*
X39541Y-16661D01*
X39611Y-16591D01*
X39649Y-16500D01*
X39649Y-17358D01*
X39648Y-17358D01*
X39254Y-17358D01*
X39162Y-17396D01*
X39092Y-17466D01*
X39054Y-17557D01*
X39054Y-17656D01*
X39054Y-18442D01*
X39092Y-18534D01*
X39162Y-18604D01*
X39253Y-18642D01*
X39352Y-18642D01*
X39712Y-18642D01*
X38946Y-19407D01*
X38946Y-18443D01*
X38946Y-18344D01*
X38946Y-17558D01*
X38908Y-17466D01*
X38838Y-17396D01*
X38747Y-17358D01*
X38648Y-17358D01*
X38254Y-17358D01*
X38162Y-17396D01*
X38092Y-17466D01*
X38054Y-17557D01*
X38054Y-17656D01*
X38054Y-18442D01*
X38092Y-18534D01*
X38162Y-18604D01*
X38253Y-18642D01*
X38352Y-18642D01*
X38746Y-18642D01*
X38838Y-18604D01*
X38908Y-18534D01*
X38946Y-18443D01*
X38946Y-19407D01*
X37450Y-20903D01*
X37450Y-16770D01*
X37450Y-16387D01*
X37450Y-16337D01*
X37450Y-16237D01*
X37450Y-16187D01*
X37450Y-15804D01*
X37450Y-15097D01*
X37450Y-14723D01*
X37450Y-14623D01*
X37450Y-14249D01*
X37388Y-14187D01*
X37058Y-14188D01*
X36966Y-14226D01*
X36896Y-14296D01*
X36858Y-14387D01*
X36858Y-14486D01*
X36857Y-14561D01*
X36919Y-14623D01*
X37450Y-14623D01*
X37450Y-14723D01*
X36919Y-14723D01*
X36857Y-14785D01*
X36858Y-14860D01*
X36858Y-14959D01*
X36896Y-15050D01*
X36966Y-15120D01*
X37058Y-15158D01*
X37388Y-15159D01*
X37450Y-15097D01*
X37450Y-15804D01*
X37388Y-15742D01*
X37294Y-15743D01*
X37204Y-15779D01*
X37116Y-15743D01*
X37017Y-15743D01*
X36703Y-15743D01*
X36650Y-15764D01*
X36650Y-14962D01*
X36650Y-14738D01*
X36649Y-14501D01*
X36611Y-14409D01*
X36541Y-14339D01*
X36450Y-14301D01*
X36351Y-14301D01*
X36112Y-14300D01*
X36050Y-14362D01*
X36050Y-14800D01*
X36588Y-14800D01*
X36650Y-14738D01*
X36650Y-14962D01*
X36588Y-14900D01*
X36050Y-14900D01*
X36050Y-15338D01*
X36112Y-15400D01*
X36351Y-15399D01*
X36450Y-15399D01*
X36541Y-15361D01*
X36611Y-15291D01*
X36649Y-15199D01*
X36650Y-14962D01*
X36650Y-15764D01*
X36636Y-15770D01*
X36611Y-15709D01*
X36541Y-15639D01*
X36450Y-15601D01*
X36351Y-15601D01*
X35950Y-15601D01*
X35950Y-15338D01*
X35950Y-14900D01*
X35950Y-14800D01*
X35950Y-14362D01*
X35888Y-14300D01*
X35649Y-14301D01*
X35550Y-14301D01*
X35459Y-14339D01*
X35389Y-14409D01*
X35351Y-14501D01*
X35350Y-14738D01*
X35412Y-14800D01*
X35950Y-14800D01*
X35950Y-14900D01*
X35412Y-14900D01*
X35350Y-14962D01*
X35351Y-15199D01*
X35389Y-15291D01*
X35459Y-15361D01*
X35550Y-15399D01*
X35649Y-15399D01*
X35888Y-15400D01*
X35950Y-15338D01*
X35950Y-15601D01*
X35551Y-15601D01*
X35459Y-15639D01*
X35389Y-15709D01*
X35351Y-15800D01*
X35351Y-15899D01*
X35351Y-16499D01*
X35389Y-16591D01*
X35459Y-16661D01*
X35550Y-16699D01*
X35649Y-16699D01*
X36449Y-16699D01*
X36519Y-16670D01*
X36541Y-16723D01*
X36611Y-16793D01*
X36702Y-16831D01*
X36801Y-16831D01*
X37115Y-16831D01*
X37204Y-16794D01*
X37294Y-16831D01*
X37388Y-16832D01*
X37450Y-16770D01*
X37450Y-20903D01*
X36651Y-21702D01*
X36582Y-21633D01*
X36511Y-21563D01*
X36510Y-21562D01*
X36440Y-21492D01*
X36376Y-21429D01*
X36376Y-21428D01*
X36306Y-21358D01*
X36235Y-21288D01*
X36144Y-21249D01*
X36045Y-21249D01*
X35953Y-21287D01*
X35883Y-21357D01*
X35601Y-21640D01*
X35562Y-21732D01*
X35562Y-21831D01*
X35600Y-21922D01*
X35670Y-21992D01*
X35733Y-22054D01*
X35734Y-22056D01*
X35804Y-22126D01*
X35875Y-22196D01*
X35876Y-22197D01*
X35946Y-22267D01*
X36015Y-22335D01*
X36017Y-22339D01*
X36087Y-22409D01*
X36150Y-22471D01*
X36151Y-22473D01*
X36221Y-22543D01*
X36292Y-22613D01*
X36293Y-22615D01*
X36363Y-22685D01*
X36433Y-22754D01*
X36434Y-22756D01*
X36504Y-22826D01*
X36569Y-22890D01*
X36575Y-22896D01*
X36639Y-22960D01*
X36708Y-23028D01*
X36710Y-23032D01*
X36780Y-23102D01*
X36850Y-23171D01*
X36851Y-23173D01*
X36921Y-23243D01*
X36986Y-23307D01*
X36992Y-23313D01*
X37056Y-23377D01*
X37125Y-23445D01*
X37127Y-23449D01*
X37197Y-23519D01*
X37268Y-23589D01*
X37269Y-23590D01*
X37339Y-23660D01*
X37401Y-23721D01*
X37403Y-23725D01*
X37473Y-23795D01*
X37543Y-23864D01*
X37544Y-23866D01*
X37614Y-23936D01*
X37685Y-24006D01*
X37686Y-24008D01*
X37756Y-24078D01*
X37826Y-24147D01*
X37827Y-24149D01*
X37897Y-24219D01*
X37962Y-24283D01*
X37968Y-24289D01*
X38032Y-24353D01*
X38101Y-24421D01*
X38103Y-24425D01*
X38173Y-24495D01*
X38243Y-24564D01*
X38244Y-24566D01*
X38314Y-24636D01*
X38379Y-24700D01*
X38385Y-24706D01*
X38449Y-24770D01*
X38518Y-24838D01*
X38520Y-24842D01*
X38530Y-24852D01*
X38548Y-24852D01*
X38611Y-24879D01*
X38624Y-24879D01*
X38624Y-24892D01*
X38651Y-24956D01*
X38651Y-24973D01*
X38661Y-24983D01*
X38662Y-24983D01*
X38732Y-25053D01*
X38794Y-25114D01*
X38796Y-25118D01*
X38866Y-25188D01*
X38936Y-25257D01*
X38937Y-25259D01*
X39007Y-25329D01*
X39078Y-25399D01*
X39169Y-25438D01*
X39268Y-25438D01*
X39360Y-25400D01*
X39430Y-25330D01*
X39712Y-25047D01*
X39751Y-24955D01*
X39751Y-24856D01*
X39713Y-24765D01*
X39706Y-24758D01*
X41675Y-22790D01*
X43026Y-22790D01*
X43035Y-22811D01*
X43057Y-22833D01*
X39751Y-26139D01*
X39751Y-26045D01*
X39713Y-25953D01*
X39643Y-25883D01*
X39616Y-25855D01*
X39529Y-25855D01*
X39437Y-25946D01*
X39366Y-25875D01*
X39458Y-25784D01*
X39458Y-25697D01*
X39430Y-25670D01*
X39360Y-25600D01*
X39268Y-25562D01*
X39169Y-25562D01*
X39078Y-25601D01*
X39068Y-25608D01*
X39068Y-25696D01*
X39035Y-25696D01*
X38951Y-25731D01*
X38945Y-25731D01*
X38940Y-25737D01*
X38874Y-25804D01*
X38804Y-25875D01*
X38803Y-25875D01*
X38803Y-25876D01*
X38733Y-25946D01*
X38664Y-26015D01*
X38661Y-26017D01*
X38591Y-26087D01*
X38526Y-26152D01*
X38517Y-26159D01*
X38517Y-26167D01*
X38482Y-26249D01*
X38482Y-26255D01*
X38476Y-26255D01*
X38411Y-26282D01*
X38394Y-26282D01*
X38387Y-26292D01*
X38386Y-26292D01*
X38385Y-26293D01*
X38315Y-26363D01*
X38245Y-26433D01*
X38244Y-26434D01*
X38174Y-26504D01*
X38104Y-26575D01*
X38040Y-26639D01*
X37971Y-26708D01*
X37968Y-26710D01*
X37898Y-26780D01*
X37828Y-26850D01*
X37827Y-26851D01*
X37757Y-26921D01*
X37687Y-26992D01*
X37623Y-27056D01*
X37554Y-27125D01*
X37551Y-27127D01*
X37481Y-27197D01*
X37411Y-27268D01*
X37410Y-27268D01*
X37410Y-27269D01*
X37340Y-27339D01*
X37278Y-27401D01*
X37275Y-27403D01*
X37205Y-27473D01*
X37135Y-27543D01*
X37134Y-27544D01*
X37064Y-27614D01*
X36994Y-27685D01*
X36993Y-27686D01*
X36992Y-27687D01*
X36982Y-27694D01*
X36982Y-27713D01*
X36955Y-27776D01*
X36955Y-27789D01*
X36942Y-27789D01*
X36874Y-27817D01*
X36859Y-27817D01*
X36852Y-27826D01*
X36851Y-27827D01*
X36781Y-27897D01*
X36711Y-27968D01*
X36647Y-28032D01*
X36578Y-28101D01*
X36575Y-28103D01*
X36505Y-28173D01*
X36435Y-28243D01*
X36434Y-28244D01*
X36364Y-28314D01*
X36294Y-28385D01*
X36230Y-28449D01*
X36161Y-28518D01*
X36158Y-28520D01*
X36088Y-28590D01*
X36018Y-28661D01*
X36017Y-28661D01*
X36017Y-28662D01*
X35947Y-28732D01*
X35885Y-28794D01*
X35882Y-28796D01*
X35812Y-28866D01*
X35742Y-28936D01*
X35741Y-28937D01*
X35671Y-29007D01*
X35601Y-29078D01*
X35562Y-29169D01*
X35562Y-29268D01*
X35600Y-29360D01*
X35670Y-29430D01*
X35953Y-29712D01*
X35973Y-29720D01*
X36913Y-30660D01*
X35310Y-30660D01*
X34819Y-30169D01*
X34819Y-29928D01*
X35024Y-29722D01*
X35047Y-29713D01*
X35117Y-29643D01*
X35399Y-29360D01*
X35438Y-29268D01*
X35438Y-29169D01*
X35400Y-29078D01*
X35330Y-29008D01*
X35266Y-28945D01*
X35266Y-28944D01*
X35196Y-28874D01*
X35125Y-28804D01*
X35124Y-28803D01*
X35054Y-28733D01*
X34984Y-28664D01*
X34983Y-28663D01*
X34983Y-28661D01*
X34913Y-28591D01*
X34849Y-28528D01*
X34849Y-28527D01*
X34779Y-28457D01*
X34708Y-28387D01*
X34707Y-28386D01*
X34707Y-28385D01*
X34637Y-28315D01*
X34566Y-28245D01*
X34566Y-28244D01*
X34496Y-28174D01*
X34431Y-28110D01*
X34425Y-28104D01*
X34361Y-28040D01*
X34291Y-27971D01*
X34290Y-27970D01*
X34290Y-27968D01*
X34220Y-27898D01*
X34149Y-27828D01*
X34149Y-27827D01*
X34079Y-27757D01*
X34014Y-27693D01*
X34008Y-27687D01*
X33944Y-27623D01*
X33874Y-27554D01*
X33873Y-27553D01*
X33873Y-27551D01*
X33863Y-27541D01*
X33845Y-27541D01*
X33782Y-27514D01*
X33769Y-27514D01*
X33769Y-27501D01*
X33742Y-27436D01*
X33742Y-27420D01*
X33732Y-27410D01*
X33730Y-27409D01*
X33661Y-27340D01*
X33598Y-27278D01*
X33597Y-27275D01*
X33527Y-27205D01*
X33456Y-27135D01*
X33456Y-27134D01*
X33386Y-27064D01*
X33315Y-26994D01*
X33314Y-26993D01*
X33314Y-26992D01*
X33244Y-26922D01*
X33173Y-26852D01*
X33173Y-26851D01*
X33103Y-26781D01*
X33038Y-26717D01*
X33032Y-26711D01*
X32968Y-26647D01*
X32898Y-26578D01*
X32897Y-26577D01*
X32897Y-26575D01*
X32827Y-26505D01*
X32756Y-26435D01*
X32756Y-26434D01*
X32746Y-26424D01*
X32730Y-26424D01*
X32665Y-26396D01*
X32659Y-26396D01*
X32659Y-26391D01*
X32625Y-26309D01*
X32625Y-26303D01*
X32615Y-26293D01*
X32613Y-26292D01*
X32551Y-26230D01*
X32481Y-26161D01*
X32480Y-26160D01*
X32480Y-26158D01*
X32410Y-26088D01*
X32339Y-26018D01*
X32338Y-26017D01*
X32268Y-25947D01*
X32205Y-25885D01*
X32204Y-25882D01*
X32134Y-25812D01*
X32063Y-25742D01*
X32063Y-25741D01*
X31993Y-25671D01*
X31922Y-25601D01*
X31831Y-25562D01*
X31732Y-25562D01*
X31640Y-25600D01*
X31570Y-25670D01*
X31288Y-25953D01*
X31249Y-26045D01*
X31249Y-26144D01*
X31287Y-26235D01*
X31357Y-26305D01*
X31427Y-26374D01*
X31428Y-26376D01*
X31498Y-26446D01*
X31560Y-26507D01*
X31562Y-26511D01*
X31632Y-26581D01*
X31703Y-26651D01*
X31704Y-26652D01*
X31774Y-26722D01*
X31843Y-26790D01*
X31845Y-26794D01*
X31915Y-26864D01*
X31979Y-26927D01*
X31979Y-26928D01*
X31985Y-26934D01*
X31711Y-27210D01*
X28347Y-27210D01*
X27456Y-26319D01*
X27465Y-26311D01*
X27473Y-26290D01*
X29450Y-26290D01*
X29561Y-26268D01*
X29655Y-26205D01*
X30920Y-24940D01*
X31249Y-24940D01*
X31249Y-24955D01*
X31287Y-25047D01*
X31357Y-25117D01*
X31384Y-25145D01*
X31471Y-25145D01*
X31562Y-25053D01*
X31633Y-25124D01*
X31542Y-25216D01*
X31542Y-25303D01*
X31570Y-25330D01*
X31640Y-25400D01*
X31732Y-25438D01*
X31831Y-25438D01*
X31922Y-25399D01*
X31932Y-25392D01*
X31932Y-25304D01*
X31965Y-25304D01*
X32048Y-25269D01*
X32055Y-25269D01*
X32056Y-25266D01*
X32059Y-25262D01*
X32062Y-25259D01*
X32126Y-25196D01*
X32196Y-25125D01*
X32196Y-25124D01*
X32197Y-25124D01*
X32267Y-25054D01*
X32335Y-24984D01*
X32337Y-24983D01*
X32339Y-24983D01*
X32409Y-24913D01*
X32471Y-24849D01*
X32473Y-24849D01*
X32479Y-24842D01*
X32543Y-24779D01*
X32613Y-24708D01*
X32613Y-24707D01*
X32615Y-24707D01*
X32685Y-24637D01*
X32754Y-24566D01*
X32755Y-24566D01*
X32756Y-24566D01*
X32826Y-24496D01*
X32890Y-24431D01*
X32896Y-24425D01*
X32960Y-24361D01*
X33028Y-24291D01*
X33030Y-24290D01*
X33032Y-24290D01*
X33102Y-24220D01*
X33172Y-24149D01*
X33172Y-24148D01*
X33173Y-24148D01*
X33183Y-24141D01*
X33183Y-24123D01*
X33211Y-24058D01*
X33211Y-24052D01*
X33216Y-24052D01*
X33297Y-24018D01*
X33306Y-24018D01*
X33313Y-24008D01*
X33377Y-23944D01*
X33445Y-23874D01*
X33447Y-23873D01*
X33449Y-23873D01*
X33519Y-23803D01*
X33589Y-23732D01*
X33589Y-23731D01*
X33590Y-23731D01*
X33660Y-23661D01*
X33721Y-23598D01*
X33725Y-23597D01*
X33795Y-23527D01*
X33864Y-23456D01*
X33865Y-23456D01*
X33866Y-23456D01*
X33936Y-23386D01*
X34006Y-23315D01*
X34006Y-23314D01*
X34008Y-23314D01*
X34078Y-23244D01*
X34147Y-23173D01*
X34148Y-23173D01*
X34149Y-23173D01*
X34219Y-23103D01*
X34283Y-23038D01*
X34289Y-23032D01*
X34353Y-22968D01*
X34421Y-22898D01*
X34423Y-22897D01*
X34425Y-22897D01*
X34495Y-22827D01*
X34564Y-22756D01*
X34565Y-22756D01*
X34566Y-22756D01*
X34636Y-22686D01*
X34700Y-22621D01*
X34706Y-22615D01*
X34770Y-22551D01*
X34838Y-22481D01*
X34840Y-22480D01*
X34842Y-22480D01*
X34912Y-22410D01*
X34982Y-22339D01*
X34982Y-22337D01*
X34983Y-22337D01*
X34993Y-22330D01*
X34993Y-22313D01*
X35021Y-22248D01*
X35021Y-22242D01*
X35027Y-22242D01*
X35110Y-22207D01*
X35116Y-22207D01*
X35118Y-22204D01*
X35118Y-22203D01*
X35188Y-22134D01*
X35258Y-22063D01*
X35258Y-22062D01*
X35259Y-22062D01*
X35269Y-22055D01*
X35269Y-22037D01*
X35297Y-21972D01*
X35297Y-21925D01*
X35304Y-21932D01*
X35392Y-21932D01*
X35399Y-21922D01*
X35438Y-21831D01*
X35438Y-21732D01*
X35400Y-21640D01*
X35330Y-21570D01*
X35303Y-21542D01*
X35216Y-21542D01*
X35117Y-21640D01*
X35046Y-21569D01*
X35145Y-21471D01*
X35145Y-21384D01*
X35117Y-21357D01*
X35047Y-21287D01*
X34955Y-21249D01*
X34856Y-21249D01*
X34765Y-21288D01*
X34755Y-21295D01*
X34755Y-21383D01*
X34762Y-21390D01*
X34715Y-21390D01*
X34647Y-21418D01*
X34632Y-21418D01*
X34625Y-21427D01*
X34624Y-21428D01*
X34554Y-21498D01*
X34490Y-21562D01*
X34489Y-21562D01*
X34489Y-21561D01*
X34483Y-21566D01*
X34481Y-21568D01*
X32025Y-19112D01*
X32025Y-16105D01*
X32025Y-15896D01*
X32019Y-15881D01*
X32019Y-14074D01*
X32008Y-13870D01*
X31952Y-13733D01*
X31861Y-13710D01*
X31790Y-13781D01*
X31790Y-13639D01*
X31767Y-13548D01*
X31574Y-13481D01*
X31370Y-13492D01*
X31233Y-13548D01*
X31210Y-13639D01*
X31500Y-13929D01*
X31790Y-13639D01*
X31790Y-13781D01*
X31571Y-14000D01*
X31861Y-14290D01*
X31952Y-14267D01*
X32019Y-14074D01*
X32019Y-15881D01*
X31945Y-15703D01*
X31798Y-15555D01*
X31790Y-15551D01*
X31790Y-14361D01*
X31500Y-14071D01*
X31429Y-14142D01*
X31429Y-14000D01*
X31139Y-13710D01*
X31048Y-13733D01*
X30981Y-13926D01*
X30992Y-14130D01*
X31048Y-14267D01*
X31139Y-14290D01*
X31429Y-14000D01*
X31429Y-14142D01*
X31210Y-14361D01*
X31233Y-14452D01*
X31426Y-14519D01*
X31630Y-14508D01*
X31767Y-14452D01*
X31790Y-14361D01*
X31790Y-15551D01*
X31605Y-15475D01*
X31396Y-15475D01*
X31203Y-15555D01*
X31055Y-15702D01*
X30975Y-15895D01*
X30975Y-16104D01*
X31055Y-16297D01*
X31202Y-16445D01*
X31395Y-16525D01*
X31604Y-16525D01*
X31797Y-16445D01*
X31945Y-16298D01*
X32025Y-16105D01*
X32025Y-19112D01*
X30708Y-17795D01*
X30614Y-17732D01*
X30503Y-17710D01*
X29025Y-17710D01*
X29025Y-16105D01*
X29025Y-15896D01*
X29019Y-15881D01*
X29019Y-14074D01*
X29008Y-13870D01*
X28952Y-13733D01*
X28861Y-13710D01*
X28790Y-13781D01*
X28790Y-13639D01*
X28767Y-13548D01*
X28574Y-13481D01*
X28370Y-13492D01*
X28233Y-13548D01*
X28210Y-13639D01*
X28500Y-13929D01*
X28790Y-13639D01*
X28790Y-13781D01*
X28571Y-14000D01*
X28861Y-14290D01*
X28952Y-14267D01*
X29019Y-14074D01*
X29019Y-15881D01*
X28945Y-15703D01*
X28798Y-15555D01*
X28790Y-15551D01*
X28790Y-14361D01*
X28500Y-14071D01*
X28429Y-14142D01*
X28429Y-14000D01*
X28139Y-13710D01*
X28048Y-13733D01*
X27981Y-13926D01*
X27992Y-14130D01*
X28048Y-14267D01*
X28139Y-14290D01*
X28429Y-14000D01*
X28429Y-14142D01*
X28210Y-14361D01*
X28233Y-14452D01*
X28426Y-14519D01*
X28630Y-14508D01*
X28767Y-14452D01*
X28790Y-14361D01*
X28790Y-15551D01*
X28605Y-15475D01*
X28396Y-15475D01*
X28203Y-15555D01*
X28055Y-15702D01*
X27975Y-15895D01*
X27975Y-16104D01*
X28055Y-16297D01*
X28202Y-16445D01*
X28395Y-16525D01*
X28604Y-16525D01*
X28797Y-16445D01*
X28945Y-16298D01*
X29025Y-16105D01*
X29025Y-17710D01*
X27473Y-17710D01*
X27465Y-17689D01*
X27311Y-17535D01*
X27226Y-17500D01*
X27311Y-17465D01*
X27465Y-17311D01*
X27549Y-17109D01*
X27549Y-16891D01*
X27465Y-16689D01*
X27311Y-16535D01*
X27226Y-16500D01*
X27311Y-16465D01*
X27465Y-16311D01*
X27549Y-16109D01*
X27549Y-15891D01*
X27465Y-15689D01*
X27311Y-15535D01*
X27226Y-15500D01*
X27311Y-15465D01*
X27465Y-15311D01*
X27549Y-15109D01*
X27549Y-14891D01*
X27543Y-14876D01*
X27543Y-14079D01*
X27532Y-13866D01*
X27472Y-13719D01*
X27378Y-13692D01*
X27071Y-14000D01*
X27378Y-14308D01*
X27472Y-14281D01*
X27543Y-14079D01*
X27543Y-14876D01*
X27465Y-14689D01*
X27311Y-14535D01*
X27219Y-14497D01*
X27281Y-14472D01*
X27308Y-14378D01*
X27000Y-14071D01*
X26692Y-14378D01*
X26719Y-14472D01*
X26784Y-14495D01*
X26689Y-14535D01*
X26535Y-14689D01*
X26500Y-14773D01*
X26465Y-14689D01*
X26311Y-14535D01*
X26226Y-14500D01*
X26311Y-14465D01*
X26465Y-14311D01*
X26502Y-14219D01*
X26528Y-14281D01*
X26622Y-14308D01*
X26929Y-14000D01*
X26622Y-13692D01*
X26528Y-13719D01*
X26504Y-13784D01*
X26465Y-13689D01*
X26311Y-13535D01*
X26226Y-13500D01*
X26311Y-13465D01*
X26450Y-13325D01*
X26451Y-13349D01*
X26489Y-13441D01*
X26559Y-13511D01*
X26650Y-13549D01*
X26712Y-13549D01*
X26692Y-13622D01*
X27000Y-13929D01*
X27308Y-13622D01*
X27287Y-13549D01*
X27350Y-13549D01*
X27441Y-13511D01*
X27511Y-13441D01*
X27549Y-13349D01*
X27550Y-13112D01*
X27550Y-12888D01*
X27549Y-12651D01*
X27511Y-12559D01*
X27441Y-12489D01*
X27350Y-12451D01*
X27251Y-12451D01*
X27112Y-12450D01*
X27050Y-12512D01*
X27050Y-12950D01*
X27488Y-12950D01*
X27550Y-12888D01*
X27550Y-13112D01*
X27488Y-13050D01*
X27100Y-13050D01*
X27050Y-13050D01*
X26950Y-13050D01*
X26950Y-12950D01*
X26950Y-12900D01*
X26950Y-12512D01*
X26888Y-12450D01*
X26749Y-12451D01*
X26650Y-12451D01*
X26559Y-12489D01*
X26489Y-12559D01*
X26451Y-12651D01*
X26450Y-12674D01*
X26311Y-12535D01*
X26109Y-12451D01*
X25891Y-12451D01*
X25689Y-12535D01*
X25535Y-12689D01*
X25451Y-12891D01*
X25451Y-13109D01*
X25535Y-13311D01*
X25689Y-13465D01*
X25773Y-13500D01*
X25689Y-13535D01*
X25535Y-13689D01*
X25451Y-13891D01*
X25451Y-14109D01*
X25535Y-14311D01*
X25689Y-14465D01*
X25773Y-14500D01*
X25689Y-14535D01*
X25535Y-14689D01*
X25451Y-14891D01*
X25451Y-15109D01*
X25535Y-15311D01*
X25689Y-15465D01*
X25773Y-15500D01*
X25689Y-15535D01*
X25535Y-15689D01*
X25451Y-15891D01*
X25451Y-16109D01*
X25535Y-16311D01*
X25689Y-16465D01*
X25773Y-16500D01*
X25689Y-16535D01*
X25535Y-16689D01*
X25451Y-16891D01*
X25451Y-17109D01*
X25535Y-17311D01*
X25689Y-17465D01*
X25773Y-17500D01*
X25689Y-17535D01*
X25535Y-17689D01*
X25451Y-17891D01*
X25451Y-18109D01*
X25535Y-18311D01*
X25689Y-18465D01*
X25773Y-18500D01*
X25689Y-18535D01*
X25535Y-18689D01*
X25451Y-18891D01*
X25451Y-19109D01*
X25535Y-19311D01*
X25689Y-19465D01*
X25773Y-19500D01*
X25689Y-19535D01*
X25535Y-19689D01*
X25451Y-19891D01*
X25451Y-20109D01*
X25535Y-20311D01*
X25689Y-20465D01*
X25773Y-20500D01*
X25689Y-20535D01*
X25535Y-20689D01*
X25451Y-20891D01*
X25451Y-21109D01*
X25535Y-21311D01*
X25689Y-21465D01*
X25773Y-21500D01*
X25689Y-21535D01*
X25535Y-21689D01*
X25451Y-21891D01*
X25451Y-22109D01*
X25535Y-22311D01*
X25689Y-22465D01*
X25773Y-22500D01*
X25689Y-22535D01*
X25535Y-22689D01*
X25451Y-22891D01*
X25451Y-23109D01*
X25535Y-23311D01*
X25689Y-23465D01*
X25773Y-23500D01*
X25689Y-23535D01*
X25535Y-23689D01*
X25451Y-23891D01*
X25451Y-24109D01*
X25535Y-24311D01*
X25689Y-24465D01*
X25773Y-24500D01*
X25689Y-24535D01*
X25535Y-24689D01*
X25451Y-24891D01*
X25451Y-25109D01*
X25535Y-25311D01*
X25689Y-25465D01*
X25773Y-25500D01*
X25689Y-25535D01*
X25535Y-25689D01*
X25451Y-25891D01*
X25451Y-26109D01*
X25535Y-26311D01*
X25689Y-26465D01*
X25773Y-26500D01*
X25689Y-26535D01*
X25535Y-26689D01*
X25451Y-26891D01*
X25451Y-27109D01*
X25535Y-27311D01*
X25689Y-27465D01*
X25773Y-27500D01*
X25689Y-27535D01*
X25535Y-27689D01*
X25451Y-27891D01*
X25451Y-28109D01*
X25535Y-28311D01*
X25689Y-28465D01*
X25773Y-28500D01*
X25689Y-28535D01*
X25535Y-28689D01*
X25451Y-28891D01*
X25451Y-29109D01*
X25535Y-29311D01*
X25689Y-29465D01*
X25773Y-29500D01*
X25689Y-29535D01*
X25535Y-29689D01*
X25451Y-29891D01*
X25451Y-30109D01*
X25535Y-30311D01*
X25689Y-30465D01*
X25773Y-30500D01*
X25689Y-30535D01*
X25535Y-30689D01*
X25451Y-30891D01*
X25451Y-31109D01*
X25535Y-31311D01*
X25689Y-31465D01*
X25773Y-31500D01*
X25689Y-31535D01*
X25535Y-31689D01*
X25451Y-31891D01*
X25451Y-32109D01*
X25535Y-32311D01*
X25674Y-32450D01*
X25050Y-32450D01*
X25050Y-12050D01*
X43174Y-12050D01*
G54D10*
G36*
X45450Y-32450D02*
X43450Y-32450D01*
X43450Y-31988D01*
X43450Y-31550D01*
X43012Y-31550D01*
X42950Y-31612D01*
X42951Y-31849D01*
X42989Y-31941D01*
X43059Y-32011D01*
X43150Y-32049D01*
X43249Y-32049D01*
X43388Y-32050D01*
X43450Y-31988D01*
X43450Y-32450D01*
X27326Y-32450D01*
X27465Y-32311D01*
X27473Y-32290D01*
X31235Y-32290D01*
X31346Y-32268D01*
X31440Y-32205D01*
X33510Y-30135D01*
X33510Y-30250D01*
X33532Y-30361D01*
X33595Y-30455D01*
X34795Y-31655D01*
X34889Y-31718D01*
X35000Y-31740D01*
X42550Y-31740D01*
X42661Y-31718D01*
X42755Y-31655D01*
X42986Y-31424D01*
X43012Y-31450D01*
X43400Y-31450D01*
X43450Y-31450D01*
X43550Y-31450D01*
X43550Y-31550D01*
X43550Y-31600D01*
X43550Y-31988D01*
X43612Y-32050D01*
X43751Y-32049D01*
X43850Y-32049D01*
X43941Y-32011D01*
X44011Y-31941D01*
X44049Y-31849D01*
X44049Y-31825D01*
X44189Y-31965D01*
X44391Y-32049D01*
X44609Y-32049D01*
X44811Y-31965D01*
X44965Y-31811D01*
X45049Y-31609D01*
X45049Y-31391D01*
X44965Y-31189D01*
X44811Y-31035D01*
X44726Y-31000D01*
X44811Y-30965D01*
X44965Y-30811D01*
X45049Y-30609D01*
X45049Y-30391D01*
X44965Y-30189D01*
X44811Y-30035D01*
X44726Y-30000D01*
X44811Y-29965D01*
X44965Y-29811D01*
X45049Y-29609D01*
X45049Y-29391D01*
X44965Y-29189D01*
X44811Y-29035D01*
X44726Y-29000D01*
X44811Y-28965D01*
X44965Y-28811D01*
X45049Y-28609D01*
X45049Y-28391D01*
X44965Y-28189D01*
X44811Y-28035D01*
X44726Y-28000D01*
X44811Y-27965D01*
X44965Y-27811D01*
X45049Y-27609D01*
X45049Y-27391D01*
X44965Y-27189D01*
X44811Y-27035D01*
X44726Y-27000D01*
X44811Y-26965D01*
X44965Y-26811D01*
X45049Y-26609D01*
X45049Y-26391D01*
X44965Y-26189D01*
X44811Y-26035D01*
X44726Y-26000D01*
X44811Y-25965D01*
X44965Y-25811D01*
X45049Y-25609D01*
X45049Y-25391D01*
X44965Y-25189D01*
X44811Y-25035D01*
X44726Y-25000D01*
X44811Y-24965D01*
X44965Y-24811D01*
X45049Y-24609D01*
X45049Y-24391D01*
X44965Y-24189D01*
X44811Y-24035D01*
X44726Y-24000D01*
X44811Y-23965D01*
X44965Y-23811D01*
X45049Y-23609D01*
X45049Y-23391D01*
X45043Y-23376D01*
X45043Y-22579D01*
X45043Y-21579D01*
X45032Y-21366D01*
X44972Y-21219D01*
X44878Y-21192D01*
X44571Y-21500D01*
X44878Y-21808D01*
X44972Y-21781D01*
X45043Y-21579D01*
X45043Y-22579D01*
X45032Y-22366D01*
X44972Y-22219D01*
X44878Y-22192D01*
X44808Y-22262D01*
X44808Y-22122D01*
X44781Y-22028D01*
X44707Y-22002D01*
X44781Y-21972D01*
X44808Y-21878D01*
X44500Y-21571D01*
X44192Y-21878D01*
X44219Y-21972D01*
X44292Y-21997D01*
X44219Y-22028D01*
X44192Y-22122D01*
X44500Y-22429D01*
X44808Y-22122D01*
X44808Y-22262D01*
X44571Y-22500D01*
X44878Y-22808D01*
X44972Y-22781D01*
X45043Y-22579D01*
X45043Y-23376D01*
X44965Y-23189D01*
X44811Y-23035D01*
X44719Y-22997D01*
X44781Y-22972D01*
X44808Y-22878D01*
X44535Y-22606D01*
X44500Y-22571D01*
X44429Y-22500D01*
X44394Y-22465D01*
X44122Y-22192D01*
X44028Y-22219D01*
X44004Y-22284D01*
X43965Y-22189D01*
X43811Y-22035D01*
X43726Y-22000D01*
X43811Y-21965D01*
X43965Y-21811D01*
X44002Y-21719D01*
X44028Y-21781D01*
X44122Y-21808D01*
X44429Y-21500D01*
X44122Y-21192D01*
X44028Y-21219D01*
X44004Y-21284D01*
X43965Y-21189D01*
X43811Y-21035D01*
X43726Y-21000D01*
X43811Y-20965D01*
X43965Y-20811D01*
X44000Y-20726D01*
X44035Y-20811D01*
X44189Y-20965D01*
X44280Y-21002D01*
X44219Y-21028D01*
X44192Y-21122D01*
X44500Y-21429D01*
X44808Y-21122D01*
X44781Y-21028D01*
X44715Y-21004D01*
X44811Y-20965D01*
X44965Y-20811D01*
X45049Y-20609D01*
X45049Y-20391D01*
X44965Y-20189D01*
X44811Y-20035D01*
X44726Y-20000D01*
X44811Y-19965D01*
X44965Y-19811D01*
X45049Y-19609D01*
X45049Y-19391D01*
X44965Y-19189D01*
X44811Y-19035D01*
X44726Y-19000D01*
X44811Y-18965D01*
X44965Y-18811D01*
X45049Y-18609D01*
X45049Y-18391D01*
X44965Y-18189D01*
X44811Y-18035D01*
X44726Y-18000D01*
X44811Y-17965D01*
X44965Y-17811D01*
X45049Y-17609D01*
X45049Y-17391D01*
X44965Y-17189D01*
X44811Y-17035D01*
X44726Y-17000D01*
X44811Y-16965D01*
X44965Y-16811D01*
X45049Y-16609D01*
X45049Y-16391D01*
X44965Y-16189D01*
X44811Y-16035D01*
X44726Y-16000D01*
X44811Y-15965D01*
X44965Y-15811D01*
X45049Y-15609D01*
X45049Y-15391D01*
X44965Y-15189D01*
X44811Y-15035D01*
X44726Y-15000D01*
X44811Y-14965D01*
X44965Y-14811D01*
X45049Y-14609D01*
X45049Y-14391D01*
X44965Y-14189D01*
X44811Y-14035D01*
X44726Y-14000D01*
X44811Y-13965D01*
X44965Y-13811D01*
X45049Y-13609D01*
X45049Y-13391D01*
X44965Y-13189D01*
X44811Y-13035D01*
X44726Y-13000D01*
X44811Y-12965D01*
X44965Y-12811D01*
X45049Y-12609D01*
X45049Y-12391D01*
X44965Y-12189D01*
X44826Y-12050D01*
X45450Y-12050D01*
X45450Y-32450D01*
X45450Y-32450D01*
G37*
G54D20*
X45450Y-32450D02*
X43450Y-32450D01*
X43450Y-31988D01*
X43450Y-31550D01*
X43012Y-31550D01*
X42950Y-31612D01*
X42951Y-31849D01*
X42989Y-31941D01*
X43059Y-32011D01*
X43150Y-32049D01*
X43249Y-32049D01*
X43388Y-32050D01*
X43450Y-31988D01*
X43450Y-32450D01*
X27326Y-32450D01*
X27465Y-32311D01*
X27473Y-32290D01*
X31235Y-32290D01*
X31346Y-32268D01*
X31440Y-32205D01*
X33510Y-30135D01*
X33510Y-30250D01*
X33532Y-30361D01*
X33595Y-30455D01*
X34795Y-31655D01*
X34889Y-31718D01*
X35000Y-31740D01*
X42550Y-31740D01*
X42661Y-31718D01*
X42755Y-31655D01*
X42986Y-31424D01*
X43012Y-31450D01*
X43400Y-31450D01*
X43450Y-31450D01*
X43550Y-31450D01*
X43550Y-31550D01*
X43550Y-31600D01*
X43550Y-31988D01*
X43612Y-32050D01*
X43751Y-32049D01*
X43850Y-32049D01*
X43941Y-32011D01*
X44011Y-31941D01*
X44049Y-31849D01*
X44049Y-31825D01*
X44189Y-31965D01*
X44391Y-32049D01*
X44609Y-32049D01*
X44811Y-31965D01*
X44965Y-31811D01*
X45049Y-31609D01*
X45049Y-31391D01*
X44965Y-31189D01*
X44811Y-31035D01*
X44726Y-31000D01*
X44811Y-30965D01*
X44965Y-30811D01*
X45049Y-30609D01*
X45049Y-30391D01*
X44965Y-30189D01*
X44811Y-30035D01*
X44726Y-30000D01*
X44811Y-29965D01*
X44965Y-29811D01*
X45049Y-29609D01*
X45049Y-29391D01*
X44965Y-29189D01*
X44811Y-29035D01*
X44726Y-29000D01*
X44811Y-28965D01*
X44965Y-28811D01*
X45049Y-28609D01*
X45049Y-28391D01*
X44965Y-28189D01*
X44811Y-28035D01*
X44726Y-28000D01*
X44811Y-27965D01*
X44965Y-27811D01*
X45049Y-27609D01*
X45049Y-27391D01*
X44965Y-27189D01*
X44811Y-27035D01*
X44726Y-27000D01*
X44811Y-26965D01*
X44965Y-26811D01*
X45049Y-26609D01*
X45049Y-26391D01*
X44965Y-26189D01*
X44811Y-26035D01*
X44726Y-26000D01*
X44811Y-25965D01*
X44965Y-25811D01*
X45049Y-25609D01*
X45049Y-25391D01*
X44965Y-25189D01*
X44811Y-25035D01*
X44726Y-25000D01*
X44811Y-24965D01*
X44965Y-24811D01*
X45049Y-24609D01*
X45049Y-24391D01*
X44965Y-24189D01*
X44811Y-24035D01*
X44726Y-24000D01*
X44811Y-23965D01*
X44965Y-23811D01*
X45049Y-23609D01*
X45049Y-23391D01*
X45043Y-23376D01*
X45043Y-22579D01*
X45043Y-21579D01*
X45032Y-21366D01*
X44972Y-21219D01*
X44878Y-21192D01*
X44571Y-21500D01*
X44878Y-21808D01*
X44972Y-21781D01*
X45043Y-21579D01*
X45043Y-22579D01*
X45032Y-22366D01*
X44972Y-22219D01*
X44878Y-22192D01*
X44808Y-22262D01*
X44808Y-22122D01*
X44781Y-22028D01*
X44707Y-22002D01*
X44781Y-21972D01*
X44808Y-21878D01*
X44500Y-21571D01*
X44192Y-21878D01*
X44219Y-21972D01*
X44292Y-21997D01*
X44219Y-22028D01*
X44192Y-22122D01*
X44500Y-22429D01*
X44808Y-22122D01*
X44808Y-22262D01*
X44571Y-22500D01*
X44878Y-22808D01*
X44972Y-22781D01*
X45043Y-22579D01*
X45043Y-23376D01*
X44965Y-23189D01*
X44811Y-23035D01*
X44719Y-22997D01*
X44781Y-22972D01*
X44808Y-22878D01*
X44535Y-22606D01*
X44500Y-22571D01*
X44429Y-22500D01*
X44394Y-22465D01*
X44122Y-22192D01*
X44028Y-22219D01*
X44004Y-22284D01*
X43965Y-22189D01*
X43811Y-22035D01*
X43726Y-22000D01*
X43811Y-21965D01*
X43965Y-21811D01*
X44002Y-21719D01*
X44028Y-21781D01*
X44122Y-21808D01*
X44429Y-21500D01*
X44122Y-21192D01*
X44028Y-21219D01*
X44004Y-21284D01*
X43965Y-21189D01*
X43811Y-21035D01*
X43726Y-21000D01*
X43811Y-20965D01*
X43965Y-20811D01*
X44000Y-20726D01*
X44035Y-20811D01*
X44189Y-20965D01*
X44280Y-21002D01*
X44219Y-21028D01*
X44192Y-21122D01*
X44500Y-21429D01*
X44808Y-21122D01*
X44781Y-21028D01*
X44715Y-21004D01*
X44811Y-20965D01*
X44965Y-20811D01*
X45049Y-20609D01*
X45049Y-20391D01*
X44965Y-20189D01*
X44811Y-20035D01*
X44726Y-20000D01*
X44811Y-19965D01*
X44965Y-19811D01*
X45049Y-19609D01*
X45049Y-19391D01*
X44965Y-19189D01*
X44811Y-19035D01*
X44726Y-19000D01*
X44811Y-18965D01*
X44965Y-18811D01*
X45049Y-18609D01*
X45049Y-18391D01*
X44965Y-18189D01*
X44811Y-18035D01*
X44726Y-18000D01*
X44811Y-17965D01*
X44965Y-17811D01*
X45049Y-17609D01*
X45049Y-17391D01*
X44965Y-17189D01*
X44811Y-17035D01*
X44726Y-17000D01*
X44811Y-16965D01*
X44965Y-16811D01*
X45049Y-16609D01*
X45049Y-16391D01*
X44965Y-16189D01*
X44811Y-16035D01*
X44726Y-16000D01*
X44811Y-15965D01*
X44965Y-15811D01*
X45049Y-15609D01*
X45049Y-15391D01*
X44965Y-15189D01*
X44811Y-15035D01*
X44726Y-15000D01*
X44811Y-14965D01*
X44965Y-14811D01*
X45049Y-14609D01*
X45049Y-14391D01*
X44965Y-14189D01*
X44811Y-14035D01*
X44726Y-14000D01*
X44811Y-13965D01*
X44965Y-13811D01*
X45049Y-13609D01*
X45049Y-13391D01*
X44965Y-13189D01*
X44811Y-13035D01*
X44726Y-13000D01*
X44811Y-12965D01*
X44965Y-12811D01*
X45049Y-12609D01*
X45049Y-12391D01*
X44965Y-12189D01*
X44826Y-12050D01*
X45450Y-12050D01*
X45450Y-32450D01*
M02*
