G04 (created by PCBNEW-RS274X (2011-12-28 BZR 3254)-stable) date 04/11/2012 11:04:50*
G01*
G70*
G90*
%MOIN*%
G04 Gerber Fmt 3.4, Leading zero omitted, Abs format*
%FSLAX34Y34*%
G04 APERTURE LIST*
%ADD10C,0.006000*%
%ADD11R,0.060000X0.060000*%
%ADD12C,0.060000*%
%ADD13R,0.080000X0.060000*%
%ADD14R,0.060000X0.080000*%
%ADD15R,0.078700X0.216500*%
%ADD16R,0.078700X0.039400*%
%ADD17C,0.055000*%
%ADD18C,0.050000*%
%ADD19C,0.008000*%
%ADD20C,0.010000*%
G04 APERTURE END LIST*
G54D10*
G54D11*
X27000Y-13000D03*
G54D12*
X26000Y-13000D03*
X27000Y-18000D03*
X26000Y-14000D03*
X27000Y-19000D03*
X26000Y-15000D03*
X27000Y-20000D03*
X26000Y-16000D03*
X27000Y-21000D03*
X26000Y-17000D03*
X27000Y-22000D03*
X26000Y-18000D03*
X27000Y-23000D03*
X26000Y-19000D03*
X27000Y-24000D03*
X26000Y-20000D03*
X27000Y-25000D03*
X26000Y-21000D03*
X27000Y-26000D03*
X26000Y-22000D03*
X27000Y-27000D03*
X26000Y-23000D03*
X27000Y-28000D03*
X26000Y-24000D03*
X26000Y-25000D03*
X27000Y-29000D03*
X26000Y-26000D03*
X26000Y-28000D03*
X26000Y-29000D03*
X26000Y-30000D03*
X26000Y-31000D03*
X27000Y-30000D03*
X27000Y-31000D03*
X27000Y-14000D03*
X27000Y-15000D03*
X27000Y-16000D03*
X27000Y-17000D03*
X27000Y-32000D03*
X26000Y-32000D03*
X26000Y-27000D03*
G54D11*
X43500Y-31500D03*
G54D12*
X44500Y-31500D03*
X43500Y-26500D03*
X44500Y-30500D03*
X43500Y-25500D03*
X44500Y-29500D03*
X43500Y-24500D03*
X44500Y-28500D03*
X43500Y-23500D03*
X44500Y-27500D03*
X43500Y-22500D03*
X44500Y-26500D03*
X43500Y-21500D03*
X44500Y-25500D03*
X43500Y-20500D03*
X44500Y-24500D03*
X43500Y-19500D03*
X44500Y-23500D03*
X43500Y-18500D03*
X44500Y-22500D03*
X43500Y-17500D03*
X44500Y-21500D03*
X43500Y-16500D03*
X44500Y-20500D03*
X44500Y-19500D03*
X43500Y-15500D03*
X44500Y-18500D03*
X44500Y-16500D03*
X44500Y-15500D03*
X44500Y-14500D03*
X44500Y-13500D03*
X43500Y-14500D03*
X43500Y-13500D03*
X43500Y-30500D03*
X43500Y-29500D03*
X43500Y-28500D03*
X43500Y-27500D03*
X43500Y-12500D03*
X44500Y-12500D03*
X44500Y-17500D03*
G54D11*
X34590Y-34580D03*
G54D12*
X34590Y-33580D03*
X35590Y-34580D03*
X35590Y-33580D03*
X36590Y-34580D03*
X36590Y-33580D03*
G54D13*
X32500Y-15650D03*
X32500Y-14350D03*
G54D14*
X40850Y-26500D03*
X42150Y-26500D03*
X30850Y-33000D03*
X32150Y-33000D03*
X30850Y-34000D03*
X32150Y-34000D03*
X30850Y-35000D03*
X32150Y-35000D03*
X28350Y-27500D03*
X29650Y-27500D03*
X33150Y-25000D03*
X31850Y-25000D03*
X32350Y-26000D03*
X33650Y-26000D03*
X32350Y-27000D03*
X33650Y-27000D03*
X28350Y-26500D03*
X29650Y-26500D03*
G54D13*
X36500Y-26650D03*
X36500Y-25350D03*
X41500Y-31650D03*
X41500Y-30350D03*
X41500Y-27850D03*
X41500Y-29150D03*
G54D14*
X39150Y-25500D03*
X37850Y-25500D03*
X39150Y-24500D03*
X37850Y-24500D03*
X40850Y-25500D03*
X42150Y-25500D03*
X40850Y-24500D03*
X42150Y-24500D03*
G54D10*
G36*
X37389Y-22045D02*
X37955Y-22611D01*
X37531Y-23035D01*
X36965Y-22469D01*
X37389Y-22045D01*
X37389Y-22045D01*
G37*
G36*
X36469Y-22965D02*
X37035Y-23531D01*
X36611Y-23955D01*
X36045Y-23389D01*
X36469Y-22965D01*
X36469Y-22965D01*
G37*
G54D13*
X38000Y-28850D03*
X38000Y-30150D03*
X32000Y-28350D03*
X32000Y-29650D03*
G54D10*
G36*
X32545Y-22611D02*
X33111Y-22045D01*
X33535Y-22469D01*
X32969Y-23035D01*
X32545Y-22611D01*
X32545Y-22611D01*
G37*
G36*
X33465Y-23531D02*
X34031Y-22965D01*
X34455Y-23389D01*
X33889Y-23955D01*
X33465Y-23531D01*
X33465Y-23531D01*
G37*
G54D13*
X33500Y-20650D03*
X33500Y-19350D03*
X34500Y-20650D03*
X34500Y-19350D03*
X37000Y-29350D03*
X37000Y-30650D03*
X33000Y-29350D03*
X33000Y-30650D03*
G54D10*
G36*
X32455Y-23889D02*
X31889Y-24455D01*
X31465Y-24031D01*
X32031Y-23465D01*
X32455Y-23889D01*
X32455Y-23889D01*
G37*
G36*
X31535Y-22969D02*
X30969Y-23535D01*
X30545Y-23111D01*
X31111Y-22545D01*
X31535Y-22969D01*
X31535Y-22969D01*
G37*
G54D13*
X36000Y-20650D03*
X36000Y-19350D03*
X37000Y-20650D03*
X37000Y-19350D03*
G54D15*
X39500Y-31350D03*
X39500Y-27650D03*
G54D16*
X30000Y-28500D03*
X31000Y-26000D03*
X31000Y-26500D03*
X31000Y-27000D03*
X31000Y-27500D03*
G54D14*
X30650Y-30000D03*
X29350Y-30000D03*
G54D16*
X30000Y-29961D03*
G54D14*
X40150Y-22000D03*
X38850Y-22000D03*
G54D16*
X39500Y-21961D03*
G54D14*
X40150Y-20500D03*
X38850Y-20500D03*
G54D16*
X39500Y-20461D03*
G54D17*
X31500Y-14000D03*
X31500Y-16000D03*
X28500Y-14000D03*
X28500Y-16000D03*
G54D18*
X29880Y-24100D03*
G54D19*
X27920Y-24500D02*
X26500Y-24500D01*
X28320Y-24100D02*
X27920Y-24500D01*
X26500Y-24500D02*
X26000Y-24000D01*
X29880Y-24100D02*
X28320Y-24100D01*
G54D10*
G36*
X46950Y-36450D02*
X45049Y-36450D01*
X45049Y-31609D01*
X45049Y-31391D01*
X44965Y-31189D01*
X44811Y-31035D01*
X44726Y-31000D01*
X44811Y-30965D01*
X44965Y-30811D01*
X45049Y-30609D01*
X45049Y-30391D01*
X44965Y-30189D01*
X44811Y-30035D01*
X44726Y-30000D01*
X44811Y-29965D01*
X44965Y-29811D01*
X45049Y-29609D01*
X45049Y-29391D01*
X44965Y-29189D01*
X44811Y-29035D01*
X44726Y-29000D01*
X44811Y-28965D01*
X44965Y-28811D01*
X45049Y-28609D01*
X45049Y-28391D01*
X44965Y-28189D01*
X44811Y-28035D01*
X44726Y-28000D01*
X44811Y-27965D01*
X44965Y-27811D01*
X45049Y-27609D01*
X45049Y-27391D01*
X44965Y-27189D01*
X44811Y-27035D01*
X44726Y-27000D01*
X44811Y-26965D01*
X44965Y-26811D01*
X45049Y-26609D01*
X45049Y-26391D01*
X44965Y-26189D01*
X44811Y-26035D01*
X44726Y-26000D01*
X44811Y-25965D01*
X44965Y-25811D01*
X45049Y-25609D01*
X45049Y-25391D01*
X44965Y-25189D01*
X44811Y-25035D01*
X44726Y-25000D01*
X44811Y-24965D01*
X44965Y-24811D01*
X45049Y-24609D01*
X45049Y-24391D01*
X44965Y-24189D01*
X44811Y-24035D01*
X44726Y-24000D01*
X44811Y-23965D01*
X44965Y-23811D01*
X45049Y-23609D01*
X45049Y-23391D01*
X45043Y-23376D01*
X45043Y-22579D01*
X45043Y-21579D01*
X45032Y-21366D01*
X44972Y-21219D01*
X44878Y-21192D01*
X44571Y-21500D01*
X44878Y-21808D01*
X44972Y-21781D01*
X45043Y-21579D01*
X45043Y-22579D01*
X45032Y-22366D01*
X44972Y-22219D01*
X44878Y-22192D01*
X44808Y-22262D01*
X44808Y-22122D01*
X44781Y-22028D01*
X44707Y-22002D01*
X44781Y-21972D01*
X44808Y-21878D01*
X44500Y-21571D01*
X44192Y-21878D01*
X44219Y-21972D01*
X44292Y-21997D01*
X44219Y-22028D01*
X44192Y-22122D01*
X44500Y-22429D01*
X44808Y-22122D01*
X44808Y-22262D01*
X44571Y-22500D01*
X44878Y-22808D01*
X44972Y-22781D01*
X45043Y-22579D01*
X45043Y-23376D01*
X44965Y-23189D01*
X44811Y-23035D01*
X44719Y-22997D01*
X44781Y-22972D01*
X44808Y-22878D01*
X44500Y-22571D01*
X44192Y-22878D01*
X44219Y-22972D01*
X44284Y-22995D01*
X44189Y-23035D01*
X44035Y-23189D01*
X44000Y-23273D01*
X43965Y-23189D01*
X43811Y-23035D01*
X43726Y-23000D01*
X43811Y-22965D01*
X43965Y-22811D01*
X44002Y-22719D01*
X44028Y-22781D01*
X44122Y-22808D01*
X44429Y-22500D01*
X44122Y-22192D01*
X44028Y-22219D01*
X44004Y-22284D01*
X43965Y-22189D01*
X43811Y-22035D01*
X43726Y-22000D01*
X43811Y-21965D01*
X43965Y-21811D01*
X44002Y-21719D01*
X44028Y-21781D01*
X44122Y-21808D01*
X44429Y-21500D01*
X44122Y-21192D01*
X44028Y-21219D01*
X44004Y-21284D01*
X43965Y-21189D01*
X43811Y-21035D01*
X43726Y-21000D01*
X43811Y-20965D01*
X43965Y-20811D01*
X44000Y-20726D01*
X44035Y-20811D01*
X44189Y-20965D01*
X44280Y-21002D01*
X44219Y-21028D01*
X44192Y-21122D01*
X44500Y-21429D01*
X44808Y-21122D01*
X44781Y-21028D01*
X44715Y-21004D01*
X44811Y-20965D01*
X44965Y-20811D01*
X45049Y-20609D01*
X45049Y-20391D01*
X44965Y-20189D01*
X44811Y-20035D01*
X44726Y-20000D01*
X44811Y-19965D01*
X44965Y-19811D01*
X45049Y-19609D01*
X45049Y-19391D01*
X44965Y-19189D01*
X44811Y-19035D01*
X44726Y-19000D01*
X44811Y-18965D01*
X44965Y-18811D01*
X45049Y-18609D01*
X45049Y-18391D01*
X44965Y-18189D01*
X44811Y-18035D01*
X44726Y-18000D01*
X44811Y-17965D01*
X44965Y-17811D01*
X45049Y-17609D01*
X45049Y-17391D01*
X44965Y-17189D01*
X44811Y-17035D01*
X44726Y-17000D01*
X44811Y-16965D01*
X44965Y-16811D01*
X45049Y-16609D01*
X45049Y-16391D01*
X44965Y-16189D01*
X44811Y-16035D01*
X44726Y-16000D01*
X44811Y-15965D01*
X44965Y-15811D01*
X45049Y-15609D01*
X45049Y-15391D01*
X44965Y-15189D01*
X44811Y-15035D01*
X44726Y-15000D01*
X44811Y-14965D01*
X44965Y-14811D01*
X45049Y-14609D01*
X45049Y-14391D01*
X44965Y-14189D01*
X44811Y-14035D01*
X44726Y-14000D01*
X44811Y-13965D01*
X44965Y-13811D01*
X45049Y-13609D01*
X45049Y-13391D01*
X44965Y-13189D01*
X44811Y-13035D01*
X44726Y-13000D01*
X44811Y-12965D01*
X44965Y-12811D01*
X45049Y-12609D01*
X45049Y-12391D01*
X44965Y-12189D01*
X44811Y-12035D01*
X44609Y-11951D01*
X44391Y-11951D01*
X44189Y-12035D01*
X44035Y-12189D01*
X44000Y-12273D01*
X43965Y-12189D01*
X43811Y-12035D01*
X43609Y-11951D01*
X43391Y-11951D01*
X43189Y-12035D01*
X43035Y-12189D01*
X42951Y-12391D01*
X42951Y-12609D01*
X43035Y-12811D01*
X43189Y-12965D01*
X43273Y-13000D01*
X43189Y-13035D01*
X43035Y-13189D01*
X42951Y-13391D01*
X42951Y-13609D01*
X43035Y-13811D01*
X43189Y-13965D01*
X43273Y-14000D01*
X43189Y-14035D01*
X43035Y-14189D01*
X42951Y-14391D01*
X42951Y-14609D01*
X43035Y-14811D01*
X43189Y-14965D01*
X43273Y-15000D01*
X43189Y-15035D01*
X43035Y-15189D01*
X42951Y-15391D01*
X42951Y-15609D01*
X43035Y-15811D01*
X43189Y-15965D01*
X43273Y-16000D01*
X43189Y-16035D01*
X43035Y-16189D01*
X42951Y-16391D01*
X42951Y-16609D01*
X43035Y-16811D01*
X43189Y-16965D01*
X43273Y-17000D01*
X43189Y-17035D01*
X43035Y-17189D01*
X42951Y-17391D01*
X42951Y-17609D01*
X43035Y-17811D01*
X43189Y-17965D01*
X43273Y-18000D01*
X43189Y-18035D01*
X43035Y-18189D01*
X42951Y-18391D01*
X42951Y-18609D01*
X43035Y-18811D01*
X43189Y-18965D01*
X43273Y-19000D01*
X43189Y-19035D01*
X43035Y-19189D01*
X42951Y-19391D01*
X42951Y-19609D01*
X43035Y-19811D01*
X43189Y-19965D01*
X43273Y-20000D01*
X43189Y-20035D01*
X43035Y-20189D01*
X42951Y-20391D01*
X42951Y-20609D01*
X43035Y-20811D01*
X43189Y-20965D01*
X43273Y-21000D01*
X43189Y-21035D01*
X43035Y-21189D01*
X42951Y-21391D01*
X42951Y-21609D01*
X43035Y-21811D01*
X43189Y-21965D01*
X43273Y-22000D01*
X43189Y-22035D01*
X43035Y-22189D01*
X42951Y-22391D01*
X42951Y-22609D01*
X43035Y-22811D01*
X43189Y-22965D01*
X43273Y-23000D01*
X43189Y-23035D01*
X43035Y-23189D01*
X42951Y-23391D01*
X42951Y-23609D01*
X43035Y-23811D01*
X43189Y-23965D01*
X43273Y-24000D01*
X43189Y-24035D01*
X43035Y-24189D01*
X42951Y-24391D01*
X42951Y-24609D01*
X43035Y-24811D01*
X43189Y-24965D01*
X43273Y-25000D01*
X43189Y-25035D01*
X43035Y-25189D01*
X42951Y-25391D01*
X42951Y-25609D01*
X43035Y-25811D01*
X43189Y-25965D01*
X43273Y-26000D01*
X43189Y-26035D01*
X43035Y-26189D01*
X42951Y-26391D01*
X42951Y-26609D01*
X43035Y-26811D01*
X43189Y-26965D01*
X43273Y-27000D01*
X43189Y-27035D01*
X43035Y-27189D01*
X42951Y-27391D01*
X42951Y-27609D01*
X43035Y-27811D01*
X43189Y-27965D01*
X43273Y-28000D01*
X43189Y-28035D01*
X43035Y-28189D01*
X42951Y-28391D01*
X42951Y-28609D01*
X43035Y-28811D01*
X43189Y-28965D01*
X43273Y-29000D01*
X43189Y-29035D01*
X43035Y-29189D01*
X42951Y-29391D01*
X42951Y-29609D01*
X43035Y-29811D01*
X43189Y-29965D01*
X43273Y-30000D01*
X43189Y-30035D01*
X43035Y-30189D01*
X42951Y-30391D01*
X42951Y-30609D01*
X43035Y-30811D01*
X43175Y-30951D01*
X43150Y-30951D01*
X43059Y-30989D01*
X42989Y-31059D01*
X42951Y-31151D01*
X42950Y-31388D01*
X43012Y-31450D01*
X43400Y-31450D01*
X43450Y-31450D01*
X43550Y-31450D01*
X43550Y-31550D01*
X43550Y-31600D01*
X43550Y-31988D01*
X43612Y-32050D01*
X43751Y-32049D01*
X43850Y-32049D01*
X43941Y-32011D01*
X44011Y-31941D01*
X44049Y-31849D01*
X44049Y-31825D01*
X44189Y-31965D01*
X44391Y-32049D01*
X44609Y-32049D01*
X44811Y-31965D01*
X44965Y-31811D01*
X45049Y-31609D01*
X45049Y-36450D01*
X43450Y-36450D01*
X43450Y-31988D01*
X43450Y-31550D01*
X43012Y-31550D01*
X42950Y-31612D01*
X42951Y-31849D01*
X42989Y-31941D01*
X43059Y-32011D01*
X43150Y-32049D01*
X43249Y-32049D01*
X43388Y-32050D01*
X43450Y-31988D01*
X43450Y-36450D01*
X42700Y-36450D01*
X42700Y-25612D01*
X42700Y-25388D01*
X42699Y-25149D01*
X42699Y-25050D01*
X42678Y-25000D01*
X42699Y-24950D01*
X42699Y-24851D01*
X42700Y-24612D01*
X42700Y-24388D01*
X42699Y-24149D01*
X42699Y-24050D01*
X42661Y-23959D01*
X42591Y-23889D01*
X42499Y-23851D01*
X42262Y-23850D01*
X42200Y-23912D01*
X42200Y-24450D01*
X42638Y-24450D01*
X42700Y-24388D01*
X42700Y-24612D01*
X42638Y-24550D01*
X42200Y-24550D01*
X42200Y-24912D01*
X42200Y-25088D01*
X42200Y-25450D01*
X42638Y-25450D01*
X42700Y-25388D01*
X42700Y-25612D01*
X42638Y-25550D01*
X42250Y-25550D01*
X42200Y-25550D01*
X42100Y-25550D01*
X42100Y-25450D01*
X42100Y-25088D01*
X42100Y-24912D01*
X42100Y-24550D01*
X42100Y-24450D01*
X42100Y-23912D01*
X42038Y-23850D01*
X41801Y-23851D01*
X41709Y-23889D01*
X41639Y-23959D01*
X41601Y-24050D01*
X41601Y-24149D01*
X41600Y-24388D01*
X41662Y-24450D01*
X42100Y-24450D01*
X42100Y-24550D01*
X41662Y-24550D01*
X41600Y-24612D01*
X41601Y-24851D01*
X41601Y-24950D01*
X41621Y-25000D01*
X41601Y-25050D01*
X41601Y-25149D01*
X41600Y-25388D01*
X41662Y-25450D01*
X42100Y-25450D01*
X42100Y-25550D01*
X42050Y-25550D01*
X41662Y-25550D01*
X41600Y-25612D01*
X41601Y-25851D01*
X41601Y-25950D01*
X41621Y-26000D01*
X41601Y-26050D01*
X41601Y-26149D01*
X41601Y-26949D01*
X41639Y-27041D01*
X41709Y-27111D01*
X41800Y-27149D01*
X41899Y-27149D01*
X42499Y-27149D01*
X42591Y-27111D01*
X42661Y-27041D01*
X42699Y-26950D01*
X42699Y-26851D01*
X42699Y-26051D01*
X42678Y-26000D01*
X42699Y-25950D01*
X42699Y-25851D01*
X42700Y-25612D01*
X42700Y-36450D01*
X42150Y-36450D01*
X42150Y-30462D01*
X42150Y-30238D01*
X42150Y-29262D01*
X42150Y-29038D01*
X42149Y-28801D01*
X42149Y-28200D01*
X42149Y-28101D01*
X42149Y-27501D01*
X42111Y-27409D01*
X42041Y-27339D01*
X41950Y-27301D01*
X41851Y-27301D01*
X41399Y-27301D01*
X41399Y-26950D01*
X41399Y-26851D01*
X41399Y-26051D01*
X41378Y-26000D01*
X41399Y-25950D01*
X41399Y-25851D01*
X41399Y-25051D01*
X41378Y-25000D01*
X41399Y-24950D01*
X41399Y-24851D01*
X41399Y-24051D01*
X41361Y-23959D01*
X41291Y-23889D01*
X41200Y-23851D01*
X41101Y-23851D01*
X40699Y-23851D01*
X40699Y-22450D01*
X40699Y-22351D01*
X40699Y-21551D01*
X40699Y-20950D01*
X40699Y-20851D01*
X40699Y-20051D01*
X40661Y-19959D01*
X40591Y-19889D01*
X40500Y-19851D01*
X40401Y-19851D01*
X39801Y-19851D01*
X39709Y-19889D01*
X39639Y-19959D01*
X39615Y-20015D01*
X39384Y-20015D01*
X39361Y-19959D01*
X39291Y-19889D01*
X39200Y-19851D01*
X39101Y-19851D01*
X38501Y-19851D01*
X38409Y-19889D01*
X38339Y-19959D01*
X38301Y-20050D01*
X38301Y-20149D01*
X38301Y-20949D01*
X38339Y-21041D01*
X38409Y-21111D01*
X38500Y-21149D01*
X38599Y-21149D01*
X39199Y-21149D01*
X39291Y-21111D01*
X39361Y-21041D01*
X39399Y-20950D01*
X39399Y-20907D01*
X39601Y-20907D01*
X39601Y-20949D01*
X39639Y-21041D01*
X39709Y-21111D01*
X39800Y-21149D01*
X39899Y-21149D01*
X40499Y-21149D01*
X40591Y-21111D01*
X40661Y-21041D01*
X40699Y-20950D01*
X40699Y-21551D01*
X40661Y-21459D01*
X40591Y-21389D01*
X40500Y-21351D01*
X40401Y-21351D01*
X39801Y-21351D01*
X39709Y-21389D01*
X39639Y-21459D01*
X39615Y-21515D01*
X39384Y-21515D01*
X39361Y-21459D01*
X39291Y-21389D01*
X39200Y-21351D01*
X39101Y-21351D01*
X38501Y-21351D01*
X38409Y-21389D01*
X38339Y-21459D01*
X38301Y-21550D01*
X38301Y-21649D01*
X38301Y-22449D01*
X38339Y-22541D01*
X38409Y-22611D01*
X38500Y-22649D01*
X38599Y-22649D01*
X39199Y-22649D01*
X39291Y-22611D01*
X39361Y-22541D01*
X39399Y-22450D01*
X39399Y-22407D01*
X39601Y-22407D01*
X39601Y-22449D01*
X39639Y-22541D01*
X39709Y-22611D01*
X39800Y-22649D01*
X39899Y-22649D01*
X40499Y-22649D01*
X40591Y-22611D01*
X40661Y-22541D01*
X40699Y-22450D01*
X40699Y-23851D01*
X40501Y-23851D01*
X40409Y-23889D01*
X40339Y-23959D01*
X40301Y-24050D01*
X40301Y-24149D01*
X40301Y-24949D01*
X40321Y-24999D01*
X40301Y-25050D01*
X40301Y-25149D01*
X40301Y-25949D01*
X40321Y-25999D01*
X40301Y-26050D01*
X40301Y-26149D01*
X40301Y-26949D01*
X40339Y-27041D01*
X40409Y-27111D01*
X40500Y-27149D01*
X40599Y-27149D01*
X41199Y-27149D01*
X41291Y-27111D01*
X41361Y-27041D01*
X41399Y-26950D01*
X41399Y-27301D01*
X41051Y-27301D01*
X40959Y-27339D01*
X40889Y-27409D01*
X40851Y-27500D01*
X40851Y-27599D01*
X40851Y-28199D01*
X40889Y-28291D01*
X40959Y-28361D01*
X41050Y-28399D01*
X41149Y-28399D01*
X41949Y-28399D01*
X42041Y-28361D01*
X42111Y-28291D01*
X42149Y-28200D01*
X42149Y-28801D01*
X42111Y-28709D01*
X42041Y-28639D01*
X41950Y-28601D01*
X41851Y-28601D01*
X41612Y-28600D01*
X41550Y-28662D01*
X41550Y-29100D01*
X42088Y-29100D01*
X42150Y-29038D01*
X42150Y-29262D01*
X42088Y-29200D01*
X41550Y-29200D01*
X41550Y-29638D01*
X41612Y-29700D01*
X41851Y-29699D01*
X41950Y-29699D01*
X42041Y-29661D01*
X42111Y-29591D01*
X42149Y-29499D01*
X42150Y-29262D01*
X42150Y-30238D01*
X42149Y-30001D01*
X42111Y-29909D01*
X42041Y-29839D01*
X41950Y-29801D01*
X41851Y-29801D01*
X41612Y-29800D01*
X41550Y-29862D01*
X41550Y-30300D01*
X42088Y-30300D01*
X42150Y-30238D01*
X42150Y-30462D01*
X42088Y-30400D01*
X41550Y-30400D01*
X41550Y-30838D01*
X41612Y-30900D01*
X41851Y-30899D01*
X41950Y-30899D01*
X42041Y-30861D01*
X42111Y-30791D01*
X42149Y-30699D01*
X42150Y-30462D01*
X42150Y-36450D01*
X42149Y-36450D01*
X42149Y-32000D01*
X42149Y-31901D01*
X42149Y-31301D01*
X42111Y-31209D01*
X42041Y-31139D01*
X41950Y-31101D01*
X41851Y-31101D01*
X41450Y-31101D01*
X41450Y-30838D01*
X41450Y-30400D01*
X41450Y-30300D01*
X41450Y-29862D01*
X41450Y-29638D01*
X41450Y-29200D01*
X41450Y-29100D01*
X41450Y-28662D01*
X41388Y-28600D01*
X41149Y-28601D01*
X41050Y-28601D01*
X40959Y-28639D01*
X40889Y-28709D01*
X40851Y-28801D01*
X40850Y-29038D01*
X40912Y-29100D01*
X41450Y-29100D01*
X41450Y-29200D01*
X40912Y-29200D01*
X40850Y-29262D01*
X40851Y-29499D01*
X40889Y-29591D01*
X40959Y-29661D01*
X41050Y-29699D01*
X41149Y-29699D01*
X41388Y-29700D01*
X41450Y-29638D01*
X41450Y-29862D01*
X41388Y-29800D01*
X41149Y-29801D01*
X41050Y-29801D01*
X40959Y-29839D01*
X40889Y-29909D01*
X40851Y-30001D01*
X40850Y-30238D01*
X40912Y-30300D01*
X41450Y-30300D01*
X41450Y-30400D01*
X40912Y-30400D01*
X40850Y-30462D01*
X40851Y-30699D01*
X40889Y-30791D01*
X40959Y-30861D01*
X41050Y-30899D01*
X41149Y-30899D01*
X41388Y-30900D01*
X41450Y-30838D01*
X41450Y-31101D01*
X41051Y-31101D01*
X40959Y-31139D01*
X40889Y-31209D01*
X40851Y-31300D01*
X40851Y-31399D01*
X40851Y-31999D01*
X40889Y-32091D01*
X40959Y-32161D01*
X41050Y-32199D01*
X41149Y-32199D01*
X41949Y-32199D01*
X42041Y-32161D01*
X42111Y-32091D01*
X42149Y-32000D01*
X42149Y-36450D01*
X40142Y-36450D01*
X40142Y-32482D01*
X40142Y-32383D01*
X40142Y-30219D01*
X40142Y-28782D01*
X40142Y-28683D01*
X40142Y-26519D01*
X40104Y-26427D01*
X40034Y-26357D01*
X39943Y-26319D01*
X39844Y-26319D01*
X39699Y-26319D01*
X39699Y-25950D01*
X39699Y-25851D01*
X39699Y-25051D01*
X39678Y-25000D01*
X39699Y-24950D01*
X39699Y-24851D01*
X39699Y-24051D01*
X39661Y-23959D01*
X39591Y-23889D01*
X39500Y-23851D01*
X39401Y-23851D01*
X38801Y-23851D01*
X38709Y-23889D01*
X38639Y-23959D01*
X38601Y-24050D01*
X38601Y-24149D01*
X38601Y-24949D01*
X38621Y-24999D01*
X38601Y-25050D01*
X38601Y-25149D01*
X38601Y-25949D01*
X38639Y-26041D01*
X38709Y-26111D01*
X38800Y-26149D01*
X38899Y-26149D01*
X39499Y-26149D01*
X39591Y-26111D01*
X39661Y-26041D01*
X39699Y-25950D01*
X39699Y-26319D01*
X39058Y-26319D01*
X38966Y-26357D01*
X38896Y-26427D01*
X38858Y-26518D01*
X38858Y-26617D01*
X38858Y-28781D01*
X38896Y-28873D01*
X38966Y-28943D01*
X39057Y-28981D01*
X39156Y-28981D01*
X39942Y-28981D01*
X40034Y-28943D01*
X40104Y-28873D01*
X40142Y-28782D01*
X40142Y-30219D01*
X40104Y-30127D01*
X40034Y-30057D01*
X39943Y-30019D01*
X39844Y-30019D01*
X39058Y-30019D01*
X38966Y-30057D01*
X38896Y-30127D01*
X38858Y-30218D01*
X38858Y-30317D01*
X38858Y-32481D01*
X38896Y-32573D01*
X38966Y-32643D01*
X39057Y-32681D01*
X39156Y-32681D01*
X39942Y-32681D01*
X40034Y-32643D01*
X40104Y-32573D01*
X40142Y-32482D01*
X40142Y-36450D01*
X38650Y-36450D01*
X38650Y-30262D01*
X38650Y-30038D01*
X38649Y-29801D01*
X38649Y-29200D01*
X38649Y-29101D01*
X38649Y-28501D01*
X38611Y-28409D01*
X38541Y-28339D01*
X38450Y-28301D01*
X38400Y-28301D01*
X38400Y-25612D01*
X38400Y-25388D01*
X38399Y-25149D01*
X38399Y-25050D01*
X38378Y-25000D01*
X38399Y-24950D01*
X38399Y-24851D01*
X38400Y-24612D01*
X38400Y-24388D01*
X38399Y-24149D01*
X38399Y-24050D01*
X38361Y-23959D01*
X38291Y-23889D01*
X38204Y-23853D01*
X38204Y-22660D01*
X38204Y-22561D01*
X38166Y-22470D01*
X38096Y-22400D01*
X37650Y-21953D01*
X37650Y-19462D01*
X37650Y-19238D01*
X37649Y-19001D01*
X37611Y-18909D01*
X37541Y-18839D01*
X37450Y-18801D01*
X37351Y-18801D01*
X37112Y-18800D01*
X37050Y-18862D01*
X37050Y-19300D01*
X37588Y-19300D01*
X37650Y-19238D01*
X37650Y-19462D01*
X37588Y-19400D01*
X37050Y-19400D01*
X37050Y-19838D01*
X37112Y-19900D01*
X37351Y-19899D01*
X37450Y-19899D01*
X37541Y-19861D01*
X37611Y-19791D01*
X37649Y-19699D01*
X37650Y-19462D01*
X37650Y-21953D01*
X37649Y-21952D01*
X37649Y-21000D01*
X37649Y-20901D01*
X37649Y-20301D01*
X37611Y-20209D01*
X37541Y-20139D01*
X37450Y-20101D01*
X37351Y-20101D01*
X36950Y-20101D01*
X36950Y-19838D01*
X36950Y-19400D01*
X36950Y-19300D01*
X36950Y-18862D01*
X36888Y-18800D01*
X36649Y-18801D01*
X36550Y-18801D01*
X36500Y-18821D01*
X36450Y-18801D01*
X36351Y-18801D01*
X36112Y-18800D01*
X36050Y-18862D01*
X36050Y-19300D01*
X36412Y-19300D01*
X36588Y-19300D01*
X36950Y-19300D01*
X36950Y-19400D01*
X36588Y-19400D01*
X36412Y-19400D01*
X36050Y-19400D01*
X36050Y-19838D01*
X36112Y-19900D01*
X36351Y-19899D01*
X36450Y-19899D01*
X36500Y-19878D01*
X36550Y-19899D01*
X36649Y-19899D01*
X36888Y-19900D01*
X36950Y-19838D01*
X36950Y-20101D01*
X36551Y-20101D01*
X36500Y-20121D01*
X36450Y-20101D01*
X36351Y-20101D01*
X35950Y-20101D01*
X35950Y-19838D01*
X35950Y-19400D01*
X35950Y-19300D01*
X35950Y-18862D01*
X35888Y-18800D01*
X35649Y-18801D01*
X35550Y-18801D01*
X35459Y-18839D01*
X35389Y-18909D01*
X35351Y-19001D01*
X35350Y-19238D01*
X35412Y-19300D01*
X35950Y-19300D01*
X35950Y-19400D01*
X35412Y-19400D01*
X35350Y-19462D01*
X35351Y-19699D01*
X35389Y-19791D01*
X35459Y-19861D01*
X35550Y-19899D01*
X35649Y-19899D01*
X35888Y-19900D01*
X35950Y-19838D01*
X35950Y-20101D01*
X35551Y-20101D01*
X35459Y-20139D01*
X35389Y-20209D01*
X35351Y-20300D01*
X35351Y-20399D01*
X35351Y-20999D01*
X35389Y-21091D01*
X35459Y-21161D01*
X35550Y-21199D01*
X35649Y-21199D01*
X36449Y-21199D01*
X36499Y-21178D01*
X36550Y-21199D01*
X36649Y-21199D01*
X37449Y-21199D01*
X37541Y-21161D01*
X37611Y-21091D01*
X37649Y-21000D01*
X37649Y-21952D01*
X37531Y-21834D01*
X37439Y-21796D01*
X37340Y-21796D01*
X37249Y-21834D01*
X37179Y-21904D01*
X36754Y-22328D01*
X36716Y-22420D01*
X36716Y-22519D01*
X36754Y-22610D01*
X36824Y-22680D01*
X37389Y-23246D01*
X37481Y-23284D01*
X37580Y-23284D01*
X37671Y-23246D01*
X37741Y-23176D01*
X38166Y-22752D01*
X38204Y-22660D01*
X38204Y-23853D01*
X38199Y-23851D01*
X37962Y-23850D01*
X37900Y-23912D01*
X37900Y-24450D01*
X38338Y-24450D01*
X38400Y-24388D01*
X38400Y-24612D01*
X38338Y-24550D01*
X37900Y-24550D01*
X37900Y-24912D01*
X37900Y-25088D01*
X37900Y-25450D01*
X38338Y-25450D01*
X38400Y-25388D01*
X38400Y-25612D01*
X38338Y-25550D01*
X37900Y-25550D01*
X37900Y-26088D01*
X37962Y-26150D01*
X38199Y-26149D01*
X38291Y-26111D01*
X38361Y-26041D01*
X38399Y-25950D01*
X38399Y-25851D01*
X38400Y-25612D01*
X38400Y-28301D01*
X38351Y-28301D01*
X37800Y-28301D01*
X37800Y-26088D01*
X37800Y-25550D01*
X37800Y-25450D01*
X37800Y-25088D01*
X37800Y-24912D01*
X37800Y-24550D01*
X37800Y-24450D01*
X37800Y-23912D01*
X37738Y-23850D01*
X37501Y-23851D01*
X37409Y-23889D01*
X37339Y-23959D01*
X37301Y-24050D01*
X37301Y-24149D01*
X37300Y-24388D01*
X37362Y-24450D01*
X37800Y-24450D01*
X37800Y-24550D01*
X37362Y-24550D01*
X37300Y-24612D01*
X37301Y-24851D01*
X37301Y-24950D01*
X37321Y-25000D01*
X37301Y-25050D01*
X37301Y-25149D01*
X37300Y-25388D01*
X37362Y-25450D01*
X37800Y-25450D01*
X37800Y-25550D01*
X37362Y-25550D01*
X37300Y-25612D01*
X37301Y-25851D01*
X37301Y-25950D01*
X37339Y-26041D01*
X37409Y-26111D01*
X37501Y-26149D01*
X37738Y-26150D01*
X37800Y-26088D01*
X37800Y-28301D01*
X37551Y-28301D01*
X37459Y-28339D01*
X37389Y-28409D01*
X37351Y-28500D01*
X37351Y-28599D01*
X37351Y-28801D01*
X37284Y-28801D01*
X37284Y-23580D01*
X37284Y-23481D01*
X37246Y-23390D01*
X37176Y-23320D01*
X37008Y-23150D01*
X36920Y-23150D01*
X36850Y-23220D01*
X36850Y-23080D01*
X36850Y-22992D01*
X36680Y-22824D01*
X36610Y-22754D01*
X36519Y-22716D01*
X36420Y-22716D01*
X36328Y-22754D01*
X36160Y-22921D01*
X36160Y-23009D01*
X36540Y-23389D01*
X36850Y-23080D01*
X36850Y-23220D01*
X36611Y-23460D01*
X36991Y-23840D01*
X37079Y-23840D01*
X37246Y-23672D01*
X37284Y-23580D01*
X37284Y-28801D01*
X37150Y-28801D01*
X37150Y-25462D01*
X37150Y-25238D01*
X37149Y-25001D01*
X37111Y-24909D01*
X37041Y-24839D01*
X36950Y-24801D01*
X36920Y-24801D01*
X36920Y-23999D01*
X36920Y-23911D01*
X36540Y-23531D01*
X36469Y-23601D01*
X36469Y-23460D01*
X36089Y-23080D01*
X36001Y-23080D01*
X35834Y-23248D01*
X35796Y-23340D01*
X35796Y-23439D01*
X35834Y-23530D01*
X35904Y-23600D01*
X36072Y-23770D01*
X36160Y-23770D01*
X36469Y-23460D01*
X36469Y-23601D01*
X36230Y-23840D01*
X36230Y-23928D01*
X36400Y-24096D01*
X36470Y-24166D01*
X36561Y-24204D01*
X36660Y-24204D01*
X36752Y-24166D01*
X36920Y-23999D01*
X36920Y-24801D01*
X36851Y-24801D01*
X36612Y-24800D01*
X36550Y-24862D01*
X36550Y-25300D01*
X37088Y-25300D01*
X37150Y-25238D01*
X37150Y-25462D01*
X37088Y-25400D01*
X36550Y-25400D01*
X36550Y-25838D01*
X36612Y-25900D01*
X36851Y-25899D01*
X36950Y-25899D01*
X37041Y-25861D01*
X37111Y-25791D01*
X37149Y-25699D01*
X37150Y-25462D01*
X37150Y-28801D01*
X37149Y-28801D01*
X37149Y-27000D01*
X37149Y-26901D01*
X37149Y-26301D01*
X37111Y-26209D01*
X37041Y-26139D01*
X36950Y-26101D01*
X36851Y-26101D01*
X36450Y-26101D01*
X36450Y-25838D01*
X36450Y-25400D01*
X36450Y-25300D01*
X36450Y-24862D01*
X36388Y-24800D01*
X36149Y-24801D01*
X36050Y-24801D01*
X35959Y-24839D01*
X35889Y-24909D01*
X35851Y-25001D01*
X35850Y-25238D01*
X35912Y-25300D01*
X36450Y-25300D01*
X36450Y-25400D01*
X35912Y-25400D01*
X35850Y-25462D01*
X35851Y-25699D01*
X35889Y-25791D01*
X35959Y-25861D01*
X36050Y-25899D01*
X36149Y-25899D01*
X36388Y-25900D01*
X36450Y-25838D01*
X36450Y-26101D01*
X36051Y-26101D01*
X35959Y-26139D01*
X35889Y-26209D01*
X35851Y-26300D01*
X35851Y-26399D01*
X35851Y-26999D01*
X35889Y-27091D01*
X35959Y-27161D01*
X36050Y-27199D01*
X36149Y-27199D01*
X36949Y-27199D01*
X37041Y-27161D01*
X37111Y-27091D01*
X37149Y-27000D01*
X37149Y-28801D01*
X36551Y-28801D01*
X36459Y-28839D01*
X36389Y-28909D01*
X36351Y-29000D01*
X36351Y-29099D01*
X36351Y-29699D01*
X36389Y-29791D01*
X36459Y-29861D01*
X36550Y-29899D01*
X36649Y-29899D01*
X37350Y-29899D01*
X37350Y-30038D01*
X37362Y-30050D01*
X37350Y-30050D01*
X37350Y-30100D01*
X37112Y-30100D01*
X37050Y-30162D01*
X37050Y-30550D01*
X37050Y-30600D01*
X37050Y-30700D01*
X37050Y-30750D01*
X37050Y-31138D01*
X37112Y-31200D01*
X37351Y-31199D01*
X37450Y-31199D01*
X37541Y-31161D01*
X37611Y-31091D01*
X37649Y-30999D01*
X37650Y-30762D01*
X37638Y-30750D01*
X37650Y-30750D01*
X37650Y-30699D01*
X37888Y-30700D01*
X37950Y-30638D01*
X37950Y-30250D01*
X37950Y-30200D01*
X37950Y-30100D01*
X37950Y-30050D01*
X37950Y-29662D01*
X37888Y-29600D01*
X37649Y-29601D01*
X37649Y-29399D01*
X38449Y-29399D01*
X38541Y-29361D01*
X38611Y-29291D01*
X38649Y-29200D01*
X38649Y-29801D01*
X38611Y-29709D01*
X38541Y-29639D01*
X38450Y-29601D01*
X38351Y-29601D01*
X38112Y-29600D01*
X38050Y-29662D01*
X38050Y-30100D01*
X38588Y-30100D01*
X38650Y-30038D01*
X38650Y-30262D01*
X38588Y-30200D01*
X38050Y-30200D01*
X38050Y-30638D01*
X38112Y-30700D01*
X38351Y-30699D01*
X38450Y-30699D01*
X38541Y-30661D01*
X38611Y-30591D01*
X38649Y-30499D01*
X38650Y-30262D01*
X38650Y-36450D01*
X37950Y-36450D01*
X37650Y-36450D01*
X37139Y-36450D01*
X37139Y-34689D01*
X37139Y-34471D01*
X37055Y-34269D01*
X36901Y-34115D01*
X36816Y-34080D01*
X36901Y-34045D01*
X37055Y-33891D01*
X37139Y-33689D01*
X37139Y-33471D01*
X37055Y-33269D01*
X36950Y-33164D01*
X36950Y-31138D01*
X36950Y-30700D01*
X36950Y-30600D01*
X36950Y-30162D01*
X36888Y-30100D01*
X36649Y-30101D01*
X36550Y-30101D01*
X36459Y-30139D01*
X36389Y-30209D01*
X36351Y-30301D01*
X36350Y-30538D01*
X36412Y-30600D01*
X36950Y-30600D01*
X36950Y-30700D01*
X36412Y-30700D01*
X36350Y-30762D01*
X36351Y-30999D01*
X36389Y-31091D01*
X36459Y-31161D01*
X36550Y-31199D01*
X36649Y-31199D01*
X36888Y-31200D01*
X36950Y-31138D01*
X36950Y-33164D01*
X36901Y-33115D01*
X36699Y-33031D01*
X36481Y-33031D01*
X36279Y-33115D01*
X36125Y-33269D01*
X36090Y-33353D01*
X36055Y-33269D01*
X35901Y-33115D01*
X35699Y-33031D01*
X35481Y-33031D01*
X35279Y-33115D01*
X35150Y-33244D01*
X35150Y-19462D01*
X35150Y-19238D01*
X35149Y-19001D01*
X35111Y-18909D01*
X35041Y-18839D01*
X34950Y-18801D01*
X34851Y-18801D01*
X34612Y-18800D01*
X34550Y-18862D01*
X34550Y-19300D01*
X35088Y-19300D01*
X35150Y-19238D01*
X35150Y-19462D01*
X35088Y-19400D01*
X34550Y-19400D01*
X34550Y-19838D01*
X34612Y-19900D01*
X34851Y-19899D01*
X34950Y-19899D01*
X35041Y-19861D01*
X35111Y-19791D01*
X35149Y-19699D01*
X35150Y-19462D01*
X35150Y-33244D01*
X35149Y-33245D01*
X35149Y-21000D01*
X35149Y-20901D01*
X35149Y-20301D01*
X35111Y-20209D01*
X35041Y-20139D01*
X34950Y-20101D01*
X34851Y-20101D01*
X34450Y-20101D01*
X34450Y-19838D01*
X34450Y-19400D01*
X34450Y-19300D01*
X34450Y-18862D01*
X34388Y-18800D01*
X34149Y-18801D01*
X34050Y-18801D01*
X34000Y-18821D01*
X33950Y-18801D01*
X33851Y-18801D01*
X33612Y-18800D01*
X33550Y-18862D01*
X33550Y-19300D01*
X33912Y-19300D01*
X34088Y-19300D01*
X34450Y-19300D01*
X34450Y-19400D01*
X34088Y-19400D01*
X33912Y-19400D01*
X33550Y-19400D01*
X33550Y-19838D01*
X33612Y-19900D01*
X33851Y-19899D01*
X33950Y-19899D01*
X34000Y-19878D01*
X34050Y-19899D01*
X34149Y-19899D01*
X34388Y-19900D01*
X34450Y-19838D01*
X34450Y-20101D01*
X34051Y-20101D01*
X34000Y-20121D01*
X33950Y-20101D01*
X33851Y-20101D01*
X33450Y-20101D01*
X33450Y-19838D01*
X33450Y-19400D01*
X33450Y-19300D01*
X33450Y-18862D01*
X33388Y-18800D01*
X33149Y-18801D01*
X33149Y-16000D01*
X33149Y-15901D01*
X33149Y-15301D01*
X33149Y-14700D01*
X33149Y-14601D01*
X33149Y-14001D01*
X33111Y-13909D01*
X33041Y-13839D01*
X32950Y-13801D01*
X32851Y-13801D01*
X32051Y-13801D01*
X31990Y-13826D01*
X31952Y-13733D01*
X31861Y-13710D01*
X31790Y-13781D01*
X31790Y-13639D01*
X31767Y-13548D01*
X31574Y-13481D01*
X31370Y-13492D01*
X31233Y-13548D01*
X31210Y-13639D01*
X31500Y-13929D01*
X31790Y-13639D01*
X31790Y-13781D01*
X31606Y-13965D01*
X31571Y-14000D01*
X31500Y-14071D01*
X31465Y-14106D01*
X31429Y-14142D01*
X31429Y-14000D01*
X31139Y-13710D01*
X31048Y-13733D01*
X30981Y-13926D01*
X30992Y-14130D01*
X31048Y-14267D01*
X31139Y-14290D01*
X31429Y-14000D01*
X31429Y-14142D01*
X31210Y-14361D01*
X31233Y-14452D01*
X31426Y-14519D01*
X31630Y-14508D01*
X31767Y-14452D01*
X31775Y-14416D01*
X31790Y-14431D01*
X31807Y-14448D01*
X31851Y-14404D01*
X31851Y-14699D01*
X31889Y-14791D01*
X31959Y-14861D01*
X32050Y-14899D01*
X32149Y-14899D01*
X32949Y-14899D01*
X33041Y-14861D01*
X33111Y-14791D01*
X33149Y-14700D01*
X33149Y-15301D01*
X33111Y-15209D01*
X33041Y-15139D01*
X32950Y-15101D01*
X32851Y-15101D01*
X32051Y-15101D01*
X31959Y-15139D01*
X31889Y-15209D01*
X31851Y-15300D01*
X31851Y-15399D01*
X31851Y-15608D01*
X31798Y-15555D01*
X31790Y-15551D01*
X31605Y-15475D01*
X31396Y-15475D01*
X31203Y-15555D01*
X31055Y-15702D01*
X30975Y-15895D01*
X30975Y-16104D01*
X31055Y-16297D01*
X31202Y-16445D01*
X31395Y-16525D01*
X31604Y-16525D01*
X31797Y-16445D01*
X31945Y-16298D01*
X31995Y-16176D01*
X32050Y-16199D01*
X32149Y-16199D01*
X32949Y-16199D01*
X33041Y-16161D01*
X33111Y-16091D01*
X33149Y-16000D01*
X33149Y-18801D01*
X33050Y-18801D01*
X32959Y-18839D01*
X32889Y-18909D01*
X32851Y-19001D01*
X32850Y-19238D01*
X32912Y-19300D01*
X33450Y-19300D01*
X33450Y-19400D01*
X32912Y-19400D01*
X32850Y-19462D01*
X32851Y-19699D01*
X32889Y-19791D01*
X32959Y-19861D01*
X33050Y-19899D01*
X33149Y-19899D01*
X33388Y-19900D01*
X33450Y-19838D01*
X33450Y-20101D01*
X33051Y-20101D01*
X32959Y-20139D01*
X32889Y-20209D01*
X32851Y-20300D01*
X32851Y-20399D01*
X32851Y-20999D01*
X32889Y-21091D01*
X32959Y-21161D01*
X33050Y-21199D01*
X33149Y-21199D01*
X33949Y-21199D01*
X33999Y-21178D01*
X34050Y-21199D01*
X34149Y-21199D01*
X34949Y-21199D01*
X35041Y-21161D01*
X35111Y-21091D01*
X35149Y-21000D01*
X35149Y-33245D01*
X35125Y-33269D01*
X35087Y-33360D01*
X35062Y-33299D01*
X34968Y-33272D01*
X34898Y-33342D01*
X34898Y-33202D01*
X34871Y-33108D01*
X34704Y-33049D01*
X34704Y-23439D01*
X34704Y-23340D01*
X34666Y-23248D01*
X34499Y-23080D01*
X34411Y-23080D01*
X34340Y-23151D01*
X34340Y-23009D01*
X34340Y-22921D01*
X34172Y-22754D01*
X34080Y-22716D01*
X33981Y-22716D01*
X33890Y-22754D01*
X33820Y-22824D01*
X33784Y-22859D01*
X33784Y-22519D01*
X33784Y-22420D01*
X33746Y-22329D01*
X33676Y-22259D01*
X33252Y-21834D01*
X33160Y-21796D01*
X33061Y-21796D01*
X32970Y-21834D01*
X32900Y-21904D01*
X32334Y-22469D01*
X32296Y-22561D01*
X32296Y-22660D01*
X32334Y-22751D01*
X32404Y-22821D01*
X32828Y-23246D01*
X32920Y-23284D01*
X33019Y-23284D01*
X33110Y-23246D01*
X33180Y-23176D01*
X33746Y-22611D01*
X33784Y-22519D01*
X33784Y-22859D01*
X33650Y-22992D01*
X33650Y-23080D01*
X33960Y-23389D01*
X34340Y-23009D01*
X34340Y-23151D01*
X34031Y-23460D01*
X34340Y-23770D01*
X34428Y-23770D01*
X34596Y-23600D01*
X34666Y-23530D01*
X34704Y-23439D01*
X34704Y-33049D01*
X34669Y-33037D01*
X34456Y-33048D01*
X34309Y-33108D01*
X34282Y-33202D01*
X34590Y-33509D01*
X34898Y-33202D01*
X34898Y-33342D01*
X34661Y-33580D01*
X34968Y-33888D01*
X35062Y-33861D01*
X35085Y-33795D01*
X35125Y-33891D01*
X35279Y-34045D01*
X35363Y-34080D01*
X35279Y-34115D01*
X35139Y-34255D01*
X35139Y-34231D01*
X35101Y-34139D01*
X35031Y-34069D01*
X34940Y-34031D01*
X34877Y-34031D01*
X34898Y-33958D01*
X34590Y-33651D01*
X34519Y-33721D01*
X34519Y-33580D01*
X34270Y-33330D01*
X34270Y-23928D01*
X34270Y-23840D01*
X33960Y-23531D01*
X33889Y-23602D01*
X33889Y-23460D01*
X33580Y-23150D01*
X33492Y-23150D01*
X33324Y-23320D01*
X33254Y-23390D01*
X33216Y-23481D01*
X33216Y-23580D01*
X33254Y-23672D01*
X33421Y-23840D01*
X33509Y-23840D01*
X33889Y-23460D01*
X33889Y-23602D01*
X33580Y-23911D01*
X33580Y-23999D01*
X33748Y-24166D01*
X33840Y-24204D01*
X33939Y-24204D01*
X34030Y-24166D01*
X34100Y-24096D01*
X34270Y-23928D01*
X34270Y-33330D01*
X34212Y-33272D01*
X34199Y-33275D01*
X34199Y-27450D01*
X34199Y-27351D01*
X34199Y-26551D01*
X34178Y-26500D01*
X34199Y-26450D01*
X34199Y-26351D01*
X34199Y-25551D01*
X34161Y-25459D01*
X34091Y-25389D01*
X34000Y-25351D01*
X33901Y-25351D01*
X33699Y-25351D01*
X33699Y-24551D01*
X33661Y-24459D01*
X33591Y-24389D01*
X33500Y-24351D01*
X33401Y-24351D01*
X32801Y-24351D01*
X32709Y-24389D01*
X32639Y-24459D01*
X32601Y-24550D01*
X32601Y-24649D01*
X32601Y-25351D01*
X32399Y-25351D01*
X32399Y-24551D01*
X32361Y-24459D01*
X32299Y-24397D01*
X32666Y-24031D01*
X32704Y-23939D01*
X32704Y-23840D01*
X32666Y-23749D01*
X32596Y-23679D01*
X32172Y-23254D01*
X32080Y-23216D01*
X31981Y-23216D01*
X31890Y-23254D01*
X31820Y-23324D01*
X31784Y-23359D01*
X31784Y-23019D01*
X31784Y-22920D01*
X31746Y-22828D01*
X31579Y-22660D01*
X31491Y-22660D01*
X31420Y-22731D01*
X31420Y-22589D01*
X31420Y-22501D01*
X31252Y-22334D01*
X31160Y-22296D01*
X31061Y-22296D01*
X30970Y-22334D01*
X30900Y-22404D01*
X30730Y-22572D01*
X30730Y-22660D01*
X31040Y-22969D01*
X31420Y-22589D01*
X31420Y-22731D01*
X31111Y-23040D01*
X31420Y-23350D01*
X31508Y-23350D01*
X31676Y-23180D01*
X31746Y-23110D01*
X31784Y-23019D01*
X31784Y-23359D01*
X31350Y-23793D01*
X31350Y-23508D01*
X31350Y-23420D01*
X31040Y-23111D01*
X30969Y-23182D01*
X30969Y-23040D01*
X30660Y-22730D01*
X30572Y-22730D01*
X30404Y-22900D01*
X30334Y-22970D01*
X30296Y-23061D01*
X30296Y-23160D01*
X30334Y-23252D01*
X30501Y-23420D01*
X30589Y-23420D01*
X30969Y-23040D01*
X30969Y-23182D01*
X30660Y-23491D01*
X30660Y-23579D01*
X30828Y-23746D01*
X30920Y-23784D01*
X31019Y-23784D01*
X31110Y-23746D01*
X31180Y-23676D01*
X31350Y-23508D01*
X31350Y-23793D01*
X31254Y-23889D01*
X31216Y-23981D01*
X31216Y-24080D01*
X31254Y-24171D01*
X31324Y-24241D01*
X31453Y-24370D01*
X31409Y-24389D01*
X31339Y-24459D01*
X31301Y-24550D01*
X31301Y-24649D01*
X31301Y-25449D01*
X31339Y-25541D01*
X31352Y-25554D01*
X31344Y-25554D01*
X30558Y-25554D01*
X30466Y-25592D01*
X30396Y-25662D01*
X30379Y-25702D01*
X30379Y-24199D01*
X30379Y-24001D01*
X30303Y-23818D01*
X30163Y-23677D01*
X29979Y-23601D01*
X29781Y-23601D01*
X29598Y-23677D01*
X29464Y-23810D01*
X29025Y-23810D01*
X29025Y-16105D01*
X29025Y-15896D01*
X29019Y-15881D01*
X29019Y-14074D01*
X29008Y-13870D01*
X28952Y-13733D01*
X28861Y-13710D01*
X28790Y-13781D01*
X28790Y-13639D01*
X28767Y-13548D01*
X28574Y-13481D01*
X28370Y-13492D01*
X28233Y-13548D01*
X28210Y-13639D01*
X28500Y-13929D01*
X28790Y-13639D01*
X28790Y-13781D01*
X28571Y-14000D01*
X28861Y-14290D01*
X28952Y-14267D01*
X29019Y-14074D01*
X29019Y-15881D01*
X28945Y-15703D01*
X28798Y-15555D01*
X28790Y-15551D01*
X28790Y-14361D01*
X28500Y-14071D01*
X28429Y-14142D01*
X28429Y-14000D01*
X28139Y-13710D01*
X28048Y-13733D01*
X27981Y-13926D01*
X27992Y-14130D01*
X28048Y-14267D01*
X28139Y-14290D01*
X28429Y-14000D01*
X28429Y-14142D01*
X28210Y-14361D01*
X28233Y-14452D01*
X28426Y-14519D01*
X28630Y-14508D01*
X28767Y-14452D01*
X28790Y-14361D01*
X28790Y-15551D01*
X28605Y-15475D01*
X28396Y-15475D01*
X28203Y-15555D01*
X28055Y-15702D01*
X27975Y-15895D01*
X27975Y-16104D01*
X28055Y-16297D01*
X28202Y-16445D01*
X28395Y-16525D01*
X28604Y-16525D01*
X28797Y-16445D01*
X28945Y-16298D01*
X29025Y-16105D01*
X29025Y-23810D01*
X28320Y-23810D01*
X28226Y-23828D01*
X28208Y-23832D01*
X28114Y-23895D01*
X27799Y-24210D01*
X27507Y-24210D01*
X27549Y-24109D01*
X27549Y-23891D01*
X27465Y-23689D01*
X27311Y-23535D01*
X27226Y-23500D01*
X27311Y-23465D01*
X27465Y-23311D01*
X27549Y-23109D01*
X27549Y-22891D01*
X27465Y-22689D01*
X27311Y-22535D01*
X27226Y-22500D01*
X27311Y-22465D01*
X27465Y-22311D01*
X27549Y-22109D01*
X27549Y-21891D01*
X27465Y-21689D01*
X27311Y-21535D01*
X27226Y-21500D01*
X27311Y-21465D01*
X27465Y-21311D01*
X27549Y-21109D01*
X27549Y-20891D01*
X27465Y-20689D01*
X27311Y-20535D01*
X27226Y-20500D01*
X27311Y-20465D01*
X27465Y-20311D01*
X27549Y-20109D01*
X27549Y-19891D01*
X27465Y-19689D01*
X27311Y-19535D01*
X27226Y-19500D01*
X27311Y-19465D01*
X27465Y-19311D01*
X27549Y-19109D01*
X27549Y-18891D01*
X27465Y-18689D01*
X27311Y-18535D01*
X27226Y-18500D01*
X27311Y-18465D01*
X27465Y-18311D01*
X27549Y-18109D01*
X27549Y-17891D01*
X27465Y-17689D01*
X27311Y-17535D01*
X27226Y-17500D01*
X27311Y-17465D01*
X27465Y-17311D01*
X27549Y-17109D01*
X27549Y-16891D01*
X27465Y-16689D01*
X27311Y-16535D01*
X27226Y-16500D01*
X27311Y-16465D01*
X27465Y-16311D01*
X27549Y-16109D01*
X27549Y-15891D01*
X27465Y-15689D01*
X27311Y-15535D01*
X27226Y-15500D01*
X27311Y-15465D01*
X27465Y-15311D01*
X27549Y-15109D01*
X27549Y-14891D01*
X27543Y-14876D01*
X27543Y-14079D01*
X27532Y-13866D01*
X27472Y-13719D01*
X27378Y-13692D01*
X27071Y-14000D01*
X27378Y-14308D01*
X27472Y-14281D01*
X27543Y-14079D01*
X27543Y-14876D01*
X27465Y-14689D01*
X27311Y-14535D01*
X27219Y-14497D01*
X27281Y-14472D01*
X27308Y-14378D01*
X27000Y-14071D01*
X26692Y-14378D01*
X26719Y-14472D01*
X26784Y-14495D01*
X26689Y-14535D01*
X26535Y-14689D01*
X26500Y-14773D01*
X26465Y-14689D01*
X26311Y-14535D01*
X26226Y-14500D01*
X26311Y-14465D01*
X26465Y-14311D01*
X26502Y-14219D01*
X26528Y-14281D01*
X26622Y-14308D01*
X26929Y-14000D01*
X26622Y-13692D01*
X26528Y-13719D01*
X26504Y-13784D01*
X26465Y-13689D01*
X26311Y-13535D01*
X26226Y-13500D01*
X26311Y-13465D01*
X26450Y-13325D01*
X26451Y-13349D01*
X26489Y-13441D01*
X26559Y-13511D01*
X26650Y-13549D01*
X26712Y-13549D01*
X26692Y-13622D01*
X27000Y-13929D01*
X27308Y-13622D01*
X27287Y-13549D01*
X27350Y-13549D01*
X27441Y-13511D01*
X27511Y-13441D01*
X27549Y-13349D01*
X27550Y-13112D01*
X27550Y-12888D01*
X27549Y-12651D01*
X27511Y-12559D01*
X27441Y-12489D01*
X27350Y-12451D01*
X27251Y-12451D01*
X27112Y-12450D01*
X27050Y-12512D01*
X27050Y-12950D01*
X27488Y-12950D01*
X27550Y-12888D01*
X27550Y-13112D01*
X27488Y-13050D01*
X27100Y-13050D01*
X27050Y-13050D01*
X26950Y-13050D01*
X26950Y-12950D01*
X26950Y-12900D01*
X26950Y-12512D01*
X26888Y-12450D01*
X26749Y-12451D01*
X26650Y-12451D01*
X26559Y-12489D01*
X26489Y-12559D01*
X26451Y-12651D01*
X26450Y-12674D01*
X26311Y-12535D01*
X26109Y-12451D01*
X25891Y-12451D01*
X25689Y-12535D01*
X25535Y-12689D01*
X25451Y-12891D01*
X25451Y-13109D01*
X25535Y-13311D01*
X25689Y-13465D01*
X25773Y-13500D01*
X25689Y-13535D01*
X25535Y-13689D01*
X25451Y-13891D01*
X25451Y-14109D01*
X25535Y-14311D01*
X25689Y-14465D01*
X25773Y-14500D01*
X25689Y-14535D01*
X25535Y-14689D01*
X25451Y-14891D01*
X25451Y-15109D01*
X25535Y-15311D01*
X25689Y-15465D01*
X25773Y-15500D01*
X25689Y-15535D01*
X25535Y-15689D01*
X25451Y-15891D01*
X25451Y-16109D01*
X25535Y-16311D01*
X25689Y-16465D01*
X25773Y-16500D01*
X25689Y-16535D01*
X25535Y-16689D01*
X25451Y-16891D01*
X25451Y-17109D01*
X25535Y-17311D01*
X25689Y-17465D01*
X25773Y-17500D01*
X25689Y-17535D01*
X25535Y-17689D01*
X25451Y-17891D01*
X25451Y-18109D01*
X25535Y-18311D01*
X25689Y-18465D01*
X25773Y-18500D01*
X25689Y-18535D01*
X25535Y-18689D01*
X25451Y-18891D01*
X25451Y-19109D01*
X25535Y-19311D01*
X25689Y-19465D01*
X25773Y-19500D01*
X25689Y-19535D01*
X25535Y-19689D01*
X25451Y-19891D01*
X25451Y-20109D01*
X25535Y-20311D01*
X25689Y-20465D01*
X25773Y-20500D01*
X25689Y-20535D01*
X25535Y-20689D01*
X25451Y-20891D01*
X25451Y-21109D01*
X25535Y-21311D01*
X25689Y-21465D01*
X25773Y-21500D01*
X25689Y-21535D01*
X25535Y-21689D01*
X25451Y-21891D01*
X25451Y-22109D01*
X25535Y-22311D01*
X25689Y-22465D01*
X25773Y-22500D01*
X25689Y-22535D01*
X25535Y-22689D01*
X25451Y-22891D01*
X25451Y-23109D01*
X25535Y-23311D01*
X25689Y-23465D01*
X25773Y-23500D01*
X25689Y-23535D01*
X25535Y-23689D01*
X25451Y-23891D01*
X25451Y-24109D01*
X25535Y-24311D01*
X25689Y-24465D01*
X25773Y-24500D01*
X25689Y-24535D01*
X25535Y-24689D01*
X25451Y-24891D01*
X25451Y-25109D01*
X25535Y-25311D01*
X25689Y-25465D01*
X25773Y-25500D01*
X25689Y-25535D01*
X25535Y-25689D01*
X25451Y-25891D01*
X25451Y-26109D01*
X25535Y-26311D01*
X25689Y-26465D01*
X25773Y-26500D01*
X25689Y-26535D01*
X25535Y-26689D01*
X25451Y-26891D01*
X25451Y-27109D01*
X25535Y-27311D01*
X25689Y-27465D01*
X25773Y-27500D01*
X25689Y-27535D01*
X25535Y-27689D01*
X25451Y-27891D01*
X25451Y-28109D01*
X25535Y-28311D01*
X25689Y-28465D01*
X25773Y-28500D01*
X25689Y-28535D01*
X25535Y-28689D01*
X25451Y-28891D01*
X25451Y-29109D01*
X25535Y-29311D01*
X25689Y-29465D01*
X25773Y-29500D01*
X25689Y-29535D01*
X25535Y-29689D01*
X25451Y-29891D01*
X25451Y-30109D01*
X25535Y-30311D01*
X25689Y-30465D01*
X25773Y-30500D01*
X25689Y-30535D01*
X25535Y-30689D01*
X25451Y-30891D01*
X25451Y-31109D01*
X25535Y-31311D01*
X25689Y-31465D01*
X25773Y-31500D01*
X25689Y-31535D01*
X25535Y-31689D01*
X25451Y-31891D01*
X25451Y-32109D01*
X25535Y-32311D01*
X25689Y-32465D01*
X25891Y-32549D01*
X26109Y-32549D01*
X26311Y-32465D01*
X26465Y-32311D01*
X26500Y-32226D01*
X26535Y-32311D01*
X26689Y-32465D01*
X26891Y-32549D01*
X27109Y-32549D01*
X27311Y-32465D01*
X27465Y-32311D01*
X27549Y-32109D01*
X27549Y-31891D01*
X27465Y-31689D01*
X27311Y-31535D01*
X27226Y-31500D01*
X27311Y-31465D01*
X27465Y-31311D01*
X27549Y-31109D01*
X27549Y-30891D01*
X27465Y-30689D01*
X27311Y-30535D01*
X27226Y-30500D01*
X27311Y-30465D01*
X27465Y-30311D01*
X27549Y-30109D01*
X27549Y-29891D01*
X27465Y-29689D01*
X27311Y-29535D01*
X27226Y-29500D01*
X27311Y-29465D01*
X27465Y-29311D01*
X27549Y-29109D01*
X27549Y-28891D01*
X27465Y-28689D01*
X27311Y-28535D01*
X27226Y-28500D01*
X27311Y-28465D01*
X27465Y-28311D01*
X27549Y-28109D01*
X27549Y-27891D01*
X27465Y-27689D01*
X27311Y-27535D01*
X27226Y-27500D01*
X27311Y-27465D01*
X27465Y-27311D01*
X27549Y-27109D01*
X27549Y-26891D01*
X27465Y-26689D01*
X27311Y-26535D01*
X27226Y-26500D01*
X27311Y-26465D01*
X27465Y-26311D01*
X27549Y-26109D01*
X27549Y-25891D01*
X27465Y-25689D01*
X27311Y-25535D01*
X27226Y-25500D01*
X27311Y-25465D01*
X27465Y-25311D01*
X27549Y-25109D01*
X27549Y-24891D01*
X27507Y-24790D01*
X27920Y-24790D01*
X28031Y-24768D01*
X28125Y-24705D01*
X28440Y-24390D01*
X29464Y-24390D01*
X29597Y-24523D01*
X29781Y-24599D01*
X29979Y-24599D01*
X30162Y-24523D01*
X30303Y-24383D01*
X30379Y-24199D01*
X30379Y-25702D01*
X30358Y-25753D01*
X30358Y-25852D01*
X30358Y-26246D01*
X30359Y-26249D01*
X30358Y-26253D01*
X30358Y-26352D01*
X30358Y-26746D01*
X30359Y-26749D01*
X30358Y-26753D01*
X30358Y-26852D01*
X30358Y-27246D01*
X30359Y-27249D01*
X30358Y-27253D01*
X30358Y-27352D01*
X30358Y-27746D01*
X30396Y-27838D01*
X30466Y-27908D01*
X30557Y-27946D01*
X30656Y-27946D01*
X31373Y-27946D01*
X31351Y-28000D01*
X31351Y-28099D01*
X31351Y-28699D01*
X31389Y-28791D01*
X31459Y-28861D01*
X31550Y-28899D01*
X31649Y-28899D01*
X32399Y-28899D01*
X32389Y-28909D01*
X32351Y-29000D01*
X32351Y-29099D01*
X32351Y-29101D01*
X32112Y-29100D01*
X32050Y-29162D01*
X32050Y-29550D01*
X32050Y-29600D01*
X32050Y-29700D01*
X32050Y-29750D01*
X32050Y-30138D01*
X32112Y-30200D01*
X32351Y-30199D01*
X32399Y-30199D01*
X32389Y-30209D01*
X32351Y-30301D01*
X32350Y-30538D01*
X32412Y-30600D01*
X32950Y-30600D01*
X32950Y-30162D01*
X32888Y-30100D01*
X32649Y-30101D01*
X32601Y-30101D01*
X32611Y-30091D01*
X32649Y-29999D01*
X32649Y-29899D01*
X33449Y-29899D01*
X33541Y-29861D01*
X33611Y-29791D01*
X33649Y-29700D01*
X33649Y-29601D01*
X33649Y-29001D01*
X33611Y-28909D01*
X33541Y-28839D01*
X33450Y-28801D01*
X33351Y-28801D01*
X32601Y-28801D01*
X32611Y-28791D01*
X32649Y-28700D01*
X32649Y-28601D01*
X32649Y-28001D01*
X32611Y-27909D01*
X32541Y-27839D01*
X32450Y-27801D01*
X32351Y-27801D01*
X31619Y-27801D01*
X31642Y-27747D01*
X31642Y-27648D01*
X31642Y-27254D01*
X31640Y-27250D01*
X31642Y-27247D01*
X31642Y-27148D01*
X31642Y-26754D01*
X31640Y-26750D01*
X31642Y-26747D01*
X31642Y-26648D01*
X31642Y-26254D01*
X31640Y-26250D01*
X31642Y-26247D01*
X31642Y-26148D01*
X31642Y-25754D01*
X31604Y-25662D01*
X31591Y-25649D01*
X31599Y-25649D01*
X31801Y-25649D01*
X31801Y-26449D01*
X31821Y-26499D01*
X31801Y-26550D01*
X31801Y-26649D01*
X31801Y-27449D01*
X31839Y-27541D01*
X31909Y-27611D01*
X32000Y-27649D01*
X32099Y-27649D01*
X32699Y-27649D01*
X32791Y-27611D01*
X32861Y-27541D01*
X32899Y-27450D01*
X32899Y-27351D01*
X32899Y-26551D01*
X32878Y-26500D01*
X32899Y-26450D01*
X32899Y-26351D01*
X32899Y-25649D01*
X33101Y-25649D01*
X33101Y-26449D01*
X33121Y-26499D01*
X33101Y-26550D01*
X33101Y-26649D01*
X33101Y-27449D01*
X33139Y-27541D01*
X33209Y-27611D01*
X33300Y-27649D01*
X33399Y-27649D01*
X33999Y-27649D01*
X34091Y-27611D01*
X34161Y-27541D01*
X34199Y-27450D01*
X34199Y-33275D01*
X34118Y-33299D01*
X34047Y-33501D01*
X34058Y-33714D01*
X34118Y-33861D01*
X34212Y-33888D01*
X34519Y-33580D01*
X34519Y-33721D01*
X34282Y-33958D01*
X34302Y-34031D01*
X34241Y-34031D01*
X34149Y-34069D01*
X34079Y-34139D01*
X34041Y-34230D01*
X34041Y-34329D01*
X34041Y-34929D01*
X34079Y-35021D01*
X34149Y-35091D01*
X34240Y-35129D01*
X34339Y-35129D01*
X34939Y-35129D01*
X35031Y-35091D01*
X35101Y-35021D01*
X35139Y-34930D01*
X35139Y-34905D01*
X35279Y-35045D01*
X35481Y-35129D01*
X35699Y-35129D01*
X35901Y-35045D01*
X36055Y-34891D01*
X36090Y-34806D01*
X36125Y-34891D01*
X36279Y-35045D01*
X36481Y-35129D01*
X36699Y-35129D01*
X36901Y-35045D01*
X37055Y-34891D01*
X37139Y-34689D01*
X37139Y-36450D01*
X33650Y-36450D01*
X33650Y-30762D01*
X33650Y-30538D01*
X33649Y-30301D01*
X33611Y-30209D01*
X33541Y-30139D01*
X33450Y-30101D01*
X33351Y-30101D01*
X33112Y-30100D01*
X33050Y-30162D01*
X33050Y-30600D01*
X33588Y-30600D01*
X33650Y-30538D01*
X33650Y-30762D01*
X33588Y-30700D01*
X33050Y-30700D01*
X33050Y-31138D01*
X33112Y-31200D01*
X33351Y-31199D01*
X33450Y-31199D01*
X33541Y-31161D01*
X33611Y-31091D01*
X33649Y-30999D01*
X33650Y-30762D01*
X33650Y-36450D01*
X32950Y-36450D01*
X32950Y-31138D01*
X32950Y-30700D01*
X32412Y-30700D01*
X32350Y-30762D01*
X32351Y-30999D01*
X32389Y-31091D01*
X32459Y-31161D01*
X32550Y-31199D01*
X32649Y-31199D01*
X32888Y-31200D01*
X32950Y-31138D01*
X32950Y-36450D01*
X32699Y-36450D01*
X32699Y-35450D01*
X32699Y-35351D01*
X32699Y-34551D01*
X32678Y-34500D01*
X32699Y-34450D01*
X32699Y-34351D01*
X32699Y-33551D01*
X32678Y-33500D01*
X32699Y-33450D01*
X32699Y-33351D01*
X32699Y-32551D01*
X32661Y-32459D01*
X32591Y-32389D01*
X32500Y-32351D01*
X32401Y-32351D01*
X31950Y-32351D01*
X31950Y-30138D01*
X31950Y-29700D01*
X31950Y-29600D01*
X31950Y-29162D01*
X31888Y-29100D01*
X31649Y-29101D01*
X31550Y-29101D01*
X31459Y-29139D01*
X31389Y-29209D01*
X31351Y-29301D01*
X31350Y-29538D01*
X31412Y-29600D01*
X31950Y-29600D01*
X31950Y-29700D01*
X31412Y-29700D01*
X31350Y-29762D01*
X31351Y-29999D01*
X31389Y-30091D01*
X31459Y-30161D01*
X31550Y-30199D01*
X31649Y-30199D01*
X31888Y-30200D01*
X31950Y-30138D01*
X31950Y-32351D01*
X31801Y-32351D01*
X31709Y-32389D01*
X31639Y-32459D01*
X31601Y-32550D01*
X31601Y-32649D01*
X31601Y-33449D01*
X31621Y-33499D01*
X31601Y-33550D01*
X31601Y-33649D01*
X31601Y-34449D01*
X31621Y-34499D01*
X31601Y-34550D01*
X31601Y-34649D01*
X31601Y-35449D01*
X31639Y-35541D01*
X31709Y-35611D01*
X31800Y-35649D01*
X31899Y-35649D01*
X32499Y-35649D01*
X32591Y-35611D01*
X32661Y-35541D01*
X32699Y-35450D01*
X32699Y-36450D01*
X31399Y-36450D01*
X31399Y-35450D01*
X31399Y-35351D01*
X31399Y-34551D01*
X31378Y-34500D01*
X31399Y-34450D01*
X31399Y-34351D01*
X31399Y-33551D01*
X31378Y-33500D01*
X31399Y-33450D01*
X31399Y-33351D01*
X31399Y-32551D01*
X31361Y-32459D01*
X31291Y-32389D01*
X31200Y-32351D01*
X31199Y-32351D01*
X31199Y-30450D01*
X31199Y-30351D01*
X31199Y-29551D01*
X31161Y-29459D01*
X31091Y-29389D01*
X31000Y-29351D01*
X30901Y-29351D01*
X30642Y-29351D01*
X30642Y-28747D01*
X30642Y-28648D01*
X30642Y-28254D01*
X30604Y-28162D01*
X30534Y-28092D01*
X30443Y-28054D01*
X30344Y-28054D01*
X30148Y-28054D01*
X30161Y-28041D01*
X30199Y-27950D01*
X30199Y-27851D01*
X30199Y-27051D01*
X30178Y-27000D01*
X30199Y-26950D01*
X30199Y-26851D01*
X30200Y-26612D01*
X30200Y-26388D01*
X30199Y-26149D01*
X30199Y-26050D01*
X30161Y-25959D01*
X30091Y-25889D01*
X29999Y-25851D01*
X29762Y-25850D01*
X29700Y-25912D01*
X29700Y-26450D01*
X30138Y-26450D01*
X30200Y-26388D01*
X30200Y-26612D01*
X30138Y-26550D01*
X29750Y-26550D01*
X29700Y-26550D01*
X29600Y-26550D01*
X29600Y-26450D01*
X29600Y-25912D01*
X29538Y-25850D01*
X29301Y-25851D01*
X29209Y-25889D01*
X29139Y-25959D01*
X29101Y-26050D01*
X29101Y-26149D01*
X29100Y-26388D01*
X29162Y-26450D01*
X29600Y-26450D01*
X29600Y-26550D01*
X29550Y-26550D01*
X29162Y-26550D01*
X29100Y-26612D01*
X29101Y-26851D01*
X29101Y-26950D01*
X29121Y-27000D01*
X29101Y-27050D01*
X29101Y-27149D01*
X29101Y-27949D01*
X29139Y-28041D01*
X29209Y-28111D01*
X29300Y-28149D01*
X29399Y-28149D01*
X29409Y-28149D01*
X29396Y-28162D01*
X29358Y-28253D01*
X29358Y-28352D01*
X29358Y-28746D01*
X29396Y-28838D01*
X29466Y-28908D01*
X29557Y-28946D01*
X29656Y-28946D01*
X30442Y-28946D01*
X30534Y-28908D01*
X30604Y-28838D01*
X30642Y-28747D01*
X30642Y-29351D01*
X30301Y-29351D01*
X30209Y-29389D01*
X30139Y-29459D01*
X30115Y-29515D01*
X29884Y-29515D01*
X29861Y-29459D01*
X29791Y-29389D01*
X29700Y-29351D01*
X29601Y-29351D01*
X29001Y-29351D01*
X28909Y-29389D01*
X28899Y-29399D01*
X28899Y-27950D01*
X28899Y-27851D01*
X28899Y-27051D01*
X28878Y-27000D01*
X28899Y-26950D01*
X28899Y-26851D01*
X28899Y-26051D01*
X28861Y-25959D01*
X28791Y-25889D01*
X28700Y-25851D01*
X28601Y-25851D01*
X28001Y-25851D01*
X27909Y-25889D01*
X27839Y-25959D01*
X27801Y-26050D01*
X27801Y-26149D01*
X27801Y-26949D01*
X27821Y-26999D01*
X27801Y-27050D01*
X27801Y-27149D01*
X27801Y-27949D01*
X27839Y-28041D01*
X27909Y-28111D01*
X28000Y-28149D01*
X28099Y-28149D01*
X28699Y-28149D01*
X28791Y-28111D01*
X28861Y-28041D01*
X28899Y-27950D01*
X28899Y-29399D01*
X28839Y-29459D01*
X28801Y-29550D01*
X28801Y-29649D01*
X28801Y-30449D01*
X28839Y-30541D01*
X28909Y-30611D01*
X29000Y-30649D01*
X29099Y-30649D01*
X29699Y-30649D01*
X29791Y-30611D01*
X29861Y-30541D01*
X29899Y-30450D01*
X29899Y-30407D01*
X30101Y-30407D01*
X30101Y-30449D01*
X30139Y-30541D01*
X30209Y-30611D01*
X30300Y-30649D01*
X30399Y-30649D01*
X30999Y-30649D01*
X31091Y-30611D01*
X31161Y-30541D01*
X31199Y-30450D01*
X31199Y-32351D01*
X31101Y-32351D01*
X30501Y-32351D01*
X30409Y-32389D01*
X30339Y-32459D01*
X30301Y-32550D01*
X30301Y-32649D01*
X30301Y-33449D01*
X30321Y-33499D01*
X30301Y-33550D01*
X30301Y-33649D01*
X30301Y-34449D01*
X30321Y-34499D01*
X30301Y-34550D01*
X30301Y-34649D01*
X30301Y-35449D01*
X30339Y-35541D01*
X30409Y-35611D01*
X30500Y-35649D01*
X30599Y-35649D01*
X31199Y-35649D01*
X31291Y-35611D01*
X31361Y-35541D01*
X31399Y-35450D01*
X31399Y-36450D01*
X24050Y-36450D01*
X24050Y-11050D01*
X46950Y-11050D01*
X46950Y-36450D01*
X46950Y-36450D01*
G37*
G54D20*
X46950Y-36450D02*
X45049Y-36450D01*
X45049Y-31609D01*
X45049Y-31391D01*
X44965Y-31189D01*
X44811Y-31035D01*
X44726Y-31000D01*
X44811Y-30965D01*
X44965Y-30811D01*
X45049Y-30609D01*
X45049Y-30391D01*
X44965Y-30189D01*
X44811Y-30035D01*
X44726Y-30000D01*
X44811Y-29965D01*
X44965Y-29811D01*
X45049Y-29609D01*
X45049Y-29391D01*
X44965Y-29189D01*
X44811Y-29035D01*
X44726Y-29000D01*
X44811Y-28965D01*
X44965Y-28811D01*
X45049Y-28609D01*
X45049Y-28391D01*
X44965Y-28189D01*
X44811Y-28035D01*
X44726Y-28000D01*
X44811Y-27965D01*
X44965Y-27811D01*
X45049Y-27609D01*
X45049Y-27391D01*
X44965Y-27189D01*
X44811Y-27035D01*
X44726Y-27000D01*
X44811Y-26965D01*
X44965Y-26811D01*
X45049Y-26609D01*
X45049Y-26391D01*
X44965Y-26189D01*
X44811Y-26035D01*
X44726Y-26000D01*
X44811Y-25965D01*
X44965Y-25811D01*
X45049Y-25609D01*
X45049Y-25391D01*
X44965Y-25189D01*
X44811Y-25035D01*
X44726Y-25000D01*
X44811Y-24965D01*
X44965Y-24811D01*
X45049Y-24609D01*
X45049Y-24391D01*
X44965Y-24189D01*
X44811Y-24035D01*
X44726Y-24000D01*
X44811Y-23965D01*
X44965Y-23811D01*
X45049Y-23609D01*
X45049Y-23391D01*
X45043Y-23376D01*
X45043Y-22579D01*
X45043Y-21579D01*
X45032Y-21366D01*
X44972Y-21219D01*
X44878Y-21192D01*
X44571Y-21500D01*
X44878Y-21808D01*
X44972Y-21781D01*
X45043Y-21579D01*
X45043Y-22579D01*
X45032Y-22366D01*
X44972Y-22219D01*
X44878Y-22192D01*
X44808Y-22262D01*
X44808Y-22122D01*
X44781Y-22028D01*
X44707Y-22002D01*
X44781Y-21972D01*
X44808Y-21878D01*
X44500Y-21571D01*
X44192Y-21878D01*
X44219Y-21972D01*
X44292Y-21997D01*
X44219Y-22028D01*
X44192Y-22122D01*
X44500Y-22429D01*
X44808Y-22122D01*
X44808Y-22262D01*
X44571Y-22500D01*
X44878Y-22808D01*
X44972Y-22781D01*
X45043Y-22579D01*
X45043Y-23376D01*
X44965Y-23189D01*
X44811Y-23035D01*
X44719Y-22997D01*
X44781Y-22972D01*
X44808Y-22878D01*
X44500Y-22571D01*
X44192Y-22878D01*
X44219Y-22972D01*
X44284Y-22995D01*
X44189Y-23035D01*
X44035Y-23189D01*
X44000Y-23273D01*
X43965Y-23189D01*
X43811Y-23035D01*
X43726Y-23000D01*
X43811Y-22965D01*
X43965Y-22811D01*
X44002Y-22719D01*
X44028Y-22781D01*
X44122Y-22808D01*
X44429Y-22500D01*
X44122Y-22192D01*
X44028Y-22219D01*
X44004Y-22284D01*
X43965Y-22189D01*
X43811Y-22035D01*
X43726Y-22000D01*
X43811Y-21965D01*
X43965Y-21811D01*
X44002Y-21719D01*
X44028Y-21781D01*
X44122Y-21808D01*
X44429Y-21500D01*
X44122Y-21192D01*
X44028Y-21219D01*
X44004Y-21284D01*
X43965Y-21189D01*
X43811Y-21035D01*
X43726Y-21000D01*
X43811Y-20965D01*
X43965Y-20811D01*
X44000Y-20726D01*
X44035Y-20811D01*
X44189Y-20965D01*
X44280Y-21002D01*
X44219Y-21028D01*
X44192Y-21122D01*
X44500Y-21429D01*
X44808Y-21122D01*
X44781Y-21028D01*
X44715Y-21004D01*
X44811Y-20965D01*
X44965Y-20811D01*
X45049Y-20609D01*
X45049Y-20391D01*
X44965Y-20189D01*
X44811Y-20035D01*
X44726Y-20000D01*
X44811Y-19965D01*
X44965Y-19811D01*
X45049Y-19609D01*
X45049Y-19391D01*
X44965Y-19189D01*
X44811Y-19035D01*
X44726Y-19000D01*
X44811Y-18965D01*
X44965Y-18811D01*
X45049Y-18609D01*
X45049Y-18391D01*
X44965Y-18189D01*
X44811Y-18035D01*
X44726Y-18000D01*
X44811Y-17965D01*
X44965Y-17811D01*
X45049Y-17609D01*
X45049Y-17391D01*
X44965Y-17189D01*
X44811Y-17035D01*
X44726Y-17000D01*
X44811Y-16965D01*
X44965Y-16811D01*
X45049Y-16609D01*
X45049Y-16391D01*
X44965Y-16189D01*
X44811Y-16035D01*
X44726Y-16000D01*
X44811Y-15965D01*
X44965Y-15811D01*
X45049Y-15609D01*
X45049Y-15391D01*
X44965Y-15189D01*
X44811Y-15035D01*
X44726Y-15000D01*
X44811Y-14965D01*
X44965Y-14811D01*
X45049Y-14609D01*
X45049Y-14391D01*
X44965Y-14189D01*
X44811Y-14035D01*
X44726Y-14000D01*
X44811Y-13965D01*
X44965Y-13811D01*
X45049Y-13609D01*
X45049Y-13391D01*
X44965Y-13189D01*
X44811Y-13035D01*
X44726Y-13000D01*
X44811Y-12965D01*
X44965Y-12811D01*
X45049Y-12609D01*
X45049Y-12391D01*
X44965Y-12189D01*
X44811Y-12035D01*
X44609Y-11951D01*
X44391Y-11951D01*
X44189Y-12035D01*
X44035Y-12189D01*
X44000Y-12273D01*
X43965Y-12189D01*
X43811Y-12035D01*
X43609Y-11951D01*
X43391Y-11951D01*
X43189Y-12035D01*
X43035Y-12189D01*
X42951Y-12391D01*
X42951Y-12609D01*
X43035Y-12811D01*
X43189Y-12965D01*
X43273Y-13000D01*
X43189Y-13035D01*
X43035Y-13189D01*
X42951Y-13391D01*
X42951Y-13609D01*
X43035Y-13811D01*
X43189Y-13965D01*
X43273Y-14000D01*
X43189Y-14035D01*
X43035Y-14189D01*
X42951Y-14391D01*
X42951Y-14609D01*
X43035Y-14811D01*
X43189Y-14965D01*
X43273Y-15000D01*
X43189Y-15035D01*
X43035Y-15189D01*
X42951Y-15391D01*
X42951Y-15609D01*
X43035Y-15811D01*
X43189Y-15965D01*
X43273Y-16000D01*
X43189Y-16035D01*
X43035Y-16189D01*
X42951Y-16391D01*
X42951Y-16609D01*
X43035Y-16811D01*
X43189Y-16965D01*
X43273Y-17000D01*
X43189Y-17035D01*
X43035Y-17189D01*
X42951Y-17391D01*
X42951Y-17609D01*
X43035Y-17811D01*
X43189Y-17965D01*
X43273Y-18000D01*
X43189Y-18035D01*
X43035Y-18189D01*
X42951Y-18391D01*
X42951Y-18609D01*
X43035Y-18811D01*
X43189Y-18965D01*
X43273Y-19000D01*
X43189Y-19035D01*
X43035Y-19189D01*
X42951Y-19391D01*
X42951Y-19609D01*
X43035Y-19811D01*
X43189Y-19965D01*
X43273Y-20000D01*
X43189Y-20035D01*
X43035Y-20189D01*
X42951Y-20391D01*
X42951Y-20609D01*
X43035Y-20811D01*
X43189Y-20965D01*
X43273Y-21000D01*
X43189Y-21035D01*
X43035Y-21189D01*
X42951Y-21391D01*
X42951Y-21609D01*
X43035Y-21811D01*
X43189Y-21965D01*
X43273Y-22000D01*
X43189Y-22035D01*
X43035Y-22189D01*
X42951Y-22391D01*
X42951Y-22609D01*
X43035Y-22811D01*
X43189Y-22965D01*
X43273Y-23000D01*
X43189Y-23035D01*
X43035Y-23189D01*
X42951Y-23391D01*
X42951Y-23609D01*
X43035Y-23811D01*
X43189Y-23965D01*
X43273Y-24000D01*
X43189Y-24035D01*
X43035Y-24189D01*
X42951Y-24391D01*
X42951Y-24609D01*
X43035Y-24811D01*
X43189Y-24965D01*
X43273Y-25000D01*
X43189Y-25035D01*
X43035Y-25189D01*
X42951Y-25391D01*
X42951Y-25609D01*
X43035Y-25811D01*
X43189Y-25965D01*
X43273Y-26000D01*
X43189Y-26035D01*
X43035Y-26189D01*
X42951Y-26391D01*
X42951Y-26609D01*
X43035Y-26811D01*
X43189Y-26965D01*
X43273Y-27000D01*
X43189Y-27035D01*
X43035Y-27189D01*
X42951Y-27391D01*
X42951Y-27609D01*
X43035Y-27811D01*
X43189Y-27965D01*
X43273Y-28000D01*
X43189Y-28035D01*
X43035Y-28189D01*
X42951Y-28391D01*
X42951Y-28609D01*
X43035Y-28811D01*
X43189Y-28965D01*
X43273Y-29000D01*
X43189Y-29035D01*
X43035Y-29189D01*
X42951Y-29391D01*
X42951Y-29609D01*
X43035Y-29811D01*
X43189Y-29965D01*
X43273Y-30000D01*
X43189Y-30035D01*
X43035Y-30189D01*
X42951Y-30391D01*
X42951Y-30609D01*
X43035Y-30811D01*
X43175Y-30951D01*
X43150Y-30951D01*
X43059Y-30989D01*
X42989Y-31059D01*
X42951Y-31151D01*
X42950Y-31388D01*
X43012Y-31450D01*
X43400Y-31450D01*
X43450Y-31450D01*
X43550Y-31450D01*
X43550Y-31550D01*
X43550Y-31600D01*
X43550Y-31988D01*
X43612Y-32050D01*
X43751Y-32049D01*
X43850Y-32049D01*
X43941Y-32011D01*
X44011Y-31941D01*
X44049Y-31849D01*
X44049Y-31825D01*
X44189Y-31965D01*
X44391Y-32049D01*
X44609Y-32049D01*
X44811Y-31965D01*
X44965Y-31811D01*
X45049Y-31609D01*
X45049Y-36450D01*
X43450Y-36450D01*
X43450Y-31988D01*
X43450Y-31550D01*
X43012Y-31550D01*
X42950Y-31612D01*
X42951Y-31849D01*
X42989Y-31941D01*
X43059Y-32011D01*
X43150Y-32049D01*
X43249Y-32049D01*
X43388Y-32050D01*
X43450Y-31988D01*
X43450Y-36450D01*
X42700Y-36450D01*
X42700Y-25612D01*
X42700Y-25388D01*
X42699Y-25149D01*
X42699Y-25050D01*
X42678Y-25000D01*
X42699Y-24950D01*
X42699Y-24851D01*
X42700Y-24612D01*
X42700Y-24388D01*
X42699Y-24149D01*
X42699Y-24050D01*
X42661Y-23959D01*
X42591Y-23889D01*
X42499Y-23851D01*
X42262Y-23850D01*
X42200Y-23912D01*
X42200Y-24450D01*
X42638Y-24450D01*
X42700Y-24388D01*
X42700Y-24612D01*
X42638Y-24550D01*
X42200Y-24550D01*
X42200Y-24912D01*
X42200Y-25088D01*
X42200Y-25450D01*
X42638Y-25450D01*
X42700Y-25388D01*
X42700Y-25612D01*
X42638Y-25550D01*
X42250Y-25550D01*
X42200Y-25550D01*
X42100Y-25550D01*
X42100Y-25450D01*
X42100Y-25088D01*
X42100Y-24912D01*
X42100Y-24550D01*
X42100Y-24450D01*
X42100Y-23912D01*
X42038Y-23850D01*
X41801Y-23851D01*
X41709Y-23889D01*
X41639Y-23959D01*
X41601Y-24050D01*
X41601Y-24149D01*
X41600Y-24388D01*
X41662Y-24450D01*
X42100Y-24450D01*
X42100Y-24550D01*
X41662Y-24550D01*
X41600Y-24612D01*
X41601Y-24851D01*
X41601Y-24950D01*
X41621Y-25000D01*
X41601Y-25050D01*
X41601Y-25149D01*
X41600Y-25388D01*
X41662Y-25450D01*
X42100Y-25450D01*
X42100Y-25550D01*
X42050Y-25550D01*
X41662Y-25550D01*
X41600Y-25612D01*
X41601Y-25851D01*
X41601Y-25950D01*
X41621Y-26000D01*
X41601Y-26050D01*
X41601Y-26149D01*
X41601Y-26949D01*
X41639Y-27041D01*
X41709Y-27111D01*
X41800Y-27149D01*
X41899Y-27149D01*
X42499Y-27149D01*
X42591Y-27111D01*
X42661Y-27041D01*
X42699Y-26950D01*
X42699Y-26851D01*
X42699Y-26051D01*
X42678Y-26000D01*
X42699Y-25950D01*
X42699Y-25851D01*
X42700Y-25612D01*
X42700Y-36450D01*
X42150Y-36450D01*
X42150Y-30462D01*
X42150Y-30238D01*
X42150Y-29262D01*
X42150Y-29038D01*
X42149Y-28801D01*
X42149Y-28200D01*
X42149Y-28101D01*
X42149Y-27501D01*
X42111Y-27409D01*
X42041Y-27339D01*
X41950Y-27301D01*
X41851Y-27301D01*
X41399Y-27301D01*
X41399Y-26950D01*
X41399Y-26851D01*
X41399Y-26051D01*
X41378Y-26000D01*
X41399Y-25950D01*
X41399Y-25851D01*
X41399Y-25051D01*
X41378Y-25000D01*
X41399Y-24950D01*
X41399Y-24851D01*
X41399Y-24051D01*
X41361Y-23959D01*
X41291Y-23889D01*
X41200Y-23851D01*
X41101Y-23851D01*
X40699Y-23851D01*
X40699Y-22450D01*
X40699Y-22351D01*
X40699Y-21551D01*
X40699Y-20950D01*
X40699Y-20851D01*
X40699Y-20051D01*
X40661Y-19959D01*
X40591Y-19889D01*
X40500Y-19851D01*
X40401Y-19851D01*
X39801Y-19851D01*
X39709Y-19889D01*
X39639Y-19959D01*
X39615Y-20015D01*
X39384Y-20015D01*
X39361Y-19959D01*
X39291Y-19889D01*
X39200Y-19851D01*
X39101Y-19851D01*
X38501Y-19851D01*
X38409Y-19889D01*
X38339Y-19959D01*
X38301Y-20050D01*
X38301Y-20149D01*
X38301Y-20949D01*
X38339Y-21041D01*
X38409Y-21111D01*
X38500Y-21149D01*
X38599Y-21149D01*
X39199Y-21149D01*
X39291Y-21111D01*
X39361Y-21041D01*
X39399Y-20950D01*
X39399Y-20907D01*
X39601Y-20907D01*
X39601Y-20949D01*
X39639Y-21041D01*
X39709Y-21111D01*
X39800Y-21149D01*
X39899Y-21149D01*
X40499Y-21149D01*
X40591Y-21111D01*
X40661Y-21041D01*
X40699Y-20950D01*
X40699Y-21551D01*
X40661Y-21459D01*
X40591Y-21389D01*
X40500Y-21351D01*
X40401Y-21351D01*
X39801Y-21351D01*
X39709Y-21389D01*
X39639Y-21459D01*
X39615Y-21515D01*
X39384Y-21515D01*
X39361Y-21459D01*
X39291Y-21389D01*
X39200Y-21351D01*
X39101Y-21351D01*
X38501Y-21351D01*
X38409Y-21389D01*
X38339Y-21459D01*
X38301Y-21550D01*
X38301Y-21649D01*
X38301Y-22449D01*
X38339Y-22541D01*
X38409Y-22611D01*
X38500Y-22649D01*
X38599Y-22649D01*
X39199Y-22649D01*
X39291Y-22611D01*
X39361Y-22541D01*
X39399Y-22450D01*
X39399Y-22407D01*
X39601Y-22407D01*
X39601Y-22449D01*
X39639Y-22541D01*
X39709Y-22611D01*
X39800Y-22649D01*
X39899Y-22649D01*
X40499Y-22649D01*
X40591Y-22611D01*
X40661Y-22541D01*
X40699Y-22450D01*
X40699Y-23851D01*
X40501Y-23851D01*
X40409Y-23889D01*
X40339Y-23959D01*
X40301Y-24050D01*
X40301Y-24149D01*
X40301Y-24949D01*
X40321Y-24999D01*
X40301Y-25050D01*
X40301Y-25149D01*
X40301Y-25949D01*
X40321Y-25999D01*
X40301Y-26050D01*
X40301Y-26149D01*
X40301Y-26949D01*
X40339Y-27041D01*
X40409Y-27111D01*
X40500Y-27149D01*
X40599Y-27149D01*
X41199Y-27149D01*
X41291Y-27111D01*
X41361Y-27041D01*
X41399Y-26950D01*
X41399Y-27301D01*
X41051Y-27301D01*
X40959Y-27339D01*
X40889Y-27409D01*
X40851Y-27500D01*
X40851Y-27599D01*
X40851Y-28199D01*
X40889Y-28291D01*
X40959Y-28361D01*
X41050Y-28399D01*
X41149Y-28399D01*
X41949Y-28399D01*
X42041Y-28361D01*
X42111Y-28291D01*
X42149Y-28200D01*
X42149Y-28801D01*
X42111Y-28709D01*
X42041Y-28639D01*
X41950Y-28601D01*
X41851Y-28601D01*
X41612Y-28600D01*
X41550Y-28662D01*
X41550Y-29100D01*
X42088Y-29100D01*
X42150Y-29038D01*
X42150Y-29262D01*
X42088Y-29200D01*
X41550Y-29200D01*
X41550Y-29638D01*
X41612Y-29700D01*
X41851Y-29699D01*
X41950Y-29699D01*
X42041Y-29661D01*
X42111Y-29591D01*
X42149Y-29499D01*
X42150Y-29262D01*
X42150Y-30238D01*
X42149Y-30001D01*
X42111Y-29909D01*
X42041Y-29839D01*
X41950Y-29801D01*
X41851Y-29801D01*
X41612Y-29800D01*
X41550Y-29862D01*
X41550Y-30300D01*
X42088Y-30300D01*
X42150Y-30238D01*
X42150Y-30462D01*
X42088Y-30400D01*
X41550Y-30400D01*
X41550Y-30838D01*
X41612Y-30900D01*
X41851Y-30899D01*
X41950Y-30899D01*
X42041Y-30861D01*
X42111Y-30791D01*
X42149Y-30699D01*
X42150Y-30462D01*
X42150Y-36450D01*
X42149Y-36450D01*
X42149Y-32000D01*
X42149Y-31901D01*
X42149Y-31301D01*
X42111Y-31209D01*
X42041Y-31139D01*
X41950Y-31101D01*
X41851Y-31101D01*
X41450Y-31101D01*
X41450Y-30838D01*
X41450Y-30400D01*
X41450Y-30300D01*
X41450Y-29862D01*
X41450Y-29638D01*
X41450Y-29200D01*
X41450Y-29100D01*
X41450Y-28662D01*
X41388Y-28600D01*
X41149Y-28601D01*
X41050Y-28601D01*
X40959Y-28639D01*
X40889Y-28709D01*
X40851Y-28801D01*
X40850Y-29038D01*
X40912Y-29100D01*
X41450Y-29100D01*
X41450Y-29200D01*
X40912Y-29200D01*
X40850Y-29262D01*
X40851Y-29499D01*
X40889Y-29591D01*
X40959Y-29661D01*
X41050Y-29699D01*
X41149Y-29699D01*
X41388Y-29700D01*
X41450Y-29638D01*
X41450Y-29862D01*
X41388Y-29800D01*
X41149Y-29801D01*
X41050Y-29801D01*
X40959Y-29839D01*
X40889Y-29909D01*
X40851Y-30001D01*
X40850Y-30238D01*
X40912Y-30300D01*
X41450Y-30300D01*
X41450Y-30400D01*
X40912Y-30400D01*
X40850Y-30462D01*
X40851Y-30699D01*
X40889Y-30791D01*
X40959Y-30861D01*
X41050Y-30899D01*
X41149Y-30899D01*
X41388Y-30900D01*
X41450Y-30838D01*
X41450Y-31101D01*
X41051Y-31101D01*
X40959Y-31139D01*
X40889Y-31209D01*
X40851Y-31300D01*
X40851Y-31399D01*
X40851Y-31999D01*
X40889Y-32091D01*
X40959Y-32161D01*
X41050Y-32199D01*
X41149Y-32199D01*
X41949Y-32199D01*
X42041Y-32161D01*
X42111Y-32091D01*
X42149Y-32000D01*
X42149Y-36450D01*
X40142Y-36450D01*
X40142Y-32482D01*
X40142Y-32383D01*
X40142Y-30219D01*
X40142Y-28782D01*
X40142Y-28683D01*
X40142Y-26519D01*
X40104Y-26427D01*
X40034Y-26357D01*
X39943Y-26319D01*
X39844Y-26319D01*
X39699Y-26319D01*
X39699Y-25950D01*
X39699Y-25851D01*
X39699Y-25051D01*
X39678Y-25000D01*
X39699Y-24950D01*
X39699Y-24851D01*
X39699Y-24051D01*
X39661Y-23959D01*
X39591Y-23889D01*
X39500Y-23851D01*
X39401Y-23851D01*
X38801Y-23851D01*
X38709Y-23889D01*
X38639Y-23959D01*
X38601Y-24050D01*
X38601Y-24149D01*
X38601Y-24949D01*
X38621Y-24999D01*
X38601Y-25050D01*
X38601Y-25149D01*
X38601Y-25949D01*
X38639Y-26041D01*
X38709Y-26111D01*
X38800Y-26149D01*
X38899Y-26149D01*
X39499Y-26149D01*
X39591Y-26111D01*
X39661Y-26041D01*
X39699Y-25950D01*
X39699Y-26319D01*
X39058Y-26319D01*
X38966Y-26357D01*
X38896Y-26427D01*
X38858Y-26518D01*
X38858Y-26617D01*
X38858Y-28781D01*
X38896Y-28873D01*
X38966Y-28943D01*
X39057Y-28981D01*
X39156Y-28981D01*
X39942Y-28981D01*
X40034Y-28943D01*
X40104Y-28873D01*
X40142Y-28782D01*
X40142Y-30219D01*
X40104Y-30127D01*
X40034Y-30057D01*
X39943Y-30019D01*
X39844Y-30019D01*
X39058Y-30019D01*
X38966Y-30057D01*
X38896Y-30127D01*
X38858Y-30218D01*
X38858Y-30317D01*
X38858Y-32481D01*
X38896Y-32573D01*
X38966Y-32643D01*
X39057Y-32681D01*
X39156Y-32681D01*
X39942Y-32681D01*
X40034Y-32643D01*
X40104Y-32573D01*
X40142Y-32482D01*
X40142Y-36450D01*
X38650Y-36450D01*
X38650Y-30262D01*
X38650Y-30038D01*
X38649Y-29801D01*
X38649Y-29200D01*
X38649Y-29101D01*
X38649Y-28501D01*
X38611Y-28409D01*
X38541Y-28339D01*
X38450Y-28301D01*
X38400Y-28301D01*
X38400Y-25612D01*
X38400Y-25388D01*
X38399Y-25149D01*
X38399Y-25050D01*
X38378Y-25000D01*
X38399Y-24950D01*
X38399Y-24851D01*
X38400Y-24612D01*
X38400Y-24388D01*
X38399Y-24149D01*
X38399Y-24050D01*
X38361Y-23959D01*
X38291Y-23889D01*
X38204Y-23853D01*
X38204Y-22660D01*
X38204Y-22561D01*
X38166Y-22470D01*
X38096Y-22400D01*
X37650Y-21953D01*
X37650Y-19462D01*
X37650Y-19238D01*
X37649Y-19001D01*
X37611Y-18909D01*
X37541Y-18839D01*
X37450Y-18801D01*
X37351Y-18801D01*
X37112Y-18800D01*
X37050Y-18862D01*
X37050Y-19300D01*
X37588Y-19300D01*
X37650Y-19238D01*
X37650Y-19462D01*
X37588Y-19400D01*
X37050Y-19400D01*
X37050Y-19838D01*
X37112Y-19900D01*
X37351Y-19899D01*
X37450Y-19899D01*
X37541Y-19861D01*
X37611Y-19791D01*
X37649Y-19699D01*
X37650Y-19462D01*
X37650Y-21953D01*
X37649Y-21952D01*
X37649Y-21000D01*
X37649Y-20901D01*
X37649Y-20301D01*
X37611Y-20209D01*
X37541Y-20139D01*
X37450Y-20101D01*
X37351Y-20101D01*
X36950Y-20101D01*
X36950Y-19838D01*
X36950Y-19400D01*
X36950Y-19300D01*
X36950Y-18862D01*
X36888Y-18800D01*
X36649Y-18801D01*
X36550Y-18801D01*
X36500Y-18821D01*
X36450Y-18801D01*
X36351Y-18801D01*
X36112Y-18800D01*
X36050Y-18862D01*
X36050Y-19300D01*
X36412Y-19300D01*
X36588Y-19300D01*
X36950Y-19300D01*
X36950Y-19400D01*
X36588Y-19400D01*
X36412Y-19400D01*
X36050Y-19400D01*
X36050Y-19838D01*
X36112Y-19900D01*
X36351Y-19899D01*
X36450Y-19899D01*
X36500Y-19878D01*
X36550Y-19899D01*
X36649Y-19899D01*
X36888Y-19900D01*
X36950Y-19838D01*
X36950Y-20101D01*
X36551Y-20101D01*
X36500Y-20121D01*
X36450Y-20101D01*
X36351Y-20101D01*
X35950Y-20101D01*
X35950Y-19838D01*
X35950Y-19400D01*
X35950Y-19300D01*
X35950Y-18862D01*
X35888Y-18800D01*
X35649Y-18801D01*
X35550Y-18801D01*
X35459Y-18839D01*
X35389Y-18909D01*
X35351Y-19001D01*
X35350Y-19238D01*
X35412Y-19300D01*
X35950Y-19300D01*
X35950Y-19400D01*
X35412Y-19400D01*
X35350Y-19462D01*
X35351Y-19699D01*
X35389Y-19791D01*
X35459Y-19861D01*
X35550Y-19899D01*
X35649Y-19899D01*
X35888Y-19900D01*
X35950Y-19838D01*
X35950Y-20101D01*
X35551Y-20101D01*
X35459Y-20139D01*
X35389Y-20209D01*
X35351Y-20300D01*
X35351Y-20399D01*
X35351Y-20999D01*
X35389Y-21091D01*
X35459Y-21161D01*
X35550Y-21199D01*
X35649Y-21199D01*
X36449Y-21199D01*
X36499Y-21178D01*
X36550Y-21199D01*
X36649Y-21199D01*
X37449Y-21199D01*
X37541Y-21161D01*
X37611Y-21091D01*
X37649Y-21000D01*
X37649Y-21952D01*
X37531Y-21834D01*
X37439Y-21796D01*
X37340Y-21796D01*
X37249Y-21834D01*
X37179Y-21904D01*
X36754Y-22328D01*
X36716Y-22420D01*
X36716Y-22519D01*
X36754Y-22610D01*
X36824Y-22680D01*
X37389Y-23246D01*
X37481Y-23284D01*
X37580Y-23284D01*
X37671Y-23246D01*
X37741Y-23176D01*
X38166Y-22752D01*
X38204Y-22660D01*
X38204Y-23853D01*
X38199Y-23851D01*
X37962Y-23850D01*
X37900Y-23912D01*
X37900Y-24450D01*
X38338Y-24450D01*
X38400Y-24388D01*
X38400Y-24612D01*
X38338Y-24550D01*
X37900Y-24550D01*
X37900Y-24912D01*
X37900Y-25088D01*
X37900Y-25450D01*
X38338Y-25450D01*
X38400Y-25388D01*
X38400Y-25612D01*
X38338Y-25550D01*
X37900Y-25550D01*
X37900Y-26088D01*
X37962Y-26150D01*
X38199Y-26149D01*
X38291Y-26111D01*
X38361Y-26041D01*
X38399Y-25950D01*
X38399Y-25851D01*
X38400Y-25612D01*
X38400Y-28301D01*
X38351Y-28301D01*
X37800Y-28301D01*
X37800Y-26088D01*
X37800Y-25550D01*
X37800Y-25450D01*
X37800Y-25088D01*
X37800Y-24912D01*
X37800Y-24550D01*
X37800Y-24450D01*
X37800Y-23912D01*
X37738Y-23850D01*
X37501Y-23851D01*
X37409Y-23889D01*
X37339Y-23959D01*
X37301Y-24050D01*
X37301Y-24149D01*
X37300Y-24388D01*
X37362Y-24450D01*
X37800Y-24450D01*
X37800Y-24550D01*
X37362Y-24550D01*
X37300Y-24612D01*
X37301Y-24851D01*
X37301Y-24950D01*
X37321Y-25000D01*
X37301Y-25050D01*
X37301Y-25149D01*
X37300Y-25388D01*
X37362Y-25450D01*
X37800Y-25450D01*
X37800Y-25550D01*
X37362Y-25550D01*
X37300Y-25612D01*
X37301Y-25851D01*
X37301Y-25950D01*
X37339Y-26041D01*
X37409Y-26111D01*
X37501Y-26149D01*
X37738Y-26150D01*
X37800Y-26088D01*
X37800Y-28301D01*
X37551Y-28301D01*
X37459Y-28339D01*
X37389Y-28409D01*
X37351Y-28500D01*
X37351Y-28599D01*
X37351Y-28801D01*
X37284Y-28801D01*
X37284Y-23580D01*
X37284Y-23481D01*
X37246Y-23390D01*
X37176Y-23320D01*
X37008Y-23150D01*
X36920Y-23150D01*
X36850Y-23220D01*
X36850Y-23080D01*
X36850Y-22992D01*
X36680Y-22824D01*
X36610Y-22754D01*
X36519Y-22716D01*
X36420Y-22716D01*
X36328Y-22754D01*
X36160Y-22921D01*
X36160Y-23009D01*
X36540Y-23389D01*
X36850Y-23080D01*
X36850Y-23220D01*
X36611Y-23460D01*
X36991Y-23840D01*
X37079Y-23840D01*
X37246Y-23672D01*
X37284Y-23580D01*
X37284Y-28801D01*
X37150Y-28801D01*
X37150Y-25462D01*
X37150Y-25238D01*
X37149Y-25001D01*
X37111Y-24909D01*
X37041Y-24839D01*
X36950Y-24801D01*
X36920Y-24801D01*
X36920Y-23999D01*
X36920Y-23911D01*
X36540Y-23531D01*
X36469Y-23601D01*
X36469Y-23460D01*
X36089Y-23080D01*
X36001Y-23080D01*
X35834Y-23248D01*
X35796Y-23340D01*
X35796Y-23439D01*
X35834Y-23530D01*
X35904Y-23600D01*
X36072Y-23770D01*
X36160Y-23770D01*
X36469Y-23460D01*
X36469Y-23601D01*
X36230Y-23840D01*
X36230Y-23928D01*
X36400Y-24096D01*
X36470Y-24166D01*
X36561Y-24204D01*
X36660Y-24204D01*
X36752Y-24166D01*
X36920Y-23999D01*
X36920Y-24801D01*
X36851Y-24801D01*
X36612Y-24800D01*
X36550Y-24862D01*
X36550Y-25300D01*
X37088Y-25300D01*
X37150Y-25238D01*
X37150Y-25462D01*
X37088Y-25400D01*
X36550Y-25400D01*
X36550Y-25838D01*
X36612Y-25900D01*
X36851Y-25899D01*
X36950Y-25899D01*
X37041Y-25861D01*
X37111Y-25791D01*
X37149Y-25699D01*
X37150Y-25462D01*
X37150Y-28801D01*
X37149Y-28801D01*
X37149Y-27000D01*
X37149Y-26901D01*
X37149Y-26301D01*
X37111Y-26209D01*
X37041Y-26139D01*
X36950Y-26101D01*
X36851Y-26101D01*
X36450Y-26101D01*
X36450Y-25838D01*
X36450Y-25400D01*
X36450Y-25300D01*
X36450Y-24862D01*
X36388Y-24800D01*
X36149Y-24801D01*
X36050Y-24801D01*
X35959Y-24839D01*
X35889Y-24909D01*
X35851Y-25001D01*
X35850Y-25238D01*
X35912Y-25300D01*
X36450Y-25300D01*
X36450Y-25400D01*
X35912Y-25400D01*
X35850Y-25462D01*
X35851Y-25699D01*
X35889Y-25791D01*
X35959Y-25861D01*
X36050Y-25899D01*
X36149Y-25899D01*
X36388Y-25900D01*
X36450Y-25838D01*
X36450Y-26101D01*
X36051Y-26101D01*
X35959Y-26139D01*
X35889Y-26209D01*
X35851Y-26300D01*
X35851Y-26399D01*
X35851Y-26999D01*
X35889Y-27091D01*
X35959Y-27161D01*
X36050Y-27199D01*
X36149Y-27199D01*
X36949Y-27199D01*
X37041Y-27161D01*
X37111Y-27091D01*
X37149Y-27000D01*
X37149Y-28801D01*
X36551Y-28801D01*
X36459Y-28839D01*
X36389Y-28909D01*
X36351Y-29000D01*
X36351Y-29099D01*
X36351Y-29699D01*
X36389Y-29791D01*
X36459Y-29861D01*
X36550Y-29899D01*
X36649Y-29899D01*
X37350Y-29899D01*
X37350Y-30038D01*
X37362Y-30050D01*
X37350Y-30050D01*
X37350Y-30100D01*
X37112Y-30100D01*
X37050Y-30162D01*
X37050Y-30550D01*
X37050Y-30600D01*
X37050Y-30700D01*
X37050Y-30750D01*
X37050Y-31138D01*
X37112Y-31200D01*
X37351Y-31199D01*
X37450Y-31199D01*
X37541Y-31161D01*
X37611Y-31091D01*
X37649Y-30999D01*
X37650Y-30762D01*
X37638Y-30750D01*
X37650Y-30750D01*
X37650Y-30699D01*
X37888Y-30700D01*
X37950Y-30638D01*
X37950Y-30250D01*
X37950Y-30200D01*
X37950Y-30100D01*
X37950Y-30050D01*
X37950Y-29662D01*
X37888Y-29600D01*
X37649Y-29601D01*
X37649Y-29399D01*
X38449Y-29399D01*
X38541Y-29361D01*
X38611Y-29291D01*
X38649Y-29200D01*
X38649Y-29801D01*
X38611Y-29709D01*
X38541Y-29639D01*
X38450Y-29601D01*
X38351Y-29601D01*
X38112Y-29600D01*
X38050Y-29662D01*
X38050Y-30100D01*
X38588Y-30100D01*
X38650Y-30038D01*
X38650Y-30262D01*
X38588Y-30200D01*
X38050Y-30200D01*
X38050Y-30638D01*
X38112Y-30700D01*
X38351Y-30699D01*
X38450Y-30699D01*
X38541Y-30661D01*
X38611Y-30591D01*
X38649Y-30499D01*
X38650Y-30262D01*
X38650Y-36450D01*
X37950Y-36450D01*
X37650Y-36450D01*
X37139Y-36450D01*
X37139Y-34689D01*
X37139Y-34471D01*
X37055Y-34269D01*
X36901Y-34115D01*
X36816Y-34080D01*
X36901Y-34045D01*
X37055Y-33891D01*
X37139Y-33689D01*
X37139Y-33471D01*
X37055Y-33269D01*
X36950Y-33164D01*
X36950Y-31138D01*
X36950Y-30700D01*
X36950Y-30600D01*
X36950Y-30162D01*
X36888Y-30100D01*
X36649Y-30101D01*
X36550Y-30101D01*
X36459Y-30139D01*
X36389Y-30209D01*
X36351Y-30301D01*
X36350Y-30538D01*
X36412Y-30600D01*
X36950Y-30600D01*
X36950Y-30700D01*
X36412Y-30700D01*
X36350Y-30762D01*
X36351Y-30999D01*
X36389Y-31091D01*
X36459Y-31161D01*
X36550Y-31199D01*
X36649Y-31199D01*
X36888Y-31200D01*
X36950Y-31138D01*
X36950Y-33164D01*
X36901Y-33115D01*
X36699Y-33031D01*
X36481Y-33031D01*
X36279Y-33115D01*
X36125Y-33269D01*
X36090Y-33353D01*
X36055Y-33269D01*
X35901Y-33115D01*
X35699Y-33031D01*
X35481Y-33031D01*
X35279Y-33115D01*
X35150Y-33244D01*
X35150Y-19462D01*
X35150Y-19238D01*
X35149Y-19001D01*
X35111Y-18909D01*
X35041Y-18839D01*
X34950Y-18801D01*
X34851Y-18801D01*
X34612Y-18800D01*
X34550Y-18862D01*
X34550Y-19300D01*
X35088Y-19300D01*
X35150Y-19238D01*
X35150Y-19462D01*
X35088Y-19400D01*
X34550Y-19400D01*
X34550Y-19838D01*
X34612Y-19900D01*
X34851Y-19899D01*
X34950Y-19899D01*
X35041Y-19861D01*
X35111Y-19791D01*
X35149Y-19699D01*
X35150Y-19462D01*
X35150Y-33244D01*
X35149Y-33245D01*
X35149Y-21000D01*
X35149Y-20901D01*
X35149Y-20301D01*
X35111Y-20209D01*
X35041Y-20139D01*
X34950Y-20101D01*
X34851Y-20101D01*
X34450Y-20101D01*
X34450Y-19838D01*
X34450Y-19400D01*
X34450Y-19300D01*
X34450Y-18862D01*
X34388Y-18800D01*
X34149Y-18801D01*
X34050Y-18801D01*
X34000Y-18821D01*
X33950Y-18801D01*
X33851Y-18801D01*
X33612Y-18800D01*
X33550Y-18862D01*
X33550Y-19300D01*
X33912Y-19300D01*
X34088Y-19300D01*
X34450Y-19300D01*
X34450Y-19400D01*
X34088Y-19400D01*
X33912Y-19400D01*
X33550Y-19400D01*
X33550Y-19838D01*
X33612Y-19900D01*
X33851Y-19899D01*
X33950Y-19899D01*
X34000Y-19878D01*
X34050Y-19899D01*
X34149Y-19899D01*
X34388Y-19900D01*
X34450Y-19838D01*
X34450Y-20101D01*
X34051Y-20101D01*
X34000Y-20121D01*
X33950Y-20101D01*
X33851Y-20101D01*
X33450Y-20101D01*
X33450Y-19838D01*
X33450Y-19400D01*
X33450Y-19300D01*
X33450Y-18862D01*
X33388Y-18800D01*
X33149Y-18801D01*
X33149Y-16000D01*
X33149Y-15901D01*
X33149Y-15301D01*
X33149Y-14700D01*
X33149Y-14601D01*
X33149Y-14001D01*
X33111Y-13909D01*
X33041Y-13839D01*
X32950Y-13801D01*
X32851Y-13801D01*
X32051Y-13801D01*
X31990Y-13826D01*
X31952Y-13733D01*
X31861Y-13710D01*
X31790Y-13781D01*
X31790Y-13639D01*
X31767Y-13548D01*
X31574Y-13481D01*
X31370Y-13492D01*
X31233Y-13548D01*
X31210Y-13639D01*
X31500Y-13929D01*
X31790Y-13639D01*
X31790Y-13781D01*
X31606Y-13965D01*
X31571Y-14000D01*
X31500Y-14071D01*
X31465Y-14106D01*
X31429Y-14142D01*
X31429Y-14000D01*
X31139Y-13710D01*
X31048Y-13733D01*
X30981Y-13926D01*
X30992Y-14130D01*
X31048Y-14267D01*
X31139Y-14290D01*
X31429Y-14000D01*
X31429Y-14142D01*
X31210Y-14361D01*
X31233Y-14452D01*
X31426Y-14519D01*
X31630Y-14508D01*
X31767Y-14452D01*
X31775Y-14416D01*
X31790Y-14431D01*
X31807Y-14448D01*
X31851Y-14404D01*
X31851Y-14699D01*
X31889Y-14791D01*
X31959Y-14861D01*
X32050Y-14899D01*
X32149Y-14899D01*
X32949Y-14899D01*
X33041Y-14861D01*
X33111Y-14791D01*
X33149Y-14700D01*
X33149Y-15301D01*
X33111Y-15209D01*
X33041Y-15139D01*
X32950Y-15101D01*
X32851Y-15101D01*
X32051Y-15101D01*
X31959Y-15139D01*
X31889Y-15209D01*
X31851Y-15300D01*
X31851Y-15399D01*
X31851Y-15608D01*
X31798Y-15555D01*
X31790Y-15551D01*
X31605Y-15475D01*
X31396Y-15475D01*
X31203Y-15555D01*
X31055Y-15702D01*
X30975Y-15895D01*
X30975Y-16104D01*
X31055Y-16297D01*
X31202Y-16445D01*
X31395Y-16525D01*
X31604Y-16525D01*
X31797Y-16445D01*
X31945Y-16298D01*
X31995Y-16176D01*
X32050Y-16199D01*
X32149Y-16199D01*
X32949Y-16199D01*
X33041Y-16161D01*
X33111Y-16091D01*
X33149Y-16000D01*
X33149Y-18801D01*
X33050Y-18801D01*
X32959Y-18839D01*
X32889Y-18909D01*
X32851Y-19001D01*
X32850Y-19238D01*
X32912Y-19300D01*
X33450Y-19300D01*
X33450Y-19400D01*
X32912Y-19400D01*
X32850Y-19462D01*
X32851Y-19699D01*
X32889Y-19791D01*
X32959Y-19861D01*
X33050Y-19899D01*
X33149Y-19899D01*
X33388Y-19900D01*
X33450Y-19838D01*
X33450Y-20101D01*
X33051Y-20101D01*
X32959Y-20139D01*
X32889Y-20209D01*
X32851Y-20300D01*
X32851Y-20399D01*
X32851Y-20999D01*
X32889Y-21091D01*
X32959Y-21161D01*
X33050Y-21199D01*
X33149Y-21199D01*
X33949Y-21199D01*
X33999Y-21178D01*
X34050Y-21199D01*
X34149Y-21199D01*
X34949Y-21199D01*
X35041Y-21161D01*
X35111Y-21091D01*
X35149Y-21000D01*
X35149Y-33245D01*
X35125Y-33269D01*
X35087Y-33360D01*
X35062Y-33299D01*
X34968Y-33272D01*
X34898Y-33342D01*
X34898Y-33202D01*
X34871Y-33108D01*
X34704Y-33049D01*
X34704Y-23439D01*
X34704Y-23340D01*
X34666Y-23248D01*
X34499Y-23080D01*
X34411Y-23080D01*
X34340Y-23151D01*
X34340Y-23009D01*
X34340Y-22921D01*
X34172Y-22754D01*
X34080Y-22716D01*
X33981Y-22716D01*
X33890Y-22754D01*
X33820Y-22824D01*
X33784Y-22859D01*
X33784Y-22519D01*
X33784Y-22420D01*
X33746Y-22329D01*
X33676Y-22259D01*
X33252Y-21834D01*
X33160Y-21796D01*
X33061Y-21796D01*
X32970Y-21834D01*
X32900Y-21904D01*
X32334Y-22469D01*
X32296Y-22561D01*
X32296Y-22660D01*
X32334Y-22751D01*
X32404Y-22821D01*
X32828Y-23246D01*
X32920Y-23284D01*
X33019Y-23284D01*
X33110Y-23246D01*
X33180Y-23176D01*
X33746Y-22611D01*
X33784Y-22519D01*
X33784Y-22859D01*
X33650Y-22992D01*
X33650Y-23080D01*
X33960Y-23389D01*
X34340Y-23009D01*
X34340Y-23151D01*
X34031Y-23460D01*
X34340Y-23770D01*
X34428Y-23770D01*
X34596Y-23600D01*
X34666Y-23530D01*
X34704Y-23439D01*
X34704Y-33049D01*
X34669Y-33037D01*
X34456Y-33048D01*
X34309Y-33108D01*
X34282Y-33202D01*
X34590Y-33509D01*
X34898Y-33202D01*
X34898Y-33342D01*
X34661Y-33580D01*
X34968Y-33888D01*
X35062Y-33861D01*
X35085Y-33795D01*
X35125Y-33891D01*
X35279Y-34045D01*
X35363Y-34080D01*
X35279Y-34115D01*
X35139Y-34255D01*
X35139Y-34231D01*
X35101Y-34139D01*
X35031Y-34069D01*
X34940Y-34031D01*
X34877Y-34031D01*
X34898Y-33958D01*
X34590Y-33651D01*
X34519Y-33721D01*
X34519Y-33580D01*
X34270Y-33330D01*
X34270Y-23928D01*
X34270Y-23840D01*
X33960Y-23531D01*
X33889Y-23602D01*
X33889Y-23460D01*
X33580Y-23150D01*
X33492Y-23150D01*
X33324Y-23320D01*
X33254Y-23390D01*
X33216Y-23481D01*
X33216Y-23580D01*
X33254Y-23672D01*
X33421Y-23840D01*
X33509Y-23840D01*
X33889Y-23460D01*
X33889Y-23602D01*
X33580Y-23911D01*
X33580Y-23999D01*
X33748Y-24166D01*
X33840Y-24204D01*
X33939Y-24204D01*
X34030Y-24166D01*
X34100Y-24096D01*
X34270Y-23928D01*
X34270Y-33330D01*
X34212Y-33272D01*
X34199Y-33275D01*
X34199Y-27450D01*
X34199Y-27351D01*
X34199Y-26551D01*
X34178Y-26500D01*
X34199Y-26450D01*
X34199Y-26351D01*
X34199Y-25551D01*
X34161Y-25459D01*
X34091Y-25389D01*
X34000Y-25351D01*
X33901Y-25351D01*
X33699Y-25351D01*
X33699Y-24551D01*
X33661Y-24459D01*
X33591Y-24389D01*
X33500Y-24351D01*
X33401Y-24351D01*
X32801Y-24351D01*
X32709Y-24389D01*
X32639Y-24459D01*
X32601Y-24550D01*
X32601Y-24649D01*
X32601Y-25351D01*
X32399Y-25351D01*
X32399Y-24551D01*
X32361Y-24459D01*
X32299Y-24397D01*
X32666Y-24031D01*
X32704Y-23939D01*
X32704Y-23840D01*
X32666Y-23749D01*
X32596Y-23679D01*
X32172Y-23254D01*
X32080Y-23216D01*
X31981Y-23216D01*
X31890Y-23254D01*
X31820Y-23324D01*
X31784Y-23359D01*
X31784Y-23019D01*
X31784Y-22920D01*
X31746Y-22828D01*
X31579Y-22660D01*
X31491Y-22660D01*
X31420Y-22731D01*
X31420Y-22589D01*
X31420Y-22501D01*
X31252Y-22334D01*
X31160Y-22296D01*
X31061Y-22296D01*
X30970Y-22334D01*
X30900Y-22404D01*
X30730Y-22572D01*
X30730Y-22660D01*
X31040Y-22969D01*
X31420Y-22589D01*
X31420Y-22731D01*
X31111Y-23040D01*
X31420Y-23350D01*
X31508Y-23350D01*
X31676Y-23180D01*
X31746Y-23110D01*
X31784Y-23019D01*
X31784Y-23359D01*
X31350Y-23793D01*
X31350Y-23508D01*
X31350Y-23420D01*
X31040Y-23111D01*
X30969Y-23182D01*
X30969Y-23040D01*
X30660Y-22730D01*
X30572Y-22730D01*
X30404Y-22900D01*
X30334Y-22970D01*
X30296Y-23061D01*
X30296Y-23160D01*
X30334Y-23252D01*
X30501Y-23420D01*
X30589Y-23420D01*
X30969Y-23040D01*
X30969Y-23182D01*
X30660Y-23491D01*
X30660Y-23579D01*
X30828Y-23746D01*
X30920Y-23784D01*
X31019Y-23784D01*
X31110Y-23746D01*
X31180Y-23676D01*
X31350Y-23508D01*
X31350Y-23793D01*
X31254Y-23889D01*
X31216Y-23981D01*
X31216Y-24080D01*
X31254Y-24171D01*
X31324Y-24241D01*
X31453Y-24370D01*
X31409Y-24389D01*
X31339Y-24459D01*
X31301Y-24550D01*
X31301Y-24649D01*
X31301Y-25449D01*
X31339Y-25541D01*
X31352Y-25554D01*
X31344Y-25554D01*
X30558Y-25554D01*
X30466Y-25592D01*
X30396Y-25662D01*
X30379Y-25702D01*
X30379Y-24199D01*
X30379Y-24001D01*
X30303Y-23818D01*
X30163Y-23677D01*
X29979Y-23601D01*
X29781Y-23601D01*
X29598Y-23677D01*
X29464Y-23810D01*
X29025Y-23810D01*
X29025Y-16105D01*
X29025Y-15896D01*
X29019Y-15881D01*
X29019Y-14074D01*
X29008Y-13870D01*
X28952Y-13733D01*
X28861Y-13710D01*
X28790Y-13781D01*
X28790Y-13639D01*
X28767Y-13548D01*
X28574Y-13481D01*
X28370Y-13492D01*
X28233Y-13548D01*
X28210Y-13639D01*
X28500Y-13929D01*
X28790Y-13639D01*
X28790Y-13781D01*
X28571Y-14000D01*
X28861Y-14290D01*
X28952Y-14267D01*
X29019Y-14074D01*
X29019Y-15881D01*
X28945Y-15703D01*
X28798Y-15555D01*
X28790Y-15551D01*
X28790Y-14361D01*
X28500Y-14071D01*
X28429Y-14142D01*
X28429Y-14000D01*
X28139Y-13710D01*
X28048Y-13733D01*
X27981Y-13926D01*
X27992Y-14130D01*
X28048Y-14267D01*
X28139Y-14290D01*
X28429Y-14000D01*
X28429Y-14142D01*
X28210Y-14361D01*
X28233Y-14452D01*
X28426Y-14519D01*
X28630Y-14508D01*
X28767Y-14452D01*
X28790Y-14361D01*
X28790Y-15551D01*
X28605Y-15475D01*
X28396Y-15475D01*
X28203Y-15555D01*
X28055Y-15702D01*
X27975Y-15895D01*
X27975Y-16104D01*
X28055Y-16297D01*
X28202Y-16445D01*
X28395Y-16525D01*
X28604Y-16525D01*
X28797Y-16445D01*
X28945Y-16298D01*
X29025Y-16105D01*
X29025Y-23810D01*
X28320Y-23810D01*
X28226Y-23828D01*
X28208Y-23832D01*
X28114Y-23895D01*
X27799Y-24210D01*
X27507Y-24210D01*
X27549Y-24109D01*
X27549Y-23891D01*
X27465Y-23689D01*
X27311Y-23535D01*
X27226Y-23500D01*
X27311Y-23465D01*
X27465Y-23311D01*
X27549Y-23109D01*
X27549Y-22891D01*
X27465Y-22689D01*
X27311Y-22535D01*
X27226Y-22500D01*
X27311Y-22465D01*
X27465Y-22311D01*
X27549Y-22109D01*
X27549Y-21891D01*
X27465Y-21689D01*
X27311Y-21535D01*
X27226Y-21500D01*
X27311Y-21465D01*
X27465Y-21311D01*
X27549Y-21109D01*
X27549Y-20891D01*
X27465Y-20689D01*
X27311Y-20535D01*
X27226Y-20500D01*
X27311Y-20465D01*
X27465Y-20311D01*
X27549Y-20109D01*
X27549Y-19891D01*
X27465Y-19689D01*
X27311Y-19535D01*
X27226Y-19500D01*
X27311Y-19465D01*
X27465Y-19311D01*
X27549Y-19109D01*
X27549Y-18891D01*
X27465Y-18689D01*
X27311Y-18535D01*
X27226Y-18500D01*
X27311Y-18465D01*
X27465Y-18311D01*
X27549Y-18109D01*
X27549Y-17891D01*
X27465Y-17689D01*
X27311Y-17535D01*
X27226Y-17500D01*
X27311Y-17465D01*
X27465Y-17311D01*
X27549Y-17109D01*
X27549Y-16891D01*
X27465Y-16689D01*
X27311Y-16535D01*
X27226Y-16500D01*
X27311Y-16465D01*
X27465Y-16311D01*
X27549Y-16109D01*
X27549Y-15891D01*
X27465Y-15689D01*
X27311Y-15535D01*
X27226Y-15500D01*
X27311Y-15465D01*
X27465Y-15311D01*
X27549Y-15109D01*
X27549Y-14891D01*
X27543Y-14876D01*
X27543Y-14079D01*
X27532Y-13866D01*
X27472Y-13719D01*
X27378Y-13692D01*
X27071Y-14000D01*
X27378Y-14308D01*
X27472Y-14281D01*
X27543Y-14079D01*
X27543Y-14876D01*
X27465Y-14689D01*
X27311Y-14535D01*
X27219Y-14497D01*
X27281Y-14472D01*
X27308Y-14378D01*
X27000Y-14071D01*
X26692Y-14378D01*
X26719Y-14472D01*
X26784Y-14495D01*
X26689Y-14535D01*
X26535Y-14689D01*
X26500Y-14773D01*
X26465Y-14689D01*
X26311Y-14535D01*
X26226Y-14500D01*
X26311Y-14465D01*
X26465Y-14311D01*
X26502Y-14219D01*
X26528Y-14281D01*
X26622Y-14308D01*
X26929Y-14000D01*
X26622Y-13692D01*
X26528Y-13719D01*
X26504Y-13784D01*
X26465Y-13689D01*
X26311Y-13535D01*
X26226Y-13500D01*
X26311Y-13465D01*
X26450Y-13325D01*
X26451Y-13349D01*
X26489Y-13441D01*
X26559Y-13511D01*
X26650Y-13549D01*
X26712Y-13549D01*
X26692Y-13622D01*
X27000Y-13929D01*
X27308Y-13622D01*
X27287Y-13549D01*
X27350Y-13549D01*
X27441Y-13511D01*
X27511Y-13441D01*
X27549Y-13349D01*
X27550Y-13112D01*
X27550Y-12888D01*
X27549Y-12651D01*
X27511Y-12559D01*
X27441Y-12489D01*
X27350Y-12451D01*
X27251Y-12451D01*
X27112Y-12450D01*
X27050Y-12512D01*
X27050Y-12950D01*
X27488Y-12950D01*
X27550Y-12888D01*
X27550Y-13112D01*
X27488Y-13050D01*
X27100Y-13050D01*
X27050Y-13050D01*
X26950Y-13050D01*
X26950Y-12950D01*
X26950Y-12900D01*
X26950Y-12512D01*
X26888Y-12450D01*
X26749Y-12451D01*
X26650Y-12451D01*
X26559Y-12489D01*
X26489Y-12559D01*
X26451Y-12651D01*
X26450Y-12674D01*
X26311Y-12535D01*
X26109Y-12451D01*
X25891Y-12451D01*
X25689Y-12535D01*
X25535Y-12689D01*
X25451Y-12891D01*
X25451Y-13109D01*
X25535Y-13311D01*
X25689Y-13465D01*
X25773Y-13500D01*
X25689Y-13535D01*
X25535Y-13689D01*
X25451Y-13891D01*
X25451Y-14109D01*
X25535Y-14311D01*
X25689Y-14465D01*
X25773Y-14500D01*
X25689Y-14535D01*
X25535Y-14689D01*
X25451Y-14891D01*
X25451Y-15109D01*
X25535Y-15311D01*
X25689Y-15465D01*
X25773Y-15500D01*
X25689Y-15535D01*
X25535Y-15689D01*
X25451Y-15891D01*
X25451Y-16109D01*
X25535Y-16311D01*
X25689Y-16465D01*
X25773Y-16500D01*
X25689Y-16535D01*
X25535Y-16689D01*
X25451Y-16891D01*
X25451Y-17109D01*
X25535Y-17311D01*
X25689Y-17465D01*
X25773Y-17500D01*
X25689Y-17535D01*
X25535Y-17689D01*
X25451Y-17891D01*
X25451Y-18109D01*
X25535Y-18311D01*
X25689Y-18465D01*
X25773Y-18500D01*
X25689Y-18535D01*
X25535Y-18689D01*
X25451Y-18891D01*
X25451Y-19109D01*
X25535Y-19311D01*
X25689Y-19465D01*
X25773Y-19500D01*
X25689Y-19535D01*
X25535Y-19689D01*
X25451Y-19891D01*
X25451Y-20109D01*
X25535Y-20311D01*
X25689Y-20465D01*
X25773Y-20500D01*
X25689Y-20535D01*
X25535Y-20689D01*
X25451Y-20891D01*
X25451Y-21109D01*
X25535Y-21311D01*
X25689Y-21465D01*
X25773Y-21500D01*
X25689Y-21535D01*
X25535Y-21689D01*
X25451Y-21891D01*
X25451Y-22109D01*
X25535Y-22311D01*
X25689Y-22465D01*
X25773Y-22500D01*
X25689Y-22535D01*
X25535Y-22689D01*
X25451Y-22891D01*
X25451Y-23109D01*
X25535Y-23311D01*
X25689Y-23465D01*
X25773Y-23500D01*
X25689Y-23535D01*
X25535Y-23689D01*
X25451Y-23891D01*
X25451Y-24109D01*
X25535Y-24311D01*
X25689Y-24465D01*
X25773Y-24500D01*
X25689Y-24535D01*
X25535Y-24689D01*
X25451Y-24891D01*
X25451Y-25109D01*
X25535Y-25311D01*
X25689Y-25465D01*
X25773Y-25500D01*
X25689Y-25535D01*
X25535Y-25689D01*
X25451Y-25891D01*
X25451Y-26109D01*
X25535Y-26311D01*
X25689Y-26465D01*
X25773Y-26500D01*
X25689Y-26535D01*
X25535Y-26689D01*
X25451Y-26891D01*
X25451Y-27109D01*
X25535Y-27311D01*
X25689Y-27465D01*
X25773Y-27500D01*
X25689Y-27535D01*
X25535Y-27689D01*
X25451Y-27891D01*
X25451Y-28109D01*
X25535Y-28311D01*
X25689Y-28465D01*
X25773Y-28500D01*
X25689Y-28535D01*
X25535Y-28689D01*
X25451Y-28891D01*
X25451Y-29109D01*
X25535Y-29311D01*
X25689Y-29465D01*
X25773Y-29500D01*
X25689Y-29535D01*
X25535Y-29689D01*
X25451Y-29891D01*
X25451Y-30109D01*
X25535Y-30311D01*
X25689Y-30465D01*
X25773Y-30500D01*
X25689Y-30535D01*
X25535Y-30689D01*
X25451Y-30891D01*
X25451Y-31109D01*
X25535Y-31311D01*
X25689Y-31465D01*
X25773Y-31500D01*
X25689Y-31535D01*
X25535Y-31689D01*
X25451Y-31891D01*
X25451Y-32109D01*
X25535Y-32311D01*
X25689Y-32465D01*
X25891Y-32549D01*
X26109Y-32549D01*
X26311Y-32465D01*
X26465Y-32311D01*
X26500Y-32226D01*
X26535Y-32311D01*
X26689Y-32465D01*
X26891Y-32549D01*
X27109Y-32549D01*
X27311Y-32465D01*
X27465Y-32311D01*
X27549Y-32109D01*
X27549Y-31891D01*
X27465Y-31689D01*
X27311Y-31535D01*
X27226Y-31500D01*
X27311Y-31465D01*
X27465Y-31311D01*
X27549Y-31109D01*
X27549Y-30891D01*
X27465Y-30689D01*
X27311Y-30535D01*
X27226Y-30500D01*
X27311Y-30465D01*
X27465Y-30311D01*
X27549Y-30109D01*
X27549Y-29891D01*
X27465Y-29689D01*
X27311Y-29535D01*
X27226Y-29500D01*
X27311Y-29465D01*
X27465Y-29311D01*
X27549Y-29109D01*
X27549Y-28891D01*
X27465Y-28689D01*
X27311Y-28535D01*
X27226Y-28500D01*
X27311Y-28465D01*
X27465Y-28311D01*
X27549Y-28109D01*
X27549Y-27891D01*
X27465Y-27689D01*
X27311Y-27535D01*
X27226Y-27500D01*
X27311Y-27465D01*
X27465Y-27311D01*
X27549Y-27109D01*
X27549Y-26891D01*
X27465Y-26689D01*
X27311Y-26535D01*
X27226Y-26500D01*
X27311Y-26465D01*
X27465Y-26311D01*
X27549Y-26109D01*
X27549Y-25891D01*
X27465Y-25689D01*
X27311Y-25535D01*
X27226Y-25500D01*
X27311Y-25465D01*
X27465Y-25311D01*
X27549Y-25109D01*
X27549Y-24891D01*
X27507Y-24790D01*
X27920Y-24790D01*
X28031Y-24768D01*
X28125Y-24705D01*
X28440Y-24390D01*
X29464Y-24390D01*
X29597Y-24523D01*
X29781Y-24599D01*
X29979Y-24599D01*
X30162Y-24523D01*
X30303Y-24383D01*
X30379Y-24199D01*
X30379Y-25702D01*
X30358Y-25753D01*
X30358Y-25852D01*
X30358Y-26246D01*
X30359Y-26249D01*
X30358Y-26253D01*
X30358Y-26352D01*
X30358Y-26746D01*
X30359Y-26749D01*
X30358Y-26753D01*
X30358Y-26852D01*
X30358Y-27246D01*
X30359Y-27249D01*
X30358Y-27253D01*
X30358Y-27352D01*
X30358Y-27746D01*
X30396Y-27838D01*
X30466Y-27908D01*
X30557Y-27946D01*
X30656Y-27946D01*
X31373Y-27946D01*
X31351Y-28000D01*
X31351Y-28099D01*
X31351Y-28699D01*
X31389Y-28791D01*
X31459Y-28861D01*
X31550Y-28899D01*
X31649Y-28899D01*
X32399Y-28899D01*
X32389Y-28909D01*
X32351Y-29000D01*
X32351Y-29099D01*
X32351Y-29101D01*
X32112Y-29100D01*
X32050Y-29162D01*
X32050Y-29550D01*
X32050Y-29600D01*
X32050Y-29700D01*
X32050Y-29750D01*
X32050Y-30138D01*
X32112Y-30200D01*
X32351Y-30199D01*
X32399Y-30199D01*
X32389Y-30209D01*
X32351Y-30301D01*
X32350Y-30538D01*
X32412Y-30600D01*
X32950Y-30600D01*
X32950Y-30162D01*
X32888Y-30100D01*
X32649Y-30101D01*
X32601Y-30101D01*
X32611Y-30091D01*
X32649Y-29999D01*
X32649Y-29899D01*
X33449Y-29899D01*
X33541Y-29861D01*
X33611Y-29791D01*
X33649Y-29700D01*
X33649Y-29601D01*
X33649Y-29001D01*
X33611Y-28909D01*
X33541Y-28839D01*
X33450Y-28801D01*
X33351Y-28801D01*
X32601Y-28801D01*
X32611Y-28791D01*
X32649Y-28700D01*
X32649Y-28601D01*
X32649Y-28001D01*
X32611Y-27909D01*
X32541Y-27839D01*
X32450Y-27801D01*
X32351Y-27801D01*
X31619Y-27801D01*
X31642Y-27747D01*
X31642Y-27648D01*
X31642Y-27254D01*
X31640Y-27250D01*
X31642Y-27247D01*
X31642Y-27148D01*
X31642Y-26754D01*
X31640Y-26750D01*
X31642Y-26747D01*
X31642Y-26648D01*
X31642Y-26254D01*
X31640Y-26250D01*
X31642Y-26247D01*
X31642Y-26148D01*
X31642Y-25754D01*
X31604Y-25662D01*
X31591Y-25649D01*
X31599Y-25649D01*
X31801Y-25649D01*
X31801Y-26449D01*
X31821Y-26499D01*
X31801Y-26550D01*
X31801Y-26649D01*
X31801Y-27449D01*
X31839Y-27541D01*
X31909Y-27611D01*
X32000Y-27649D01*
X32099Y-27649D01*
X32699Y-27649D01*
X32791Y-27611D01*
X32861Y-27541D01*
X32899Y-27450D01*
X32899Y-27351D01*
X32899Y-26551D01*
X32878Y-26500D01*
X32899Y-26450D01*
X32899Y-26351D01*
X32899Y-25649D01*
X33101Y-25649D01*
X33101Y-26449D01*
X33121Y-26499D01*
X33101Y-26550D01*
X33101Y-26649D01*
X33101Y-27449D01*
X33139Y-27541D01*
X33209Y-27611D01*
X33300Y-27649D01*
X33399Y-27649D01*
X33999Y-27649D01*
X34091Y-27611D01*
X34161Y-27541D01*
X34199Y-27450D01*
X34199Y-33275D01*
X34118Y-33299D01*
X34047Y-33501D01*
X34058Y-33714D01*
X34118Y-33861D01*
X34212Y-33888D01*
X34519Y-33580D01*
X34519Y-33721D01*
X34282Y-33958D01*
X34302Y-34031D01*
X34241Y-34031D01*
X34149Y-34069D01*
X34079Y-34139D01*
X34041Y-34230D01*
X34041Y-34329D01*
X34041Y-34929D01*
X34079Y-35021D01*
X34149Y-35091D01*
X34240Y-35129D01*
X34339Y-35129D01*
X34939Y-35129D01*
X35031Y-35091D01*
X35101Y-35021D01*
X35139Y-34930D01*
X35139Y-34905D01*
X35279Y-35045D01*
X35481Y-35129D01*
X35699Y-35129D01*
X35901Y-35045D01*
X36055Y-34891D01*
X36090Y-34806D01*
X36125Y-34891D01*
X36279Y-35045D01*
X36481Y-35129D01*
X36699Y-35129D01*
X36901Y-35045D01*
X37055Y-34891D01*
X37139Y-34689D01*
X37139Y-36450D01*
X33650Y-36450D01*
X33650Y-30762D01*
X33650Y-30538D01*
X33649Y-30301D01*
X33611Y-30209D01*
X33541Y-30139D01*
X33450Y-30101D01*
X33351Y-30101D01*
X33112Y-30100D01*
X33050Y-30162D01*
X33050Y-30600D01*
X33588Y-30600D01*
X33650Y-30538D01*
X33650Y-30762D01*
X33588Y-30700D01*
X33050Y-30700D01*
X33050Y-31138D01*
X33112Y-31200D01*
X33351Y-31199D01*
X33450Y-31199D01*
X33541Y-31161D01*
X33611Y-31091D01*
X33649Y-30999D01*
X33650Y-30762D01*
X33650Y-36450D01*
X32950Y-36450D01*
X32950Y-31138D01*
X32950Y-30700D01*
X32412Y-30700D01*
X32350Y-30762D01*
X32351Y-30999D01*
X32389Y-31091D01*
X32459Y-31161D01*
X32550Y-31199D01*
X32649Y-31199D01*
X32888Y-31200D01*
X32950Y-31138D01*
X32950Y-36450D01*
X32699Y-36450D01*
X32699Y-35450D01*
X32699Y-35351D01*
X32699Y-34551D01*
X32678Y-34500D01*
X32699Y-34450D01*
X32699Y-34351D01*
X32699Y-33551D01*
X32678Y-33500D01*
X32699Y-33450D01*
X32699Y-33351D01*
X32699Y-32551D01*
X32661Y-32459D01*
X32591Y-32389D01*
X32500Y-32351D01*
X32401Y-32351D01*
X31950Y-32351D01*
X31950Y-30138D01*
X31950Y-29700D01*
X31950Y-29600D01*
X31950Y-29162D01*
X31888Y-29100D01*
X31649Y-29101D01*
X31550Y-29101D01*
X31459Y-29139D01*
X31389Y-29209D01*
X31351Y-29301D01*
X31350Y-29538D01*
X31412Y-29600D01*
X31950Y-29600D01*
X31950Y-29700D01*
X31412Y-29700D01*
X31350Y-29762D01*
X31351Y-29999D01*
X31389Y-30091D01*
X31459Y-30161D01*
X31550Y-30199D01*
X31649Y-30199D01*
X31888Y-30200D01*
X31950Y-30138D01*
X31950Y-32351D01*
X31801Y-32351D01*
X31709Y-32389D01*
X31639Y-32459D01*
X31601Y-32550D01*
X31601Y-32649D01*
X31601Y-33449D01*
X31621Y-33499D01*
X31601Y-33550D01*
X31601Y-33649D01*
X31601Y-34449D01*
X31621Y-34499D01*
X31601Y-34550D01*
X31601Y-34649D01*
X31601Y-35449D01*
X31639Y-35541D01*
X31709Y-35611D01*
X31800Y-35649D01*
X31899Y-35649D01*
X32499Y-35649D01*
X32591Y-35611D01*
X32661Y-35541D01*
X32699Y-35450D01*
X32699Y-36450D01*
X31399Y-36450D01*
X31399Y-35450D01*
X31399Y-35351D01*
X31399Y-34551D01*
X31378Y-34500D01*
X31399Y-34450D01*
X31399Y-34351D01*
X31399Y-33551D01*
X31378Y-33500D01*
X31399Y-33450D01*
X31399Y-33351D01*
X31399Y-32551D01*
X31361Y-32459D01*
X31291Y-32389D01*
X31200Y-32351D01*
X31199Y-32351D01*
X31199Y-30450D01*
X31199Y-30351D01*
X31199Y-29551D01*
X31161Y-29459D01*
X31091Y-29389D01*
X31000Y-29351D01*
X30901Y-29351D01*
X30642Y-29351D01*
X30642Y-28747D01*
X30642Y-28648D01*
X30642Y-28254D01*
X30604Y-28162D01*
X30534Y-28092D01*
X30443Y-28054D01*
X30344Y-28054D01*
X30148Y-28054D01*
X30161Y-28041D01*
X30199Y-27950D01*
X30199Y-27851D01*
X30199Y-27051D01*
X30178Y-27000D01*
X30199Y-26950D01*
X30199Y-26851D01*
X30200Y-26612D01*
X30200Y-26388D01*
X30199Y-26149D01*
X30199Y-26050D01*
X30161Y-25959D01*
X30091Y-25889D01*
X29999Y-25851D01*
X29762Y-25850D01*
X29700Y-25912D01*
X29700Y-26450D01*
X30138Y-26450D01*
X30200Y-26388D01*
X30200Y-26612D01*
X30138Y-26550D01*
X29750Y-26550D01*
X29700Y-26550D01*
X29600Y-26550D01*
X29600Y-26450D01*
X29600Y-25912D01*
X29538Y-25850D01*
X29301Y-25851D01*
X29209Y-25889D01*
X29139Y-25959D01*
X29101Y-26050D01*
X29101Y-26149D01*
X29100Y-26388D01*
X29162Y-26450D01*
X29600Y-26450D01*
X29600Y-26550D01*
X29550Y-26550D01*
X29162Y-26550D01*
X29100Y-26612D01*
X29101Y-26851D01*
X29101Y-26950D01*
X29121Y-27000D01*
X29101Y-27050D01*
X29101Y-27149D01*
X29101Y-27949D01*
X29139Y-28041D01*
X29209Y-28111D01*
X29300Y-28149D01*
X29399Y-28149D01*
X29409Y-28149D01*
X29396Y-28162D01*
X29358Y-28253D01*
X29358Y-28352D01*
X29358Y-28746D01*
X29396Y-28838D01*
X29466Y-28908D01*
X29557Y-28946D01*
X29656Y-28946D01*
X30442Y-28946D01*
X30534Y-28908D01*
X30604Y-28838D01*
X30642Y-28747D01*
X30642Y-29351D01*
X30301Y-29351D01*
X30209Y-29389D01*
X30139Y-29459D01*
X30115Y-29515D01*
X29884Y-29515D01*
X29861Y-29459D01*
X29791Y-29389D01*
X29700Y-29351D01*
X29601Y-29351D01*
X29001Y-29351D01*
X28909Y-29389D01*
X28899Y-29399D01*
X28899Y-27950D01*
X28899Y-27851D01*
X28899Y-27051D01*
X28878Y-27000D01*
X28899Y-26950D01*
X28899Y-26851D01*
X28899Y-26051D01*
X28861Y-25959D01*
X28791Y-25889D01*
X28700Y-25851D01*
X28601Y-25851D01*
X28001Y-25851D01*
X27909Y-25889D01*
X27839Y-25959D01*
X27801Y-26050D01*
X27801Y-26149D01*
X27801Y-26949D01*
X27821Y-26999D01*
X27801Y-27050D01*
X27801Y-27149D01*
X27801Y-27949D01*
X27839Y-28041D01*
X27909Y-28111D01*
X28000Y-28149D01*
X28099Y-28149D01*
X28699Y-28149D01*
X28791Y-28111D01*
X28861Y-28041D01*
X28899Y-27950D01*
X28899Y-29399D01*
X28839Y-29459D01*
X28801Y-29550D01*
X28801Y-29649D01*
X28801Y-30449D01*
X28839Y-30541D01*
X28909Y-30611D01*
X29000Y-30649D01*
X29099Y-30649D01*
X29699Y-30649D01*
X29791Y-30611D01*
X29861Y-30541D01*
X29899Y-30450D01*
X29899Y-30407D01*
X30101Y-30407D01*
X30101Y-30449D01*
X30139Y-30541D01*
X30209Y-30611D01*
X30300Y-30649D01*
X30399Y-30649D01*
X30999Y-30649D01*
X31091Y-30611D01*
X31161Y-30541D01*
X31199Y-30450D01*
X31199Y-32351D01*
X31101Y-32351D01*
X30501Y-32351D01*
X30409Y-32389D01*
X30339Y-32459D01*
X30301Y-32550D01*
X30301Y-32649D01*
X30301Y-33449D01*
X30321Y-33499D01*
X30301Y-33550D01*
X30301Y-33649D01*
X30301Y-34449D01*
X30321Y-34499D01*
X30301Y-34550D01*
X30301Y-34649D01*
X30301Y-35449D01*
X30339Y-35541D01*
X30409Y-35611D01*
X30500Y-35649D01*
X30599Y-35649D01*
X31199Y-35649D01*
X31291Y-35611D01*
X31361Y-35541D01*
X31399Y-35450D01*
X31399Y-36450D01*
X24050Y-36450D01*
X24050Y-11050D01*
X46950Y-11050D01*
X46950Y-36450D01*
M02*
